<svg xmlns="http://www.w3.org/2000/svg" viewBox="0 0 384.28 204.37"><defs><style>.cls-1{fill:#d46585;}.cls-2{fill:#eeadc0;}.cls-3{fill:#bd4c6d;}.cls-4{fill:#f8f1d3;}.cls-5{fill:#f5e8b2;}.cls-6{fill:#ee7196;}.cls-7{fill:#e7d485;}.cls-8{fill:#cb5074;}.cls-9{fill:#dd5a80;}.cls-10{fill:#f1acc0;}.cls-11{fill:#e97c9c;}.cls-12{fill:#ec86a4;}.cls-13{fill:#9ac16b;}.cls-14{fill:#e55a78;}.cls-15{fill:#db4464;}.cls-16{fill:#fff;fill-opacity:0.5;}.cls-17{fill:#39c;}.cls-18{fill:#71cefc;}.cls-19{fill:#78a343;}.cls-20{fill:#b2e4fc;}</style></defs><title>cake15</title><g id="Layer_2" data-name="Layer 2"><g id="OBJECTS"><g id="Layer_2-2" data-name="Layer 2"><g id="Layer0_0_MEMBER_0_FILL" data-name="Layer0 0 MEMBER 0 FILL"><path class="cls-1" d="M.6,155.21a12.62,12.62,0,0,0-.6,3.84q0,18.76,56.26,32.07t135.91,13.25q79.52,0,135.84-13.25t56.27-32.07a12.63,12.63,0,0,0-.61-3.84Q378.42,171.5,328,183.42q-56.31,13.26-135.84,13.25T56.26,183.42Q5.86,171.5.6,155.21M73.26,127.1q-47.52,9.41-47.52,22.72t47.52,22.71q47.46,9.41,114.62,9.4t114.67-9.4q47.52-9.41,47.52-22.71T302.55,127.1q-47.52-9.46-114.67-9.46T73.26,127.1m11.44,2.26q42.74-8.54,103.18-8.53t103.17,8.53q42.79,8.46,42.79,20.46t-42.79,20.4q-42.74,8.47-103.17,8.47T84.7,170.22Q42,161.75,42,149.82T84.7,129.36Z"/><path class="cls-2" d="M0,151.36a12.73,12.73,0,0,0,.6,3.85q5.27,16.29,55.66,28.21,56.33,13.26,135.91,13.25T328,183.42q50.42-11.92,55.66-28.21a12.74,12.74,0,0,0,.61-3.85q0-18.81-56.27-32.07T192.17,106q-79.59,0-135.91,13.31T0,151.36m25.74-1.54q0-13.32,47.52-22.72t114.62-9.46q67.14,0,114.67,9.46t47.52,22.72q0,13.31-47.52,22.71t-114.67,9.4q-67.15,0-114.62-9.4T25.74,149.82Z"/><path class="cls-3" d="M187.88,120.83q-60.45,0-103.18,8.53T42,149.82q0,11.93,42.74,20.4t103.18,8.47q60.44,0,103.17-8.47t42.79-20.4q0-12-42.79-20.46T187.88,120.83Z"/></g><g id="Layer0_0_MEMBER_1_FILL" data-name="Layer0 0 MEMBER 1 FILL"><path class="cls-4" d="M333.13,139.11q-25.8-9.8-29.2,20,24.1-8.35,29.2-20m-37.65,15q-1,3.41-2.6,8.4,5.91-1.65,10.95-3.35a46.66,46.66,0,0,0-8.35-5.05m7.9-94.8q-4.14.8-8.4,1.65.9,4.05,2.8,17.1a133.36,133.36,0,0,1,1.4,23.25q-.39,10.24-.1,23.8t-1.85,22.5c.7.47,1.4,1,2.1,1.45q11.46-24.35,35.2-16.05,6.15-43.9,11.05-88.85Q336.84,52.46,303.38,59.36Z"/><path class="cls-5" d="M292.88,162.56q1.61-5,2.6-8.4-20-9.45-30.2,14.35,15.56-2.7,27.6-5.95m-148.8,7.05q-20.19-37.35-42.35-6.25,18.21,3.75,42.35,6.25M87.83,157q2.1,2.2,3.75,4.05,4.86,1.2,10.15,2.3-4.44-21.6-15-21.4-1,12.85,1.15,15m134.4,17q-20-29.65-42.15-1.6,19.6,1.09,42.15,1.6m-42.2-1.6q-19.25-25.35-35.8-2.8,16.5,1.65,35.8,2.8m85.2-3.9q-23.19-23.3-43,5.5,24.06-2.3,43-5.5m33.95-67.15a133.36,133.36,0,0,0-1.4-23.25q-1.89-13-2.8-17.1Q252,68.77,193.38,70q-61,1.35-105.25-5.15L87.33,96q2.76,3.45-.2,8.65L86.53,127q-.19,4.65-.15,8.35,12.6-2.35,19,15.85,22.46-20.7,41.25,10.2,18.85-23.45,34,4.4,20.55-27.4,40.8-1,16-24.79,40.95-5.05,16.91-23.25,34.9-12,2.2-8.9,1.85-22.5t.1-23.8m-169.1-15q9.85-14.35,14.15.75.75,10.65-11,14.6-14.85-2.15-15.3-15.35.85-11.89,12.15,0m-25,29.8a3.08,3.08,0,0,1,1-2.25,3.11,3.11,0,0,1,2.25-.95,3,3,0,0,1,2.25.95,3,3,0,0,1,1,2.25,3,3,0,0,1-1,2.25,3,3,0,0,1-2.25,1,3.11,3.11,0,0,1-2.25-1,3,3,0,0,1-1-2.25m72.55-23.5a3,3,0,0,1-3,3.05,2.94,2.94,0,0,1-2.15-.9,2.83,2.83,0,0,1-.9-2.15,2.78,2.78,0,0,1,.9-2.1,3,3,0,0,1,4.3,0,2.85,2.85,0,0,1,.85,2.1m-11.15,27.85a7.3,7.3,0,0,1,1.1,5c0,.27-.06.53-.1.8a21.52,21.52,0,0,1-11.35,13.5q-4.95-.65-9.1-5.4-8.85-12.7-2.95-16.3,7.15-3.6,11.6,5.4,4.2-9.19,10.8-3m40.6-19q6.66-12.6,11.3-5.3,4.11,9.45-6.95,16.15-6.65,3.2-13.1-4-5.7-10.2-1.6-13.4,5.91-4.4,10.35,6.6m40.2-18.8a2.4,2.4,0,0,1-2.5,2.5,2.48,2.48,0,0,1-1.75-.7,2.57,2.57,0,0,1-.7-1.8,2.51,2.51,0,0,1,.7-1.75,2.48,2.48,0,0,1,1.75-.7,2.53,2.53,0,0,1,1.8.7,2.46,2.46,0,0,1,.7,1.75M211.88,131a3.43,3.43,0,0,1-3.25,3.25,3.21,3.21,0,0,1-2.35-1,3.15,3.15,0,0,1-.9-2.25,3.16,3.16,0,0,1,3.25-3.25,3.08,3.08,0,0,1,2.25,1A3.15,3.15,0,0,1,211.88,131Z"/><path class="cls-6" d="M333.13,139.11a17.43,17.43,0,0,0,1.4-6.05q-23.75-8.3-35.2,16.05c-.7-.5-1.4-1-2.1-1.45q-.64,2.59-1.45,5.3-.15.56-.3,1.2a46.66,46.66,0,0,1,8.35,5.05.19.19,0,0,1,.1-.05Q307.33,129.31,333.13,139.11Z"/><path class="cls-7" d="M68.23,153.31q-1.1-26.75-22.15-22.8,1.56,13.45,22.15,22.8m23.35,7.75q-1.65-1.84-3.75-4.05t-1.15-15q-7.59.1-18.3,11.4a145.58,145.58,0,0,0,23.2,7.7m-3.45-96.2L83,64.06q-34.25-5.51-43.05-13.5l5.85,75.25q23.66-9.7,26.5,16.9,7.86-6.26,14.1-7.4,0-3.7.15-8.35l.6-22.35q-2.85,4.9-10.75,11.35-23.25-9.49-15.85-19.4,7.91-6.34,13,4.85Q79,89.22,86.93,95.56l.4.4.8-31.1m-19.8,6.25a2.72,2.72,0,0,1-.9,2,2.77,2.77,0,0,1-2.05.85,3,3,0,0,1-2.1-.85,2.9,2.9,0,0,1-.8-2,2.75,2.75,0,0,1,2.9-2.9,2.9,2.9,0,0,1,3,2.9Z"/><path class="cls-8" d="M86.63,141.41c-.1-1.73-.18-3.77-.25-6.1q-6.24,1.16-14.1,7.4-2.85-26.59-26.5-16.9l.3,4.7q21.06-3.94,22.15,22.8a.21.21,0,0,1,.15.05q10.71-11.3,18.3-11.4a3.74,3.74,0,0,1-.05-.55M76.38,116q7.91-6.45,10.75-11.35l.2-8.65-.4-.4q-8-6.34-13.45,5.85-5-11.2-13-4.85-7.39,9.9,15.85,19.4m-8.95-42.8a2.72,2.72,0,0,0,.9-2,2.9,2.9,0,0,0-3-2.9,2.75,2.75,0,0,0-2.9,2.9,2.9,2.9,0,0,0,.8,2,3,3,0,0,0,2.1.85,2.77,2.77,0,0,0,2.05-.85m21-21a7.79,7.79,0,0,0-.8-.15L84,51.36q-26.34-4.3-37.5-10a29,29,0,0,1-3.75-2.25,10.43,10.43,0,0,1-1.55-1.35,10.66,10.66,0,0,1-1-1.1,9.06,9.06,0,0,1-1.4-2.4l1.2,16.35q8.81,8,43.05,13.5l5.15.8Z"/><path class="cls-9" d="M265.23,168.51h0q10.16-23.81,30.2-14.35.15-.65.3-1.2.81-2.7,1.45-5.3-18-11.25-34.9,12-24.94-19.75-40.95,5.05-20.25-26.36-40.8,1-15.15-27.85-34-4.4-18.8-30.9-41.25-10.2Q99,133,86.38,135.31c.07,2.33.15,4.37.25,6.1a3.74,3.74,0,0,0,.05.55q10.6-.19,15,21.4,22.15-31.1,42.35,6.25h.15q16.56-22.55,35.8,2.8h.05q22.11-28,42.15,1.6,19.8-28.8,43-5.5M141.83,43q-5.25,6.6-10,13.35,24.66,1.45,53.1,1.1l-.8-57A293.59,293.59,0,0,0,141.83,43M87.33,96l-.2,8.65q3-5.2.2-8.65m1.15-44.7q7-5.85,15-11.35Q136,17.37,184.18.46,121.39,9,66.38,32.31q-10.09,4.24-19.9,9,11.16,5.74,37.5,10l3.65.6c.27-.23.55-.47.85-.7m122.4,82a3,3,0,0,0,1-2.25,3.15,3.15,0,0,0-1-2.3,3.08,3.08,0,0,0-2.25-1,3.16,3.16,0,0,0-3.25,3.25,3.15,3.15,0,0,0,.9,2.25,3.21,3.21,0,0,0,2.35,1,3,3,0,0,0,2.25-1m35.7-48.6a2.53,2.53,0,0,0,.7-1.8,2.46,2.46,0,0,0-.7-1.75,2.53,2.53,0,0,0-1.8-.7,2.48,2.48,0,0,0-1.75.7,2.51,2.51,0,0,0-.7,1.75,2.57,2.57,0,0,0,.7,1.8,2.48,2.48,0,0,0,1.75.7,2.53,2.53,0,0,0,1.8-.7m-28.2,11.7q-4.65-7.31-11.3,5.3-4.44-11-10.35-6.6-4.09,3.19,1.6,13.4,6.45,7.25,13.1,4,11.06-6.7,6.95-16.15m-50.8,29.3a7.3,7.3,0,0,0-1.1-5q-6.6-6.15-10.8,3-4.44-9-11.6-5.4-5.9,3.6,2.95,16.3,4.16,4.76,9.1,5.4a21.52,21.52,0,0,0,11.35-13.5c0-.27.07-.53.1-.8m9.2-30.75a2.9,2.9,0,0,0,.85-2.15,2.85,2.85,0,0,0-.85-2.1,3,3,0,0,0-4.3,0,2.78,2.78,0,0,0-.9,2.1,2.83,2.83,0,0,0,.9,2.15,3,3,0,0,0,4.3,0M106,114a3.08,3.08,0,0,0-1,2.25,3,3,0,0,0,1,2.25,3.11,3.11,0,0,0,2.25,1,3,3,0,0,0,2.25-1,3,3,0,0,0,1-2.25,3,3,0,0,0-1-2.25,3,3,0,0,0-2.25-.95A3.11,3.11,0,0,0,106,114m38.2-26.8q-4.29-15.1-14.15-.75-11.3-11.89-12.15,0,.45,13.2,15.3,15.35,11.76-3.95,11-14.6M292,48.66q-7.29-5.44-15.35-10.45Q238.54,14.46,184.18.46q30.56,18.79,47,41.1a99.4,99.4,0,0,1,8.5,13.55Q267.14,53,290.13,49c.64-.1,1.27-.22,1.9-.35m55-25Q343.58,13,301.63,6.16,256.24-1.14,192.23.21q-4.09.11-8,.25A477.4,477.4,0,0,1,321.43,30.51q7.5,3,15,6.1a37.54,37.54,0,0,0,6.5-3.85c.54-.43,1-.87,1.5-1.3A17.48,17.48,0,0,0,346,29.61a7.62,7.62,0,0,0,1.35-3.6A14.06,14.06,0,0,0,347,23.61Z"/><path class="cls-10" d="M239.73,55.11a99.4,99.4,0,0,0-8.5-13.55q-16.5-22.3-47-41.1l.8,57q4.16,0,8.45-.15,24.56-.56,46.3-2.2m-201.35-22a5.62,5.62,0,0,0,.35,1.05,9.06,9.06,0,0,0,1.4,2.4,10.66,10.66,0,0,0,1,1.1,10.43,10.43,0,0,0,1.55,1.35,29,29,0,0,0,3.75,2.25q9.81-4.76,19.9-9Q121.39,9,184.18.46,125.33,2.22,83.08,10.91q-45,9.35-44.8,21.2a5.85,5.85,0,0,0,.1,1m65.05,6.75q-8,5.51-15,11.35c-.3.23-.58.47-.85.7a7.79,7.79,0,0,1,.8.15q19.95,3,43.45,4.25,4.71-6.75,10-13.35A293.59,293.59,0,0,1,184.18.46Q136,17.37,103.43,39.91m233-3.3q-7.5-3.15-15-6.1A477.4,477.4,0,0,0,184.18.46q54.36,14,92.5,37.75,8.06,5,15.35,10.45,5.36-.94,10.45-2Q325.23,41.91,336.43,36.61Z"/><path class="cls-11" d="M294.23,58.26a35.09,35.09,0,0,0-4.1-9.25q-23,3.95-50.4,6.1-21.75,1.65-46.3,2.2-4.29.11-8.45.15-28.44.34-53.1-1.1-23.49-1.3-43.45-4.25l-.3,12.75Q132.38,71.35,193.38,70,252,68.77,295,61C294.72,60,294.47,59.06,294.23,58.26Z"/><path class="cls-12" d="M347.28,28.06c0-.7.05-1.38.05-2a7.62,7.62,0,0,1-1.35,3.6,17.48,17.48,0,0,1-1.55,1.85c-.46.43-1,.87-1.5,1.3a37.54,37.54,0,0,1-6.5,3.85q-11.19,5.3-33.95,10-5.1,1.05-10.45,2c-.63.13-1.26.25-1.9.35a35.09,35.09,0,0,1,4.1,9.25c.24.8.49,1.72.75,2.75q4.26-.85,8.4-1.65,33.45-6.9,42.2-15.15.56-5.3,1.1-10.65C346.85,31.73,347.05,29.89,347.28,28.06Z"/></g><g id="Layer0_0_MEMBER_3_FILL" data-name="Layer0 0 MEMBER 3 FILL"><path class="cls-13" d="M296.06,122.76q-7.53-6.89-17.11-1.87c-.8,0-.89.71-.27,2s2.84,3.3,6.65,6q7.43,6,14.36,3.41,3.63-2-3.63-9.62m-46.37-.28q-19.58-6.44-21.23.72t-2.69,12.37a74.65,74.65,0,0,1,10.83.66c.44.07,1,.15,1.6.22a7.11,7.11,0,0,0,1.37.06,6.55,6.55,0,0,1,.77-.28,4.88,4.88,0,0,1,.5-.22q8.31-3.47,8.85-13.53m20.74-46.14q-.82,12.25,2.91,17.87,5.84,9,7.1,9.13c.81.07.93.06.38,0q2.7-2.81,3-8.69Q283.08,73,272.41,73.86a2.15,2.15,0,0,0-1.93,1.43,8.21,8.21,0,0,1-.05,1Z"/></g><g id="Layer0_0_MEMBER_4_FILL" data-name="Layer0 0 MEMBER 4 FILL"><path class="cls-14" d="M285.28,141c0-.4.05-.86.05-1.37q-.21-2.76-1.65-3.69c-.88-.81-2.1-1-3.68-.44a37.11,37.11,0,0,0-3.47,1.65,13.48,13.48,0,0,1-7,1.27q10.33,5.94,15.73,2.58m-36-7.81a12.89,12.89,0,0,1-2.42-5.5q-3,12,1,15.79a1.49,1.49,0,0,1,.28-.11,7.45,7.45,0,0,0,2.91-2.09,4.68,4.68,0,0,0,1.1-1.65,4.08,4.08,0,0,0-.71-3.58l-2.2-2.86m-10.95-27.83a4.42,4.42,0,0,0-.33,1,6.5,6.5,0,0,0,1.38,5.23,3.58,3.58,0,0,0,1.65,1.1q1.92.77,4-1.1a8,8,0,0,0,1.32-1.82c.44-.84.77-1.47,1-1.87l2.7-3.9q-7.92-.33-11.72,1.37m20.46,5.56a8.67,8.67,0,0,1,4.13-4.13,10.27,10.27,0,0,1,5.88-.71,10.7,10.7,0,0,1,5.39,2.47,11.09,11.09,0,0,1,3.85,7.48,11.32,11.32,0,0,1-2.09,8.2,12,12,0,0,1-4.78,3.9,13.2,13.2,0,0,1-6.05,1.21,18.56,18.56,0,0,1-11.55-4.4,14.4,14.4,0,0,1-3.74-4.84,14.81,14.81,0,0,1-.83-6.43,21.06,21.06,0,0,1,2.26-7.54,16.11,16.11,0,0,1,5.06-5.94,17.8,17.8,0,0,1,10.39-3.46,28.59,28.59,0,0,1,5.23.38Q259.2,92.84,250.24,104a25.11,25.11,0,0,0-2.69,21.23q5.44,11.59,16.11,12.48h4.68q17-2,18.7-20.13c-.07-.48-.15-.93-.22-1.37q-1.59-8.75-6.22-14.14c-.47-.55-1-1.08-1.48-1.59q-21.39-7.71-26.73,10.17-1.87,13.59,13.36,15.4,12-.66,8.91-12.54a6.32,6.32,0,0,0-.66-2.09,6.41,6.41,0,0,0-3.13-2.64,4.1,4.1,0,0,0-.83-.22q-7-2.08-9.51,3.58-3,6.81,5.72,7.2,4.78-.77,2.31-5.94a4.72,4.72,0,0,1,1.37,2.53,5.09,5.09,0,0,1-.55,3.63,5.4,5.4,0,0,1-2.86,2.2,6.29,6.29,0,0,1-3.57.17,7.22,7.22,0,0,1-3.08-1.93,6.58,6.58,0,0,1-1.76-3.3,8.22,8.22,0,0,1,.71-5.77m15.79-14.74.93.33c-.73-.81-1.46-1.56-2.2-2.26a45.23,45.23,0,0,0-8.25-6.6,2.2,2.2,0,0,0-.49,0,12.26,12.26,0,0,0-5.23.77A5.23,5.23,0,0,0,256.73,90a2.9,2.9,0,0,0-.55,3c.55,1.25,2.17,1.8,4.84,1.65A39.52,39.52,0,0,1,274.61,96.14Z"/><path class="cls-15" d="M285.33,139.59c0,.51,0,1-.05,1.37a6.92,6.92,0,0,0,1.7-1.43q2.26-3.08,1.32-13.14-.37-3.92-1.26-8.86-1.71,18.09-18.7,20.13c.4.26.81.5,1.21.72a13.48,13.48,0,0,0,7-1.27,37.11,37.11,0,0,1,3.47-1.65c1.58-.51,2.8-.37,3.68.44q1.44.93,1.65,3.69m-38.44-11.94a12.89,12.89,0,0,0,2.42,5.5l2.2,2.86a4.08,4.08,0,0,1,.71,3.58,4.68,4.68,0,0,1-1.1,1.65,7.45,7.45,0,0,1-2.91,2.09,1.49,1.49,0,0,0-.28.11,2,2,0,0,1,.33.27q5.9,2.7,15.4-6.05-10.67-.89-16.11-12.48c-.26.84-.48,1.66-.66,2.47M238,106.31a4.42,4.42,0,0,1,.33-1q-4.89,2.21-3.3,7.7,4.62,9.47,12.49,12.16A25.11,25.11,0,0,1,250.24,104h-.16l-2.7,3.9c-.22.4-.55,1-1,1.87a8,8,0,0,1-1.32,1.82q-2.08,1.86-4,1.1a3.58,3.58,0,0,1-1.65-1.1,6.5,6.5,0,0,1-1.38-5.23m37.51-9.84-.93-.33A39.52,39.52,0,0,0,261,94.65c-2.67.15-4.29-.4-4.84-1.65a2.9,2.9,0,0,1,.55-3,5.23,5.23,0,0,1,2.64-1.65,12.26,12.26,0,0,1,5.23-.77,2.2,2.2,0,0,1,.49,0q-7.2-4.23-10.17,1.32-6.21,11.66-4.73,14.85a.29.29,0,0,0,.05.17q9-11.11,21.73-6.88a28.59,28.59,0,0,0-5.23-.38,17.8,17.8,0,0,0-10.39,3.46,16.11,16.11,0,0,0-5.06,5.94,21.06,21.06,0,0,0-2.26,7.54,14.81,14.81,0,0,0,.83,6.43,14.4,14.4,0,0,0,3.74,4.84,18.56,18.56,0,0,0,11.55,4.4,13.2,13.2,0,0,0,6.05-1.21,12,12,0,0,0,4.78-3.9,11.32,11.32,0,0,0,2.09-8.2,11.09,11.09,0,0,0-3.85-7.48,10.7,10.7,0,0,0-5.39-2.47,10.27,10.27,0,0,0-5.88.71,8.67,8.67,0,0,0-4.13,4.13,8.22,8.22,0,0,0-.71,5.77,6.58,6.58,0,0,0,1.76,3.3,7.22,7.22,0,0,0,3.08,1.93,6.29,6.29,0,0,0,3.57-.17,5.4,5.4,0,0,0,2.86-2.2,5.09,5.09,0,0,0,.55-3.63,4.72,4.72,0,0,0-1.37-2.53q2.47,5.18-2.31,5.94-8.75-.39-5.72-7.2,2.48-5.67,9.51-3.58a4.1,4.1,0,0,1,.83.22,6.41,6.41,0,0,1,3.13,2.64,6.32,6.32,0,0,1,.66,2.09q3.13,11.88-8.91,12.54-15.23-1.81-13.36-15.4,5.34-17.88,26.73-10.17c-.59-.7-1.17-1.36-1.76-2S276.13,97.09,275.54,96.47Z"/></g><g id="Layer0_0_MEMBER_4_MEMBER_0_STROKES_1_FILL" data-name="Layer0 0 MEMBER 4 MEMBER 0 STROKES 1 FILL"><path class="cls-16" d="M269.26,102.06H269l-.22,0h-1.26l-.44,0h-.39l-.44.06h-.44a17.54,17.54,0,0,0-3.3.66,15.72,15.72,0,0,0-3.13,1.32,12.46,12.46,0,0,0-2.7,2l-.11,0v.06h-.05l-.17.16-.11.17-.16.16-.11.17-.17.11-.11.16-.16.17-.94,1.43a10.78,10.78,0,0,0-1.15,3.08l-.06.22v0l0,.06v.05l-.17,1.27.06,1.59.33,1.65.66,1.49.22.33.05.16.55.83a6.57,6.57,0,0,0,1.1,1.15,7.54,7.54,0,0,0,1.27.94l.33.22,1.7.82.88.28h.11l.06,0,1.1.22a9.68,9.68,0,0,0,2.91.11,5.67,5.67,0,0,0,1.38-.16l.22-.06h.05l.11,0,.33-.06.66-.22a6.76,6.76,0,0,0,2.42-1.26,4,4,0,0,0,1-.88l.44-.5.11-.16.11-.11.06-.17.11-.11a5.78,5.78,0,0,0,.55-1.15,4.5,4.5,0,0,0,.33-1.27,4.93,4.93,0,0,0,.11-1.21v-.6l-.33-1.71-.44-1-.61-.94-.82-.77-.22-.11-.22-.16-.44-.22-.06-.06h-.05l-.39-.16-.49-.11a5,5,0,0,0-1.87-.11,4.78,4.78,0,0,0-1.65.55,4,4,0,0,0-1.21,1l-.06.06,0,.11-.06,0-.05.11-.06.17-.11.16-.22.66-.05.94.11.6v.11l.11.39.05.11.06.16.44.77.55.5.44.27.27.11h.11c.08.08.11.06.11,0s.06-.11-.05-.11l-.77-.44-.44-.44-.39-.77,0-.06v-.11l-.11-.27v-.11l-.06-.11v-.28l-.05-.27v-.28l.27-1.15.11-.17.06-.16.16-.17v0l.06-.06a3.46,3.46,0,0,1,1-.88,4,4,0,0,1,1.54-.44,4.44,4.44,0,0,1,1.71.11l.44.11.33.17h0l.06,0,.16.06.22.16.22.11.17.11.16.17.22.16.28.39a3.22,3.22,0,0,1,.55.82l.38.94.22,1v.28l.06.27v.55l-.11,1.1a4.43,4.43,0,0,1-.33,1.1,3.89,3.89,0,0,1-.5,1l-.11.11-.05.11-.11.11-.06.11-.11.16h-.05v.06l-.28.27a5.5,5.5,0,0,1-.88.77A8.41,8.41,0,0,1,267,122l-.28.11-.33.06-.33.11h-.16l-.11,0a5.43,5.43,0,0,1-1.32.17,9.36,9.36,0,0,1-2.7-.17l-.66-.11-.33-.11h-.16v0l-1.16-.39-.93-.44-.61-.38a10,10,0,0,1-1.1-.88,11.84,11.84,0,0,1-1-1l-.05-.11-.11-.16-.11-.11-.22-.33-.06-.17-.22-.33a7.17,7.17,0,0,1-.82-2.69,9.26,9.26,0,0,1,0-1.49v-.38l.16-.72v-.22l.06-.16a11.91,11.91,0,0,1,1.1-2.81,7.84,7.84,0,0,1,.82-1.26l.11-.17.17-.11.11-.16.55-.55v-.06s0,0,.05,0l.06-.05A13.32,13.32,0,0,1,260,105a10.48,10.48,0,0,1,2.91-1.21,22.16,22.16,0,0,1,3.08-.6l.44-.06h.77l.39,0H269l.06,0h.11a16.38,16.38,0,0,1,3.13.44l1.54.44.39.17.38.11.39.16.16.11h.11v.06h.06a13.59,13.59,0,0,1,2.69,1.65l1.21,1.26.33.5.11.11.11.22.22.33a6.09,6.09,0,0,1,.66,1.37l.72,3v.38l.05.22.06.94a30,30,0,0,1-.17,3.19l-.11,1.54-.05.22v.16l-.72,4.24-.6,2.14-.11.17-.17.55-.6,1.32-.77,1.15a4.43,4.43,0,0,1-.94,1l-.6.55h-.06l-.44.33a10.35,10.35,0,0,1-2.53,1.1l-1.32.33h-.16l-.17.05h-.16l-.11.06h-.06l-.66.05-2.69.17h-2L266,133h-.28l-2.53-.22c-.07,0-.86-.11-2.36-.33l-2.2-.55-.55-.22-.22-.05-.28-.11-.05-.06h-.06l-.6-.27-.22-.17a16.26,16.26,0,0,1-1.65-1.1,11.83,11.83,0,0,1-2.53-2.69l-1-1.38L248,119.17c0-.11,0-.13-.11-.06s-.13,0-.06.11l1.43,3.19a16.63,16.63,0,0,0,1.16,2.31l1.43,2.42.27.33a18.94,18.94,0,0,0,2.53,2.86,14.42,14.42,0,0,0,1.76,1.21l.83.44,0,.06h.11l.22.11.83.33c.88.25,1.65.46,2.31.6l4.95.66H266l.05.06,5-.06.71-.11H272l.16,0h.22l.17-.06,1.43-.33a9,9,0,0,0,2.75-1.15l.44-.33h.05l.11-.11.33-.22,1.32-1.43a9.73,9.73,0,0,0,1.54-2.75l.17-.33.77-2.64c.18-.7.38-1.74.6-3.14l.17-1.15.05-.22v-.22l.17-1.6a30.3,30.3,0,0,0,.16-3.24l-.05-1.43-.06-.22-.27-1.65a6.65,6.65,0,0,0-.5-1.65,8.86,8.86,0,0,0-.71-1.54l-.33-.55-.17-.17-.11-.22-.11-.16-.16-.17-.11-.16a16.31,16.31,0,0,0-1.21-1.27,13.61,13.61,0,0,0-2.92-1.81l-.05-.06h-.06l-.11,0-1.37-.55-1.65-.44A21,21,0,0,0,269.26,102.06Z"/></g><g id="Layer0_0_MEMBER_5_FILL" data-name="Layer0 0 MEMBER 5 FILL"><path class="cls-17" d="M308.71,113.19c1.32-.88,2.31-1.53,3-1.93a6.11,6.11,0,0,1,3.08-1.21,1.38,1.38,0,0,1,1,.28,1.16,1.16,0,0,1,.38.82q.33,1.88-1.48,4.51c-.32.58-.84,1.42-1.54,2.53.51.13,1,.24,1.48.33q5.57.93,4.57-14.85a33,33,0,0,1-14.69,10.89,9.62,9.62,0,0,0,4.24-1.37m12.37-20.35a2.89,2.89,0,0,1,1-.11,4.12,4.12,0,0,1,3,2.86,7.46,7.46,0,0,1,.88,3.79,23.57,23.57,0,0,0,2-1.81q4.68-5.23-10.78-10.51a1.82,1.82,0,0,1,.11.33,28.3,28.3,0,0,1,2,15.29,5.54,5.54,0,0,0,1.1-3.63,24.87,24.87,0,0,0,0-2.53,13.63,13.63,0,0,1,.11-2.58c.3-.63.48-1,.55-1.1M308.16,78.15a7.43,7.43,0,0,1,4.95-4,24.25,24.25,0,0,1,5.33-.66q-3-2.06-11.05,1.21a63.51,63.51,0,0,0-8.53,5.66A19,19,0,0,1,317.18,87a7.34,7.34,0,0,0-.55-3,9.42,9.42,0,0,0-2-3,12.42,12.42,0,0,0-6.49-2.86m-28.38,24a12.65,12.65,0,0,0,.44,2.59,11.73,11.73,0,0,0,2.91,5.06c.63.58,1.6,1.43,2.92,2.53a6.42,6.42,0,0,1,2,3.08,5.05,5.05,0,0,1,.11,3,5.21,5.21,0,0,1-1.48,2.53l-.44.38a116.84,116.84,0,0,0,17.6-6.49q-.33,0-.66,0-20.76,1-22.39-17.49c-.41,1.63-.76,3.25-1,4.84m9.68-21.67a13.52,13.52,0,0,0-4.4,2.48,9.84,9.84,0,0,0-3,4,12,12,0,0,1-2.31-6.76,12.62,12.62,0,0,1,.55-4.35A6.57,6.57,0,0,0,277.74,79q-2.85,10.67,3.08,18.31,2.74-14.19,16.78-16.77-8.39,3.35-10.89,8.74a11.77,11.77,0,0,0-.77,6.6,12.92,12.92,0,0,0,2.58,6.22,15.45,15.45,0,0,0,5.17,4.18,18.07,18.07,0,0,0,6.49,1.87,11.83,11.83,0,0,0,6.6-1.27q2.64-1.65,4.68-6T313,93.55a7.32,7.32,0,0,0-2.75-3.9,11.15,11.15,0,0,0-4.57-2,12.8,12.8,0,0,0-6-.11,8,8,0,0,0-4.84,3,6.84,6.84,0,0,0-.83,5.94,6.54,6.54,0,0,0,3.85,4.51,6.75,6.75,0,0,0,5.94-.61,6.53,6.53,0,0,0,3.52-4.78,2,2,0,0,0-.27-1.93,2.06,2.06,0,0,0-1.87-1.21,1.91,1.91,0,0,0-2,.94l.77.27.44.22c2.6,1.43,2.71,2.89.33,4.4q-7.71,4.89-9.13-2.2.06-8.68,8.47-7.81,12.21,2.74,5,13.53t-18,.22q-9.78-13.76,7.81-21.67a9.92,9.92,0,0,0-1-1.21c-1.52.1-2.62.19-3.3.28A26.66,26.66,0,0,0,289.46,80.46Z"/><path class="cls-18" d="M294,96.47a6.84,6.84,0,0,1,.83-5.94,8,8,0,0,1,4.84-3,12.8,12.8,0,0,1,6,.11,11.15,11.15,0,0,1,4.57,2,7.32,7.32,0,0,1,2.75,3.9q.6,2.74-1.54,7.26t-4.68,6a11.83,11.83,0,0,1-6.6,1.27,18.07,18.07,0,0,1-6.49-1.87,15.45,15.45,0,0,1-5.17-4.18,12.92,12.92,0,0,1-2.58-6.22,11.77,11.77,0,0,1,.77-6.6q2.51-5.39,10.89-8.74-14,2.58-16.78,16.77,1.64,18.52,22.39,17.49.33,0,.66,0a45.44,45.44,0,0,0,9.24,3.41c.7-1.11,1.22-2,1.54-2.53q1.82-2.64,1.48-4.51a1.16,1.16,0,0,0-.38-.82,1.38,1.38,0,0,0-1-.28,6.11,6.11,0,0,0-3.08,1.21c-.66.4-1.65,1-3,1.93a9.62,9.62,0,0,1-4.24,1.37,33,33,0,0,0,14.69-10.89A33.57,33.57,0,0,0,326,99.38a7.46,7.46,0,0,0-.88-3.79,4.12,4.12,0,0,0-3-2.86,2.89,2.89,0,0,0-1,.11c-.07.11-.25.47-.55,1.1a13.63,13.63,0,0,0-.11,2.58,24.87,24.87,0,0,1,0,2.53,5.54,5.54,0,0,1-1.1,3.63,28.3,28.3,0,0,0-2-15.29,1.82,1.82,0,0,0-.11-.33,26.5,26.5,0,0,0,3-9.68,4.66,4.66,0,0,0-1.76-3.9,24.25,24.25,0,0,0-5.33.66,7.43,7.43,0,0,0-4.95,4A12.42,12.42,0,0,1,314.65,81a9.42,9.42,0,0,1,2,3,7.34,7.34,0,0,1,.55,3,19,19,0,0,0-18.32-6.6q-17.6,7.92-7.81,21.67,10.83,10.56,18-.22t-5-13.53q-8.41-.88-8.47,7.81,1.42,7.1,9.13,2.2c2.38-1.51,2.27-3-.33-4.4l-.44-.22-.77-.27a1.91,1.91,0,0,1,2-.94,2.06,2.06,0,0,1,1.87,1.21,2,2,0,0,1,.27,1.93,6.53,6.53,0,0,1-3.52,4.78,6.75,6.75,0,0,1-5.94.61A6.54,6.54,0,0,1,294,96.47m8.47-5.89q-5.61,3.3-1.76,6.38-3.86-3.08,1.76-6.38,6.56-1.68,7.37,5-.75,6.39-6.49,8.47-6.56,1.43-10.34-3.74-5-8.3,3.52-15,11.19-5.72,18.7,3.85,5,14.2-7.15,20.24-10.71,4-18.37-1.43-4.77-3.79-5.5-12.76.74,9,5.5,12.76,7.66,5.46,18.37,1.43,12.15-6,7.15-20.24-7.51-9.56-18.7-3.85Q288,92,293,100.26q3.78,5.17,10.34,3.74,5.75-2.07,6.49-8.47-.81-6.63-7.37-5m-22.27,14.14a12.65,12.65,0,0,1-.44-2.59,44.61,44.61,0,0,0,1,20.52,2.55,2.55,0,0,0,.33-.11c1.72-.37,3.43-.8,5.12-1.27l.44-.38a5.21,5.21,0,0,0,1.48-2.53,5.05,5.05,0,0,0-.11-3,6.42,6.42,0,0,0-2-3.08c-1.32-1.1-2.29-2-2.92-2.53a11.73,11.73,0,0,1-2.91-5.06m4.84-21.78a13.52,13.52,0,0,1,4.4-2.48,26.66,26.66,0,0,1,5.06-1c.68-.09,1.78-.18,3.3-.28a3.92,3.92,0,0,1-.33-.27q-4.12-3.75-12.76-3.91a6.89,6.89,0,0,0-4.46.88,12.62,12.62,0,0,0-.55,4.35A12,12,0,0,0,282,87,9.84,9.84,0,0,1,285.06,82.94Z"/><path class="cls-19" d="M299.52,71.28a4.77,4.77,0,0,1-2.47-1.38,28.55,28.55,0,0,0,.44,9,3.92,3.92,0,0,0,.33.27,9.92,9.92,0,0,1,1,1.21,63.51,63.51,0,0,1,8.53-5.66,17.68,17.68,0,0,0,4.89-8.86q.6-3.33-1.1-4.62a11,11,0,0,0-1.48,1.65,22.47,22.47,0,0,0-1.43,2.42c-.63,1.1-1.12,1.91-1.49,2.42a8.62,8.62,0,0,1-3.19,2.81A6.94,6.94,0,0,1,299.52,71.28Z"/><path class="cls-13" d="M297.05,69.85v.05a4.77,4.77,0,0,0,2.47,1.38,6.94,6.94,0,0,0,4.07-.77,8.62,8.62,0,0,0,3.19-2.81c.37-.51.86-1.32,1.49-2.42a22.47,22.47,0,0,1,1.43-2.42,11,11,0,0,1,1.48-1.65c-1.27-1-3.55-1-6.82-.22Q298,62.73,297.05,69.85Z"/></g><g id="Layer0_0_MEMBER_5_STROKES_1_FILL" data-name="Layer0 0 MEMBER 5 STROKES 1 FILL"><path class="cls-20" d="M295.56,85.36l-.22.16-2,2-1,1.32-.82,1.49-.17.38-.05.06v0l-.39,1.1-.22,1.1v.22l-.05.06v.6l-.06.28.06.27v.83l.49,2.2.39,1,1,2v.06l1,1.15a8.92,8.92,0,0,0,1.16,1l.93.66.33.16.33.22.33.17.39.11.38.16.72.22.38.06.39.11h.16l.22,0h.17l.22.06h1.7l.17-.06h.38l1.1-.16.39-.11h.05l.33-.17.72-.27.93-.5,1.49-1.1,1.26-1.37.61-.94.05-.16.11-.17.06-.16.11-.17.11-.33.11-.16.49-1.54.33-1.82v0l-.11-.66-.11-.33-.22-1-.16-.33-.11-.33-.17-.33-.55-.88-.11-.11-.11-.17-.11-.11-.16-.11-.11-.11-.17-.11-.11-.11-.16-.11-.61-.33-.66-.22-.11,0h0l-.17-.06-.38,0h-.33l-.33-.06-.33.06H304l-.66.11-.33.11-.66.11v0h-.05l-.66.44-.22.11-.44.33-.17.17-.22.16-.49.5-.11.05-.5.66,0,.11-.11.11-.06.11-.05.17-.11.22-.06.16-.05.11v.28l-.06.16v.39l.06.16v.11l.05.17.28.6.49.66.55.55.22.17c.08.07.13.07.17,0s.07-.1,0-.17l-.22-.16-.55-.55-.44-.61-.11-.22-.06-.27-.05-.11v-.11l-.06-.06V94.1l.06-.22.05-.11.06-.16.22-.44.05-.06.06-.11.16-.22.17-.16.16-.22.11-.06.28-.27.22-.17.16-.16.22-.17.22-.11.44-.33.22-.11.44-.27-.05,0,.77-.22,2-.11.66.11.11.06h.17l.6.22.5.33.16,0,.66.66.06.11.49.77.11.33.17.28.33,1.21v.16l.05.17.06.55-.22,1.32-.11.33v.16l-.33,1-.11.17-.17.49-.11.11-.11.33-.11.11,0,.17-.22.27-.17.28a.57.57,0,0,1-.22.27l-.38.55-.28.22-.22.28-.49.44-.28.16-.27.22-.61.39-1.81.82h.05l-1.43.22h-.33l-.16.06h-1.27l-.16-.06h-.33l-.17,0h-.16l-.17-.06h-.22l-.16,0-.33-.06-1.93-.77-.27-.22-.61-.38-.27-.22-1-.94-.44-.55a.63.63,0,0,1-.22-.27l-.22-.28V100l-.28-.44-.82-1.87-.55-2-.11-1.76,0-.17v-.44l.06,0v-.11l.11-.5V92.4l.11-.22.33-1v-.11L293.53,89l2.14-2.26.17-.22.22-.16.16-.17.11-.05.11-.11.44-.33.77-.33.28-.17.6-.22.28-.16.93-.33,3.08-.72h.33l.28-.05h1.92l1.21.16,1.54.44.11.06h.11l.06,0,.6.22.39.22.16.06.83.49c.07,0,.16.06.27.17l1.27.88,2,1.87.82,1v-.05l.11.16-.11-.11.5,1.32.05.39.33,1,.5,2.86.05,2.92-.22,1.43a4.1,4.1,0,0,1-.33,1.37l-.22.72-.16.33-.11.33-.66,1.26-.06.06-.05.11-.11.11-.39.6-.93,1.1-.11.17-.17.11-1,1L307.88,109h.06l-4,1.21-4.07.5a14.16,14.16,0,0,1-6.05-.94L292,109l-.94-.49-.22-.17-.44-.22-.44-.33h-.05v0l-.11-.06-.22-.16-.17-.17-.22-.16-.16-.22-.39-.33-1.26-1.6-1.05-1.81-.77-1.93-1-4-.11-1-.11-.49,0-.55c0-.11,0-.13-.11-.06s-.13,0-.06.11l.5,4.18,1.32,4a12.55,12.55,0,0,0,1,1.87,10.34,10.34,0,0,0,1.32,1.7l.93.94.22.16.11.11h.06l.05.06.44.33.22.11.44.33.5.22.44.27a14.44,14.44,0,0,0,2,.88,10.26,10.26,0,0,0,2,.61,18.39,18.39,0,0,0,4.24.49l4.23-.49,2.09-.55a11,11,0,0,0,2-.66h.06l3.3-2,2.8-2.64.77-1.16.06,0,1.1-2.2.27-.72.39-1.48.27-3.14-.33-3a10.36,10.36,0,0,0-.33-1.54l-.05-.33-.77-2.59-2.37-2.64-.55-.44-.22-.22-.55-.44-.27-.16-.28-.22L310,83.93l-.33-.11-.28-.17-.33-.11-.33-.16h-.05l-.11-.06-1.49-.44-1.7-.27h-2l-1.37.16-2,.5-3.85,1.59-.5.44Z"/></g></g></g></g></svg>