<svg xmlns="http://www.w3.org/2000/svg" xmlns:xlink="http://www.w3.org/1999/xlink" viewBox="0 0 257.55 235.19"><defs><style>.cls-1{fill:none;}.cls-2{isolation:isolate;}.cls-3{fill:#70bed2;}.cls-4{fill:#f8ecf3;}.cls-5{fill:#e585a3;}.cls-6{fill:#e9dbeb;}.cls-7{fill:#d88f8f;}.cls-8{fill:#f7a4ba;}.cls-9{fill:#e5a3a3;}.cls-10{fill:#ffbfce;}.cls-11,.cls-12{fill:#68a691;}.cls-12,.cls-14{opacity:0.5;}.cls-12,.cls-14,.cls-30{mix-blend-mode:multiply;}.cls-13,.cls-14{fill:#366;}.cls-15{fill:#7a1434;}.cls-16,.cls-18{fill:#ba6673;}.cls-16{opacity:0.4;}.cls-17{fill:#440317;}.cls-19{fill:#fff;opacity:0.13;}.cls-20,.cls-30{fill:#8acfc4;}.cls-21{fill:#6cbaab;}.cls-22{fill:#c9698c;}.cls-23{clip-path:url(#clip-path);}.cls-24{clip-path:url(#clip-path-2);}.cls-25{clip-path:url(#clip-path-3);}.cls-26{fill:#ffe2ae;}.cls-27{fill:#ffd085;}.cls-28{clip-path:url(#clip-path-4);}.cls-29{clip-path:url(#clip-path-5);}</style><clipPath id="clip-path"><path id="SVGID" class="cls-1" d="M143.62,179.1c2.73,2.33,3.57,5.73,3.15,9.74a1,1,0,0,1-.69.82c-4,1-7.84.75-10.57-1.59s-6.42-10.81-7.12-14a.19.19,0,0,1,.22-.23C131.47,174.34,140.85,176.72,143.62,179.1Z"/></clipPath><clipPath id="clip-path-2"><path id="SVGID-2" data-name="SVGID" class="cls-1" d="M146.28,193.26c6.27.88,11.16,4.39,15,8.4a1,1,0,0,1-.16,1.48c-4.36,2.93-10.3,5.55-17.06,4.6s-12.8-5.37-16.05-9.22a1,1,0,0,1,.28-1.49C132.65,194.74,141,192.52,146.28,193.26Z"/></clipPath><clipPath id="clip-path-3"><path id="SVGID-3" data-name="SVGID" class="cls-1" d="M164.12,183c2.69,5.33,2.6,11,1.56,16.14a.92.92,0,0,1-1.23.67c-4.62-1.8-9.84-5-12.74-10.74s-2.72-12.8-1.49-17.39a.91.91,0,0,1,1.3-.59C155.64,173.24,161.84,178.48,164.12,183Z"/></clipPath><clipPath id="clip-path-4"><path class="cls-1" d="M184.35,196.34a5.53,5.53,0,0,0-1.53,6.44s4.64-.15,5.13-1.95C188.37,199.29,184.35,196.34,184.35,196.34Z"/></clipPath><clipPath id="clip-path-5"><path class="cls-1" d="M219.85,194.9a3.4,3.4,0,0,0-2.33-2.26,5,5,0,0,0,0,3.44,4.82,4.82,0,0,0-3.26.17s1.85,1.32,1.92,1.87a2.92,2.92,0,0,0-2.7,2s2.17-.34,3-.34a5.81,5.81,0,0,0,2.94-.66c1.82-1.31,2.42-4.81,3.51-5.23A4.49,4.49,0,0,0,219.85,194.9Z"/></clipPath></defs><title>cake13</title><g class="cls-2"><g id="Layer_2" data-name="Layer 2"><g id="OBJECTS"><ellipse class="cls-3" cx="131.83" cy="219.89" rx="125.73" ry="15.3"/><path class="cls-4" d="M237.47,199.94c0,9.45-51.91,17.11-116,17.11-61.75,0-112.23-7.12-115.76-16.1a2.6,2.6,0,0,1-.2-1c0-9.45,51.92-17.12,116-17.12S237.47,190.49,237.47,199.94Z"/><path class="cls-5" d="M237.47,199.94v14.54c0,9.46-51.91,17.12-116,17.12s-116-7.66-116-17.12c0-.29.15-10.28.2-13.53,3.53,9,54,16.1,115.76,16.1C185.56,217.05,237.47,209.39,237.47,199.94Z"/><path class="cls-4" d="M220.41,198.18H220a.11.11,0,0,1,0,.06c0,3.71-45.65,6.72-102,6.72S16.1,202,16.1,198.24a.23.23,0,0,1,0-.12V50.64C19.29,54.16,63.8,57,118.26,57s99-2.79,102.15-6.31Z"/><path class="cls-6" d="M220,198.24a.11.11,0,0,0,0-.06h.41V50.64c-1.33,1.47-9.89,2.82-23.4,3.88-11,24.28-37.47,73.18-82,100.15C68.38,182.86,31.07,189.48,16.12,191v7.09a.23.23,0,0,0,0,.12C16.1,202,61.74,205,118.05,205S220,202,220,198.24Z"/><path class="cls-7" d="M203.64,74.72c-2.2.19-4.59,2.49-7.12,4.92-3,2.91-6.15,5.91-9.87,6.19-3.28.25-6.57-2.08-9.76-4.34-3-2.1-6.06-4.27-8.7-4.1-2.42.15-5.09,2.57-7.67,4.92-3,2.73-6.12,5.55-9.63,5.71s-6.74-2.34-9.94-4.77c-2.78-2.1-5.65-4.27-8.14-4.27h-.11c-2.55.06-5.37,2.43-8.1,4.71-3.06,2.57-6.23,5.22-9.63,5.22s-6.31-2.67-9.23-5.26c-2.56-2.26-5.21-4.6-7.56-4.66s-5.12,2.14-7.79,4.28c-3,2.43-6.2,5-9.47,4.78s-6.34-3-9.19-5.74c-2.42-2.33-4.92-4.73-7.16-4.88-2.48-.16-5.4,2-8.22,4.1-3.06,2.26-6.22,4.61-9.34,4.36-3.57-.29-6.53-3.31-9.38-6.24C35.37,77.35,33,75,31,74.77c-2.9-.27-6.1,2-9.19,4.14a28,28,0,0,1-5.69,3.38v1A28,28,0,0,0,21.81,80c3.09-2.17,6.29-4.41,9.19-4.14,2,.19,4.37,2.58,6.63,4.88,2.85,2.93,5.81,6,9.38,6.24,3.12.25,6.28-2.1,9.34-4.36,2.82-2.09,5.74-4.26,8.22-4.1,2.24.15,4.74,2.55,7.16,4.88,2.85,2.74,5.81,5.58,9.19,5.74s6.42-2.35,9.47-4.78C93.06,82.18,95.82,80,98.18,80s5,2.4,7.56,4.66c2.92,2.59,6,5.26,9.23,5.26s6.57-2.65,9.63-5.22c2.73-2.28,5.55-4.65,8.1-4.71h.11c2.49,0,5.36,2.17,8.14,4.27,3.2,2.43,6.48,4.93,9.94,4.77s6.62-3,9.63-5.71c2.58-2.35,5.25-4.77,7.67-4.92,2.64-.17,5.73,2,8.7,4.1,3.19,2.26,6.48,4.59,9.76,4.34,3.72-.28,6.85-3.28,9.87-6.19,2.53-2.43,4.92-4.73,7.12-4.92,3.11-.27,6.46,2,9.71,4.16,2.45,1.64,4.8,3.2,7.06,3.69V82.57c-2.26-.49-4.61-2-7.06-3.69C210.1,76.7,206.75,74.45,203.64,74.72Z"/><path class="cls-7" d="M31,125c2,.19,4.37,2.58,6.63,4.88,2.85,2.93,5.81,5.95,9.38,6.24,3.12.25,6.28-2.1,9.34-4.36,2.82-2.09,5.74-4.26,8.22-4.1,2.24.15,4.74,2.55,7.16,4.88,2.85,2.75,5.81,5.59,9.19,5.74s6.42-2.35,9.46-4.78c2.68-2.14,5.47-4.35,7.8-4.28s5,2.4,7.56,4.66c2.92,2.59,6,5.26,9.23,5.26s6.57-2.65,9.63-5.22c2.73-2.28,5.55-4.64,8.1-4.71h.11c2.49,0,5.36,2.17,8.14,4.28,3.2,2.42,6.48,4.92,9.94,4.77s6.62-3,9.63-5.72c2.58-2.35,5.25-4.77,7.67-4.92,2.66-.17,5.73,2,8.7,4.1,3.19,2.26,6.47,4.59,9.76,4.35,3.72-.28,6.85-3.29,9.87-6.2,2.53-2.43,4.92-4.73,7.12-4.92,3.11-.26,6.46,2,9.71,4.16,2.45,1.64,4.8,3.21,7.06,3.69v-1c-2.26-.48-4.61-2.05-7.06-3.69-3.25-2.18-6.6-4.42-9.71-4.16-2.2.19-4.59,2.49-7.12,4.92-3,2.91-6.15,5.91-9.87,6.2-3.29.24-6.57-2.09-9.76-4.35-3-2.1-6-4.27-8.7-4.1-2.42.15-5.09,2.57-7.67,4.92-3,2.73-6.12,5.56-9.63,5.72s-6.74-2.35-9.94-4.77c-2.78-2.11-5.65-4.28-8.14-4.28h-.11c-2.55.07-5.37,2.43-8.1,4.71-3.06,2.57-6.23,5.22-9.63,5.22s-6.31-2.67-9.23-5.26c-2.56-2.26-5.21-4.6-7.56-4.66s-5.12,2.14-7.8,4.28c-3,2.43-6.17,5-9.46,4.78s-6.34-3-9.19-5.74c-2.42-2.33-4.92-4.73-7.16-4.88-2.48-.16-5.4,2-8.22,4.1-3.06,2.26-6.22,4.61-9.34,4.36-3.57-.29-6.53-3.31-9.38-6.24-2.26-2.3-4.59-4.69-6.63-4.88-2.9-.27-6.1,2-9.19,4.14a28,28,0,0,1-5.69,3.38v1a28,28,0,0,0,5.69-3.38C24.9,127,28.1,124.72,31,125Z"/><path class="cls-7" d="M220.41,179.3c-2.26-.48-4.61-2.05-7.06-3.69-3.25-2.18-6.6-4.43-9.71-4.16-2.2.19-4.59,2.49-7.12,4.92-3,2.91-6.15,5.91-9.87,6.19-3.28.24-6.57-2.08-9.76-4.34-3-2.1-6.09-4.27-8.7-4.1-2.42.15-5.09,2.57-7.67,4.92-3,2.73-6.12,5.56-9.63,5.71s-6.74-2.34-9.94-4.77c-2.82-2.13-5.72-4.33-8.25-4.27s-5.37,2.43-8.1,4.71c-3.06,2.57-6.23,5.22-9.63,5.22s-6.31-2.67-9.23-5.26c-2.56-2.26-5.21-4.6-7.56-4.66h-.1c-2.33,0-5.06,2.17-7.7,4.28-3,2.42-6.17,4.95-9.46,4.78s-6.34-3-9.19-5.74c-2.42-2.33-4.92-4.73-7.16-4.88-2.48-.16-5.4,2-8.22,4.1-3.06,2.26-6.22,4.6-9.34,4.36-3.57-.29-6.53-3.31-9.38-6.24-2.26-2.3-4.59-4.69-6.63-4.88-2.9-.27-6.1,2-9.19,4.14A27.93,27.93,0,0,1,16.12,179v1.05a27.93,27.93,0,0,0,5.69-3.37c3.09-2.17,6.29-4.41,9.19-4.14,2,.19,4.37,2.58,6.63,4.88,2.85,2.93,5.81,5.95,9.38,6.24,3.12.24,6.28-2.1,9.34-4.36,2.82-2.09,5.74-4.26,8.22-4.1,2.24.15,4.74,2.55,7.16,4.88,2.85,2.74,5.81,5.59,9.19,5.74s6.42-2.36,9.46-4.78c2.64-2.11,5.37-4.28,7.7-4.28h.1c2.35.06,5,2.4,7.56,4.66,2.92,2.59,6,5.26,9.23,5.26s6.57-2.65,9.63-5.22c2.73-2.28,5.55-4.65,8.1-4.71s5.43,2.14,8.25,4.27c3.2,2.43,6.48,4.94,9.94,4.77s6.62-3,9.63-5.71c2.58-2.35,5.25-4.77,7.67-4.92,2.61-.17,5.73,2,8.7,4.1,3.19,2.26,6.48,4.59,9.76,4.34,3.72-.28,6.85-3.28,9.87-6.19,2.53-2.43,4.92-4.73,7.12-4.92,3.11-.27,6.46,2,9.71,4.16,2.45,1.64,4.8,3.21,7.06,3.69Z"/><path class="cls-8" d="M16.12,82.29a28,28,0,0,0,5.69-3.38C24.9,76.74,28.1,74.5,31,74.77c2,.19,4.37,2.58,6.63,4.88,2.85,2.93,5.81,5.95,9.38,6.24,3.12.25,6.28-2.1,9.34-4.36,2.82-2.09,5.74-4.26,8.22-4.1,2.24.15,4.74,2.55,7.16,4.88,2.85,2.74,5.81,5.58,9.19,5.74s6.42-2.35,9.47-4.78c2.67-2.14,5.43-4.34,7.79-4.28s5,2.4,7.56,4.66c2.92,2.59,6,5.26,9.23,5.26s6.57-2.65,9.63-5.22c2.73-2.28,5.55-4.65,8.1-4.71h.11c2.49,0,5.36,2.17,8.14,4.27,3.2,2.43,6.48,4.93,9.94,4.77s6.62-3,9.63-5.71c2.58-2.35,5.25-4.77,7.67-4.92,2.64-.17,5.73,2,8.7,4.1,3.19,2.26,6.48,4.59,9.76,4.34,3.72-.28,6.85-3.28,9.87-6.19,2.53-2.43,4.92-4.73,7.12-4.92,3.11-.27,6.46,2,9.71,4.16,2.45,1.64,4.8,3.2,7.06,3.69V80a25.23,25.23,0,0,1-5.64-3.19c-3.45-2.31-7.35-4.92-11.35-4.58-3.1.28-5.8,2.87-8.66,5.62-2.7,2.6-5.5,5.29-8.3,5.5-2.34.18-5.28-1.89-8.11-3.89-3.33-2.35-6.77-4.77-10.32-4.56-3.31.2-6.32,2.93-9.22,5.57-2.68,2.43-5.45,5-8,5.06s-5.45-2.1-8.29-4.26c-3.11-2.35-6.33-4.79-9.67-4.79h-.17c-3.44.09-6.61,2.75-9.67,5.31-2.72,2.27-5.52,4.63-8,4.63-2.32,0-5-2.35-7.55-4.62-2.9-2.57-5.9-5.22-9.18-5.3s-6.41,2.41-9.44,4.83c-2.68,2.13-5.45,4.33-7.76,4.23s-5-2.62-7.55-5c-2.75-2.64-5.59-5.37-8.76-5.58-3.41-.21-6.71,2.23-9.9,4.6-2.67,2-5.45,4-7.62,3.86-2.62-.21-5.24-2.89-7.76-5.47-2.7-2.76-5.24-5.36-8.21-5.64-3.83-.36-7.58,2.27-10.89,4.58a34.82,34.82,0,0,1-4.23,2.68Z"/><path class="cls-8" d="M31,123.94c2,.19,4.37,2.58,6.63,4.88,2.85,2.93,5.81,6,9.38,6.24,3.12.25,6.28-2.1,9.34-4.36,2.82-2.09,5.74-4.26,8.22-4.1,2.24.15,4.74,2.55,7.16,4.88,2.85,2.75,5.81,5.59,9.19,5.74s6.42-2.35,9.46-4.78c2.68-2.14,5.47-4.35,7.8-4.28s5,2.4,7.56,4.66c2.92,2.59,6,5.26,9.23,5.26s6.57-2.65,9.63-5.22c2.73-2.28,5.55-4.64,8.1-4.71h.11c2.49,0,5.36,2.17,8.14,4.28,3.2,2.42,6.48,4.92,9.94,4.77s6.62-3,9.63-5.72c2.58-2.35,5.25-4.77,7.67-4.92,2.66-.17,5.73,2,8.7,4.1,3.19,2.26,6.47,4.59,9.76,4.35,3.72-.29,6.85-3.29,9.87-6.2,2.53-2.43,4.92-4.73,7.12-4.92,3.11-.26,6.46,2,9.71,4.16,2.45,1.64,4.8,3.21,7.06,3.69v-2.62a25.23,25.23,0,0,1-5.64-3.19c-3.45-2.31-7.34-4.92-11.35-4.57-3.1.27-5.8,2.87-8.66,5.61-2.7,2.6-5.5,5.29-8.3,5.5-2.34.18-5.28-1.89-8.11-3.89C175,126.23,171.6,123.8,168,124c-3.31.2-6.32,2.93-9.22,5.57-2.68,2.43-5.45,4.95-8,5.06s-5.45-2.1-8.29-4.25c-3.17-2.4-6.46-4.86-9.84-4.79s-6.61,2.74-9.67,5.3c-2.72,2.28-5.52,4.63-8,4.63-2.32,0-5-2.35-7.55-4.62-2.9-2.57-5.9-5.22-9.18-5.3s-6.41,2.41-9.44,4.83c-2.68,2.13-5.43,4.34-7.76,4.23s-5-2.61-7.55-5c-2.75-2.64-5.59-5.37-8.76-5.57-3.41-.23-6.71,2.22-9.9,4.59-2.67,2-5.44,4-7.62,3.86-2.62-.21-5.24-2.89-7.76-5.47-2.7-2.76-5.24-5.36-8.21-5.64-3.83-.36-7.58,2.27-10.89,4.58a34.82,34.82,0,0,1-4.23,2.68v2.79a28,28,0,0,0,5.69-3.38C24.9,125.91,28.1,123.67,31,123.94Z"/><path class="cls-8" d="M31,171.5c2,.19,4.37,2.58,6.63,4.88,2.85,2.93,5.81,6,9.38,6.24,3.12.24,6.28-2.1,9.34-4.36,2.82-2.09,5.74-4.26,8.22-4.1,2.24.15,4.74,2.55,7.16,4.88,2.85,2.74,5.81,5.59,9.19,5.74s6.42-2.36,9.46-4.78c2.64-2.11,5.37-4.28,7.7-4.28h.1c2.35.06,5,2.4,7.56,4.66,2.92,2.59,6,5.26,9.23,5.26s6.57-2.65,9.63-5.22c2.73-2.28,5.55-4.65,8.1-4.71s5.43,2.14,8.25,4.27c3.2,2.43,6.48,4.94,9.94,4.77s6.62-3,9.63-5.71c2.58-2.35,5.25-4.77,7.67-4.92,2.61-.17,5.73,2,8.7,4.1,3.19,2.26,6.48,4.58,9.76,4.34,3.72-.28,6.85-3.28,9.87-6.19,2.53-2.43,4.92-4.73,7.12-4.92,3.11-.27,6.46,2,9.71,4.16,2.45,1.64,4.8,3.21,7.06,3.69v-2.62a25.23,25.23,0,0,1-5.64-3.19c-3.45-2.31-7.34-4.92-11.35-4.58-3.1.28-5.8,2.87-8.66,5.62-2.7,2.6-5.5,5.29-8.3,5.5-2.34.17-5.28-1.89-8.11-3.89-3.33-2.35-6.79-4.78-10.32-4.56-3.31.2-6.32,2.93-9.23,5.57-2.67,2.43-5.44,4.95-8,5.06s-5.45-2.1-8.29-4.25c-3.17-2.4-6.46-4.9-9.84-4.79s-6.61,2.74-9.67,5.3c-2.72,2.28-5.52,4.63-8,4.63-2.32,0-5-2.35-7.55-4.62-2.9-2.57-5.9-5.22-9.18-5.3s-6.41,2.41-9.44,4.83c-2.68,2.13-5.43,4.33-7.76,4.23s-5-2.62-7.55-5c-2.75-2.64-5.59-5.37-8.76-5.58-3.41-.22-6.71,2.23-9.9,4.6-2.67,2-5.45,4-7.62,3.86-2.62-.21-5.24-2.89-7.76-5.47-2.7-2.76-5.24-5.36-8.21-5.64-3.83-.36-7.58,2.27-10.89,4.58a34.82,34.82,0,0,1-4.23,2.68V179a27.93,27.93,0,0,0,5.69-3.37C24.9,173.47,28.1,171.23,31,171.5Z"/><path class="cls-9" d="M220.59,50.14a.57.57,0,0,1-.19.4c-3.17,3.52-47.69,6.31-102.15,6.31s-99-2.79-102.14-6.31a.57.57,0,0,1-.19-.4c0-3.71,45.81-6.72,102.33-6.72S220.59,46.43,220.59,50.14Z"/><path class="cls-10" d="M56.62,147.77a1.74,1.74,0,1,1-1.95,1.51A1.74,1.74,0,0,1,56.62,147.77Z"/><path class="cls-10" d="M51.55,149.29a1.34,1.34,0,1,1-1.5,1.16A1.35,1.35,0,0,1,51.55,149.29Z"/><path class="cls-5" d="M53.72,142.51a1.29,1.29,0,0,1-.33,2.55,1.29,1.29,0,0,1,.33-2.55Z"/><path class="cls-10" d="M53,154.56A1.23,1.23,0,0,1,54,155.94,1.23,1.23,0,1,1,53,154.56Z"/><path class="cls-5" d="M49.65,157.66a.82.82,0,0,1,.71.92.84.84,0,0,1-.92.72.82.82,0,0,1-.71-.92A.84.84,0,0,1,49.65,157.66Z"/><path class="cls-10" d="M45.27,148.9a1,1,0,0,1-.26,2,1,1,0,0,1,.26-2Z"/><path class="cls-10" d="M46.13,159.19a1.74,1.74,0,1,1-2,1.51A1.74,1.74,0,0,1,46.13,159.19Z"/><path class="cls-10" d="M42.6,152.3a1.49,1.49,0,1,1-1.67,1.29A1.49,1.49,0,0,1,42.6,152.3Z"/><path class="cls-5" d="M47.72,152.85a1.59,1.59,0,1,1-1.78,1.38A1.6,1.6,0,0,1,47.72,152.85Z"/><path class="cls-5" d="M49.07,144.31a1.85,1.85,0,1,1-2.07,1.6A1.85,1.85,0,0,1,49.07,144.31Z"/><path class="cls-5" d="M43.52,143.91a1.75,1.75,0,1,1-2,1.51A1.74,1.74,0,0,1,43.52,143.91Z"/><path class="cls-5" d="M47.07,139.69a1.34,1.34,0,1,1-1.5,1.16A1.35,1.35,0,0,1,47.07,139.69Z"/><path class="cls-11" d="M198.4,55.47c-8.33,1.45-16-1-22.52-4.52a1.3,1.3,0,0,1-.4-2c4.34-5.52,10.82-11.29,19.8-12.86,9.16-1.6,18.49,1.58,24.2,5.13a1.31,1.31,0,0,1,.26,2C215.14,48,205.47,54.23,198.4,55.47Z"/><path class="cls-12" d="M220.05,42.05l-44.84,7.67a1.31,1.31,0,0,0,.67,1.23c6.52,3.52,14.19,6,22.52,4.52,7.07-1.24,16.74-7.48,21.34-12.18A1.29,1.29,0,0,0,220.05,42.05Z"/><path class="cls-11" d="M191.83,27.06c-3.77,8.13-10.55,13.33-17.56,16.88a1.38,1.38,0,0,1-1.94-.83c-2.17-7.12-3.29-16.25.78-25,4.15-8.94,12.55-15.15,19.11-18a1.37,1.37,0,0,1,1.9,1C195.44,8,195,20.16,191.83,27.06Z"/><path class="cls-12" d="M174.27,43.94c7-3.55,13.79-8.75,17.56-16.88,3.2-6.9,3.61-19.1,2.29-25.95a1.33,1.33,0,0,0-.65-.91C188.53,10.67,173.2,43,172.33,43.11l.22.42A1.37,1.37,0,0,0,174.27,43.94Z"/><path class="cls-11" d="M208.73,31.31c-4.29,2.74-9.24,2.49-14.52.27a1.35,1.35,0,0,1-.81-1.28c.22-5.77,2.2-10.94,6.5-13.68s17.31-4.26,22-3.88a.27.27,0,0,1,.22.4C220.18,16.8,213.09,28.53,208.73,31.31Z"/><path class="cls-12" d="M208.73,31.31c4.36-2.78,11.45-14.51,13.36-18.17a.25.25,0,0,0,0-.17l-27.9,18.61C199.49,33.8,204.44,34.05,208.73,31.31Z"/><path class="cls-11" d="M89.56,84.67a7.83,7.83,0,0,1-5-2.17.34.34,0,0,1,0-.5,7.52,7.52,0,0,1,5.14-2.21,8.3,8.3,0,0,1,5.33,2.4.35.35,0,0,1,0,.51A11,11,0,0,1,89.56,84.67Z"/><path class="cls-11" d="M32.05,113.6a12,12,0,0,1,6.68-4.45.45.45,0,0,1,.58.38,11.5,11.5,0,0,1-1.71,8.08,12.74,12.74,0,0,1-7.25,4.71.45.45,0,0,1-.56-.43A16.78,16.78,0,0,1,32.05,113.6Z"/><path class="cls-13" d="M59,135.54c0-8.45,3.83-15.56,8.47-21.35a1.3,1.3,0,0,1,2,0c4.64,5.26,9.17,12.67,9.11,21.78-.06,9.3-4.85,17.91-9.37,22.9a1.31,1.31,0,0,1-2-.11C63.36,153.34,59,142.72,59,135.54Z"/><path class="cls-14" d="M68.59,113.71a1.31,1.31,0,0,0-1.12.48c-4.64,5.79-8.42,12.9-8.47,21.35,0,7.18,4.36,17.8,8.17,23.17a1.25,1.25,0,0,0,.85.52Z"/><path class="cls-13" d="M89,118.32c-8.91-.95-16-5.69-21.63-11.19a1.38,1.38,0,0,1,.15-2.1c6-4.35,14.33-8.35,24-7.32,9.79,1,18.38,7,23.16,12.3a1.38,1.38,0,0,1-.32,2.12C108.2,115.59,96.53,119.13,89,118.32Z"/><path class="cls-14" d="M114.94,111a1.32,1.32,0,0,0-.35-1c-4.78-5.3-13.37-11.26-23.16-12.3-9.62-1-17.91,3-24,7.32a1.38,1.38,0,0,0-.56,1Z"/><path class="cls-13" d="M43.83,107.3c1.54-8.17,6.45-14.38,12-19.16a1.29,1.29,0,0,1,1.94.3c3.57,5.91,6.64,13.87,5,22.68-1.7,9-7.85,16.47-13.1,20.5a1.28,1.28,0,0,1-1.94-.46C44.92,125.29,42.52,114.24,43.83,107.3Z"/><path class="cls-14" d="M56.91,87.86a1.28,1.28,0,0,0-1.13.28c-5.5,4.78-10.41,11-12,19.16-1.31,6.94,1.09,18,3.83,23.86a1.23,1.23,0,0,0,.82.68Z"/><path class="cls-13" d="M82.3,139c-2.11-4.91-1-10,2.19-15.09a1.4,1.4,0,0,1,1.46-.63c6,1.21,11,4.15,13.07,9.06s1.48,18.67.29,23.44a.28.28,0,0,1-.45.15C95.39,153.35,84.44,144,82.3,139Z"/><path class="cls-14" d="M85,123.45a1.44,1.44,0,0,0-.51.47C81.29,129,80.19,134.1,82.3,139s13.09,14.34,16.56,16.93a.27.27,0,0,0,.38,0Z"/><path class="cls-13" d="M106.41,133.08c-3.67-1.13-5.94-4.11-7.22-8.23a1,1,0,0,1,.33-1.09c3.44-2.68,7.38-4.05,11-2.91s10.88,7.89,12.93,10.76a.2.2,0,0,1-.13.32C120.34,132.61,110.13,134.24,106.41,133.08Z"/><path class="cls-14" d="M123.47,131.88a.21.21,0,0,0,0-.27c-2-2.87-9.18-9.6-12.93-10.76s-7.61.23-11,2.91a1,1,0,0,0-.32.46Z"/><path class="cls-13" d="M111.23,149.54c-3.14-2.18-4.39-5.67-4.38-10a1,1,0,0,1,.64-.93c4.06-1.52,8.21-1.64,11.34.54s8,10.73,9,14.07a.21.21,0,0,1-.22.26C124.57,153.26,114.41,151.75,111.23,149.54Z"/><path class="cls-14" d="M127.61,153.52h0a.21.21,0,0,0,.22-.26c-1.09-3.34-5.84-11.85-9-14.07s-7.28-2.06-11.34-.54a.92.92,0,0,0-.27.16Z"/><path class="cls-13" d="M71.73,99.05c-4.4-.18-7.79-2.82-10.43-7a1.16,1.16,0,0,1,.06-1.31c3-4,7-6.66,11.4-6.47s14.38,5.56,17.5,8.15a.23.23,0,0,1,0,.39C87.05,94.45,76.2,99.25,71.73,99.05Z"/><path class="cls-14" d="M90.34,92.59a.22.22,0,0,0-.08-.18c-3.12-2.59-13-8-17.5-8.15s-8.38,2.48-11.4,6.47a1.12,1.12,0,0,0-.22.58Z"/><path class="cls-13" d="M27.88,83.46C31.44,77.79,37.47,75.3,45,75A1.77,1.77,0,0,1,46.67,76c3,7,3.53,14.25,0,19.92s-18.17,14.8-23.94,17a.35.35,0,0,1-.47-.36C22.43,107.15,24.26,89.22,27.88,83.46Z"/><path class="cls-14" d="M45,75c-7.51.33-13.54,2.82-17.1,8.49s-5.45,23.69-5.65,29.1c0,0,0,0,0,.08L46.16,75.39A1.74,1.74,0,0,0,45,75Z"/><path class="cls-13" d="M63.28,83.37c-4.78,0-8.82-2.26-12.11-5a.82.82,0,0,1,0-1.2c3-2.82,7.15-5.57,12.31-5.56s10.16,2.86,13,5.57a.82.82,0,0,1-.05,1.22C73.35,80.68,67.35,83.37,63.28,83.37Z"/><path class="cls-14" d="M51.13,77.14a.79.79,0,0,0-.21.43l25.68-.18a.76.76,0,0,0-.17-.24c-2.83-2.71-7.73-5.56-13-5.57S54.1,74.32,51.13,77.14Z"/><path class="cls-13" d="M51.59,72.29c-4.54.58-8.47-1.52-11.91-5.35a1.2,1.2,0,0,1-.17-1.35C41.9,61,45.49,57.54,50,57s15.7,3.17,19.35,5.27a.24.24,0,0,1,0,.41C66.46,64.88,56.2,71.7,51.59,72.29Z"/><path class="cls-14" d="M69.39,62.23C65.74,60.13,54.68,56.37,50,57s-8.14,4-10.53,8.63a1.17,1.17,0,0,0,0,1l30-4.05A.23.23,0,0,0,69.39,62.23Z"/><path class="cls-13" d="M18.47,68.09c5.88-3.2,12.25-3.3,18-2.31a1,1,0,0,1,.8,1.36C35.44,72.37,32,78.34,25.7,81.79s-14.26,3.5-19.44,2.28a1,1,0,0,1-.7-1.45C7.82,77.93,13.48,70.8,18.47,68.09Z"/><path class="cls-14" d="M36.5,65.78c-5.78-1-12.15-.89-18,2.31-5,2.71-10.65,9.84-12.91,14.53a1,1,0,0,0,0,.95L37,66A1,1,0,0,0,36.5,65.78Z"/><path class="cls-13" d="M48.53,52.63c-2.57,4.54-6.74,7.24-11,9A.8.8,0,0,1,36.46,61c-.93-4.23-1.14-9.59,1.64-14.49A22.39,22.39,0,0,1,50,37a.8.8,0,0,1,1.06.66C51.53,41.72,50.72,48.78,48.53,52.63Z"/><path class="cls-14" d="M37,61.61,50.82,37.2A.78.78,0,0,0,50,37,22.39,22.39,0,0,0,38.1,46.54c-2.66,4.69-2.58,9.79-1.75,13.93l.36,1A.75.75,0,0,0,37,61.61Z"/><path class="cls-13" d="M14.15,62.7C7.63,60.17,3.26,55.15.15,49.87A1.08,1.08,0,0,1,.7,48.31c5.43-2,12.49-3.35,19.51-.62s12.41,9,14.93,14a1.07,1.07,0,0,1-.68,1.53C29.19,64.58,19.68,64.86,14.15,62.7Z"/><path class="cls-14" d="M35.08,62.76a1.07,1.07,0,0,0,.06-1.08c-2.52-5-7.76-11.2-14.93-14S6.13,46.27.7,48.31A1.07,1.07,0,0,0,.05,49Z"/><path class="cls-15" d="M71.46,15.81a2,2,0,0,1,2.2-1.05,20.2,20.2,0,0,1,6.49,2.67l0-.06c-.71-.65-4.28-4.07-4.35-6.84a6.79,6.79,0,0,1,3-5.66c.83-.44,1.12.61,1.12.61s.94-1.38,1.64-1.32c.86.06,3.08,3.63,2.61,6.42a59.57,59.57,0,0,1-1.75,6.12h0a17,17,0,0,1,4-5.21,10.79,10.79,0,0,1,6.12-2.24,1.35,1.35,0,0,1,1.25,1.59c3.1.42-.91,5.94-3.54,6.85a18.6,18.6,0,0,1-6.37.86v0c1.77.35,9.45,1.9,10.37,3s1.76,3.63,1.24,4a2.42,2.42,0,0,1-1,.44.93.93,0,0,1-.2.92c-.39.42-4.49,1.23-6.41,0-1.62-1-4.15-5.17-4.92-6.48h0c.94,1.93,1.91,6.15,1.63,7.45S82,31.68,80.22,32.17s-3.73-4-3.75-5.45c0-1.11,2.59-4.88,3.8-6.58L80.15,20C79,21.06,76.75,23,75,23.47c-2.39.64-7.46-.69-7.34-2.51C67.8,19.41,69.24,16.51,71.46,15.81Z"/><path class="cls-16" d="M81.71,17.94s1.63-4.65.21-8.47a24.91,24.91,0,0,1-.35,6.42s-.6-4.64-2.08-7.12c0,0-.31,4.49.81,7.37a15.12,15.12,0,0,1-2.9-6.47s0,5.42,3.74,8.41Z"/><path class="cls-16" d="M82.51,18.33a37.12,37.12,0,0,0,6.37-1.44,10.07,10.07,0,0,0,3.6-3.2S89,16.61,86.55,16.58a20.38,20.38,0,0,0,5.11-3.93,40.21,40.21,0,0,0-6.07,2.7l4.21-3.54a15.18,15.18,0,0,0-7.65,5.8Z"/><path class="cls-16" d="M82,19.52s2.38,4.21.77,8c0,0,.15-3.49-.84-4.91a10.61,10.61,0,0,1-1.26,6.6,13.57,13.57,0,0,1-.09-6.56,26.2,26.2,0,0,0-2.41,5.49,13.33,13.33,0,0,1,3.07-8.8Z"/><path class="cls-16" d="M81.28,18.72s-5.13,4.71-10.12,2.15a7.64,7.64,0,0,0,5.78-1.07,9.12,9.12,0,0,1-6.58-.35,35.12,35.12,0,0,1,8-1.26,17.13,17.13,0,0,0-6.64-.81,13.92,13.92,0,0,1,9.83,1.1Z"/><path class="cls-16" d="M82.81,19.06a16,16,0,0,1,9.37,4.09s-3.67-1.91-5-1.93a34.46,34.46,0,0,1,5.19,3.42A31.57,31.57,0,0,1,85,21.15s1.67,1.66,5.3,4.87a27.28,27.28,0,0,1-7.84-6.65Z"/><path class="cls-17" d="M80,17.82a.3.3,0,0,1,.13.26,5.21,5.21,0,0,0,.63.18.64.64,0,0,1,0-.07,1.49,1.49,0,0,1,.29-.47c-.13-.19-.25-.38-.36-.58h-.08a.23.23,0,0,1-.14-.3.23.23,0,0,1,.3-.14.24.24,0,0,1,.14.3l0,.07c.1.17.21.35.33.52a1.54,1.54,0,0,1,.5-.24,1.41,1.41,0,0,0,.06-.46.29.29,0,0,1-.13-.05.35.35,0,0,1-.1-.49.35.35,0,1,1,.59.39.33.33,0,0,1-.16.13,1.65,1.65,0,0,1,0,.45,1.44,1.44,0,0,1,.54.07l.19.09c.22-.21.41-.38.53-.48a.28.28,0,0,1,0-.18.28.28,0,1,1,.53.19.27.27,0,0,1-.36.17l-.06,0c-.11.09-.28.24-.47.43a1.45,1.45,0,0,1,.34.4,2.77,2.77,0,0,1,.65-.15.19.19,0,0,1,0-.12.26.26,0,1,1,.07.36l0,0h0a2.28,2.28,0,0,0-.63.13,1.29,1.29,0,0,1,0,.91v0a2.86,2.86,0,0,0,.85.16.29.29,0,0,1,.35-.14.29.29,0,0,1-.19.54.32.32,0,0,1-.18-.2,3.22,3.22,0,0,1-.91-.17l-.09.13a6.44,6.44,0,0,1,.39.65.2.2,0,0,1,.11,0,.23.23,0,0,1,.06.33.22.22,0,0,1-.32.06.24.24,0,0,1-.07-.33l0,0a6,6,0,0,0-.33-.56,1.36,1.36,0,0,1-.85.38,3,3,0,0,0,.16.62h0a.23.23,0,0,1,.15.3.24.24,0,1,1-.45-.16l.07-.09a3.48,3.48,0,0,1-.17-.69,1.14,1.14,0,0,1-.32-.07l-.09,0c-.1.19-.21.38-.3.52a.3.3,0,0,1,0,.34.28.28,0,0,1-.39.07.29.29,0,0,1-.08-.39.29.29,0,0,1,.28-.12,3.42,3.42,0,0,0,.3-.52,1.34,1.34,0,0,1-.57-.77,4.5,4.5,0,0,0-.58.21.25.25,0,0,1,0,.19.33.33,0,1,1-.2-.42.24.24,0,0,1,.11.06,3,3,0,0,1,.65-.23.91.91,0,0,1,0-.33,3.82,3.82,0,0,1-.65-.19.3.3,0,0,1-.41.07.31.31,0,1,1,.34-.51Z"/><path class="cls-15" d="M149.4,51.49s14.86,6.31,21.25,3.91,8.51-9.36,8.27-11.28-7.41-6-13.15-5.73S149,49.72,149.4,51.49Z"/><path class="cls-18" d="M146.16,52.19c-.83-2.4,11.78-14.28,17.2-15.31s13.27.78,15.38,5c0,0-1.78,1.77-3.5.34,0,0,.75,1.78-.57,1.67s-4.79-3.83-9.15-2.94-12.66,8.39-12.66,8.39,10.37-5.61,14.37-5.44,7.29,1,7.63,3.43-6.93,7-6.93,7,5.94-1.54,7.63-6c0,0,2.06-1.82,2.64-1.3s.65,2.08.34,3-3.67,9.16-12.66,8.39C157.46,57.65,146.75,53.91,146.16,52.19Z"/><path class="cls-19" d="M148.86,52.9s11.9,5.31,19.28,3.75c0,0-7.75-1.1-10.21-2.07,0,0,11.4-3,10.82-5.71-.74-3.43-20,2.47-20,2.47Z"/><path class="cls-19" d="M148.38,49.82s6.62-9.43,14.46-11.21c0,0-10.25,5.91-14.32,13.42Z"/><path class="cls-20" d="M149.42,54.65a5.38,5.38,0,0,0-1.78-6.17s-3.85,2.34-3.41,4.09C144.61,54.07,149.42,54.65,149.42,54.65Z"/><path class="cls-21" d="M147.64,48.48s-3.85,2.34-3.41,4.09a1.93,1.93,0,0,0,1.15,1,9.92,9.92,0,0,1,3.43-3.93A5.49,5.49,0,0,0,147.64,48.48Z"/><path class="cls-5" d="M109,58c.26.87,4,1.28,6.58,1.89,4.18,1,8.11,5.62,18.64,3.25a17,17,0,0,0,13.23-13.91c.17-1.9.22-6.6-1.56-7.93s-7.85-2.74-16.46.18A31.72,31.72,0,0,0,114.52,52C112.6,54.29,108.34,55.92,109,58Z"/><path class="cls-22" d="M110.78,58.34s20,7,30.89-3.8c0,0-11.8,6.15-20.07,2.64,0,0,12.22,2,21.36-6.58,0,0-17.26,6.58-32.39,6.3Z"/><path class="cls-5" d="M108.28,55.4c-.66,1.18-3.33-4.86-3.22-8.36s-3.27-7.85-4.33-9-7.41-6.19-7.06-11.1a6.23,6.23,0,0,1,4-5.66,15.17,15.17,0,0,1,3.59-.73s.07-2.45,1.53-2.6c2.68-.28,6.06,3.94,7.67,7.66C112.63,30.62,114.13,44.87,108.28,55.4Z"/><path class="cls-22" d="M108.28,55.4s2.1-10.06-8.93-26.51c0,0,8.84,8.76,10.52,21.53,0,0-.44-13.32-5.16-23.11a42.28,42.28,0,0,1,5.86,29.59Z"/><path class="cls-8" d="M108.92,57.89c-1.3-.73-6.22-13.31-.29-23.2,4-6.66,10.74-12.88,15.45-14.87,6.32-2.67,8.93,2.94,9.7,3.37s3.73.41,5,3.54c2,4.91-2.73,14.72-7.46,20.44S112.51,59.93,108.92,57.89Z"/><path class="cls-5" d="M108.93,55.74s-3.21-19,14-29.38c0,0-10.66,12.63-10.06,20.83,0,0,3.55-12.94,15.75-19.58,0,0-10.57,11.76-12.14,22.54,0,0,10.87-9.68,14.47-17.17,0,0-3.42,14.83-19.87,24Z"/><path class="cls-10" d="M108.68,57.17c.32,2.11,4.58,1.55,6.34,1.21s10.35-1.34,14-1.91,8.14-1.89,9.84-3.9c4.44-5.29,5.3-12.07,3.81-15.28a11.83,11.83,0,0,0-9.13-6.1A16.42,16.42,0,0,0,122,35.05c-3.33,2.91-5.92,13.87-8.36,16.37S108.25,54.36,108.68,57.17Z"/><path class="cls-8" d="M109.78,58c.22-.08,18.56-.57,23.49-5.94,0,0-7.22,2.76-10.77,2.4,0,0,9.89-4,13.49-13.27,0,0-7.75,8-15.52,11.33,0,0,.54-4.59,8.38-13.48,0,0-5.94,3.53-11.9,11.66a15.45,15.45,0,0,1-7.5,6A5.85,5.85,0,0,0,109.78,58Z"/><path class="cls-20" d="M108.9,55.12a2.81,2.81,0,0,1,2-1.76,4.14,4.14,0,0,1-.14,2.83,4,4,0,0,1,2.66.28s-1.57,1-1.65,1.45a2.42,2.42,0,0,1,2.13,1.78s-1.77-.37-2.42-.41a4.76,4.76,0,0,1-2.39-.67c-1.44-1.15-1.78-4-2.65-4.45A3.7,3.7,0,0,1,108.9,55.12Z"/><path class="cls-5" d="M51.63,45.53c.83-.35.87-4.12,1.22-6.73.56-4.26,4.78-8.64,1.36-18.88A17,17,0,0,0,39.05,8.15c-1.91,0-6.6.45-7.73,2.36s-1.94,8.08,1.82,16.35a31.72,31.72,0,0,0,12,13.75C47.63,42.29,49.67,46.36,51.63,45.53Z"/><path class="cls-22" d="M51.83,43.69S56.83,23,45,13.35c0,0,7.31,11.12,4.65,19.69,0,0,.8-12.36-8.69-20.59,0,0,8.27,16.52,9.51,31.6Z"/><path class="cls-5" d="M49.16,46.48c1.24.54-4.5,3.79-8,4s-7.49,4-8.54,5.21-5.42,8-10.34,8.14a6.24,6.24,0,0,1-6-3.4A15.6,15.6,0,0,1,15.17,57s-2.44.18-2.74-1.27c-.54-2.63,3.32-6.42,6.85-8.39C24.07,44.63,38.09,41.71,49.16,46.48Z"/><path class="cls-22" d="M49.16,46.48S38.94,45.39,23.68,58c0,0,7.83-9.67,20.37-12.62,0,0-13.21,1.77-22.48,7.44a42.28,42.28,0,0,1,28.85-8.79Z"/><path class="cls-8" d="M51.58,45.58C51,47,39,53.11,28.52,48.21c-7-3.31-13.89-9.4-16.34-13.89-3.29-6,2-9.17,2.38-10s0-3.75,3-5.35c4.67-2.49,14.91,1.25,21.08,5.38S53.24,41.81,51.58,45.58Z"/><path class="cls-5" d="M49.43,45.8s-18.52,5.09-30.64-11c0,0,13.64,9.34,21.74,7.92,0,0-13.23-2.23-21.06-13.71,0,0,12.76,9.34,23.64,9.82,0,0-10.72-9.84-18.53-12.67,0,0,15.1,1.91,25.84,17.36Z"/><path class="cls-10" d="M50.88,45.9c2.07-.53,1.08-4.71.57-6.43s-2.37-10.16-3.31-13.75-2.69-7.92-4.87-9.4c-5.71-3.9-12.54-4.07-15.58-2.27a11.86,11.86,0,0,0-5.15,9.7,16.42,16.42,0,0,0,5,11.12c3.23,3,14.39,4.5,17.13,6.67S48.14,46.61,50.88,45.9Z"/><path class="cls-8" d="M51.55,44.73c-.11-.22-2.43-18.41-8.27-22.77,0,0,3.48,6.9,3.47,10.47,0,0-5-9.44-14.55-12.1,0,0,8.75,6.91,12.82,14.31,0,0-4.61-.07-14.24-7,0,0,4.1,5.55,12.79,10.66a15.45,15.45,0,0,1,6.71,6.87A6.43,6.43,0,0,0,51.55,44.73Z"/><path class="cls-20" d="M48.82,45.89a2.79,2.79,0,0,1-2-1.83,4.15,4.15,0,0,1,2.83-.14,4,4,0,0,1,0-2.68s1.16,1.47,1.61,1.5a2.41,2.41,0,0,1,1.56-2.3s-.19,1.8-.17,2.45a4.86,4.86,0,0,1-.42,2.45c-1,1.54-3.86,2.17-4.16,3.08A3.65,3.65,0,0,1,48.82,45.89Z"/><path class="cls-15" d="M49.12,51.59a4.37,4.37,0,0,1,4.47-2.7A43.68,43.68,0,0,1,68,53.25l.08-.13c-1.66-1.25-10-7.82-10.73-13.72A14.6,14.6,0,0,1,62.5,26.68C64.18,25.57,65,27.74,65,27.74s1.71-3.13,3.22-3.16c1.87,0,7.35,7.12,6.92,13.2A126,126,0,0,1,72.7,51.22l.07,0a36.53,36.53,0,0,1,7.48-12c3.51-3.63,10.12-6.08,12.62-6.06a2.9,2.9,0,0,1,3,3.14c6.71.24-.72,12.87-6.15,15.37a39.49,39.49,0,0,1-13.44,3.17v0c3.86.37,20.6,2.09,22.79,4.14,2.48,2.31,4.53,7.39,3.48,8.32a5,5,0,0,1-2,1.15,2,2,0,0,1-.24,2c-.75,1-9.34,3.58-13.72,1.4-3.67-1.82-9.93-10.18-11.86-12.83l0,0c2.41,3.93,5.37,12.75,5,15.59-.36,3-4.81,8.61-8.48,10S62.45,77,62.1,73.87c-.27-2.36,4.51-11,6.75-14.85l-.28-.27c-2.22,2.51-6.65,7.13-10.22,8.47-5,1.88-16.1.1-16.21-3.82C42,60.06,44.51,53.57,49.12,51.59Z"/><path class="cls-16" d="M71.48,54S74,43.73,70.16,35.86c0,0,1.49,8.84.59,13.81,0,0-2.25-9.8-5.94-14.8,0,0,.28,9.67,3.27,15.58,0,0-4.52-4.07-7.56-13.22,0,0,1.06,11.6,9.77,17.21Z"/><path class="cls-16" d="M73.26,54.67s9.25-2.23,13.32-4.39,7-7.61,7-7.61-6.81,7-12.08,7.43c0,0,7.15-4.87,10.09-9.48,0,0-9.23,4.38-12.4,7l8.25-8.45s-8.64,3.1-15.13,14Z"/><path class="cls-16" d="M72.45,57.34s6,8.49,3.3,16.89c0,0-.4-7.5-2.82-10.32a22.69,22.69,0,0,1-1.32,14.37,29,29,0,0,1-1.55-14,56.9,56.9,0,0,0-4,12.25s-1.8-9.43,4.74-19.46Z"/><path class="cls-16" d="M70.72,55.78s-10,11.14-21.19,6.7c0,0,5.69,1.19,12.12-3.5,0,0-7.14,3.4-14.13.63,0,0,5.62-2.51,16.83-4.36A36.9,36.9,0,0,0,50,54.91a29.86,29.86,0,0,1,21.26.3Z"/><path class="cls-16" d="M74.05,56.17S84.33,55.37,95,63c0,0-8.25-3.32-11.16-3.09,0,0,7.58,3.17,11.8,6.22,0,0-10.22-2.26-16.35-5.92,0,0,3.92,3.21,12.36,9.31A58.9,58.9,0,0,1,73.43,56.91Z"/><path class="cls-17" d="M67.75,54.12a.66.66,0,0,1,.34.52,11.73,11.73,0,0,0,1.38.26l0-.16A2.77,2.77,0,0,1,70,53.68a10.83,10.83,0,0,1-.89-1.16H69a.51.51,0,1,1,.62-.37.55.55,0,0,1-.08.15,11.57,11.57,0,0,0,.82,1.06,2.75,2.75,0,0,1,1-.62,3.09,3.09,0,0,0,0-1,.86.86,0,0,1-.3-.09.76.76,0,0,1,.73-1.34.76.76,0,0,1,.3,1,.71.71,0,0,1-.31.31,3.85,3.85,0,0,1,0,1,2.69,2.69,0,0,1,1.16,0,3.12,3.12,0,0,1,.43.15,14,14,0,0,1,1-1.14.62.62,0,0,1,0-.38.61.61,0,1,1,.45.74l-.13,0c-.22.22-.56.58-.93,1a2.71,2.71,0,0,1,.81.77,6.42,6.42,0,0,1,1.37-.44.53.53,0,0,1,.06-.27.55.55,0,0,1,.75-.22.56.56,0,1,1-.53,1,.43.43,0,0,1-.1-.09h0a5.14,5.14,0,0,0-1.32.41,2.89,2.89,0,0,1,.21,2l0,0a6.32,6.32,0,0,0,1.85.16.61.61,0,1,1,.42.81.6.6,0,0,1-.42-.37,7.54,7.54,0,0,1-2-.19,3,3,0,0,1-.16.31,13.31,13.31,0,0,1,1,1.29.46.46,0,0,1,.25.06.51.51,0,0,1,.21.69.52.52,0,0,1-.69.2.5.5,0,0,1-.2-.69l0-.06c-.18-.26-.47-.69-.84-1.13a2.85,2.85,0,0,1-1.72,1,7.48,7.48,0,0,0,.46,1.3h.1a.5.5,0,1,1-.61.37.45.45,0,0,1,.12-.21,8.57,8.57,0,0,1-.51-1.44,2.84,2.84,0,0,1-.7-.08l-.2-.06c-.18.44-.36.86-.53,1.18a.62.62,0,0,1,.1.72.6.6,0,0,1-.83.24.61.61,0,0,1-.24-.82.6.6,0,0,1,.58-.31c.16-.31.35-.73.53-1.17a2.86,2.86,0,0,1-1.38-1.53,8.14,8.14,0,0,0-1.2.56.63.63,0,0,1,0,.41.71.71,0,0,1-.86.52.7.7,0,0,1-.51-.86.7.7,0,0,1,.85-.52.66.66,0,0,1,.24.11A7.1,7.1,0,0,1,69.48,56a2.72,2.72,0,0,1-.06-.7A9.57,9.57,0,0,1,68,55.05a.66.66,0,0,1-.87.23.65.65,0,0,1-.26-.89A.66.66,0,0,1,67.75,54.12Z"/><path class="cls-15" d="M74.61,71.14a5.76,5.76,0,0,0,.55-6.84A57.34,57.34,0,0,0,61.58,49.87s.07-.1.1-.16c2.44,1.21,15.06,7.17,22.42,4.58,8.17-2.88,11.62-10.85,12-13.48s-2.72-2.35-2.72-2.35,2.68-3.85,1.82-5.65c-1.05-2.21-12.67-4.47-19.57-.4-4.24,2.5-13,9.69-14.36,10.78l0-.07a47.9,47.9,0,0,0,9.69-15.81c2.22-6.25,1.23-15.46-.27-18.38-1.9-3.74-5.44-1.69-5.44-1.69C60.93-.52,50.43,15.63,50.68,23.47a51.81,51.81,0,0,0,4.14,17.66l0,0c-2.71-4.32-14.53-23-18.23-24.37-4.17-1.56-11.34-1-11.82.78a6.64,6.64,0,0,0-.17,3,2.62,2.62,0,0,0-2.22,1.46C21.62,23.52,23.6,35.13,28.72,39c4.3,3.25,17.8,5.72,22.05,6.44,0,0,0,0,0,0-6-.54-18.13,1.16-21.27,3.22-3.33,2.19-7.31,10.7-6.83,15.85S37,70.32,40.8,68.93c2.94-1.07,10.26-11.73,13.51-16.64l.49.17c-1.65,4.08-4.49,12-4,17,.71,7,9.33,19,14,16.83C68.8,84.42,75,77.72,74.61,71.14Z"/><path class="cls-16" d="M58.65,46.27s10.63-9,22.13-9.09c0,0-11.27,3.43-16.59,7.39,0,0,12.84-3.08,20.89-1.68,0,0-11.55,5.34-20.24,5.29,0,0,7.43,2.93,20,1.14,0,0-14.26,5.55-26-1.4Z"/><path class="cls-16" d="M56.84,44.56S54,32.38,54.2,26.33,59,13.59,59,13.59s-4.22,12.1-1.65,18.55c0,0,1.53-11.26,5.22-17.41,0,0,.27,13.42-1,18.7,0,0,2.58-7.37,5.09-14.65,0,0,1.43,12-7.59,26Z"/><path class="cls-16" d="M54.18,47.07s-13.48-2-21.79,6c0,0,9-3.92,13.78-2.73a29.84,29.84,0,0,0-16.12,10A38.11,38.11,0,0,0,47.43,54a74.23,74.23,0,0,1-12,11.9s12.15-3.41,20.1-17Z"/><path class="cls-16" d="M57,48.19S49.78,66.46,61.56,77c0,0-4.73-6-3-16.3,0,0,.19,10.39,7.55,17,0,0-.34-8.07-4.74-22.33,0,0,6.49,7.66,8.83,16.7A39.25,39.25,0,0,0,57.4,47.27Z"/><path class="cls-16" d="M54.61,44.51S49.53,32,34.36,23.93c0,0,8.74,7.75,10.18,11.3,0,0-8.18-7-14.24-10.22,0,0,8.65,10.69,16.55,15.75,0,0-6.07-2.73-18.19-9.07a77.35,77.35,0,0,0,25.45,14Z"/><path class="cls-17" d="M60.71,50.72a.85.85,0,0,0-.8-.1,13.1,13.1,0,0,1-1.11-1.47L59,49a3.61,3.61,0,0,0,.95-1.23,13.41,13.41,0,0,0,1.87.36.55.55,0,0,0,.12.21.68.68,0,0,0,.94.08.67.67,0,0,0-.87-1,.46.46,0,0,0-.13.18,15.1,15.1,0,0,1-1.73-.34,3.59,3.59,0,0,0,.13-1.56,4,4,0,0,1,1.15-.62,1.14,1.14,0,0,0,.28.3A1,1,0,1,0,61.43,44a.92.92,0,0,0-.18.54,5.4,5.4,0,0,0-1.14.57,3.68,3.68,0,0,0-.72-1.33,3.57,3.57,0,0,0-.44-.43,17.39,17.39,0,0,0,.74-1.88.79.79,0,0,0,.55-1.31.78.78,0,0,0-1.12-.09A.8.8,0,0,0,59,41.19a.63.63,0,0,0,.12.11c-.13.4-.35,1-.66,1.7a3.69,3.69,0,0,0-1.39-.5,8.22,8.22,0,0,0-.27-1.87.71.71,0,0,0,.27-.22.73.73,0,0,0-.18-1,.73.73,0,0,0-.84,1.2.61.61,0,0,0,.17.07h0a6.89,6.89,0,0,1,.29,1.8,3.72,3.72,0,0,0-2.41.88l-.06.06a8.71,8.71,0,0,1-1.27-2.08.81.81,0,0,0,0-1.06.8.8,0,1,0-1.22,1,.78.78,0,0,0,.69.27,9.68,9.68,0,0,0,1.38,2.24l-.26.36a17.39,17.39,0,0,0-2.09-.37.6.6,0,0,0-.21-.27.67.67,0,1,0,.17.93s0-.06,0-.09a13.83,13.83,0,0,1,1.82.32,3.7,3.7,0,0,0-.15,2.6,9,9,0,0,1-1.81.22s0-.08-.07-.11a.66.66,0,1,0-.07.94.8.8,0,0,0,.18-.27,10.41,10.41,0,0,0,2-.25,3.61,3.61,0,0,0,.51.78l.18.2c-.41.47-.8.93-1.08,1.32a.82.82,0,0,0-.9.3.8.8,0,0,0,.2,1.11.79.79,0,0,0,1.11-.19.81.81,0,0,0,0-.87c.27-.37.65-.83,1.07-1.3a3.74,3.74,0,0,0,2.6.72,11.21,11.21,0,0,1,0,1.74,1,1,0,0,0-.5.21,1,1,0,0,0-.11,1.32.93.93,0,0,0,1.32.1.92.92,0,0,0,.1-1.31.75.75,0,0,0-.26-.21,10.55,10.55,0,0,0-.05-2,3.47,3.47,0,0,0,.86-.33A15.06,15.06,0,0,0,59.48,51a.86.86,0,0,0,1.45.94A.86.86,0,0,0,60.71,50.72Z"/><path class="cls-15" d="M85.35,56.28a2.72,2.72,0,0,1,1.47-2.89,27,27,0,0,1,9.05-2.45v-.09C94.59,50.74,88,50,85.71,47.13a9.06,9.06,0,0,1-1.47-8.39c.52-1.14,1.68-.27,1.68-.27s-.13-2.22.66-2.73c1-.63,6.22,1.34,8,4.69a83.38,83.38,0,0,1,3.11,7.91h0a22.55,22.55,0,0,1,0-8.78,14.39,14.39,0,0,1,4.67-7.34,1.79,1.79,0,0,1,2.61.67c3.63-2.07,3.85,7,1.81,10.14a24.74,24.74,0,0,1-6.06,6.08l0,0c2.16-1.07,11.56-5.65,13.39-5.29,2.07.41,4.82,2.41,4.57,3.25a3,3,0,0,1-.69,1.26,1.23,1.23,0,0,1,.53,1.14c-.07.77-3.75,5-6.77,5.24-2.54.24-8.59-2.11-10.48-2.88v0c2.57,1.28,7,5,7.77,6.58s.29,6.12-1.18,8.08-7.2-1.23-8.4-2.74c-.91-1.16-1.22-7.27-1.31-10.06l-.24,0c-.35,2-1.17,5.94-2.61,7.83-2,2.63-8.47,5.33-9.81,3.3C84.39,63.07,83.56,58.83,85.35,56.28Z"/><path class="cls-16" d="M98,50.22s-2-6.26-6.66-9.15c0,0,3.69,4.17,4.84,7.09,0,0-4.4-4.43-8-5.86,0,0,3.33,5,6.84,7.15,0,0-3.72-.66-8.32-4.49,0,0,4.36,5.77,10.8,5.87Z"/><path class="cls-16" d="M99.1,50a49.23,49.23,0,0,0,5.59-6.69c1.44-2.48,1.22-6.32,1.22-6.32s-1.3,5.92-3.94,7.88c0,0,2.18-4.92,2.22-8.31,0,0-3.44,5.34-4.24,7.78,0,0,.79-3.61,1.58-7.16,0,0-3.54,4.46-3.39,12.35Z"/><path class="cls-16" d="M99.55,51.65s5.93,2.53,7.28,7.83c0,0-2.67-3.82-4.87-4.51a14.09,14.09,0,0,1,4,8,18,18,0,0,1-5.42-6.88,35,35,0,0,0,1.9,7.78,17.76,17.76,0,0,1-3.88-11.82Z"/><path class="cls-16" d="M98.12,51.4s-1.61,9.15-9,10.49a10.21,10.21,0,0,0,5.25-5.82s-2.66,4.13-7.26,5a47.1,47.1,0,0,1,7.46-7.82,23,23,0,0,0-7.7,4.54A18.58,18.58,0,0,1,98.2,50.93Z"/><path class="cls-16" d="M100,50.51a21.38,21.38,0,0,1,13.26-3.26s-5.44,1-6.9,2a46.81,46.81,0,0,1,8.27-.59s-6.13,2.16-10.57,2.24c0,0,3.12.41,9.58.86a36.65,36.65,0,0,1-13.72-.69Z"/><path class="cls-17" d="M96,51.5a.42.42,0,0,1,.35.16,5.64,5.64,0,0,0,.81-.32l0-.09a1.83,1.83,0,0,1-.08-.73,6.59,6.59,0,0,1-.84-.32l-.1.06a.32.32,0,0,1-.4-.21.31.31,0,0,1,.21-.39.3.3,0,0,1,.39.2.17.17,0,0,1,0,.1,5.64,5.64,0,0,0,.78.29,1.76,1.76,0,0,1,.34-.65,2.27,2.27,0,0,0-.31-.54.41.41,0,0,1-.19,0,.47.47,0,0,1-.5-.44.48.48,0,0,1,.45-.5.47.47,0,0,1,.5.44.5.5,0,0,1-.07.27,2.71,2.71,0,0,1,.32.51,1.66,1.66,0,0,1,.62-.36l.28-.06a7.93,7.93,0,0,1,.17-.94.45.45,0,0,1-.14-.19.39.39,0,0,1,.24-.48.38.38,0,0,1,.48.24.38.38,0,0,1-.24.48l-.08,0a7.5,7.5,0,0,0-.16.84,1.65,1.65,0,0,1,.69.15,4,4,0,0,1,.57-.69.38.38,0,0,1-.06-.16.35.35,0,0,1,.7,0,.35.35,0,0,1-.33.37h-.08a2.9,2.9,0,0,0-.56.65,1.73,1.73,0,0,1,.74.95.08.08,0,0,1,0,0,4.07,4.07,0,0,0,1-.52.38.38,0,0,1,.26-.43.36.36,0,0,1,.47.24A.38.38,0,0,1,102,50a.4.4,0,0,1-.35-.06,4.46,4.46,0,0,1-1.11.55,1.8,1.8,0,0,1,0,.22,5.54,5.54,0,0,1,.93.37.31.31,0,0,1,.49.24.32.32,0,0,1-.3.33.31.31,0,0,1-.33-.3v0a7.17,7.17,0,0,0-.81-.32A1.74,1.74,0,0,1,100,52a6.21,6.21,0,0,0,.68.54s0,0,0,0a.31.31,0,0,1,.4.2.33.33,0,0,1-.2.4.32.32,0,0,1-.4-.21.38.38,0,0,1,0-.15,4.82,4.82,0,0,1-.73-.59,2.93,2.93,0,0,1-.4.19l-.12,0a6.7,6.7,0,0,1,.1.8.38.38,0,0,1,.29.35.38.38,0,0,1-.35.39.37.37,0,0,1-.4-.35.38.38,0,0,1,.2-.36c0-.21-.06-.49-.11-.79a1.76,1.76,0,0,1-1.22-.35,3.89,3.89,0,0,0-.45.69.46.46,0,0,1,.14.21.43.43,0,0,1-.28.55.44.44,0,0,1-.56-.28.46.46,0,0,1,.29-.56l.15,0a5.71,5.71,0,0,1,.51-.77,1.52,1.52,0,0,1-.26-.35,7,7,0,0,1-.85.33A.41.41,0,1,1,96,51.5Z"/><path class="cls-13" d="M146.28,193.26c6.27.88,11.16,4.39,15,8.4a1,1,0,0,1-.16,1.48c-4.36,2.93-10.3,5.55-17.06,4.6s-12.8-5.37-16.05-9.22a1,1,0,0,1,.28-1.49C132.65,194.74,141,192.52,146.28,193.26Z"/><path class="cls-13" d="M164.12,183c2.69,5.33,2.6,11,1.56,16.14a.92.92,0,0,1-1.23.67c-4.62-1.8-9.84-5-12.74-10.74s-2.72-12.8-1.49-17.39a.91.91,0,0,1,1.3-.59C155.64,173.24,161.84,178.48,164.12,183Z"/><path class="cls-11" d="M143.62,179.1c2.73,2.33,3.57,5.73,3.15,9.74a1,1,0,0,1-.69.82c-4,1-7.84.75-10.57-1.59s-6.42-10.81-7.12-14a.19.19,0,0,1,.22-.23C131.47,174.34,140.85,176.72,143.62,179.1Z"/><g class="cls-23"><polygon class="cls-12" points="146.08 189.66 125.5 171.97 144.04 169.95 148.87 188.49 146.08 189.66"/></g><g class="cls-24"><polygon class="cls-14" points="124.98 197.24 169.4 203.12 151.41 214.63 133.25 213.26 124.98 197.24"/></g><g class="cls-25"><polygon class="cls-14" points="149.48 168.34 166.56 204.91 171.54 184.06 154.62 169.09 149.48 168.34"/></g><path class="cls-26" d="M207.24,152.1a2.48,2.48,0,1,1,2.86-2A2.48,2.48,0,0,1,207.24,152.1Z"/><path class="cls-27" d="M214.53,150.22a1.9,1.9,0,1,1,2.2-1.56A1.9,1.9,0,0,1,214.53,150.22Z"/><path class="cls-27" d="M211.07,159.72a1.83,1.83,0,1,1,2.11-1.49A1.84,1.84,0,0,1,211.07,159.72Z"/><path class="cls-26" d="M212.84,142.66a1.75,1.75,0,1,1,2-1.44A1.75,1.75,0,0,1,212.84,142.66Z"/><path class="cls-26" d="M217.71,138.44a1.17,1.17,0,1,1,1.35-1A1.18,1.18,0,0,1,217.71,138.44Z"/><path class="cls-27" d="M223.43,151.13a1.47,1.47,0,1,1,1.69-1.2A1.48,1.48,0,0,1,223.43,151.13Z"/><path class="cls-27" d="M222.79,136.47a2.48,2.48,0,1,1,2.87-2A2.48,2.48,0,0,1,222.79,136.47Z"/><path class="cls-26" d="M227.42,146.46a2.12,2.12,0,1,1,2.44-1.74A2.12,2.12,0,0,1,227.42,146.46Z"/><path class="cls-27" d="M220.18,145.38a2.27,2.27,0,1,1,2.61-1.85A2.26,2.26,0,0,1,220.18,145.38Z"/><path class="cls-27" d="M217.77,157.44a2.63,2.63,0,1,1,3-2.16A2.63,2.63,0,0,1,217.77,157.44Z"/><path class="cls-26" d="M225.63,158.32a2.48,2.48,0,1,1,2.86-2A2.48,2.48,0,0,1,225.63,158.32Z"/><path class="cls-26" d="M220.35,164.11a1.9,1.9,0,1,1,2.19-1.56A1.9,1.9,0,0,1,220.35,164.11Z"/><path class="cls-15" d="M182.77,199.19s-10.16-13.2-17.13-14.28-12.38,4.1-13.14,6,3.62,9.15,8.92,11.81S182.19,201,182.77,199.19Z"/><path class="cls-18" d="M186,200.2c-.46,2.57-17.81,6.87-23.22,5.05s-11.53-7.42-11.26-12.32c0,0,2.5-.69,3.32,1.47,0,0,.22-2,1.35-1.22s2.37,5.87,6.74,7.28,15.63-1.13,15.63-1.13-12.16-.2-15.67-2.39-6.07-4.54-5.12-6.95,9.75-2.74,9.75-2.74-6.12-1.62-9.92,1.56c0,0-2.77.6-3-.16s.47-2.2,1.21-2.86,7.94-6.38,15.63-1.14C178.64,189.57,186.37,198.35,186,200.2Z"/><path class="cls-19" d="M184,198.19s-8-10.8-15.43-13.13c0,0,6.4,4.91,8.13,7,0,0-11.79-3.05-12.63-.35-1.06,3.46,19.23,7.91,19.23,7.91Z"/><path class="cls-19" d="M182.84,201.2s-10.73,5.12-18.68,2.75c0,0,12.21-.12,19.67-4.8Z"/><path class="cls-20" d="M184.35,196.34a5.53,5.53,0,0,0-1.53,6.44s4.64-.15,5.13-1.95C188.37,199.29,184.35,196.34,184.35,196.34Z"/><g class="cls-28"><path class="cls-21" d="M181.61,201.14a10,10,0,0,0,6.63-2.45l.56,5.83s-1.33,1.85-4.51.54l-3.17-1.32Z"/></g><path class="cls-5" d="M219.58,198.34c-.37,1-5,1.29-8.1,1.86-5.14.93-10.2,6.31-22.83,2.76a20.68,20.68,0,0,1-15.17-17.71c-.08-2.32.15-8,2.4-9.53s9.7-2.83,20,1.26a38.59,38.59,0,0,1,17.39,13.77C215.42,193.66,220.47,195.91,219.58,198.34Z"/><path class="cls-22" d="M217.36,198.68s-24.77,7.28-37.24-6.57c0,0,13.93,8.21,24.18,4.49,0,0-15,1.69-25.5-9.35,0,0,20.53,9.08,38.91,9.7Z"/><path class="cls-5" d="M220.59,195.28c.72,1.47,4.34-5.68,4.44-9.94s4.47-9.32,5.82-10.67,9.39-7,9.27-13a7.56,7.56,0,0,0-4.48-7.12,18.38,18.38,0,0,0-4.3-1.12s.07-3-1.7-3.25c-3.23-.51-7.61,4.4-9.79,8.8C216.88,164.94,214.15,182.13,220.59,195.28Z"/><path class="cls-22" d="M220.59,195.28s-1.92-12.34,12.52-31.61c0,0-11.28,10.08-14.13,25.47,0,0,1.37-16.13,7.72-27.72,0,0-11.7,15-9,35.53Z"/><path class="cls-8" d="M219.64,198.27c1.63-.82,8.4-15.76,1.84-28.14-4.42-8.34-12.22-16.32-17.81-19-7.5-3.64-11,3-12,3.47s-4.56.26-6.32,4c-2.75,5.82,2.38,18,7.76,25.28S215.16,200.51,219.64,198.27Z"/><path class="cls-5" d="M219.78,195.65s5.09-22.78-15.15-36.55c0,0,12.13,16,10.88,25.93,0,0-3.48-15.93-17.87-24.76,0,0,12.08,14.94,13.3,28.11,0,0-12.57-12.43-16.46-21.75,0,0,3.2,18.22,22.58,30.36Z"/><path class="cls-10" d="M220,197.4c-.53,2.54-5.65,1.59-7.77,1.07s-12.48-2.29-16.89-3.22-9.77-2.8-11.7-5.35c-5.06-6.71-5.66-15-3.65-18.79s7.09-6.7,11.47-6.82a20,20,0,0,1,13.78,5.42c3.85,3.75,6.3,17.21,9.1,20.4S220.69,194,220,197.4Z"/><path class="cls-8" d="M218.6,198.28c-.27-.12-22.48-1.87-28.12-8.7,0,0,8.58,3.81,12.91,3.59,0,0-11.75-5.49-15.53-16.95,0,0,8.9,10.22,18.12,14.72,0,0-.36-5.59-9.31-16.88,0,0,7,4.66,13.69,14.91,3.34,5.1,5.65,6.1,8.73,7.74A8,8,0,0,1,218.6,198.28Z"/><path class="cls-20" d="M219.85,194.9a3.4,3.4,0,0,0-2.33-2.26,5,5,0,0,0,0,3.44,4.82,4.82,0,0,0-3.26.17s1.85,1.32,1.92,1.87a2.92,2.92,0,0,0-2.7,2s2.17-.34,3-.34a5.81,5.81,0,0,0,2.94-.66c1.82-1.31,2.42-4.81,3.51-5.23A4.49,4.49,0,0,0,219.85,194.9Z"/><g class="cls-29"><path class="cls-30" d="M213.2,196.72s4.63,1.82,8.56,0c0,0,3,.81-.7,2.32l-3.73,1.51-2.52.5-3.12-.3L210.58,199Z"/></g></g></g></g></svg>