<svg xmlns="http://www.w3.org/2000/svg" viewBox="0 0 170 236.4"><defs><style>.cls-1{isolation:isolate;}.cls-2{fill:#ccc;}.cls-3{fill:#e6e6e6;}.cls-4,.cls-6{fill:#7acebe;}.cls-11,.cls-15,.cls-21,.cls-25,.cls-5,.cls-7{fill:#fff;}.cls-12,.cls-26,.cls-5,.cls-7{opacity:0.2;}.cls-5{mix-blend-mode:screen;}.cls-14,.cls-15,.cls-6{opacity:0.3;}.cls-12,.cls-14,.cls-20,.cls-26,.cls-6{mix-blend-mode:multiply;}.cls-16,.cls-18,.cls-19,.cls-26,.cls-8{fill:#d89b59;}.cls-9{fill:#f99;}.cls-10{fill:#b9efe5;}.cls-11{opacity:0.6;}.cls-13,.cls-14{fill:#30aa93;}.cls-16{font-size:34.28px;}.cls-16,.cls-18,.cls-19{font-family:Cookie-Regular, Cookie;}.cls-17{fill:none;stroke:#d89b59;stroke-miterlimit:10;stroke-width:0.85px;}.cls-18{font-size:28.51px;}.cls-19{font-size:21.53px;}.cls-20{opacity:0.5;}.cls-21{opacity:0.1;}.cls-22{fill:#ffdede;}.cls-23{fill:#fca9a9;}.cls-24{fill:#fbb;}</style></defs><title>Asset 3</title><g class="cls-1"><g id="Layer_2" data-name="Layer 2"><g id="Objects"><ellipse class="cls-2" cx="85.59" cy="229.4" rx="31.21" ry="7"/><path class="cls-2" d="M116.8,226.27v3.17H54.38v-3.17Z"/><ellipse class="cls-3" cx="85.59" cy="226.27" rx="31.21" ry="7"/><polygon class="cls-3" points="92.23 224.97 80.11 224.97 81.92 196.77 90.42 196.77 92.23 224.97"/><path class="cls-2" d="M170,184c0,10.38-37.53,18.8-83.83,18.8S2.35,194.35,2.35,184s37.53-18.8,83.82-18.8S170,173.58,170,184Z"/><path class="cls-2" d="M170,180.76V184H2.35v-3.21Z"/><ellipse class="cls-3" cx="86.17" cy="180.76" rx="83.83" ry="18.8"/><path class="cls-4" d="M151.7,108v70.74a3.88,3.88,0,0,1-.15,1.06c-2.32,8-30.66,14.33-65.28,14.33S23.33,187.84,21,179.84a3.76,3.76,0,0,1-.14-.87V108Z"/><path class="cls-5" d="M25.31,184.36a57,57,0,0,0,7.35-.67c9.45-1.53,18.32-6.18,26-11.81a75.12,75.12,0,0,0,18.64-19.45C85.9,139.19,89.34,123.66,89.6,108H20.87V179a3.76,3.76,0,0,0,.14.87C21.47,181.42,23,182.94,25.31,184.36Z"/><path class="cls-6" d="M131.61,108c14.84,83.16-73.5,84-76.07,84.33a250.11,250.11,0,0,0,30.73,1.8c34.62,0,63-6.33,65.28-14.33a3.88,3.88,0,0,0,.15-1.06V108Z"/><path class="cls-7" d="M151.7,108v7.49a3.88,3.88,0,0,1-.15,1.06c-2.32,8-30.66,14.33-65.28,14.33S23.33,124.59,21,116.59a3.76,3.76,0,0,1-.14-.87V108Z"/><path class="cls-4" d="M151.58,155.65V166.9a3.82,3.82,0,0,1-.15,1.06c-2.32,8-30.67,14.34-65.28,14.34S23.21,176,20.89,168a3.16,3.16,0,0,1-.14-.86V155.85a3.16,3.16,0,0,0,.14.86c2.32,8,30.65,14.34,65.26,14.34s63-6.33,65.28-14.34A3.82,3.82,0,0,0,151.58,155.65Z"/><path class="cls-8" d="M151.7,154.53v11.25a3.53,3.53,0,0,1-.15,1.06c-2.32,8-30.66,14.33-65.28,14.33S23.33,174.84,21,166.84a3.29,3.29,0,0,1-.14-.87V154.72a3.29,3.29,0,0,0,.14.87c2.32,8,30.66,14.33,65.26,14.33s63-6.33,65.28-14.33A3.53,3.53,0,0,0,151.7,154.53Z"/><path class="cls-9" d="M11.83,179a2.79,2.79,0,0,0,.16.86h-.16Z"/><path class="cls-9" d="M160.74,178.78v1.05h-.17A3.16,3.16,0,0,0,160.74,178.78Z"/><path class="cls-9" d="M11.83,178.58V179a.62.62,0,0,1,0-.19A.65.65,0,0,1,11.83,178.58Z"/><path class="cls-10" d="M151.7,107.8c0,8.46-29.29,15.32-65.42,15.32s-65.42-6.86-65.42-15.32S50.15,92.47,86.28,92.47,151.7,99.33,151.7,107.8Z"/><path class="cls-11" d="M149.21,112c-7.8,6.41-33,11.12-62.92,11.12-36.13,0-65.42-6.86-65.42-15.34,0-2.42,2.39-4.7,6.64-6.72C25.89,102.4,25,103.8,25,105.26c0,8.47,29.28,15.33,65.41,15.33C116.24,120.59,138.56,117.09,149.21,112Z"/><path class="cls-4" d="M130.37,63.89V102c-.06,5-19.76,9.08-44.05,9.08s-44-4.07-44-9.08V63.89Z"/><path class="cls-5" d="M46.39,105.84a64.23,64.23,0,0,0,10.41-.67,48,48,0,0,0,18.67-6.28c6.15-3.76,9.75-8,12.07-14.87,2.19-6.48,1.23-13.77.29-20.13H42.28V102C42.3,103.39,43.77,104.68,46.39,105.84Z"/><path class="cls-6" d="M118.63,64.32c0,6,.89,19.94-2.79,30s-17.65,16.43-29.52,16.79c24.29,0,44-4.07,44.05-9.08V63.89Z"/><path class="cls-7" d="M130.37,63.89v2.89c-.06,5-19.76,9.08-44.05,9.08s-44-4.07-44-9.08V63.89Z"/><path class="cls-4" d="M130.54,90.33V97c-.06,5-19.76,9.08-44,9.08s-44-4.07-44-9.08V90.33c0,5,19.75,9.08,44,9.08S130.48,95.34,130.54,90.33Z"/><path class="cls-8" d="M130.37,89.66v6.68c-.06,5-19.76,9.08-44.05,9.08s-44-4.07-44-9.08V89.66c.06,5,19.75,9.08,44,9.08S130.31,94.68,130.37,89.66Z"/><g class="cls-12"><path class="cls-13" d="M87.08,96.06a1.28,1.28,0,0,1,1.28-1.28h0A1.27,1.27,0,0,1,89.64,96h0a1.27,1.27,0,0,1-1.27,1.29h0A1.29,1.29,0,0,1,87.08,96.06Zm-2.16,1.27A1.27,1.27,0,0,1,83.65,96h0a1.27,1.27,0,0,1,1.29-1.26h0a1.27,1.27,0,0,1,1.27,1.28h0a1.29,1.29,0,0,1-1.28,1.27h0Zm-3.46-.06h0A1.28,1.28,0,0,1,80.21,96h0a1.28,1.28,0,0,1,1.32-1.24h0A1.27,1.27,0,0,1,82.77,96h0a1.28,1.28,0,0,1-1.28,1.24h0Zm10.37,0A1.28,1.28,0,0,1,90.52,96h0a1.28,1.28,0,0,1,1.25-1.31h0A1.27,1.27,0,0,1,93.08,96h0a1.28,1.28,0,0,1-1.25,1.31Zm-15-1.44a1.27,1.27,0,0,1,1.33-1.22h0a1.27,1.27,0,0,1,1.22,1.33h0A1.28,1.28,0,0,1,78,97.16h0A1.28,1.28,0,0,1,76.78,95.83ZM94,95.94a1.27,1.27,0,0,1,1.23-1.33h0a1.29,1.29,0,0,1,1.33,1.22h0a1.28,1.28,0,0,1-1.23,1.33h-.05A1.26,1.26,0,0,1,94,95.94Zm3.43-.15a1.28,1.28,0,0,1,1.21-1.35h0a1.27,1.27,0,0,1,1.34,1.2h0A1.28,1.28,0,0,1,98.74,97h-.08A1.27,1.27,0,0,1,97.39,95.79ZM74.54,97h0a1.28,1.28,0,0,1-1.2-1.35h0a1.26,1.26,0,0,1,1.35-1.2h0a1.28,1.28,0,0,1,1.2,1.35h0A1.29,1.29,0,0,1,74.62,97h-.08Zm-3.45-.24a1.28,1.28,0,0,1-1.18-1.37h0a1.28,1.28,0,0,1,1.38-1.17h0a1.28,1.28,0,0,1,1.18,1.37h0a1.28,1.28,0,0,1-1.28,1.18h-.1Zm29.73-1.17A1.28,1.28,0,0,1,102,94.21h0a1.26,1.26,0,0,1,1.37,1.17h0a1.27,1.27,0,0,1-1.18,1.37h-.1A1.28,1.28,0,0,1,100.82,95.58Zm3.43-.28a1.27,1.27,0,0,1,1.14-1.39h0a1.27,1.27,0,0,1,1.4,1.15h0a1.28,1.28,0,0,1-1.14,1.4h-.13A1.27,1.27,0,0,1,104.25,95.3Zm-36.6,1.16a1.3,1.3,0,0,1-1.16-1.4h0a1.29,1.29,0,0,1,1.4-1.15h0A1.27,1.27,0,0,1,69,95.3h0a1.27,1.27,0,0,1-1.27,1.16h-.12Zm40-1.5a1.27,1.27,0,0,1,1.11-1.42h0a1.29,1.29,0,0,1,1.43,1.11h0a1.29,1.29,0,0,1-1.12,1.43h-.15A1.28,1.28,0,0,1,107.67,95ZM64.2,96.08a1.27,1.27,0,0,1-1.12-1.42h0a1.29,1.29,0,0,1,1.43-1.12h0A1.27,1.27,0,0,1,65.62,95h0a1.28,1.28,0,0,1-1.27,1.13H64.2Zm-3.44-.47h0a1.28,1.28,0,0,1-1.08-1.45h0a1.28,1.28,0,0,1,1.45-1.08h0a1.28,1.28,0,0,1,1.08,1.46h0a1.28,1.28,0,0,1-1.27,1.09h0Zm50.32-1.07a1.28,1.28,0,0,1,1.07-1.46h0a1.29,1.29,0,0,1,1.46,1.08h0a1.28,1.28,0,0,1-1.08,1.45h0l-.19,0h0A1.28,1.28,0,0,1,111.08,94.54Zm3.39-.52a1.28,1.28,0,0,1,1-1.49h0a1.28,1.28,0,0,1,1.49,1h0a1.29,1.29,0,0,1-1,1.49h0a.86.86,0,0,1-.23,0h0A1.29,1.29,0,0,1,114.47,94Zm-57.14,1a1.27,1.27,0,0,1-1-1.48h0a1.28,1.28,0,0,1,1.48-1h0a1.27,1.27,0,0,1,1,1.49h0a1.27,1.27,0,0,1-1.25,1h0A.9.9,0,0,1,57.33,95.05Zm-3.42-.69h0a1.28,1.28,0,0,1-1-1.53h0a1.27,1.27,0,0,1,1.52-1h0a1.29,1.29,0,0,1,1,1.53h0a1.29,1.29,0,0,1-1.26,1h0A1.27,1.27,0,0,1,53.91,94.36Zm64-1a1.27,1.27,0,0,1,1-1.53h0a1.27,1.27,0,0,1,1.53,1h0a1.28,1.28,0,0,1-1,1.53h0a.89.89,0,0,1-.28,0h0A1.27,1.27,0,0,1,117.86,93.39Zm-67.36.1a1.28,1.28,0,0,1-.87-1.58h0A1.28,1.28,0,0,1,51.21,91h0a1.27,1.27,0,0,1,.87,1.58h0a1.28,1.28,0,0,1-1.22.93h0A1.49,1.49,0,0,1,50.5,93.49Zm70.71-.88a1.27,1.27,0,0,1,.87-1.58h0a1.28,1.28,0,0,1,1.58.87h0a1.27,1.27,0,0,1-.88,1.59h0a1.41,1.41,0,0,1-.35.05h0A1.27,1.27,0,0,1,121.21,92.61Zm-74.08-.25h0a1.28,1.28,0,0,1-.72-1.66h0A1.27,1.27,0,0,1,48.07,90h0a1.28,1.28,0,0,1,.72,1.66h0a1.3,1.3,0,0,1-1.19.81h0A1.27,1.27,0,0,1,47.13,92.36Zm77.37-.72a1.28,1.28,0,0,1,.72-1.66h0a1.28,1.28,0,0,1,1.66.72h0a1.26,1.26,0,0,1-.72,1.65h0a1.1,1.1,0,0,1-.47.1h0A1.29,1.29,0,0,1,124.5,91.64Zm3.2-1.3a1.26,1.26,0,0,1,.34-1.77h0a1.29,1.29,0,0,1,1.78.35h0a1.27,1.27,0,0,1-.35,1.77h0a1.27,1.27,0,0,1-.72.22h0A1.25,1.25,0,0,1,127.7,90.34Zm-83.88.35h0a1.28,1.28,0,0,1-.35-1.77h0a1.29,1.29,0,0,1,1.78-.35h0a1.28,1.28,0,0,1,.35,1.77h0a1.29,1.29,0,0,1-1.07.57h0A1.24,1.24,0,0,1,43.82,90.69Z"/></g><path class="cls-13" d="M86.77,95.69A1.27,1.27,0,0,1,88,94.4h0a1.27,1.27,0,0,1,1.28,1.27h0A1.28,1.28,0,0,1,88.05,97h0A1.28,1.28,0,0,1,86.77,95.69ZM84.6,97a1.28,1.28,0,0,1-1.27-1.29h0a1.28,1.28,0,0,1,1.29-1.27h0a1.28,1.28,0,0,1,1.27,1.29h0A1.29,1.29,0,0,1,84.61,97h0Zm-3.46-.06h0a1.28,1.28,0,0,1-1.25-1.31h0a1.3,1.3,0,0,1,1.32-1.25h0a1.28,1.28,0,0,1,1.24,1.32h0a1.28,1.28,0,0,1-1.28,1.24h0Zm10.37,0a1.28,1.28,0,0,1-1.31-1.24h0a1.29,1.29,0,0,1,1.25-1.32h0a1.29,1.29,0,0,1,1.31,1.25h0a1.28,1.28,0,0,1-1.25,1.31ZM76.46,95.46a1.28,1.28,0,0,1,1.33-1.23h0A1.29,1.29,0,0,1,79,95.56h0a1.29,1.29,0,0,1-1.33,1.23h0A1.28,1.28,0,0,1,76.46,95.46Zm17.18.1a1.28,1.28,0,0,1,1.23-1.33h0a1.3,1.3,0,0,1,1.33,1.23h0A1.28,1.28,0,0,1,95,96.79h0A1.27,1.27,0,0,1,93.64,95.56Zm3.43-.14a1.29,1.29,0,0,1,1.21-1.36h0a1.28,1.28,0,0,1,1.34,1.2h0a1.27,1.27,0,0,1-1.2,1.36h-.08A1.27,1.27,0,0,1,97.07,95.42Zm-22.85,1.2h0A1.28,1.28,0,0,1,73,95.26h0a1.27,1.27,0,0,1,1.35-1.2h0a1.29,1.29,0,0,1,1.2,1.36h0a1.29,1.29,0,0,1-1.28,1.2h-.08Zm-3.45-.24A1.28,1.28,0,0,1,69.59,95h0A1.29,1.29,0,0,1,71,93.83h0a1.3,1.3,0,0,1,1.18,1.38h0a1.28,1.28,0,0,1-1.28,1.18h-.1Zm29.73-1.17a1.29,1.29,0,0,1,1.18-1.38h0A1.27,1.27,0,0,1,103.05,95h0a1.27,1.27,0,0,1-1.18,1.37h-.1A1.28,1.28,0,0,1,100.5,95.21Zm3.43-.28a1.28,1.28,0,0,1,1.14-1.4h0a1.29,1.29,0,0,1,1.4,1.15h0a1.28,1.28,0,0,1-1.14,1.4h-.13A1.27,1.27,0,0,1,103.93,94.93Zm-36.6,1.15a1.29,1.29,0,0,1-1.16-1.4h0a1.3,1.3,0,0,1,1.4-1.15h0a1.28,1.28,0,0,1,1.15,1.4h0a1.27,1.27,0,0,1-1.27,1.16h-.12Zm40-1.49a1.26,1.26,0,0,1,1.11-1.42h0a1.28,1.28,0,0,1,1.43,1.11h0a1.3,1.3,0,0,1-1.12,1.43h-.15A1.28,1.28,0,0,1,107.35,94.59ZM63.88,95.71a1.29,1.29,0,0,1-1.12-1.43h0a1.28,1.28,0,0,1,1.43-1.11h0a1.26,1.26,0,0,1,1.11,1.42h0A1.28,1.28,0,0,1,64,95.72h-.15Zm-3.44-.47h0a1.28,1.28,0,0,1-1.08-1.45h0a1.27,1.27,0,0,1,1.45-1.08h0a1.28,1.28,0,0,1,1.08,1.46h0a1.29,1.29,0,0,1-1.27,1.09h0Zm50.32-1.07a1.28,1.28,0,0,1,1.07-1.46h0a1.28,1.28,0,0,1,1.46,1.08h0a1.28,1.28,0,0,1-1.08,1.45h0l-.19,0h0A1.29,1.29,0,0,1,110.76,94.17Zm3.39-.53a1.27,1.27,0,0,1,1-1.48h0a1.27,1.27,0,0,1,1.49,1h0a1.3,1.3,0,0,1-1,1.5h-.23A1.28,1.28,0,0,1,114.15,93.64ZM57,94.68a1.28,1.28,0,0,1-1-1.49h0a1.27,1.27,0,0,1,1.48-1h0a1.27,1.27,0,0,1,1,1.48h0a1.26,1.26,0,0,1-1.25,1H57ZM53.59,94h0a1.28,1.28,0,0,1-1-1.53h0a1.26,1.26,0,0,1,1.52-1h0a1.28,1.28,0,0,1,1,1.52h0a1.29,1.29,0,0,1-1.26,1h0Zm64-1a1.26,1.26,0,0,1,1-1.52h0a1.27,1.27,0,0,1,1.53,1h0a1.28,1.28,0,0,1-1,1.53h0a1.33,1.33,0,0,1-.28,0h0A1.27,1.27,0,0,1,117.54,93Zm-67.36.11a1.28,1.28,0,0,1-.87-1.58h0a1.28,1.28,0,0,1,1.58-.88h0a1.28,1.28,0,0,1,.88,1.58h0a1.3,1.3,0,0,1-1.23.93h0A1.49,1.49,0,0,1,50.18,93.12Zm70.71-.88a1.27,1.27,0,0,1,.87-1.58h0a1.27,1.27,0,0,1,1.58.87h0a1.28,1.28,0,0,1-.88,1.59h0a1.34,1.34,0,0,1-.35,0h0A1.27,1.27,0,0,1,120.89,92.24ZM46.81,92h0a1.28,1.28,0,0,1-.72-1.66h0a1.29,1.29,0,0,1,1.66-.73h0a1.29,1.29,0,0,1,.72,1.67h0a1.3,1.3,0,0,1-1.19.81h0A1.27,1.27,0,0,1,46.81,92Zm77.37-.72a1.3,1.3,0,0,1,.72-1.67h0a1.29,1.29,0,0,1,1.66.73h0a1.26,1.26,0,0,1-.72,1.65h0a1.28,1.28,0,0,1-.47.1h0A1.29,1.29,0,0,1,124.18,91.27Zm3.2-1.3a1.27,1.27,0,0,1,.34-1.77h0a1.28,1.28,0,0,1,1.78.35h0a1.27,1.27,0,0,1-.35,1.77h0a1.34,1.34,0,0,1-.72.21h0A1.24,1.24,0,0,1,127.38,90Zm-83.88.35h0a1.28,1.28,0,0,1-.35-1.77h0a1.28,1.28,0,0,1,1.78-.35h0A1.27,1.27,0,0,1,45.28,90h0a1.28,1.28,0,0,1-1.07.56h0A1.31,1.31,0,0,1,43.5,90.32Z"/><path class="cls-14" d="M44.64,90.16a1.22,1.22,0,0,1-.71-.22,1.28,1.28,0,0,1-.35-1.77l0,0a1.2,1.2,0,0,0-.46.41,1.28,1.28,0,0,0,.35,1.77,1.31,1.31,0,0,0,.71.21,1.28,1.28,0,0,0,1-.53A1.21,1.21,0,0,1,44.64,90.16Zm84.22,0a1.28,1.28,0,0,1-1.06-.57,1.3,1.3,0,0,1,0-1.44l-.08,0a1.27,1.27,0,0,0-.34,1.77,1.24,1.24,0,0,0,1.05.56,1.34,1.34,0,0,0,.72-.21,1.12,1.12,0,0,0,.33-.32A1.25,1.25,0,0,1,128.86,90.16Zm-2.59,1.45a1.35,1.35,0,0,1-.47.09,1.27,1.27,0,0,1-1-2,1.3,1.3,0,0,0-.59,1.61,1.25,1.25,0,0,0,1.66.71,1.21,1.21,0,0,0,.57-.44Zm-78.56.09a1.45,1.45,0,0,1-.47-.08A1.3,1.3,0,0,1,46.51,90a1.48,1.48,0,0,1,.16-.27,1.2,1.2,0,0,0-.58.65A1.28,1.28,0,0,0,46.81,92a1.26,1.26,0,0,0,1.5-.45A1.17,1.17,0,0,1,47.71,91.7Zm75.18,1a1.1,1.1,0,0,1-.35.05,1.28,1.28,0,0,1-1-2,1.29,1.29,0,0,0,.62,2.41,1.33,1.33,0,0,0,.34,0,1.38,1.38,0,0,0,.69-.48ZM51,92.79a1.06,1.06,0,0,1-.35-.05,1.27,1.27,0,0,1-.87-1.58,1.63,1.63,0,0,1,.17-.38,1.22,1.22,0,0,0-.6.76,1.28,1.28,0,0,0,.87,1.58,1.49,1.49,0,0,0,.36,0,1.3,1.3,0,0,0,1-.54A1.3,1.3,0,0,1,51,92.79Zm68.53.81a.9.9,0,0,1-.28,0,1.29,1.29,0,0,1-1.25-1,1.24,1.24,0,0,1,.21-1,1.25,1.25,0,0,0-.63,1.39,1.27,1.27,0,0,0,1.24,1,1.33,1.33,0,0,0,.28,0,1.26,1.26,0,0,0,.76-.5A1.18,1.18,0,0,1,119.49,93.6Zm-65.2,0a1.24,1.24,0,0,1-.27,0h0a1.27,1.27,0,0,1-1-1.24,2.4,2.4,0,0,1,0-.28,1.62,1.62,0,0,1,.21-.46,1.22,1.22,0,0,0-.63.83,1.35,1.35,0,0,0,0,.28,1.29,1.29,0,0,0,1,1.25h0l.27,0a1.25,1.25,0,0,0,1-.54A1.08,1.08,0,0,1,54.29,93.64Zm3.38.68a.86.86,0,0,1-.23,0,1.28,1.28,0,0,1-1-1.48,1.21,1.21,0,0,1,.23-.53A1.28,1.28,0,0,0,57,94.68h.23a1.25,1.25,0,0,0,1-.53A1.15,1.15,0,0,1,57.67,94.32Zm58.4,0a.9.9,0,0,1-.23,0,1.28,1.28,0,0,1-1.26-1,1.21,1.21,0,0,1,.23-1,1.27,1.27,0,0,0-.66,1.35,1.28,1.28,0,0,0,1.26,1h.23a1.23,1.23,0,0,0,.8-.51A1.16,1.16,0,0,1,116.07,94.3Zm-3.44.56-.18,0a1.29,1.29,0,0,1-1.27-1.09,1.3,1.3,0,0,1,.24-1,1.29,1.29,0,0,0,.6,2.42l.19,0a1.27,1.27,0,0,0,.85-.52A1,1,0,0,1,112.63,94.86Zm-51.58,0-.19,0a1.27,1.27,0,0,1-1.07-1.45,1.21,1.21,0,0,1,.23-.56,1.27,1.27,0,0,0-.66.94,1.28,1.28,0,0,0,1.08,1.45l.18,0a1.27,1.27,0,0,0,1-.54A1.29,1.29,0,0,1,61.05,94.88Zm3.41.46h-.15a1.27,1.27,0,0,1-1.12-1.42,1.37,1.37,0,0,1,.23-.6,1.28,1.28,0,0,0,.46,2.4H64a1.27,1.27,0,0,0,1-.54A1.26,1.26,0,0,1,64.46,95.34Zm44.74,0H109a1.29,1.29,0,0,1-1.27-1.12,1.31,1.31,0,0,1,.24-.92,1.29,1.29,0,0,0,.61,2.42h.15a1.3,1.3,0,0,0,.87-.51A1.32,1.32,0,0,1,109.2,95.33Zm-41.32.39h-.13a1.29,1.29,0,0,1-1.15-1.4,1.25,1.25,0,0,1,.25-.63,1.28,1.28,0,0,0-.68,1,1.29,1.29,0,0,0,1.16,1.4h.12a1.25,1.25,0,0,0,1-.53A1.15,1.15,0,0,1,67.88,95.72Zm37.87,0h-.12a1.29,1.29,0,0,1-1.28-1.16,1.24,1.24,0,0,1,.25-.88,1.28,1.28,0,0,0,.6,2.41h.13a1.21,1.21,0,0,0,.88-.51A1.37,1.37,0,0,1,105.75,95.71Zm-3.45.3h-.1a1.28,1.28,0,0,1-1.27-1.18,1.25,1.25,0,0,1,.24-.85,1.3,1.3,0,0,0-.67,1.23,1.28,1.28,0,0,0,1.27,1.18h.1a1.23,1.23,0,0,0,.93-.52A1.39,1.39,0,0,1,102.3,96Zm-31,0h-.1A1.29,1.29,0,0,1,70,94.63a1.38,1.38,0,0,1,.24-.64,1.32,1.32,0,0,0-.67,1,1.28,1.28,0,0,0,1.18,1.37h.1a1.26,1.26,0,0,0,1-.54A1.16,1.16,0,0,1,71.3,96Zm3.43.24h-.08A1.29,1.29,0,0,1,73.46,95v-.08a1.16,1.16,0,0,1,.22-.66,1.25,1.25,0,0,0-.65,1v.08a1.28,1.28,0,0,0,1.19,1.28h.08a1.27,1.27,0,0,0,1-.54A1.17,1.17,0,0,1,74.73,96.25Zm24.12,0h-.08A1.27,1.27,0,0,1,97.5,95a1.21,1.21,0,0,1,.26-.83,1.28,1.28,0,0,0,.58,2.41h.08a1.29,1.29,0,0,0,1-.52A1.2,1.2,0,0,1,98.85,96.25Zm-3.46.17h0a1.27,1.27,0,0,1-1-2,1.28,1.28,0,0,0,.61,2.4h0a1.31,1.31,0,0,0,1-.54A1.23,1.23,0,0,1,95.39,96.42Zm-17.23,0h0a1.29,1.29,0,0,1-1.23-1.28v0a1.31,1.31,0,0,1,.24-.7,1.25,1.25,0,0,0-.66,1.07v.05a1.28,1.28,0,0,0,1.23,1.28h0a1.27,1.27,0,0,0,1-.54A1.2,1.2,0,0,1,78.16,96.42Zm13.78.11a1.28,1.28,0,0,1-1.31-1.25v0a1.19,1.19,0,0,1,.24-.74,1.26,1.26,0,0,0-.67,1.11v0a1.28,1.28,0,0,0,1.31,1.24,1.26,1.26,0,0,0,1-.54A1.16,1.16,0,0,1,91.94,96.53Zm-10.34,0h0a1.28,1.28,0,0,1-1.24-1.32,1.33,1.33,0,0,1,.23-.7,1.27,1.27,0,0,0-.66,1.08,1.28,1.28,0,0,0,1.25,1.31h0a1.26,1.26,0,0,0,1-.54A1.17,1.17,0,0,1,81.6,96.53Zm3.43.06h0a1.28,1.28,0,0,1-1.27-1.3,1.19,1.19,0,0,1,.23-.72,1.25,1.25,0,0,0-.66,1.1A1.28,1.28,0,0,0,84.6,97h0a1.27,1.27,0,0,0,1-.54A1.18,1.18,0,0,1,85,96.59Zm3.45,0h0a1.29,1.29,0,0,1-1.28-1.27,1.27,1.27,0,0,1,.24-.75,1.24,1.24,0,0,0-.66,1.12A1.28,1.28,0,0,0,88,97h0a1.27,1.27,0,0,0,1-.53A1.18,1.18,0,0,1,88.48,96.59Z"/><path class="cls-15" d="M129.26,88.72a.52.52,0,1,1-.51-.48A.5.5,0,0,1,129.26,88.72Z"/><path class="cls-15" d="M126.19,90.25a.52.52,0,1,1-.51-.48A.49.49,0,0,1,126.19,90.25Z"/><path class="cls-15" d="M123,91.39a.52.52,0,1,1-.52-.47A.5.5,0,0,1,123,91.39Z"/><path class="cls-15" d="M119.66,92.32a.52.52,0,1,1-.51-.48A.49.49,0,0,1,119.66,92.32Z"/><path class="cls-15" d="M112.91,93.42a.52.52,0,1,1-.51-.48A.49.49,0,0,1,112.91,93.42Z"/><path class="cls-15" d="M106.09,94.29a.52.52,0,1,1-.51-.48A.49.49,0,0,1,106.09,94.29Z"/><path class="cls-15" d="M102.65,94.61a.5.5,0,0,1-.52.47.48.48,0,1,1,0-1A.5.5,0,0,1,102.65,94.61Z"/><path class="cls-15" d="M99.27,94.87a.52.52,0,1,1-.51-.47A.49.49,0,0,1,99.27,94.87Z"/><path class="cls-15" d="M95.82,95.07a.5.5,0,0,1-.51.48.48.48,0,1,1,0-1A.5.5,0,0,1,95.82,95.07Z"/><path class="cls-15" d="M92.33,95.18a.5.5,0,0,1-.52.47.48.48,0,1,1,0-1A.5.5,0,0,1,92.33,95.18Z"/><path class="cls-15" d="M88.94,95.18a.52.52,0,1,1-.51-.48A.49.49,0,0,1,88.94,95.18Z"/><path class="cls-15" d="M85.54,95.24a.49.49,0,0,1-.51.48.5.5,0,0,1-.52-.48.51.51,0,0,1,.52-.48A.5.5,0,0,1,85.54,95.24Z"/><path class="cls-15" d="M82.17,95.2a.52.52,0,0,1-1,0,.52.52,0,0,1,1,0Z"/><path class="cls-15" d="M78.67,95.15a.52.52,0,1,1-.51-.48A.5.5,0,0,1,78.67,95.15Z"/><path class="cls-15" d="M75.25,94.92a.52.52,0,1,1-.52-.47A.5.5,0,0,1,75.25,94.92Z"/><path class="cls-15" d="M71.84,94.76a.52.52,0,1,1-.52-.47A.5.5,0,0,1,71.84,94.76Z"/><path class="cls-15" d="M65,94a.52.52,0,1,1-.51-.48A.5.5,0,0,1,65,94Z"/><path class="cls-15" d="M58.13,93a.52.52,0,1,1-.52-.48A.5.5,0,0,1,58.13,93Z"/><path class="cls-15" d="M54.77,92.38a.52.52,0,1,1-.52-.48A.49.49,0,0,1,54.77,92.38Z"/><path class="cls-15" d="M51.39,91.54a.49.49,0,0,1-.51.48.48.48,0,1,1,0-1A.49.49,0,0,1,51.39,91.54Z"/><path class="cls-15" d="M48.18,90.44a.52.52,0,1,1-.52-.48A.5.5,0,0,1,48.18,90.44Z"/><path class="cls-15" d="M45.18,88.9a.52.52,0,1,1-.52-.48A.49.49,0,0,1,45.18,88.9Z"/><path class="cls-15" d="M61.54,93.52a.52.52,0,1,1-.52-.47A.5.5,0,0,1,61.54,93.52Z"/><path class="cls-15" d="M68.36,94.42a.52.52,0,1,1-.52-.48A.49.49,0,0,1,68.36,94.42Z"/><path class="cls-15" d="M116.27,92.9a.52.52,0,1,1-.52-.48A.5.5,0,0,1,116.27,92.9Z"/><path class="cls-15" d="M109.41,94a.52.52,0,1,1-.51-.48A.49.49,0,0,1,109.41,94Z"/><path class="cls-10" d="M130.47,63.75a1.17,1.17,0,0,1-.17.58c-2,3.38-20.89,6-44,6-24.38,0-44.15-3-44.15-6.61,0-2.5,9.21-4.66,22.81-5.79,6.33-.52,13.6-.83,21.34-.83C110.71,57.13,130.47,60.09,130.47,63.75Z"/><path class="cls-11" d="M129.51,65.12c-4.22,3-21.95,5.23-43.18,5.23-24.39,0-44.15-2.95-44.15-6.6,0-.92,1.25-1.8,3.53-2.6-.66.45-1,.91-1,1.39,0,3.65,19.75,6.62,44.14,6.62C107.13,69.16,122.81,67.49,129.51,65.12Z"/><path class="cls-13" d="M130.72,102a1.57,1.57,0,0,0-1.77-.68,2.93,2.93,0,0,0-1.61,1.19,19.35,19.35,0,0,0-1,1.77,10.37,10.37,0,0,1-2.75,3.11,19.57,19.57,0,0,0,6.73-3.62A1.49,1.49,0,0,0,130.72,102Z"/><path class="cls-13" d="M125.41,105.76A1.57,1.57,0,0,0,124,104.5a2.93,2.93,0,0,0-1.93.55c-.57.38-1,.87-1.58,1.3a10.46,10.46,0,0,1-3.67,1.94,19.35,19.35,0,0,0,7.58-1A1.49,1.49,0,0,0,125.41,105.76Z"/><path class="cls-13" d="M119.06,107.34a1.59,1.59,0,0,0-1.4-1.3,2.87,2.87,0,0,0-1.93.52,19.39,19.39,0,0,0-1.61,1.26,10.38,10.38,0,0,1-3.7,1.88,19.57,19.57,0,0,0,7.59-.88A1.5,1.5,0,0,0,119.06,107.34Z"/><path class="cls-13" d="M112.92,108.78a1.59,1.59,0,0,0-1.28-1.42,2.91,2.91,0,0,0-2,.35,19.39,19.39,0,0,0-1.72,1.11,10.44,10.44,0,0,1-3.86,1.54,19.67,19.67,0,0,0,7.65-.19A1.5,1.5,0,0,0,112.92,108.78Z"/><path class="cls-13" d="M107.1,109.66a1.57,1.57,0,0,0-1.19-1.48,2.9,2.9,0,0,0-2,.23c-.62.28-1.18.68-1.77,1a10.43,10.43,0,0,1-4,1.32c2.55.41,5.15.83,7.66.23A1.48,1.48,0,0,0,107.1,109.66Z"/><path class="cls-13" d="M100.84,110.39a1.57,1.57,0,0,0-1.1-1.55,3,3,0,0,0-2,.12,18.41,18.41,0,0,0-1.83.92,10.55,10.55,0,0,1-4,1.09,19.57,19.57,0,0,0,7.63.67A1.49,1.49,0,0,0,100.84,110.39Z"/><path class="cls-13" d="M94.39,110.67a1.59,1.59,0,0,0-1.14-1.52,2.94,2.94,0,0,0-2,.15,19.52,19.52,0,0,0-1.81,1,10.57,10.57,0,0,1-4,1.17,19.57,19.57,0,0,0,7.64.52A1.5,1.5,0,0,0,94.39,110.67Z"/><path class="cls-13" d="M88,111a1.58,1.58,0,0,0-1-1.6,3,3,0,0,0-2,0c-.64.22-1.24.56-1.86.84a10.52,10.52,0,0,1-4,.94,19.52,19.52,0,0,0,7.59,1A1.5,1.5,0,0,0,88,111Z"/><path class="cls-13" d="M81.41,111.13a1.58,1.58,0,0,0-.93-1.66,3,3,0,0,0-2-.1c-.66.18-1.27.48-1.91.72a10.5,10.5,0,0,1-4.11.66c2.44.82,4.94,1.66,7.51,1.48A1.49,1.49,0,0,0,81.41,111.13Z"/><path class="cls-13" d="M75.12,110.85a1.57,1.57,0,0,0-.93-1.66,2.92,2.92,0,0,0-2-.1,19.33,19.33,0,0,0-1.92.72,10.46,10.46,0,0,1-4.11.65A19.61,19.61,0,0,0,73.67,112,1.49,1.49,0,0,0,75.12,110.85Z"/><path class="cls-13" d="M69.25,110.37a1.6,1.6,0,0,0-.94-1.66,2.92,2.92,0,0,0-2-.1,19.33,19.33,0,0,0-1.92.72,10.46,10.46,0,0,1-4.11.65,19.64,19.64,0,0,0,7.51,1.49A1.51,1.51,0,0,0,69.25,110.37Z"/><path class="cls-13" d="M63.2,110.14a1.57,1.57,0,0,0-.72-1.76,2.87,2.87,0,0,0-2-.35,20,20,0,0,0-2,.47,10.36,10.36,0,0,1-4.15.13,19.48,19.48,0,0,0,7.26,2.42A1.49,1.49,0,0,0,63.2,110.14Z"/><path class="cls-13" d="M57.69,109.17a1.58,1.58,0,0,0-.62-1.8,2.91,2.91,0,0,0-2-.45,17.28,17.28,0,0,0-2,.36,10.41,10.41,0,0,1-4.16-.09,19.82,19.82,0,0,0,7.12,2.8A1.5,1.5,0,0,0,57.69,109.17Z"/><path class="cls-13" d="M52.13,107.71a1.6,1.6,0,0,0-.46-1.85,3,3,0,0,0-1.91-.63,20.06,20.06,0,0,0-2,.18,10.33,10.33,0,0,1-4.13-.46c2.13,1.44,4.32,2.92,6.84,3.43A1.52,1.52,0,0,0,52.13,107.71Z"/><path class="cls-13" d="M46.87,105.36a1.58,1.58,0,0,0-.46-1.85,2.92,2.92,0,0,0-1.91-.62,9.35,9.35,0,0,1-3.18-.3c.75,2,1.9,2.72,3.86,3.45A1.45,1.45,0,0,0,46.87,105.36Z"/><text class="cls-16" transform="translate(58.64 35.67)">Mr</text><path class="cls-17" d="M115.36,34A28.28,28.28,0,1,1,87.09,5.73,28.28,28.28,0,0,1,115.36,34Z"/><text class="cls-18" transform="translate(80.65 50.15)">Mrs</text><text class="cls-19" transform="translate(89.9 31.6)">&amp;</text><path class="cls-8" d="M115.67,34.84a6.55,6.55,0,0,1-.21-2.94,5.27,5.27,0,0,1,.74-1.55,11.75,11.75,0,0,1,4.16-3.83,41.31,41.31,0,0,1-.58,4.29,5.14,5.14,0,0,1-1.22,2.86A6,6,0,0,1,115.67,34.84Z"/><path class="cls-8" d="M112.23,47.94a7,7,0,0,1,1.4-2.85A5.36,5.36,0,0,1,115.15,44a12.6,12.6,0,0,1,5.94-1.33c-.89,1.29-1.84,2.49-2.85,3.69a5.48,5.48,0,0,1-2.68,2A6.41,6.41,0,0,1,112.23,47.94Z"/><path class="cls-8" d="M113.12,22.22a6.93,6.93,0,0,1-1.62-2.76,5.59,5.59,0,0,1,0-1.87,12.84,12.84,0,0,1,2.19-5.75,43.19,43.19,0,0,1,1.52,4.45,5.57,5.57,0,0,1,.2,3.39A6.38,6.38,0,0,1,113.12,22.22Z"/><path class="cls-8" d="M106.47,13a7.39,7.39,0,0,1-2.6-2.05,5.56,5.56,0,0,1-.72-1.79,13.28,13.28,0,0,1,0-6.36,46.11,46.11,0,0,1,3.13,3.73,5.69,5.69,0,0,1,1.45,3.19A6.68,6.68,0,0,1,106.47,13Z"/><path class="cls-8" d="M96.11,6.78a6.44,6.44,0,0,1-2.92-.58,5.08,5.08,0,0,1-1.32-1.13A12.11,12.11,0,0,1,89.23,0a39.68,39.68,0,0,1,4,1.7,5.16,5.16,0,0,1,2.47,2A6,6,0,0,1,96.11,6.78Z"/><path class="cls-8" d="M84.07,5.48a6.64,6.64,0,0,1-2.92.81,4.9,4.9,0,0,1-1.71-.43,12.11,12.11,0,0,1-4.7-3.39,41,41,0,0,1,4.43-.3,5.24,5.24,0,0,1,3.13.64A6.12,6.12,0,0,1,84.07,5.48Z"/><path class="cls-8" d="M73.08,9.05a6.3,6.3,0,0,1-2.37,1.6,4.62,4.62,0,0,1-1.66.13,11.4,11.4,0,0,1-5.23-1.61A38.65,38.65,0,0,1,67.7,7.56a5,5,0,0,1,3-.37A5.83,5.83,0,0,1,73.08,9.05Z"/><path class="cls-8" d="M64.22,16.75a7.1,7.1,0,0,1-2,2.45,5.43,5.43,0,0,1-1.75.65,12.8,12.8,0,0,1-6.12-.14c1.18-1,2.4-2,3.68-2.91a5.53,5.53,0,0,1,3.1-1.31A6.51,6.51,0,0,1,64.22,16.75Z"/><path class="cls-8" d="M60.09,25.73a8,8,0,0,1-1,3.44,6.08,6.08,0,0,1-1.49,1.46,14.33,14.33,0,0,1-6.35,2.64,51.79,51.79,0,0,1,2.46-4.66,6.14,6.14,0,0,1,2.59-2.76A7.25,7.25,0,0,1,60.09,25.73Z"/><path class="cls-8" d="M58.47,35.23a7.58,7.58,0,0,1,.78,3.35,5.91,5.91,0,0,1-.57,1.92,13.86,13.86,0,0,1-4.09,5.17,47.24,47.24,0,0,1-.12-5.05,5.93,5.93,0,0,1,.89-3.52A6.82,6.82,0,0,1,58.47,35.23Z"/><path class="cls-8" d="M62.44,48.57a7.14,7.14,0,0,1,1.93,2.74,5.59,5.59,0,0,1,.2,1.95,13.57,13.57,0,0,1-1.79,6.19,44.12,44.12,0,0,1-2-4.52,5.78,5.78,0,0,1-.5-3.52A6.72,6.72,0,0,1,62.44,48.57Z"/><path class="cls-8" d="M114.6,29.09a6.69,6.69,0,0,1-3-.48,5.29,5.29,0,0,1-1.42-1.12,12.26,12.26,0,0,1-2.94-5.14,42.53,42.53,0,0,1,4.25,1.59,5.33,5.33,0,0,1,2.64,1.92A6.29,6.29,0,0,1,114.6,29.09Z"/><path class="cls-8" d="M114,41.8A7.29,7.29,0,0,1,111.27,40a5.65,5.65,0,0,1-.87-1.69,13,13,0,0,1-.62-6.22,43.25,43.25,0,0,1,3.4,3.37,5.67,5.67,0,0,1,1.72,3A6.54,6.54,0,0,1,114,41.8Z"/><path class="cls-8" d="M109.8,17.81a6.87,6.87,0,0,1-3,.82,5.25,5.25,0,0,1-1.78-.45,12.44,12.44,0,0,1-4.87-3.55c1.54-.18,3-.26,4.61-.29A5.43,5.43,0,0,1,108,15,6.25,6.25,0,0,1,109.8,17.81Z"/><path class="cls-8" d="M101.37,10A7,7,0,0,1,99,12.15a5.57,5.57,0,0,1-1.85.44A13,13,0,0,1,91,11.65,44.21,44.21,0,0,1,95.08,9.2a5.51,5.51,0,0,1,3.3-.92A6.51,6.51,0,0,1,101.37,10Z"/><path class="cls-8" d="M90.35,6.33a7,7,0,0,1-1.49,2.83,5.46,5.46,0,0,1-1.57,1,12.7,12.7,0,0,1-6,1.16,43.21,43.21,0,0,1,3-3.63A5.53,5.53,0,0,1,87,5.76,6.44,6.44,0,0,1,90.35,6.33Z"/><path class="cls-8" d="M78.12,7.36a6.09,6.09,0,0,1,.35,2.76,4.81,4.81,0,0,1-.62,1.5,11,11,0,0,1-3.72,3.84,39.8,39.8,0,0,1,.32-4.08,4.82,4.82,0,0,1,1-2.77A5.69,5.69,0,0,1,78.12,7.36Z"/><path class="cls-8" d="M69.52,12a5.93,5.93,0,0,1,1.31,2.41,4.59,4.59,0,0,1,0,1.61,11.07,11.07,0,0,1-2,4.85A37.28,37.28,0,0,1,67.58,17a4.83,4.83,0,0,1-.06-2.91A5.44,5.44,0,0,1,69.52,12Z"/><path class="cls-8" d="M60.29,41.76a7.66,7.66,0,0,1,3.44.38,5.8,5.8,0,0,1,1.65,1.18A13.86,13.86,0,0,1,69,48.93a48,48,0,0,1-4.85-1.56,6,6,0,0,1-3.06-2A6.9,6.9,0,0,1,60.29,41.76Z"/><polygon class="cls-8" points="71.78 58.1 69.44 62.28 72.06 62.7 73.34 58.45 71.78 58.1"/><polygon class="cls-8" points="102.67 58.1 105.01 62.28 102.39 62.7 101.11 58.45 102.67 58.1"/><path class="cls-13" d="M59.57,171.31c-.89.23-2.08-5.23-2.13-5.92a11.68,11.68,0,0,1,3.44-8.61c1.91-1.93,4.4-3,6.46-4.7a15.82,15.82,0,0,0,2.56-2.74c.55-.78,1.65-2.15,1.73-3.13a51.46,51.46,0,0,0,.47,8.4,17.65,17.65,0,0,1-.81,8.27,12.6,12.6,0,0,1-4.62,5.47A23.14,23.14,0,0,1,59.57,171.31Z"/><g class="cls-20"><path class="cls-13" d="M71.53,146.4s0,.43-.07,1.18a11.44,11.44,0,0,1-.15,1.36c-.1.52-.17,1.11-.34,1.75s-.34,1.31-.53,2a23,23,0,0,1-.71,2.24l-.42,1.17c-.16.39-.33.78-.5,1.17-.35.78-.68,1.59-1.1,2.35s-.79,1.55-1.25,2.27-.91,1.44-1.35,2.12-1,1.29-1.41,1.88-.93,1.11-1.35,1.61-.8.95-1.19,1.31l-1,.95c-.56.51-.87.81-.87.81l.72-1,.85-1.06c.33-.4.64-.91,1-1.41s.82-1.06,1.2-1.69.81-1.27,1.26-1.93.83-1.4,1.25-2.13.79-1.49,1.2-2.23.76-1.53,1.11-2.29c.17-.38.35-.76.52-1.13s.31-.76.45-1.12c.28-.75.63-1.44.85-2.15l.68-2c.2-.59.35-1.16.51-1.66a10.55,10.55,0,0,0,.33-1.32C71.44,146.82,71.53,146.4,71.53,146.4Z"/></g><path class="cls-21" d="M68.81,152.73S61,166.41,60,167.34c-2.57-3.71.06-8,2.16-9.8S68.81,152.73,68.81,152.73Z"/><path class="cls-21" d="M70.24,154.21s-.94,8.17-7.14,13.63C64.9,168.16,73.13,165.48,70.24,154.21Z"/><path class="cls-13" d="M88.32,193.26c-.87-.3,1.1-5.52,1.44-6.13a11.63,11.63,0,0,1,7.57-5.34c2.65-.58,5.32-.1,8-.42a15.7,15.7,0,0,0,3.63-.91c.89-.35,2.56-.9,3.15-1.68a53.65,53.65,0,0,0-4.18,7.3,17.55,17.55,0,0,1-5.19,6.49,12.65,12.65,0,0,1-6.85,2.08A23.34,23.34,0,0,1,88.32,193.26Z"/><g class="cls-20"><path class="cls-13" d="M111.92,178.89l-.7,1a12.56,12.56,0,0,1-.87,1c-.37.39-.75.85-1.24,1.29l-1.54,1.41c-.53.51-1.18,1-1.82,1.48l-1,.76-1.06.71c-.71.46-1.43,1-2.2,1.37s-1.51.87-2.29,1.22-1.54.71-2.28,1-1.51.56-2.21.81-1.39.42-2,.62A17.49,17.49,0,0,1,91,192l-1.34.26-1.17.21,1.12-.4,1.29-.43c.5-.15,1-.41,1.64-.62s1.26-.44,1.92-.76,1.38-.63,2.11-.94l2.21-1.09c.76-.35,1.47-.82,2.22-1.23s1.47-.86,2.18-1.31l1-.66,1-.7c.64-.48,1.31-.86,1.88-1.34l1.65-1.28c.48-.39.92-.78,1.33-1.11a10.3,10.3,0,0,0,1-.93Z"/></g><path class="cls-21" d="M106.19,182.71s-14,7.21-15.36,7.44c-.14-4.51,4.43-6.7,7.15-7S106.19,182.71,106.19,182.71Z"/><path class="cls-21" d="M106.58,184.74s-5.24,6.34-13.42,7.53C94.5,193.52,102.86,195.76,106.58,184.74Z"/><path class="cls-9" d="M66.69,172.17s-6.38-.28-8.22,4.94S59,194,67.22,193s6-11.38,6-11.38Z"/><path class="cls-22" d="M65.61,178.62s-7.73-8-.19-14,14.21-1.54,14.21-1.54Z"/><path class="cls-9" d="M64.63,184.48s-1.36,9.28,5.77,11.93,14.38.05,15.11-2.77-5.42-8.23-5.42-8.23Z"/><path class="cls-23" d="M89.11,174.56s5.07,0,6.56,6.14c.9,3.68-2.51,13.67-9.2,13.77-4.55.06-5.59-4.76-5.59-4.76Z"/><path class="cls-9" d="M73.46,166.89s4.9-8.27,13.22-3.89,9,11.72,4.19,14.84S73.46,166.89,73.46,166.89Z"/><path class="cls-24" d="M81.13,170.89s4.86-2.39,8.15,1,1.9,13.2-1.72,13.66S81.13,170.89,81.13,170.89Z"/><path class="cls-22" d="M69.29,173.67s-2.52-3.71,1.8-6.32c4.16-2.52,9.06-3,12.56,1.16A7.89,7.89,0,0,1,85,176.92Z"/><path class="cls-24" d="M72.9,173.6s-3.75-3.63-6.5-2.09-5,9-2,13.84c2.64,4.41,6.87,6.46,10.41,4.31S72.9,173.6,72.9,173.6Z"/><path class="cls-22" d="M83.08,176.43s2.61-1.66,4.45,2,1.2,11.38-4.22,13.38c-7.43,2.73-10.15-3.49-10-4.28S83.08,176.43,83.08,176.43Z"/><path class="cls-9" d="M83.58,178.63s4-6.55-3.41-8.55a10,10,0,0,0-6.2.23c-3.28,1-4.92,2.58-3.86,6.31C71.73,182.29,83.58,178.63,83.58,178.63Z"/><path class="cls-23" d="M73.84,186.61s5,6,9.23.44,1-12.77-3.8-12.41-4.46,3-4.46,3Z"/><path class="cls-22" d="M77.56,176.33a3,3,0,0,0-3.11-2.18c-2.64,0-5.56,1.17-5.58,6s2,7.65,5,7.63,5.73-3.13,5.54-5.26A30.87,30.87,0,0,0,77.56,176.33Z"/><path class="cls-25" d="M74.72,177.21a3.27,3.27,0,0,1,4.42-.25c.31,3.66-.06,4.58-.06,4.58l-3,1.63L73.36,182l.46-3.66Z"/><path class="cls-24" d="M75.16,179.68a1.87,1.87,0,0,1-.28-.81,2.56,2.56,0,0,1,0-.73,2.32,2.32,0,0,1,1-1.41,2.79,2.79,0,0,1,2.46-.27,2.59,2.59,0,0,1,1.18.87,4.21,4.21,0,0,1,.91,2.41,4.88,4.88,0,0,1-.65,2.49c-1.24,2.38-5.39,3.79-7.36.59a4.54,4.54,0,0,1-.15-4.27,2.58,2.58,0,0,1,1.2-1.26c.79-.33,1.41-.16,1.39,0a3.5,3.5,0,0,0-.71,3.76,2,2,0,0,0,2.06,1.1,2.87,2.87,0,0,0,1.91-1.53,2.64,2.64,0,0,0,.34-1.19,1.51,1.51,0,0,0-.45-1.11c-.4-.35-1.28-.42-1.43.23a1.16,1.16,0,0,0,0,.49,1.25,1.25,0,0,0,.16.47,1.27,1.27,0,0,1,.2.31C77.06,180.19,75.74,180.66,75.16,179.68Z"/><path class="cls-13" d="M45.08,186.54c-.36-.84,4.84-2.87,5.52-3a11.68,11.68,0,0,1,9,2.07c2.2,1.59,3.63,3.89,5.65,5.66a14.79,14.79,0,0,0,3.1,2.09c.85.44,2.37,1.31,3.35,1.23a50.83,50.83,0,0,0-8.22,1.77,17.6,17.6,0,0,1-8.3.47,12.67,12.67,0,0,1-6.12-3.71A23.12,23.12,0,0,1,45.08,186.54Z"/><g class="cls-20"><path class="cls-13" d="M71.54,194.51l-1.18.11a10.86,10.86,0,0,1-1.36.06c-.53,0-1.13,0-1.79-.06l-2.07-.21a23,23,0,0,1-2.32-.36l-1.23-.23-1.23-.32c-.83-.22-1.67-.42-2.49-.72s-1.66-.54-2.44-.89-1.56-.67-2.3-1-1.42-.75-2.08-1.1-1.24-.75-1.79-1.09a15.2,15.2,0,0,1-1.48-1l-1.09-.82-.93-.73,1,.57,1.18.67c.44.27,1,.5,1.56.8s1.17.65,1.85.93,1.38.6,2.1.94l2.29.91c.77.33,1.6.55,2.4.84s1.62.51,2.43.74l1.2.35,1.18.27c.78.15,1.51.39,2.25.5l2.05.37c.62.1,1.2.16,1.72.25a12.63,12.63,0,0,0,1.35.12Z"/></g><path class="cls-21" d="M64.87,192.8s-14.73-5.61-15.8-6.46c3.26-3.12,8-1.19,10,.62S64.87,192.8,64.87,192.8Z"/><path class="cls-21" d="M63.62,194.44s-8.22.33-14.56-4.95C49,191.31,52.94,199,63.62,194.44Z"/><path class="cls-13" d="M19.32,163.44c.88.27,2.36-5.11,2.45-5.8a11.72,11.72,0,0,0-3-8.78c-1.81-2-4.24-3.21-6.21-5a14.64,14.64,0,0,1-2.4-2.87c-.52-.8-1.54-2.23-1.57-3.21a51.27,51.27,0,0,1-.91,8.35,17.53,17.53,0,0,0,.37,8.31,12.56,12.56,0,0,0,4.32,5.71A23.24,23.24,0,0,0,19.32,163.44Z"/><g class="cls-20"><path class="cls-13" d="M8.7,137.93s.07.42.2,1.17a9.61,9.61,0,0,0,.26,1.33c.13.5.25,1.08.42,1.69s.37,1.29.57,2,.5,1.42.74,2.19c.12.37.25.75.38,1.14s.31.77.47,1.16c.31.78.6,1.58,1,2.34s.66,1.57,1.07,2.3l1.14,2.18c.41.69.79,1.36,1.15,2s.77,1.2,1.11,1.75.65,1,1,1.47.57.8.79,1.1l.67,1-.82-.85-.93-1a17.61,17.61,0,0,1-1.13-1.37c-.38-.52-.85-1-1.26-1.68s-.86-1.27-1.3-2-.83-1.44-1.24-2.19-.75-1.55-1.13-2.33-.67-1.61-1-2.41c-.15-.4-.3-.8-.44-1.19s-.24-.8-.35-1.2a21.91,21.91,0,0,1-.6-2.27l-.42-2c-.13-.65-.17-1.25-.24-1.78a9.93,9.93,0,0,1-.08-1.35Z"/></g><path class="cls-21" d="M11.08,144.39s7.08,14.08,8,15.06c2.76-3.56.36-8-1.65-9.89S11.08,144.39,11.08,144.39Z"/><path class="cls-21" d="M9.57,145.8s.51,8.21,6.42,14C14.17,160,6.09,156.9,9.57,145.8Z"/><path class="cls-13" d="M22.71,187.56c.89-.23-.71-5.58-1-6.22a11.67,11.67,0,0,0-7.19-5.85c-2.6-.77-5.29-.48-7.93-1A14.41,14.41,0,0,1,3,173.34c-.86-.4-2.49-1.07-3-1.89A50.73,50.73,0,0,1,3.65,179a17.58,17.58,0,0,0,4.73,6.84,12.64,12.64,0,0,0,6.68,2.56A23.33,23.33,0,0,0,22.71,187.56Z"/><g class="cls-20"><path class="cls-13" d="M.17,171.57l.79.88a11.27,11.27,0,0,0,.93,1c.38.35.79.78,1.25,1.2L4.69,176c.54.52,1.18,1,1.78,1.47l.94.76,1,.74c.67.49,1.34,1,2.07,1.46s1.4,1,2.14,1.38l2.12,1.25c.71.36,1.39.73,2,1.08s1.29.61,1.86.89,1.11.55,1.6.74l1.25.52,1.09.47-1.15-.29-1.32-.35a15.92,15.92,0,0,1-1.68-.57c-.6-.23-1.29-.43-2-.75s-1.41-.61-2.14-1-1.46-.78-2.21-1.2-1.46-.92-2.2-1.38-1.41-1-2.1-1.52c-.33-.27-.67-.53-1-.78l-.94-.83c-.6-.55-1.21-1.06-1.7-1.61l-1.44-1.51c-.46-.48-.81-1-1.15-1.37a12.82,12.82,0,0,1-.79-1.11Z"/></g><path class="cls-21" d="M5.62,175.78s13.47,8.18,14.8,8.51c.45-4.49-4-7-6.64-7.52S5.62,175.78,5.62,175.78Z"/><path class="cls-21" d="M5.09,177.78s4.78,6.69,12.85,8.45C16.53,187.39,8,189,5.09,177.78Z"/><path class="cls-9" d="M21.68,155.81s-8.71-.73-11.5,6.44-.08,23.53,11.17,22.59,8.75-15.52,8.75-15.52Z"/><path class="cls-23" d="M19.88,164.72s-10.19-11.47.45-19.48,19.51-1.41,19.51-1.41Z"/><path class="cls-9" d="M18.24,172.82s-2.33,12.83,7.28,16.88,19.68.81,20.82-3.07-7-11.72-7-11.72Z"/><path class="cls-23" d="M52.23,160.28s6.94.25,8.67,8.87C62,174.32,56.77,188,47.61,187.82c-6.22-.14-7.4-6.9-7.4-6.9Z"/><path class="cls-9" d="M31.21,148.82s7.12-11.26,18.28-4.73,11.78,16.75,5,20.84S31.21,148.82,31.21,148.82Z"/><path class="cls-24" d="M41.5,154.76s6.78-3.07,11.1,1.79,1.93,18.45-3,18.9S41.5,154.76,41.5,154.76Z"/><path class="cls-22" d="M25.16,158s-3.25-5.29,2.78-8.7c5.83-3.29,12.55-3.67,17.14,2.26a11.11,11.11,0,0,1,1.39,11.76Z"/><path class="cls-24" d="M30.1,158.11s-4.94-5.24-8.79-3.24S14.08,167.09,17.83,174c3.4,6.27,9.08,9.34,14,6.52S30.1,158.11,30.1,158.11Z"/><path class="cls-22" d="M43.89,162.57s3.65-2.18,6,3,1.07,15.9-6.44,18.39c-10.31,3.42-13.71-5.37-13.53-6.46S43.89,162.57,43.89,162.57Z"/><path class="cls-9" d="M44.46,165.66s5.75-8.91-4.23-12.07a13.64,13.64,0,0,0-8.49,0c-4.55,1.26-6.87,3.33-5.6,8.57C28.06,170.13,44.46,165.66,44.46,165.66Z"/><path class="cls-23" d="M30.73,176.25s6.59,8.57,12.61,1.09,2-17.72-4.57-17.46-6.26,4-6.26,4Z"/><path class="cls-9" d="M36.34,162.15A4.13,4.13,0,0,0,32.2,159c-3.62-.16-7.67,1.34-7.94,8.06s2.36,10.74,6.44,10.87,8-4.06,7.85-7S36.34,162.15,36.34,162.15Z"/><path class="cls-25" d="M32.42,163.23a4.41,4.41,0,0,1,6-.13c.24,5.11-.31,6.37-.31,6.37l-4.25,2.11-3.6-1.83.82-5.07Z"/><path class="cls-24" d="M32.89,166.68a2.6,2.6,0,0,1-.34-1.14,3.43,3.43,0,0,1,.05-1A3.18,3.18,0,0,1,34,162.61a3.74,3.74,0,0,1,3.38-.24,3.46,3.46,0,0,1,1.57,1.27A5.91,5.91,0,0,1,40.06,167a6.86,6.86,0,0,1-1,3.43c-1.82,3.24-7.56,5-10.11.45A6.42,6.42,0,0,1,29,165a3.49,3.49,0,0,1,1.71-1.68c1.09-.43,1.93-.16,1.89,0a4.91,4.91,0,0,0-1.15,5.19,2.7,2.7,0,0,0,2.76,1.64,3.9,3.9,0,0,0,2.69-2,3.52,3.52,0,0,0,.52-1.63,2.06,2.06,0,0,0-.56-1.57c-.52-.51-1.73-.65-2,.25a1.73,1.73,0,0,0,0,.68,1.69,1.69,0,0,0,.2.66,1.92,1.92,0,0,1,.25.44C35.46,167.49,33.63,168.07,32.89,166.68Z"/><path class="cls-13" d="M145.77,110c-.91.16-1.66-5.38-1.65-6.07a11.61,11.61,0,0,1,4.12-8.3c2.06-1.77,4.63-2.62,6.82-4.18a15,15,0,0,0,2.76-2.52c.62-.73,1.83-2,2-3a52.44,52.44,0,0,0-.2,8.41,17.64,17.64,0,0,1-1.48,8.18,12.58,12.58,0,0,1-5,5.08A22.82,22.82,0,0,1,145.77,110Z"/><g class="cls-20"><path class="cls-13" d="M159.69,86.13s-.06.43-.17,1.18a9.9,9.9,0,0,1-.26,1.33c-.13.52-.25,1.1-.47,1.73s-.45,1.27-.69,2-.57,1.42-.89,2.17q-.26.55-.51,1.14l-.6,1.12c-.41.75-.8,1.53-1.28,2.25s-.91,1.49-1.43,2.17-1,1.36-1.52,2-1.05,1.21-1.55,1.76-1,1-1.47,1.5a16.9,16.9,0,0,1-1.3,1.2l-1.06.87-.93.74.8-.88.93-1c.36-.37.71-.86,1.15-1.33s.89-1,1.33-1.58.91-1.21,1.41-1.83l1.41-2c.51-.68.91-1.43,1.38-2.14s.88-1.46,1.28-2.19l.62-1.08.54-1.09c.33-.72.74-1.37,1-2.07s.58-1.32.84-1.91.44-1.13.64-1.61a11,11,0,0,0,.44-1.29Z"/></g><path class="cls-21" d="M156.47,92.22s-8.89,13-10,13.86c-2.26-3.91.71-8,2.95-9.59S156.47,92.22,156.47,92.22Z"/><path class="cls-21" d="M157.78,93.82s-1.6,8.07-8.22,13C151.33,107.29,159.75,105.28,157.78,93.82Z"/><path class="cls-13" d="M77.2,65.71c-.49-.31,1.49-3.22,1.79-3.55A7.38,7.38,0,0,1,84.42,60c1.72,0,3.28.72,5,.92a9.4,9.4,0,0,0,2.37,0,5.22,5.22,0,0,0,2.18-.56,33.24,33.24,0,0,0-3.64,3.86,11,11,0,0,1-4.14,3.22,8,8,0,0,1-4.51.27A14.72,14.72,0,0,1,77.2,65.71Z"/><g class="cls-20"><path class="cls-13" d="M93.8,60.37l-.57.48a6.83,6.83,0,0,1-.69.52c-.28.18-.58.4-1,.61l-1.15.63a12.84,12.84,0,0,1-1.34.64,13.65,13.65,0,0,1-1.47.59c-.51.19-1,.39-1.55.53s-1,.31-1.59.4l-1.55.31c-.51.08-1,.13-1.47.18s-.91,0-1.32.08a8.6,8.6,0,0,1-1.12,0l-.86,0-.75,0,.75-.08.85-.08c.33,0,.69-.09,1.1-.13s.84-.09,1.29-.19.93-.18,1.43-.26l1.52-.34c.52-.11,1-.29,1.54-.43s1-.31,1.53-.48a14.73,14.73,0,0,0,1.46-.54c.46-.2.92-.34,1.34-.55l1.2-.54,1-.49a7,7,0,0,0,.75-.42Z"/></g><path class="cls-21" d="M89.72,61.87s-9.66,2.37-10.52,2.31c.58-2.79,3.71-3.47,5.43-3.26S89.72,61.87,89.72,61.87Z"/><path class="cls-21" d="M89.67,63.17a14.94,14.94,0,0,1-9.35,2.65C81,66.78,85.76,69.39,89.67,63.17Z"/><path class="cls-13" d="M72.1,66.09c.49-.31-1.49-3.23-1.78-3.55a7.36,7.36,0,0,0-5.44-2.16c-1.71,0-3.28.72-5,.91a9.81,9.81,0,0,1-2.36,0,5,5,0,0,1-2.18-.57A32.47,32.47,0,0,1,59,64.57a11.26,11.26,0,0,0,4.14,3.22,8,8,0,0,0,4.51.26A14.69,14.69,0,0,0,72.1,66.09Z"/><g class="cls-20"><path class="cls-13" d="M55.5,60.74l.65.38a5.84,5.84,0,0,0,.74.43l1,.49,1.2.54c.42.21.89.34,1.35.55s.95.37,1.45.53a16,16,0,0,0,1.53.48c.52.14,1,.33,1.55.44l1.51.34c.5.07,1,.17,1.43.26s.9.12,1.3.18.77.12,1.09.14l.86.07.74.08-.74,0-.87,0a8.45,8.45,0,0,1-1.11,0,12.77,12.77,0,0,1-1.33-.08c-.46,0-1-.1-1.47-.17l-1.55-.31c-.53-.1-1.05-.27-1.59-.4s-1-.35-1.55-.53-1-.37-1.47-.59A12.66,12.66,0,0,1,58.87,63l-1.16-.64c-.36-.2-.67-.43-1-.61a6.58,6.58,0,0,1-.68-.52Z"/></g><path class="cls-21" d="M59.58,62.25s9.66,2.36,10.52,2.3c-.58-2.78-3.7-3.46-5.42-3.26S59.58,62.25,59.58,62.25Z"/><path class="cls-21" d="M59.64,63.55A14.86,14.86,0,0,0,69,66.19C68.35,67.16,63.54,69.76,59.64,63.55Z"/><path class="cls-9" d="M128.94,94.32s-5-.42-6.66,3.71,0,13.56,6.47,13,5.08-8.94,5.08-8.94Z"/><path class="cls-22" d="M127.9,99.45s-5.91-6.61.26-11.23,11.32-.81,11.32-.81Z"/><path class="cls-9" d="M127,104.12s-1.35,7.4,4.22,9.73,11.41.47,12.08-1.77-4.06-6.75-4.06-6.75Z"/><path class="cls-24" d="M146.66,96.9s4,.14,5,5.11c.61,3-2.39,10.88-7.71,10.76-3.6-.08-4.29-4-4.29-4Z"/><path class="cls-9" d="M134.47,90.29s4.13-6.49,10.6-2.73,6.84,9.66,2.9,12S134.47,90.29,134.47,90.29Z"/><path class="cls-24" d="M140.44,93.71s3.93-1.76,6.44,1,1.12,10.63-1.76,10.89S140.44,93.71,140.44,93.71Z"/><path class="cls-24" d="M131,95.59a3.49,3.49,0,0,1,1.61-5c3.38-1.9,7.29-2.11,9.94,1.3a6.39,6.39,0,0,1,.81,6.79Z"/><path class="cls-24" d="M133.83,95.64s-2.87-3-5.1-1.86-4.19,7-2,11c2,3.61,5.27,5.38,8.14,3.76S133.83,95.64,133.83,95.64Z"/><path class="cls-22" d="M141.82,98.21s2.12-1.25,3.47,1.75.62,9.16-3.73,10.6c-6,2-7.95-3.1-7.85-3.72S141.82,98.21,141.82,98.21Z"/><path class="cls-9" d="M142.16,100s3.33-5.13-2.46-6.95a8,8,0,0,0-4.92,0c-2.64.73-4,1.92-3.25,4.94C132.64,102.57,142.16,100,142.16,100Z"/><path class="cls-24" d="M134.19,106.1s3.83,4.94,7.31.63,1.14-10.21-2.65-10.07S135.22,99,135.22,99Z"/><path class="cls-22" d="M137.45,98a2.38,2.38,0,0,0-2.4-1.84c-2.1-.09-4.45.77-4.61,4.64s1.37,6.2,3.73,6.27,4.65-2.34,4.56-4.05A25,25,0,0,0,137.45,98Z"/><path class="cls-25" d="M135.17,98.59a2.58,2.58,0,0,1,3.51-.07c.14,3-.18,3.67-.18,3.67L136,103.41,134,102.35l.47-2.92Z"/><path class="cls-24" d="M135.44,100.58a1.52,1.52,0,0,1-.19-.65,1.87,1.87,0,0,1,0-.58,1.78,1.78,0,0,1,.8-1.11,2.21,2.21,0,0,1,2-.14,2,2,0,0,1,.91.73,3.41,3.41,0,0,1,.65,2,3.84,3.84,0,0,1-.59,2c-1,1.87-4.38,2.88-5.86.26a3.7,3.7,0,0,1,0-3.43,2.11,2.11,0,0,1,1-1c.64-.25,1.12-.09,1.1,0a2.84,2.84,0,0,0-.67,3,1.57,1.57,0,0,0,1.6.95,2.29,2.29,0,0,0,1.56-1.18,2.14,2.14,0,0,0,.31-.94,1.25,1.25,0,0,0-.33-.91c-.3-.29-1-.37-1.14.15a1,1,0,0,0,0,.39.84.84,0,0,0,.11.38,1.65,1.65,0,0,1,.15.25C136.94,101.05,135.88,101.39,135.44,100.58Z"/><path class="cls-9" d="M69.86,58.25S67,58,66.12,60.33s0,7.61,3.64,7.31,2.84-5,2.84-5Z"/><path class="cls-22" d="M69.28,61.13s-3.32-3.71.14-6.3a5.33,5.33,0,0,1,6.35-.45Z"/><path class="cls-9" d="M68.75,63.75S68,67.9,71.11,69.21s6.4.26,6.78-1-2.28-3.79-2.28-3.79Z"/><path class="cls-24" d="M79.8,59.7a3.2,3.2,0,0,1,2.82,2.87c.34,1.67-1.34,6.1-4.32,6-2,0-2.41-2.23-2.41-2.23Z"/><path class="cls-9" d="M73,56s2.32-3.64,6-1.53,3.83,5.42,1.62,6.74S73,56,73,56Z"/><path class="cls-23" d="M76.31,57.91s2.21-1,3.61.58.63,6-1,6.11S76.31,57.91,76.31,57.91Z"/><path class="cls-24" d="M71,59a2,2,0,0,1,.91-2.81c1.89-1.07,4.08-1.19,5.57.73a3.58,3.58,0,0,1,.46,3.8Z"/><path class="cls-23" d="M72.6,59S71,57.3,69.74,58s-2.35,3.95-1.13,6.19c1.11,2,3,3,4.57,2.11S72.6,59,72.6,59Z"/><path class="cls-22" d="M77.09,60.44s1.19-.71,1.94,1,.35,5.14-2.09,5.94c-3.36,1.11-4.46-1.73-4.4-2.09S77.09,60.44,77.09,60.44Z"/><path class="cls-9" d="M77.27,61.44s1.87-2.89-1.37-3.9a4.38,4.38,0,0,0-2.76,0c-1.48.41-2.24,1.08-1.83,2.78C71.94,62.88,77.27,61.44,77.27,61.44Z"/><path class="cls-24" d="M72.81,64.86s2.14,2.77,4.1.35.64-5.72-1.49-5.64-2,1.28-2,1.28Z"/><path class="cls-22" d="M74.63,60.3a1.33,1.33,0,0,0-1.34-1c-1.18-.05-2.5.43-2.59,2.6s.77,3.48,2.1,3.52a2.64,2.64,0,0,0,2.55-2.28A13.94,13.94,0,0,0,74.63,60.3Z"/><path class="cls-25" d="M73.36,60.65a1.44,1.44,0,0,1,2,0,6,6,0,0,1-.09,2.06l-1.39.68-1.17-.59.27-1.64Z"/><path class="cls-24" d="M73.51,61.77a.83.83,0,0,1-.11-.37.92.92,0,0,1,0-.33,1,1,0,0,1,.44-.62A1.26,1.26,0,0,1,75,60.37a1.17,1.17,0,0,1,.5.41,1.91,1.91,0,0,1,.37,1.1A2.21,2.21,0,0,1,75.51,63a1.9,1.9,0,0,1-3.29.14,2.05,2.05,0,0,1,0-1.92,1.11,1.11,0,0,1,.55-.54c.36-.14.63-.05.62,0A1.58,1.58,0,0,0,73,62.35a.87.87,0,0,0,.89.53,1.28,1.28,0,0,0,.88-.66,1.23,1.23,0,0,0,.17-.53.68.68,0,0,0-.18-.51c-.17-.16-.57-.21-.64.08a.6.6,0,0,0,0,.23.58.58,0,0,0,.07.21.5.5,0,0,1,.08.14C74.35,62,73.75,62.22,73.51,61.77Z"/><circle class="cls-8" cx="26" cy="129.62" r="1.81"/><path class="cls-26" d="M27.81,129.62a1.81,1.81,0,0,1-3.6.31,1.81,1.81,0,0,0,3.33-1,1.66,1.66,0,0,0,0-.32A1.78,1.78,0,0,1,27.81,129.62Z"/><circle class="cls-15" cx="25.74" cy="128.86" r="0.77"/><circle class="cls-8" cx="35.87" cy="139.12" r="1.81"/><path class="cls-26" d="M37.68,139.12a1.81,1.81,0,0,1-3.59.31,1.81,1.81,0,0,0,3.33-1,1.66,1.66,0,0,0,0-.32A1.77,1.77,0,0,1,37.68,139.12Z"/><circle class="cls-15" cx="35.62" cy="138.36" r="0.77"/><circle class="cls-8" cx="47.02" cy="133.04" r="1.81"/><path class="cls-26" d="M48.83,133a1.81,1.81,0,0,1-3.6.3,1.8,1.8,0,0,0,3.33-1,1.55,1.55,0,0,0,0-.31A1.75,1.75,0,0,1,48.83,133Z"/><path class="cls-15" d="M47.53,132.27a.77.77,0,1,1-.77-.76A.76.76,0,0,1,47.53,132.27Z"/><circle class="cls-8" cx="71.7" cy="135.54" r="1.81"/><path class="cls-26" d="M73.51,135.54a1.81,1.81,0,0,1-3.59.3,1.8,1.8,0,0,0,3.33-1,1.55,1.55,0,0,0,0-.31A1.75,1.75,0,0,1,73.51,135.54Z"/><path class="cls-15" d="M72.22,134.77a.77.77,0,1,1-.77-.76A.77.77,0,0,1,72.22,134.77Z"/><circle class="cls-8" cx="97.2" cy="136.46" r="1.81"/><path class="cls-26" d="M99,136.45a1.81,1.81,0,0,1-3.59.31,1.81,1.81,0,0,0,3.33-1,1.66,1.66,0,0,0,0-.32A1.79,1.79,0,0,1,99,136.45Z"/><path class="cls-15" d="M97.72,135.69a.77.77,0,1,1-.77-.77A.78.78,0,0,1,97.72,135.69Z"/><circle class="cls-8" cx="122.61" cy="135.95" r="1.81"/><path class="cls-26" d="M124.42,136a1.81,1.81,0,0,1-3.6.31,1.83,1.83,0,0,0,1.53.83,1.81,1.81,0,0,0,1.81-1.81,1.08,1.08,0,0,0,0-.32A1.75,1.75,0,0,1,124.42,136Z"/><path class="cls-15" d="M123.12,135.19a.77.77,0,1,1-.77-.77A.76.76,0,0,1,123.12,135.19Z"/><circle class="cls-8" cx="58.64" cy="142.04" r="1.81"/><path class="cls-26" d="M60.45,142a1.81,1.81,0,0,1-3.59.3,1.8,1.8,0,0,0,3.33-1,1.55,1.55,0,0,0,0-.31A1.75,1.75,0,0,1,60.45,142Z"/><path class="cls-15" d="M59.15,141.27a.77.77,0,1,1-.76-.76A.76.76,0,0,1,59.15,141.27Z"/><circle class="cls-8" cx="83.56" cy="143.83" r="1.81"/><path class="cls-26" d="M85.37,143.83a1.81,1.81,0,0,1-3.6.31,1.81,1.81,0,0,0,3.33-1,1.55,1.55,0,0,0,0-.31A1.75,1.75,0,0,1,85.37,143.83Z"/><path class="cls-15" d="M84.07,143.06a.77.77,0,1,1-.77-.76A.76.76,0,0,1,84.07,143.06Z"/><circle class="cls-8" cx="110.43" cy="144.96" r="1.81"/><path class="cls-26" d="M112.24,145a1.81,1.81,0,0,1-3.59.31,1.81,1.81,0,0,0,3.33-1,1.66,1.66,0,0,0,0-.32A1.79,1.79,0,0,1,112.24,145Z"/><path class="cls-15" d="M110.94,144.19a.77.77,0,0,1-.76.77.77.77,0,0,1,0-1.54A.77.77,0,0,1,110.94,144.19Z"/><circle class="cls-8" cx="146.71" cy="131.44" r="1.81"/><path class="cls-26" d="M148.52,131.43a1.81,1.81,0,0,1-3.6.31,1.83,1.83,0,0,0,1.53.83,1.81,1.81,0,0,0,1.81-1.81,1.12,1.12,0,0,0,0-.32A1.78,1.78,0,0,1,148.52,131.43Z"/><circle class="cls-15" cx="146.45" cy="130.67" r="0.77"/><circle class="cls-8" cx="137.39" cy="142.85" r="1.81"/><path class="cls-26" d="M139.2,142.85a1.81,1.81,0,0,1-3.59.31,1.81,1.81,0,0,0,3.33-1,1.66,1.66,0,0,0,0-.32A1.77,1.77,0,0,1,139.2,142.85Z"/><path class="cls-15" d="M137.91,142.09a.77.77,0,1,1-.77-.77A.77.77,0,0,1,137.91,142.09Z"/></g></g></g></svg>