<svg xmlns="http://www.w3.org/2000/svg" xmlns:xlink="http://www.w3.org/1999/xlink" viewBox="0 0 74.06 36.13"><defs><style>.cls-1{fill:url(#radial-gradient);}.cls-2{fill:#e0b582;}.cls-3{fill:#e35b9b;}.cls-4{fill:#c63980;}.cls-5{fill:url(#radial-gradient-2);}.cls-6{fill:url(#radial-gradient-3);}.cls-7{fill:url(#radial-gradient-4);}.cls-8{fill:url(#radial-gradient-5);}.cls-9{fill:url(#radial-gradient-6);}.cls-10{fill:url(#radial-gradient-7);}.cls-11{fill:url(#radial-gradient-8);}.cls-12{fill:#fff3fc;}.cls-13{fill:#f682bd;}.cls-14{fill:url(#radial-gradient-9);}.cls-15{fill:url(#radial-gradient-10);}.cls-16{fill:url(#radial-gradient-11);}.cls-17{fill:url(#radial-gradient-12);}.cls-18{fill:url(#radial-gradient-13);}.cls-19{fill:url(#radial-gradient-14);}</style><radialGradient id="radial-gradient" cx="-56.16" cy="-31.63" r="121.05" gradientTransform="translate(39.64 19.5) scale(0.57)" gradientUnits="userSpaceOnUse"><stop offset="0" stop-color="#ecd7c2"/><stop offset="1" stop-color="#efc993"/></radialGradient><radialGradient id="radial-gradient-2" cx="-4.81" cy="-290.59" r="289" gradientTransform="translate(39.64 19.5) scale(0.57)" gradientUnits="userSpaceOnUse"><stop offset="0.87" stop-color="#f885c0"/><stop offset="0.91" stop-color="#f680bc"/><stop offset="0.95" stop-color="#ef73b0"/><stop offset="1" stop-color="#e45d9d"/><stop offset="1" stop-color="#e35b9b"/></radialGradient><radialGradient id="radial-gradient-3" cx="-13.92" cy="-276.19" r="259.66" gradientTransform="translate(41.57 25.93) scale(0.55 0.51)" xlink:href="#radial-gradient-2"/><radialGradient id="radial-gradient-4" cx="-10.51" cy="-5.78" r="26.37" gradientTransform="translate(39.64 19.5) scale(0.57)" gradientUnits="userSpaceOnUse"><stop offset="0.54" stop-color="#e35b9b"/><stop offset="0.67" stop-color="#e661a1"/><stop offset="0.86" stop-color="#ef73b0"/><stop offset="1" stop-color="#f885c0"/></radialGradient><radialGradient id="radial-gradient-5" cx="45.94" cy="-7.22" r="20.15" xlink:href="#radial-gradient-4"/><radialGradient id="radial-gradient-6" cx="-46.43" cy="-1.35" r="10.82" xlink:href="#radial-gradient-4"/><radialGradient id="radial-gradient-7" cx="33.57" cy="-5.35" r="13.34" xlink:href="#radial-gradient-4"/><radialGradient id="radial-gradient-8" cx="70.1" cy="24.52" r="5.76" gradientTransform="translate(-37.06 -25.82) scale(1.06)" gradientUnits="userSpaceOnUse"><stop offset="0.32" stop-color="#fcd9f2"/><stop offset="1" stop-color="#fca4d4"/></radialGradient><radialGradient id="radial-gradient-9" cx="15.33" cy="-1.72" r="5.76" gradientTransform="translate(8.5 1.19) scale(0.77)" xlink:href="#radial-gradient-8"/><radialGradient id="radial-gradient-10" cx="-2.24" cy="3.25" r="5.76" gradientTransform="translate(8.5 1.19) scale(0.77)" xlink:href="#radial-gradient-8"/><radialGradient id="radial-gradient-11" cx="57.15" cy="-1.72" r="5.76" gradientTransform="translate(8.5 1.19) scale(0.77)" xlink:href="#radial-gradient-8"/><radialGradient id="radial-gradient-12" cx="75.62" cy="3.25" r="5.76" gradientTransform="translate(8.5 1.19) scale(0.77)" xlink:href="#radial-gradient-8"/><radialGradient id="radial-gradient-13" cx="18.98" cy="8.73" r="5.76" gradientTransform="translate(8.5 1.19) scale(0.77)" xlink:href="#radial-gradient-8"/><radialGradient id="radial-gradient-14" cx="54.91" cy="9.54" r="5.76" gradientTransform="translate(8.5 1.19) scale(0.77)" xlink:href="#radial-gradient-8"/></defs><title>cake12</title><g id="Layer_2" data-name="Layer 2"><g id="layer"><path class="cls-1" d="M72.47,27.94c0,4.19-16.55,8.19-36.11,8.19s-34.72-4-34.72-8.19c0-1.05-1.52-13.14-.4-17,2.16-4.76,21-2.33,35.14-2.33,14.7,0,33.9-3.61,36.5,2.57C74,13.86,72.47,27,72.47,27.94Z"/><path class="cls-2" d="M71.83,26.84a.8.8,0,0,0,.78-.56c.19-2,.34-3.08.46-4.62.07-1,.16-2.05.2-3.07,0-.47.32-2.69,0-3s-.72-.28-1-.51c-1.1-.8-3.14-.95-4.54-1.32-5.78-1.54-11.6-1.92-17.67-2.43-1.11-.09-2.22-.16-3.32-.22-3.5.18-7,.34-10.3.34s-7.12-.12-10.79-.25q-5.23.3-10.46.84a47.56,47.56,0,0,0-7.5,1.44c-1.47.4-5.21,1-6.12,1.95a3,3,0,0,0-.67,1.2,49.48,49.48,0,0,0,.27,6.44A16.26,16.26,0,0,0,1.35,26c.29.95,1.11.74,1.47,0a9.56,9.56,0,0,0,.39-3.58c0-.51-.35-2.87.44-3,.57-.1,1,1.87,1.59,2.17,1,.5,2.05.48,3,1.07,1.77,1.11,1.77,8,5.09,5.65,1.1-.77,1.23-2.06,1.58-3.24.26-.9.57-2.05,1.75-1.7.7.21,1,.92,1.55,1.3,2,1.29,4-.55,5.14-2,.47-.61.83-1.42,1.69-1.42,1.73,0,2.45,1.74,3.17,3a10.54,10.54,0,0,1,1.12,5.07c.05,1.75.19,3.95,1.67,5.13,1.3,1,3.92,1.38,5.07-.07,1.43-1.8.67-4.91.69-7,0-.85-.18-1.88.79-2.29a1.62,1.62,0,0,1,2,1c.29.57.33,1.29,1.05,1.47,2.39.6,2.43-6.9,5.36-4.83,1,.72,1.53,1.12,2.73.37,1-.62,1.8-1.67,3-1.89C55,20.51,53.5,26.84,56.49,27c1.4.08,2.56-2.2,3.64-.72.83,1.15,1.21,2.85,2.42,3.68a4.31,4.31,0,0,0,3.72.43c2.26-.82,1.83-3.37,1.41-5.2a9.92,9.92,0,0,1-.48-3.09c.17-1.73,1.08-.54,1.9-.14,1.2.57,1.61-.54,2-1.39.52-1.05,1-.2.86.68-.14,1.14-.87,2.09-.94,3.29C71,25.18,70.88,26.69,71.83,26.84Z"/><path class="cls-3" d="M73.65,9.59c.85,2.07.15,5-.09,7.14-.21,1.83-.7,3.77-.15,5.56.2.67.91,1.73.45,2.44a1.11,1.11,0,0,1-1.73.05c-1.09-1.13,1.11-7-.7-7.07-.93,0-.69,1.06-.76,1.61s-.18,1.6-1,1.63-.74-.93-1-1.51c-1-2.48-1.67.4-1.7,1.62-.06,2,.74,4.38,0,6.25s-2.33,2.53-4,1.5a4.12,4.12,0,0,1-1.65-2c-.27-.66-.4-2-1.1-2.44-.89-.53-1.73.32-2.54.64-3.49,1.39-2.62-2.34-2.92-4.34S52.79,18.21,51.15,19s-2.69,3.36-5,2.82c-.77-.18-1.54-1.08-2.42-.83-1.73.48-.63,3.72-2.83,3.75-1.67,0-2.43-4.89-4.11-2-.69,1.19-.24,2.78-.15,4.06A11.48,11.48,0,0,1,36.15,32c-1.32,3-4.66,1.92-6.1-.31-1.79-2.79.59-6.84-1.69-9.62-1.06-1.3-2.32-3-4.23-2.54-1.36.32-2.14,1.64-3.37,2.21-1.63.76-2.65-.3-4.2-.2-1,.07-1.71,1.23-1.9,2.09-.35,1.58-.93,4.95-3.49,3.26-1.93-1.27-.41-4.87-2.52-6-.94-.49-2.16.37-3.06-.39s-.43-2.25-1.37-2.91c-1.91-1.32-1.87,2.78-1.9,3.72s.13,6.06-1.93,3.9c-.75-.79-.23-1.88,0-2.74,1.29-3.87-1.31-10.32.87-13.45C2.22,7.75,6,7,7.47,6.44A37.45,37.45,0,0,1,15,4.5,158,158,0,0,1,36.63,2.93a120.57,120.57,0,0,1,13.44.62c6.11.68,12,1.19,17.78,3.27,1.4.5,3.45.7,4.56,1.77C72.81,9,73.38,9,73.65,9.59Z"/><path class="cls-4" d="M73,23.76a1.42,1.42,0,0,1-.72-.71A4.58,4.58,0,0,1,72.38,21c.18-1.14.76-3.26-.29-4.11-1.9-1.55-1.44,2.89-2.45,2.36-.86-.45-1.51-3.41-2.73-1.29-.84,1.47-.66,3.42-.51,5,.12,1.23.11,3.38-1.3,3.94a3,3,0,0,1-2.58-.39c-1.23-1-1-2.61-1.56-3.91-.8-2-2,1.29-3.14,1.58-1.76.42-1.83-1.54-2.17-2.68-.48-1.57-1.91-5.15-4.13-4.48s-3.15,5.34-5.91,3.43c-1.33-.92-2.43-.86-3.18.7-.38.81-1.25,3.37-2.54,2-.86-.89-.2-2.85-1.2-3.58-2.87-2.12-2.49,6.81-2.52,7.52-.05,1.24-.17,3.14-1.52,3.7-2,.81-3.58-1-4-2.71a69.5,69.5,0,0,1-1.45-7.56,3.73,3.73,0,0,0-1.47-2.62c-1.5-1.15-3.37-.12-4.46,1.09s-2,2.29-3.71,2.32a3.06,3.06,0,0,1-2.59-2c-.29-.58-.45-1.21-1.14-.81-.51.29-.8,1.21-1,1.72-.43,1.21-.49,2.81-1.19,3.9-1,1.54-2.7,1.28-3.19-.48-.25-.92-.07-1.94-.35-2.84-.65-2.12-2.94.17-4-1-.59-.62-.57-1.66-.86-2.43S4.32,15.75,3.36,16c-1.92.47-1,5.64-1.38,7a6.21,6.21,0,0,1-.63,1.72c-.16.19-1,.62-1.2.23a1.65,1.65,0,0,0,.24.33c2.06,2.16,1.91-2.94,1.93-3.9s0-5,1.9-3.72c.94.66.54,2.2,1.37,2.91s2.12-.1,3.06.39c2.11,1.09.59,4.69,2.52,6,2.56,1.69,3.14-1.68,3.49-3.26.19-.86.86-2,1.9-2.09,1.55-.1,2.57,1,4.2.2,1.23-.57,2-1.89,3.37-2.21,1.91-.44,3.17,1.24,4.23,2.54,2.28,2.78-.1,6.83,1.69,9.62,1.44,2.23,4.78,3.28,6.1.31a11.48,11.48,0,0,0,.48-5.18c-.09-1.28-.54-2.87.15-4.06,1.68-2.93,2.44,2,4.11,2,2.2,0,1.1-3.27,2.83-3.75.88-.25,1.65.65,2.42.83,2.32.54,3.26-2,5-2.82s3.29-.27,3.58,1.68-.57,5.73,2.92,4.34c.81-.32,1.65-1.17,2.54-.64.7.41.83,1.78,1.1,2.44a4.12,4.12,0,0,0,1.65,2c1.7,1,3.29.27,4-1.5s0-4.27,0-6.25c0-1.22.67-4.1,1.7-1.62.24.58.14,1.53,1,1.51s.91-1.07,1-1.63-.17-1.63.76-1.61c1.81,0-.39,5.53.57,7,.34.53,1.74.77,2-.08C74,24.28,73.45,24.05,73,23.76Z"/><path class="cls-5" d="M73.76,10.13c0,3.82-17,6.28-37.14,6.28S.91,14,.91,10.13,16.5,2.58,36.62,2.58,73.76,6.31,73.76,10.13Z"/><path class="cls-6" d="M42.21,14.49C22.7,14.44,7.58,12.18,7.59,8.73c0-1.58,3.21-3.14,8.56-4.36C7.38,5.65,1.77,7.7,1.76,9.79c0,3.45,15.11,5.71,34.63,5.76,12.61,0,24-.87,30.42-2.44A184.3,184.3,0,0,1,42.21,14.49Z"/><path class="cls-7" d="M34.2,31c1.86-.35,1.78-3.41,1.73-4.53-.23-5.45-1-2.48-2.6-2.8s-3-2.66-3.81-3.81C30.38,22.38,29.73,31.8,34.2,31Z"/><path class="cls-8" d="M64.75,26.64c1.63-.27,1.52-2.13,1.48-3-.2-4.2-.85-1.91-2.26-2.15s-2.65-2.06-3.31-2.94C61.4,20.52,60.87,27.29,64.75,26.64Z"/><path class="cls-9" d="M11.88,24.66c-1.23-.22-1.16-1.74-1.13-2.45.14-3.43.64-1.57,1.7-1.77s2-1.69,2.49-2.41C14.39,19.65,14.81,25.17,11.88,24.66Z"/><path class="cls-10" d="M57,23.91c-1.26-.21-.71-3.05-1.71-4.61-1.74-2.74,1.46.44,2.55.26s2-1.59,2.55-2.27C59.86,18.81,60,24.41,57,23.91Z"/><path class="cls-3" d="M42,7.48c0,.39-1.7.63-3.71.63s-3.57-.24-3.57-.63,1.56-.75,3.57-.75S42,7.1,42,7.48Z"/><circle class="cls-11" cx="38.34" cy="4.01" r="3.6"/><path class="cls-12" d="M39.11,1.22c.17.52-.38,1.15-1.21,1.42s-1.64.06-1.81-.45S36.47,1,37.31.77,39,.71,39.11,1.22Z"/><path class="cls-13" d="M38.12,6.22a3.83,3.83,0,0,1-3-1.48,3.3,3.3,0,0,0,6.54-.59.88.88,0,0,0,0-.17A3.85,3.85,0,0,1,38.12,6.22Z"/><path class="cls-3" d="M23.61,5.13c0,.28-1.23.46-2.69.46s-2.59-.18-2.59-.46,1.13-.55,2.59-.55S23.61,4.86,23.61,5.13Z"/><path class="cls-14" d="M23.6,2.61A2.62,2.62,0,1,1,21,0,2.61,2.61,0,0,1,23.6,2.61Z"/><path class="cls-12" d="M21.55.59c.12.38-.28.83-.88,1s-1.19,0-1.31-.33.27-.83.88-1S21.43.22,21.55.59Z"/><path class="cls-13" d="M20.83,4.22a2.79,2.79,0,0,1-2.19-1.08,2.39,2.39,0,0,0,4.74-.43s0-.08,0-.12A2.81,2.81,0,0,1,20.83,4.22Z"/><path class="cls-3" d="M10.09,9c0,.28-1.23.46-2.69.46S4.81,9.24,4.81,9s1.13-.55,2.59-.55S10.09,8.68,10.09,9Z"/><path class="cls-15" d="M10.07,6.44A2.61,2.61,0,1,1,7.46,3.83,2.61,2.61,0,0,1,10.07,6.44Z"/><path class="cls-12" d="M8,4.42c.12.38-.28.83-.88,1S6,5.49,5.84,5.12s.27-.83.88-1S7.91,4.05,8,4.42Z"/><path class="cls-13" d="M7.31,8.05A2.79,2.79,0,0,1,5.12,7a2.39,2.39,0,0,0,4.74-.43s0-.08,0-.12A2.81,2.81,0,0,1,7.31,8.05Z"/><path class="cls-3" d="M55.81,5.13c0,.28-1.23.46-2.69.46s-2.59-.18-2.59-.46,1.13-.55,2.59-.55S55.81,4.86,55.81,5.13Z"/><path class="cls-16" d="M55.79,2.61A2.61,2.61,0,1,1,53.18,0,2.61,2.61,0,0,1,55.79,2.61Z"/><path class="cls-12" d="M53.75.59c.11.38-.28.83-.88,1s-1.2,0-1.31-.33.27-.83.87-1S53.63.22,53.75.59Z"/><path class="cls-13" d="M53,4.22a2.77,2.77,0,0,1-2.19-1.08,2.39,2.39,0,0,0,4.74-.43.5.5,0,0,0,0-.12A2.79,2.79,0,0,1,53,4.22Z"/><path class="cls-3" d="M70,9c0,.28-1.23.46-2.69.46S64.75,9.24,64.75,9s1.13-.55,2.59-.55S70,8.68,70,9Z"/><path class="cls-17" d="M70,6.44a2.61,2.61,0,1,1-2.61-2.61A2.61,2.61,0,0,1,70,6.44Z"/><path class="cls-12" d="M68,4.42c.12.38-.28.83-.88,1s-1.19,0-1.31-.33.27-.83.88-1S67.85,4.05,68,4.42Z"/><path class="cls-13" d="M67.25,8.05A2.79,2.79,0,0,1,65.06,7a2.39,2.39,0,0,0,4.74-.43s0-.08,0-.12A2.8,2.8,0,0,1,67.25,8.05Z"/><path class="cls-3" d="M26.43,13.18c0,.28-1.24.46-2.7.46s-2.58-.18-2.58-.46,1.13-.55,2.58-.55S26.43,12.9,26.43,13.18Z"/><circle class="cls-18" cx="23.8" cy="10.66" r="2.61"/><path class="cls-12" d="M24.36,8.64c.12.38-.27.83-.88,1s-1.19,0-1.31-.33.27-.83.88-1S24.24,8.27,24.36,8.64Z"/><path class="cls-13" d="M23.64,12.27a2.79,2.79,0,0,1-2.19-1.08,2.39,2.39,0,0,0,4.74-.43s0-.08,0-.12A2.8,2.8,0,0,1,23.64,12.27Z"/><path class="cls-3" d="M54.09,13.81c0,.27-1.23.45-2.69.45s-2.59-.18-2.59-.45,1.13-.55,2.59-.55S54.09,13.53,54.09,13.81Z"/><path class="cls-19" d="M54.07,11.29a2.61,2.61,0,1,1-2.61-2.62A2.61,2.61,0,0,1,54.07,11.29Z"/><path class="cls-12" d="M52,9.27c.11.37-.28.83-.88,1s-1.2.05-1.31-.32.27-.83.88-1S51.91,8.9,52,9.27Z"/><path class="cls-13" d="M51.31,12.89a2.78,2.78,0,0,1-2.19-1.07,2.39,2.39,0,0,0,4.74-.43s0-.08,0-.13A2.81,2.81,0,0,1,51.31,12.89Z"/></g></g></svg>