<svg xmlns="http://www.w3.org/2000/svg" xmlns:xlink="http://www.w3.org/1999/xlink" viewBox="0 0 95.78 74.94"><defs><style>.cls-1{fill:#b134b4;}.cls-2{fill:url(#linear-gradient);}.cls-3{fill:url(#radial-gradient);}.cls-4{opacity:0.2;}.cls-5{fill:url(#linear-gradient-2);}.cls-6{fill:url(#linear-gradient-3);}.cls-7{fill:url(#linear-gradient-4);}.cls-8{fill:url(#radial-gradient-2);}.cls-9{fill:url(#radial-gradient-3);}.cls-10{fill:url(#radial-gradient-4);}.cls-11{fill:url(#radial-gradient-5);}.cls-12{fill:url(#radial-gradient-6);}.cls-13{fill:url(#radial-gradient-7);}.cls-14{fill:url(#radial-gradient-8);}.cls-15{fill:#b4349d;}.cls-16{fill:#e51a4f;}.cls-17{fill:#d3114d;}.cls-18{fill:#ff3e6a;}.cls-19{fill:#ff80a1;}.cls-20{fill:#dd76cf;}.cls-21{fill:#e2ace1;}.cls-22{fill:#fcdefa;}.cls-23{fill:#fff5fe;}.cls-24{fill:#fffafe;}</style><linearGradient id="linear-gradient" x1="1.1" y1="26.81" x2="92.19" y2="68.45" gradientUnits="userSpaceOnUse"><stop offset="0" stop-color="#8e5d3f"/><stop offset="1" stop-color="#552f1c"/></linearGradient><radialGradient id="radial-gradient" cx="-75.11" cy="-177.88" r="145.26" gradientTransform="translate(50.73 150) scale(0.74)" gradientUnits="userSpaceOnUse"><stop offset="0" stop-color="#d4b18e"/><stop offset="1" stop-color="#d7a763"/></radialGradient><linearGradient id="linear-gradient-2" x1="2.42" y1="34.68" x2="90.41" y2="65.33" gradientUnits="userSpaceOnUse"><stop offset="0" stop-color="#3d150b"/><stop offset="1" stop-color="#340d07"/></linearGradient><linearGradient id="linear-gradient-3" x1="46.38" y1="42.32" x2="54.57" y2="42.32" gradientUnits="userSpaceOnUse"><stop offset="0.1" stop-color="#dd76cf"/><stop offset="1" stop-color="#ca51ba"/></linearGradient><linearGradient id="linear-gradient-4" x1="4.46" y1="50.69" x2="92.21" y2="50.69" gradientUnits="userSpaceOnUse"><stop offset="0.21" stop-color="#c657b8"/><stop offset="0.3" stop-color="#b4349d"/></linearGradient><radialGradient id="radial-gradient-2" cx="17.25" cy="-376.92" r="289.02" gradientTransform="translate(35.06 104.66) scale(0.73)" gradientUnits="userSpaceOnUse"><stop offset="0.75" stop-color="#f6d4f8"/><stop offset="0.83" stop-color="#f5d2f7"/><stop offset="0.88" stop-color="#f4caf4"/><stop offset="0.92" stop-color="#f1bcee"/><stop offset="0.95" stop-color="#eca9e5"/><stop offset="0.98" stop-color="#e790db"/><stop offset="1" stop-color="#e37ed3"/></radialGradient><radialGradient id="radial-gradient-3" cx="-15.13" cy="-374.73" r="259.7" gradientTransform="translate(54.61 118.89) scale(0.72 0.68)" gradientUnits="userSpaceOnUse"><stop offset="0.87" stop-color="#f8abef"/><stop offset="0.91" stop-color="#f6a6ec"/><stop offset="0.95" stop-color="#f099e4"/><stop offset="0.99" stop-color="#e583d6"/><stop offset="1" stop-color="#e37ed3"/></radialGradient><radialGradient id="radial-gradient-4" cx="682.15" cy="-296.02" r="26.72" gradientTransform="matrix(-0.53, 0, 0, 0.53, 445.42, 202.95)" gradientUnits="userSpaceOnUse"><stop offset="0.54" stop-color="#ca51ba"/><stop offset="0.68" stop-color="#cd57be"/><stop offset="0.89" stop-color="#d669c8"/><stop offset="1" stop-color="#dd76cf"/></radialGradient><radialGradient id="radial-gradient-5" cx="693" cy="-298.48" r="22.28" gradientTransform="matrix(-0.53, 0, 0, 0.53, 445.42, 202.95)" gradientUnits="userSpaceOnUse"><stop offset="0.65" stop-color="#ca51ba"/><stop offset="0.76" stop-color="#cd57be"/><stop offset="0.91" stop-color="#d669c8"/><stop offset="1" stop-color="#dd76cf"/></radialGradient><radialGradient id="radial-gradient-6" cx="-204.36" cy="-617.33" r="26.72" gradientTransform="translate(93.83 281.35) scale(0.38)" gradientUnits="userSpaceOnUse"><stop offset="0.54" stop-color="#dd76cf"/><stop offset="0.65" stop-color="#e07cd3"/><stop offset="0.81" stop-color="#e98edd"/><stop offset="1" stop-color="#f8abef"/><stop offset="1" stop-color="#f8abef"/></radialGradient><radialGradient id="radial-gradient-7" cx="-8.35" cy="-140.88" r="20.91" gradientTransform="translate(50.73 150) scale(0.74)" xlink:href="#radial-gradient-6"/><radialGradient id="radial-gradient-8" cx="783.08" cy="-322.77" r="25.46" gradientTransform="matrix(-0.53, 0, 0, 0.53, 445.42, 202.95)" gradientUnits="userSpaceOnUse"><stop offset="0.72" stop-color="#dd76cf"/><stop offset="0.79" stop-color="#e07cd3"/><stop offset="0.89" stop-color="#e98edd"/><stop offset="1" stop-color="#f8abef"/><stop offset="1" stop-color="#f8abef"/></radialGradient></defs><title>cake11</title><g id="Layer_2" data-name="Layer 2"><g id="layer"><path class="cls-1" d="M94.27,64.41c0,6.24-21.72,10.38-47.38,10.53s-45.56-3.76-45.56-10S21.22,52.48,46.89,52.33,94.27,58.17,94.27,64.41Z"/><path class="cls-2" d="M93.34,64.55c0,5.38-21.22,9.11-46.38,9.11S2.23,69.93,2.23,64.55c0-1.36-1.95-28.49-.51-33.5,2.77-6.12,27-3,45.2-3,18.9,0,43.6-4.64,47,3.31C95.34,34.85,93.34,63.34,93.34,64.55Z"/><path class="cls-3" d="M94.33,43.67c0,.69-2.16,1.75-2.72,2a41.32,41.32,0,0,1-10,3.47,60.33,60.33,0,0,1-7,1.44,34.23,34.23,0,0,0-6.21,1c-2.59.78-5.31.63-8,.83-2.37.17-4.71.8-7.14.55-2.1-.21-4.24-.1-6.39-.1-6.08,0-12.34-.47-18.31-.87-1.2-.08-2.13-.79-3.36-.87a24.36,24.36,0,0,1-3.58-.39c-3.49-.75-7.53-1-10.63-2.39a19.54,19.54,0,0,0-2-.59C7.22,47.22,1.59,46,1.49,43.73c.13,2.75.23,4.87.28,5.9a.49.49,0,0,0,.05.16,1.51,1.51,0,0,1-.33-.85c.13,2.75.23,4.86.28,5.89,0,.7,1.73,1.77,2.42,2.11,1.57.78,3.4.74,5,1.26,1.4.45,3,.76,4.33,1.28a29.35,29.35,0,0,0,3.2,1.31c1.55.39,3.05.39,4.59.74a32.31,32.31,0,0,0,5.33,1.18,14.24,14.24,0,0,1,3.16.38,16.08,16.08,0,0,0,3,.5c3.39.23,6.88.08,10.29.14,1.32,0,2.52.32,3.79.4a8,8,0,0,0,1.2,0,41.2,41.2,0,0,1,4.9-.53,70.24,70.24,0,0,0,13.35-1c2.17-.33,4.14-.18,6.27-.31,2.59-.17,5.1-1.52,7.67-1.93,3.28-.52,6.16-1.76,9.26-2.73,1.18-.37,4.38-1.39,4.45-2.83,0-1.06.16-3.17.28-5.88a.82.82,0,0,1-.27.48C94.11,48.24,94.21,46.24,94.33,43.67Z"/><g class="cls-4"><path class="cls-5" d="M93,55.82a1.06,1.06,0,0,0,1-.73c.24-2.6,0-8.49.13-10.47.1-1.31.22-2.63.27-3.95,0-.6.41-3.45,0-3.83s-.92-.36-1.33-.66c-1.42-1-4.05-1.22-5.84-1.69-7.44-2-14.93-2.48-22.74-3.12-1.42-.12-2.85-.22-4.27-.3-4.5.25-9,.45-13.24.45-4.41,0-9.16-.16-13.88-.33q-6.73.39-13.45,1.09a59.4,59.4,0,0,0-9.65,1.85c-1.9.52-6.7,1.25-7.87,2.5a3.94,3.94,0,0,0-.87,1.54c-.08,2.76-.06,19.49.23,22.23a21.8,21.8,0,0,0,.3,3.72c.38,1.21,1.43.95,1.89,0a12.11,12.11,0,0,0,.51-4.61c0-.66-.33-17.63.69-17.8.74-.12,1.3,2.42,2.05,2.8,1.21.64,1.85.49,3.05,1.24,2.27,1.43.75,18.21,6.71,15.76,1.6-.65,2.21-2.82,2.66-4.35C19.63,56,20.45,46.39,22,46.83c.9.27.82,1.12,1.55,1.6,2.52,1.66,5.16-.7,6.61-2.59.6-.78,1.07-1.82,2.18-1.82,2.22,0,3.15,2.24,4.07,3.85,1.14,2,1.39,8.09,1.45,10.35s.24,5.09,2.14,6.6c1.68,1.33,5.05,1.78,6.52-.08,1.84-2.32.87-6.32.89-9,0-1.09-.23-2.41,1-3A2.1,2.1,0,0,1,51,54c.37.73.42,1.66,1.35,1.89,3.06.77,3.12-8.88,6.88-6.21,1.32.93,2,1.44,3.52.47,1.26-.8,2.32-6,3.85-6.25,4.27-.79,2.77,14.91,6.62,15.14,1.8.11,3.29-2.83,4.68-.91C79,59.63,79.74,61.48,81,62.88a3.92,3.92,0,0,0,4.32,1.32c2.92-1.05,2.82-5.1,2.28-7.45a22.71,22.71,0,0,1-.23-5.28C87.59,49.24,88,44.53,89,45c1.53.74,2.06-.68,2.59-1.78.67-1.36,1.26-.26,1.11.88-.19,1.46-.66,7.2-.76,8.75C91.9,53.67,91.75,55.61,93,55.82Z"/></g><path class="cls-6" d="M94.85,29.1c1.1,2.67.2,6.43-.12,9.19-.27,2.34-.44,9.37.27,11.67.26.86,1.18,2.23.58,3.14a1.43,1.43,0,0,1-2.23.06c-1.4-1.45,1-13.58-1.35-13.62-1.19,0-.89,1.36-1,2.08s-.22,2.06-1.27,2.09-1-1.2-1.27-2c-1.32-3.18-1.71,8.07-1.76,9.65-.07,2.53,1,5.63,0,8s-3,3.27-5.17,1.94a5.26,5.26,0,0,1-2.12-2.58c-.35-.86-.53-2.62-1.42-3.15-1.15-.67-2.24.42-3.27.83-4.49,1.79-3.37-3-3.76-5.59s-2.91-10.7-5-9.7-3.45,8.15-6.44,7.45c-1-.23-2-1.39-3.11-1.07-2.23.62-.81,4.79-3.64,4.83-2.15,0-3.12-6.3-5.29-2.53-.89,1.54-.31,3.58-.2,5.23.15,2.1.26,4.7-.61,6.66-1.7,3.82-6,2.47-7.84-.4-2.3-3.59.75-12.62-2.18-16.2-1.37-1.68-3-3.84-5.43-3.26-1.76.4-2.76,2.1-4.34,2.84-2.1,1-3.41-.39-5.41-.26-1.34.09-2.81,10-3.06,11.06-.45,2-1.19,6.36-4.49,4.19-2.48-1.63.09-14.64-2.62-16-1.21-.62-2.78.49-3.93-.5s-.55-2.9-1.77-3.74C3.09,37.75,3,57,3,58.15s.16,7.8-2.49,5c-1-1-.3-2.42.07-3.53,1.66-5-1.56-27.21,1.24-31.23,1.17-1.69,6-2.68,7.92-3.37a47,47,0,0,1,9.7-2.49,200.55,200.55,0,0,1,27.81-2,156,156,0,0,1,17.29.8c7.85.87,15.39,1.53,22.86,4.2,1.81.64,4.45.91,5.87,2.29C93.78,28.32,94.51,28.27,94.85,29.1Z"/><path class="cls-7" d="M94.43,51.85a1.86,1.86,0,0,1-.92-.92,42.37,42.37,0,0,1-.29-7.2c.24-1.46,1-4.18-.37-5.28-2.45-2-1.86,3.72-3.15,3-1.11-.59-2-4.39-3.51-1.66-1.09,1.89-.43,12-.23,14,.15,1.59.14,4.35-1.68,5.07a3.85,3.85,0,0,1-3.31-.5c-1.59-1.22-1.35-3.35-2-5-1-2.56-2.23,1.54-3.75,1.91-2.26.54-2.63-1.86-3.08-3.33-.61-2-2.87-14.18-5.73-13.32s-4,10.7-7.6,8.24c-1.71-1.18-3.12-1.11-4.09.9-.5,1.05-1.61,4.34-3.27,2.61-1.1-1.14-.25-3.66-1.54-4.6-3.69-2.73-3.21,8.76-3.24,9.67-.07,1.6-.23,4-2,4.76-2.54,1.05-4.6-1.34-5.15-3.49-.81-3.19-1.39-10.29-1.86-13.55a4.81,4.81,0,0,0-1.89-3.36c-1.93-1.49-4.33-.16-5.73,1.4s-2.6,2.94-4.78,3c-1.61,0-2.69-1.31-3.33-2.57-.37-.74-.57-1.55-1.46-1-.66.38-.48,1.54-.72,2.21-.55,1.54-1.8,12-2.69,13.38-1.28,2-3.47,1.65-4.1-.61-.33-1.18.52-10.86.16-12-.83-2.73-3.78.21-5.18-1.25-.76-.8-.74-2.13-1.11-3.12S5.68,37,4.45,37.32C2,37.93,3.06,58.53,2.54,60.25a7.69,7.69,0,0,1-.8,2.21c-.2.25-1.28.79-1.54.29a1.66,1.66,0,0,0,.3.43C3.15,66,3,59.39,3,58.15s.1-20.4,2.56-18.71c1.22.84.7,2.82,1.77,3.74s2.72-.12,3.93.5c2.71,1.4.14,14.41,2.62,16,3.3,2.17,4-2.16,4.49-4.19.25-1.11,1.72-11,3.06-11.06,2-.13,3.31,1.23,5.41.26,1.58-.74,2.58-2.44,4.34-2.84,2.45-.58,4.06,1.58,5.43,3.26,2.93,3.58-.12,12.61,2.18,16.2,1.84,2.87,6.14,4.22,7.84.4.87-2,.76-4.56.61-6.66-.11-1.65-.69-3.69.2-5.23,2.17-3.77,3.14,2.56,5.29,2.53,2.83,0,1.41-4.21,3.64-4.83,1.13-.32,2.12.84,3.11,1.07,3,.7,4.19-6.39,6.44-7.45s4.66,7.2,5,9.7c.41,2.69-.7,7.37,3.76,5.59,1-.41,2.12-1.5,3.27-.83.89.53,1.07,2.29,1.42,3.15a5.26,5.26,0,0,0,2.12,2.58c2.17,1.33,4.23.35,5.17-1.94s0-5.49,0-8c0-1.58.44-12.83,1.76-9.65.31.75.19,2,1.27,2s1.17-1.38,1.27-2.09-.21-2.1,1-2.08c2.33,0,0,11.64,1.19,13.56.44.68,2.24,1,2.51-.11C95.74,52.52,95.05,52.22,94.43,51.85Z"/><path class="cls-8" d="M95,29.68c0,4.91-21.9,8.07-47.77,8.07S1.33,34.59,1.33,29.68,21.38,20,47.26,20,95,24.77,95,29.68Z"/><path class="cls-9" d="M54.5,36.78C29,36.72,6.68,32.93,6.7,28.31c0-2.13,6.88-4.12,13.87-5.75C9.11,24.27,1.79,27,1.78,29.83c0,4.62,19.73,7.65,45.21,7.71,16.45.05,31.27-1.16,39.71-3.26A225.93,225.93,0,0,1,54.5,36.78Z"/><path class="cls-10" d="M83.72,58.61c2.26-.55,2.16-4,2.1-5.31-.28-6.19-1.18-2.74-3.14-3s-3.68-2.79-4.61-4C79.11,49.15,78.33,59.94,83.72,58.61Z"/><path class="cls-11" d="M75.08,55.32C76.59,55,77.76,52,79,51.09c3.29-2.41-3-1.24-4.28-1.48s-3.48-4.07-4-4.93C71.85,48.68,71.78,56,75.08,55.32Z"/><path class="cls-12" d="M14.5,57.29C12.9,56.9,13,54.43,13,53.52c.2-4.38.84-1.94,2.23-2.1s2.6-2,3.26-2.86C17.77,50.58,18.32,58.23,14.5,57.29Z"/><path class="cls-13" d="M44.14,60.35c2.57-.45,2.45-4.31,2.39-5.74-.32-6.88-1.35-3.13-3.57-3.53s-4.19-7.2-5.24-8.65C38.89,45.67,38,61.41,44.14,60.35Z"/><path class="cls-14" d="M31.77,39.41c-2.6,1.4-3.18,4.18-5.39,4.56-2.94.51-4.26-1.95-5-5Z"/><path class="cls-15" d="M70.22,21.05a3,3,0,0,1,.63,1c0,.12-.78.19-1,.3.86-.17,2.54-.82,2.85-.34s.89.56.86.73-.2.59-.91.81a13.7,13.7,0,0,1-6.7-.09,1.21,1.21,0,0,1-.65-1.26c0-.3.71-.9,1.12-1.1C67.75,20.42,69.77,20.51,70.22,21.05Z"/><path class="cls-16" d="M70.24,20.75a3,3,0,0,1,.59,1c0,.13-.74.2-1,.31.81-.17,2.79-.88,3.07-.4a2.52,2.52,0,0,1,.42,1c0,.17-.42.46-.83.59a17,17,0,0,1-6.49,0A1.88,1.88,0,0,1,65.55,22c0-.29.3-.5.32-.74C67.16,20.51,69.82,20.22,70.24,20.75Z"/><path class="cls-17" d="M65.91,21.14c.17-.1.7,0,.92-.06L66,23.33h0A1.58,1.58,0,0,1,65.55,22,1.71,1.71,0,0,1,65.91,21.14Z"/><path class="cls-17" d="M71.56,21.85c.61-.13,1.24-.39,1.37-.16a2.52,2.52,0,0,1,.42,1c0,.17-.42.46-.83.59C72.07,22.07,71.56,21.85,71.56,21.85Z"/><path class="cls-18" d="M69.77,20.48c.65.22.69.57.16.83a5.39,5.39,0,0,1,2.51.07c.76.26.69.68-.14.95-1.77.57-5.17.14-6,.14,0-.26-1.43-1.32.56-2A5.42,5.42,0,0,1,69.77,20.48Z"/><path class="cls-19" d="M67.11,20.81a5.32,5.32,0,0,1,2.88,0,1.2,1.2,0,0,1,.3.14c0-.17-.16-.33-.52-.45a5.42,5.42,0,0,0-2.88,0c-2,.65-.52,1.71-.56,2h.06C66.08,22,65.59,21.31,67.11,20.81Z"/><path class="cls-20" d="M83.84,24.54a1.66,1.66,0,0,1-.68.15,23.19,23.19,0,0,1-4.71-.07c-.74-.13-1.47-.28-2.2-.45H74.13c-.29.33-.93,0-.88.48C73.17,26,77.52,27,78.91,26.77a12.69,12.69,0,0,1,4,.53A11.08,11.08,0,0,0,82.39,26a6.71,6.71,0,0,0,2.13-.56C84.79,24.82,84.38,24.64,83.84,24.54Z"/><path class="cls-21" d="M74.38,22.64c1-.57.39-1.45.87-1.63,1.41.37,6.18-1.9,6.92-1.07,0,0,1.85,2.16-1.89,4.07C78.84,22.45,73.35,23.46,74.38,22.64Z"/><path class="cls-22" d="M82.57,25c-4.43,2.31-4.5-1.76-3.51-2.6,1.68-.18,2.51-.83,4.61-.76.34,0,.72,0,.82-.24C83.25,22.91,83.74,24.27,82.57,25Z"/><path class="cls-21" d="M76.48,18.13c1-.58.87-.89,1.91-.62,1.41.36,2.48.06,3.23.89,0,0-1,1.72-1.93,2C78.25,18.87,75.45,19,76.48,18.13Z"/><path class="cls-23" d="M76.4,18.17c-.39.21-1.24.49-1.3.87.37-.22.84-.62,2.7.8s4.93.13,4.13-1c-1.07-1.57-1.11-.12-1.33,0C77.34,20.12,77.18,17.74,76.4,18.17Z"/><path class="cls-23" d="M79.27,14.84c-1.34,2.16,1.25,2,1.33,3.84C82,15.81,78.16,17.11,79.27,14.84Z"/><path class="cls-22" d="M79.27,14.84c-1.12,1.85,1.41,2.18,1.33,3.84C78.44,17.7,77.75,16.6,79.27,14.84Z"/><path class="cls-23" d="M79.27,14.84c-2.35,1.59-3,3-.68,3.65,1.42.36,1.62-.08,2,.19,0,0,.19-.53-.69-.94S78,16.49,79.27,14.84Z"/><path class="cls-24" d="M79.15,14.93c-.47.53-3,1.92.5,3.23C78,17.07,78,16.35,79.15,14.93Z"/><path class="cls-22" d="M77.13,17.24c0,.52.44.93,1.47,1.2,1.42.36,1.55-.07,2,.24,0,0-.32.06-1.3.37S76.79,18.55,77.13,17.24Z"/><path class="cls-24" d="M79.27,14.84c-.56,1.5,1.22,1.05,1.59,2.4C80.48,16.22,78.37,16.65,79.27,14.84Z"/><path class="cls-22" d="M75.25,21c.26-.62-.26-1.85-.15-1.91.37-.22.84-.74,2.7.69s4.93.24,4.13-.92c.69.8-.54,1.91-.72,2.06C78.25,23.37,75.07,21.4,75.25,21Z"/><path class="cls-23" d="M75.21,21a2.31,2.31,0,0,0-2.35,1.35c-.36.77,2.13,2.32,5,2.22S82,26.65,82.63,27c-.44-1.35-1.87-3.91-3.12-4.31S75.13,22.38,75.21,21Z"/><path class="cls-24" d="M75.1,19c.37-.22.84-.59,2.7.83s5.06.09,4.13-1.06c.47,1-1.72,1.15-3.16.72S75.71,18.27,75.1,19Z"/><path class="cls-24" d="M81.77,25.74a7.94,7.94,0,0,0-4.86-2c-2.53-.14-5.37-2-2.12-2.66-.89.79.22,1.7,1.75,1.83C78.27,23.1,79.71,22.37,81.77,25.74Z"/><path class="cls-22" d="M73.43,24.32c-.06-.62-.54-.47-.59-1.67.22.81,2.53,1.83,5.08,1.74,2.87-.1,4.1,2.26,4.71,2.57a11.2,11.2,0,0,0-3.75-.53C77.49,26.63,73.35,25.69,73.43,24.32Z"/><path class="cls-23" d="M82.17,19.94c-.16,1-2.27,2.2-3.11,2.44,2.09.42,2.51-.83,4.61-.76C84.8,21.66,84.89,20,82.17,19.94Z"/><path class="cls-24" d="M82.17,19.94c1.61.31,2,.82,1.54,1.19s-1.55.43-1.56.7a12.92,12.92,0,0,1,1.71-.14C85,21.73,84.89,20,82.17,19.94Z"/><path class="cls-22" d="M81.26,24.29a16.36,16.36,0,0,1,.84,1.42,7.94,7.94,0,0,0,2.15-.51c.36-.86,1-1.08,1.08-2.1S83.14,24.49,81.26,24.29Z"/><path class="cls-23" d="M81.28,24.31c1.55-.41,2.14-.92,2.36-1.4a1.93,1.93,0,0,1,.35-.78c.59,0,1.48.07,1.34,1S82.45,24.24,81.28,24.31Z"/><path class="cls-21" d="M81.28,24.31c1.55-.41,2.14-.92,2.36-1.4a1.93,1.93,0,0,1,.35-.78l.11-.19c-1,.21-.45,1.64-3.13,1.95Z"/><path class="cls-21" d="M73.43,24.32a1.07,1.07,0,0,0-.3-.62C76,25,73.51,25.54,78.73,26c2.83.26,3.29.62,3.9.93a11.2,11.2,0,0,0-3.75-.53C77.49,26.63,73.35,25.69,73.43,24.32Z"/><path class="cls-15" d="M84,26.77c-.66.3,0,.72,1.48,1-1.75-.17-3.46-.46-4.11-.17s-.73,1.13,2.59,1.69c4.22.71,9.59.47,9.85-.24.29-.48-.93-1.81-4.81-2.39A12.28,12.28,0,0,0,84,26.77Z"/><path class="cls-17" d="M84.21,25.88c-.62.28.37.88,1.77,1.17-1.66-.17-3.22-1.49-3.59-.93-.12.18-.66,1.74-.69,1.8-.16.31.76.69,2.35.92a27.74,27.74,0,0,0,9.39,0,2.33,2.33,0,0,0-.07-1.94c-1.33-1.19-8.72-1.78-8.72-1.78A4.82,4.82,0,0,0,84.21,25.88Z"/><path class="cls-18" d="M84.85,24.93c-.55.25,0,.6,1.25.86a9.08,9.08,0,0,0-3.51.16c-.63.29.22.72,1.9,1a45.44,45.44,0,0,0,8.88-.06c-.18-.26-1-1.52-4.31-2A10.32,10.32,0,0,0,84.85,24.93Z"/><path class="cls-19" d="M89.15,25.07a9.71,9.71,0,0,0-3.89.07c-.27.13-.24.28,0,.43-.63-.22-.82-.46-.42-.64a10.32,10.32,0,0,1,4.21-.08c3.27.49,4.13,1.75,4.31,2h-.29C92.84,26.54,92,25.49,89.15,25.07Z"/><path class="cls-19" d="M82.59,26a8.22,8.22,0,0,1,3.11-.2,6.12,6.12,0,0,0,.72.19,8.32,8.32,0,0,0-3.24.15c-.57.25.15.64,1.6.87l-.29,0C82.81,26.67,82,26.24,82.59,26Z"/><path class="cls-20" d="M90.12,30.34a1.67,1.67,0,0,1-.73.16,24.59,24.59,0,0,1-5-.08c-.78-.13-1.56-.29-2.34-.47H79.8c-.31.35-1,0-.92.5-.09,1.45,4.53,2.47,6,2.26a13.65,13.65,0,0,1,4.28.56,11.67,11.67,0,0,0-.58-1.36,7.18,7.18,0,0,0,2.26-.59C91.13,30.63,90.69,30.45,90.12,30.34Z"/><path class="cls-21" d="M80.07,28.33c1-.62.42-1.55.92-1.74,1.5.39,6.57-2,7.36-1.14,0,0,2,2.3-2,4.33C84.81,28.12,79,29.2,80.07,28.33Z"/><path class="cls-22" d="M88.77,30.81C84.06,33.27,84,28.94,85,28c1.79-.18,2.67-.88,4.9-.8.36,0,.76,0,.87-.26C89.49,28.6,90,30.05,88.77,30.81Z"/><path class="cls-21" d="M82.3,23.53c1-.61.93-.94,2-.66,1.5.39,2.64.07,3.43.95,0,0-1,1.82-2.05,2.15C84.18,24.31,81.21,24.4,82.3,23.53Z"/><path class="cls-23" d="M82.21,23.57c-.41.22-1.31.53-1.38.93.39-.23.9-.66,2.87.85s5.24.14,4.39-1.1c-1.14-1.66-1.18-.13-1.41,0C83.22,25.65,83.05,23.11,82.21,23.57Z"/><path class="cls-23" d="M85.26,20c-1.41,2.3,1.33,2.13,1.41,4.08C88.18,21.06,84.09,22.45,85.26,20Z"/><path class="cls-22" d="M85.26,20c-1.18,2,1.51,2.32,1.41,4.08C84.38,23.08,83.65,21.9,85.26,20Z"/><path class="cls-23" d="M85.26,20c-2.49,1.7-3.23,3.23-.71,3.88,1.5.39,1.71-.09,2.12.2,0,0,.21-.56-.72-1S83.88,21.79,85.26,20Z"/><path class="cls-24" d="M85.14,20.14c-.5.55-3.14,2,.53,3.43C84,22.41,84,21.64,85.14,20.14Z"/><path class="cls-22" d="M83,22.58c0,.55.47,1,1.57,1.28,1.5.39,1.64-.07,2.11.25,0,0-.33.07-1.37.4S82.63,24,83,22.58Z"/><path class="cls-24" d="M85.26,20c-.59,1.6,1.3,1.12,1.69,2.56C86.55,21.5,84.31,22,85.26,20Z"/><path class="cls-22" d="M81,26.52c.27-.65-.28-2-.17-2,.39-.23.9-.78,2.87.73s5.24.26,4.39-1c.73.86-.58,2-.77,2.19C84.18,29.1,80.8,27,81,26.52Z"/><path class="cls-23" d="M81,26.59A2.44,2.44,0,0,0,78.46,28c-.39.82,2.26,2.46,5.31,2.36s4.42,2.19,5.06,2.52c-.47-1.43-2-4.15-3.31-4.58S80.87,28,81,26.59Z"/><path class="cls-24" d="M80.83,24.5c.39-.23.9-.63,2.87.88s5.38.1,4.39-1.13c.5,1.05-1.82,1.22-3.36.77S81.48,23.68,80.83,24.5Z"/><path class="cls-24" d="M87.92,31.61a8.46,8.46,0,0,0-5.16-2.09c-2.69-.14-5.7-2.14-2.25-2.82-1,.83.23,1.8,1.85,1.94C84.2,28.81,85.74,28,87.92,31.61Z"/><path class="cls-22" d="M79.07,30.11c-.07-.66-.58-.51-.63-1.78.23.86,2.68,1.94,5.39,1.85,3-.11,4.36,2.4,5,2.73a11.82,11.82,0,0,0-4-.56C83.38,32.56,79,31.56,79.07,30.11Z"/><path class="cls-23" d="M88.35,25.45C88.17,26.52,85.94,27.8,85,28c2.22.46,2.67-.88,4.9-.8C91.14,27.28,91.23,25.55,88.35,25.45Z"/><path class="cls-24" d="M88.35,25.45c1.71.34,2.15.88,1.63,1.27s-1.64.45-1.65.74a13.89,13.89,0,0,1,1.81-.15C91.33,27.35,91.23,25.55,88.35,25.45Z"/><path class="cls-22" d="M87.38,30.07c.26.39.88,1.44.89,1.51A8.16,8.16,0,0,0,90.56,31c.38-.91,1-1.14,1.15-2.23S89.38,30.28,87.38,30.07Z"/><path class="cls-23" d="M87.4,30.1c1.64-.43,2.28-1,2.51-1.49a2.13,2.13,0,0,1,.37-.83c.63,0,1.57.07,1.43,1S88.65,30,87.4,30.1Z"/><path class="cls-21" d="M87.4,30.1c1.64-.43,2.28-1,2.51-1.49a2.13,2.13,0,0,1,.37-.83l.12-.2c-1.07.22-.48,1.74-3.32,2.07Z"/><path class="cls-21" d="M79.07,30.11a1.24,1.24,0,0,0-.32-.66c3.06,1.34.4,1.95,5.94,2.47,3,.28,3.5.66,4.14,1a11.82,11.82,0,0,0-4-.56C83.38,32.56,79,31.56,79.07,30.11Z"/><path class="cls-15" d="M74.89,30.07a5.2,5.2,0,0,0-1.12,1.67c0,.21,1.18.36,1.55.56C74,32,71.5,30.79,71,31.58c-.41.6-1.46.87-1.44,1.15s.23,1,1.3,1.39c3.16,1.17,8.74.91,10.4.25a2.16,2.16,0,0,0,1.17-2c0-.49-1-1.52-1.59-1.88C78.8,29.18,75.65,29.21,74.89,30.07Z"/><path class="cls-16" d="M74.9,29.57a5.09,5.09,0,0,0-1.06,1.66c0,.22,1.12.37,1.46.57-1.23-.33-4.2-1.62-4.71-.83a4.81,4.81,0,0,0-.78,1.64c0,.28.58.78,1.21,1,2.66,1,9.45.85,10,.45A3.36,3.36,0,0,0,82,31.87c0-.49-.39-.85-.39-1.24C79.71,29.35,75.61,28.71,74.9,29.57Z"/><path class="cls-17" d="M81.55,30.47c-.25-.17-1.09,0-1.42-.15l.93,3.76h0A2.87,2.87,0,0,0,82,31.87,2.82,2.82,0,0,0,81.55,30.47Z"/><path class="cls-17" d="M72.7,31.31c-.93-.25-1.86-.72-2.11-.34a4.81,4.81,0,0,0-.78,1.64c0,.28.58.78,1.21,1C71.88,31.63,72.7,31.31,72.7,31.31Z"/><path class="cls-18" d="M75.66,29.15c-1,.32-1.15.89-.36,1.36a7.81,7.81,0,0,0-3.9,0c-1.21.37-1.16,1.08.09,1.58,2.66,1,8,.53,9.23.59,0-.44,2.4-2.1-.6-3.29A7.83,7.83,0,0,0,75.66,29.15Z"/><path class="cls-19" d="M72.56,32c-1.26-.5-1.3-1.2-.09-1.58a5.25,5.25,0,0,1,.88-.18,6.45,6.45,0,0,0-1.95.23c-1.21.37-1.16,1.08.09,1.58,2.66,1,8,.53,9.23.59a.06.06,0,0,1,0,0C78.67,32.68,74.73,32.86,72.56,32Z"/><path class="cls-15" d="M29.83,20.68a3.21,3.21,0,0,0-.63,1c0,.13.78.19,1,.31-.86-.17-2.54-.82-2.84-.34s-.9.56-.87.73.2.59.91.81a13.7,13.7,0,0,0,6.7-.09,1.21,1.21,0,0,0,.65-1.26c0-.3-.7-.9-1.12-1.1C32.3,20.05,30.28,20.14,29.83,20.68Z"/><path class="cls-16" d="M29.81,20.38a2.91,2.91,0,0,0-.59,1c0,.13.74.19,1,.31-.81-.17-2.79-.88-3.07-.4a2.68,2.68,0,0,0-.42,1c0,.17.42.46.83.59A17,17,0,0,0,34,23a1.88,1.88,0,0,0,.48-1.36c0-.29-.3-.5-.32-.74C32.9,20.13,30.23,19.85,29.81,20.38Z"/><path class="cls-17" d="M34.14,20.77c-.17-.1-.7,0-.92-.06L34,23h0a1.58,1.58,0,0,0,.48-1.36A1.71,1.71,0,0,0,34.14,20.77Z"/><path class="cls-17" d="M28.49,21.48c-.61-.13-1.24-.39-1.37-.16a2.68,2.68,0,0,0-.42,1c0,.17.42.46.83.59C28,21.7,28.49,21.48,28.49,21.48Z"/><path class="cls-18" d="M30.28,20.11c-.65.22-.69.56-.16.83a5.39,5.39,0,0,0-2.51.07c-.76.25-.69.68.14.95,1.77.57,5.17.13,6,.14,0-.26,1.44-1.32-.56-2A5.32,5.32,0,0,0,30.28,20.11Z"/><path class="cls-19" d="M28.44,21.91c-.84-.27-.9-.7-.15-1a4.23,4.23,0,0,1,.56-.12,4.51,4.51,0,0,0-1.24.18c-.76.25-.69.68.14.95,1.77.57,5.17.13,6,.14a0,0,0,0,1,0,0A17.2,17.2,0,0,1,28.44,21.91Z"/><path class="cls-20" d="M62.85,26.09a4.87,4.87,0,0,1-1.84.4c-4.33.12-8.31.53-12.66-.2-2-.34-4-.75-5.92-1.19H36.74c-.79.87-2.48,0-2.35,1.26-.22,3.67,11.47,6.24,15.2,5.71,4-.57,8.67,1.08,10.81,1.42a28.58,28.58,0,0,0-1.46-3.43,18.16,18.16,0,0,0,5.72-1.5C65.4,26.82,64.3,26.36,62.85,26.09Z"/><path class="cls-21" d="M37.42,21c2.57-1.55,1-3.9,2.32-4.38,3.8,1,16.62-5.12,18.62-2.88,0,0,5,5.81-5.09,10.94C49.41,20.46,34.65,23.19,37.42,21Z"/><path class="cls-22" d="M59.43,27.27c-11.92,6.21-12.08-4.73-9.43-7,4.51-.46,6.75-2.22,12.4-2,.9,0,1.91-.12,2.19-.66C61.25,21.69,62.56,25.34,59.43,27.27Z"/><path class="cls-21" d="M43.05,8.85c2.57-1.55,2.35-2.39,5.13-1.67,3.8,1,6.69.16,8.68,2.4,0,0-2.54,4.61-5.17,5.44C47.82,10.83,40.29,11.06,43.05,8.85Z"/><path class="cls-23" d="M42.83,9c-1,.56-3.32,1.34-3.49,2.34,1-.58,2.27-1.66,7.27,2.17,5.2,4,13.25.35,11.1-2.79-2.89-4.2-3-.33-3.57-.08C45.38,14.2,44.94,7.79,42.83,9Z"/><path class="cls-23" d="M50.55,0C47,5.81,53.91,5.37,54.12,10.32,57.94,2.61,47.58,6.1,50.55,0Z"/><path class="cls-22" d="M50.55,0c-3,5,3.8,5.85,3.57,10.32C48.33,7.7,46.47,4.73,50.55,0Z"/><path class="cls-23" d="M50.55,0c-6.3,4.29-8.19,8.16-1.81,9.81,3.8,1,4.34-.22,5.38.51,0,0,.51-1.43-1.83-2.52C49.6,6.54,47,4.44,50.55,0Z"/><path class="cls-24" d="M50.24.25c-1.27,1.41-8,5.16,1.34,8.69C47.22,6,47.23,4.07,50.24.25Z"/><path class="cls-22" d="M44.81,6.45c0,1.39,1.17,2.52,4,3.23,3.8,1,4.15-.19,5.35.64,0,0-.84.16-3.47,1C47.85,12.21,43.89,10,44.81,6.45Z"/><path class="cls-24" d="M50.55,0c-1.5,4,3.28,2.83,4.27,6.47C53.81,3.72,48.14,4.86,50.55,0Z"/><path class="cls-22" d="M39.76,16.42c.7-1.65-.7-5-.42-5.13,1-.58,2.26-2,7.26,1.86,5.2,4,13.26.66,11.11-2.48,1.86,2.17-1.46,5.13-2,5.54C47.82,23,39.26,17.63,39.76,16.42Z"/><path class="cls-23" d="M39.65,16.59a6.2,6.2,0,0,0-6.32,3.64c-1,2.07,5.73,6.23,13.45,6S58,31.75,59.59,32.59C58.4,29,54.56,22.08,51.21,21S39.44,20.26,39.65,16.59Z"/><path class="cls-24" d="M39.34,11.29c1-.58,2.26-1.58,7.26,2.25,5.2,4,13.6.23,11.11-2.87,1.26,2.66-4.62,3.1-8.51,1.95C45,11.4,41,9.22,39.34,11.29Z"/><path class="cls-24" d="M57.29,29.3c-.66-.82-5.86-4.92-13.07-5.3-6.81-.36-14.43-5.42-5.69-7.14-2.41,2.12.57,4.56,4.68,4.93C47.87,22.2,51.75,20.23,57.29,29.3Z"/><path class="cls-22" d="M34.87,25.49c-.18-1.67-1.45-1.27-1.59-4.5.58,2.18,6.8,4.92,13.66,4.68,7.71-.26,11,6.08,12.65,6.92-2.14-.33-6.07-2-10.07-1.43C45.79,31.69,34.65,29.16,34.87,25.49Z"/><path class="cls-23" d="M58.36,13.72c-.44,2.69-6.1,5.92-8.36,6.54,5.61,1.15,6.75-2.22,12.4-2C65.42,18.33,65.66,14,58.36,13.72Z"/><path class="cls-24" d="M58.36,13.72c4.33.83,5.44,2.2,4.12,3.2-1,.76-4.15,1.15-4.17,1.87a34,34,0,0,1,4.59-.37C65.91,18.52,65.66,14,58.36,13.72Z"/><path class="cls-22" d="M55.91,25.4c.66,1,2.22,3.63,2.24,3.81A19.82,19.82,0,0,0,64,27.84c1-2.3,2.6-2.88,2.91-5.63C67.13,19.77,61,25.94,55.91,25.4Z"/><path class="cls-23" d="M56,25.47c4.16-1.1,5.76-2.48,6.35-3.78a4.81,4.81,0,0,1,.95-2.08c1.57.1,4,.17,3.6,2.6S59.11,25.26,56,25.47Z"/><path class="cls-21" d="M56,25.47c4.16-1.1,5.76-2.48,6.35-3.78a4.81,4.81,0,0,1,.95-2.08l.28-.52c-2.69.56-1.2,4.41-8.4,5.25Z"/><path class="cls-21" d="M34.87,25.49a3,3,0,0,0-.81-1.66c7.77,3.38,1,4.93,15,6.25,7.6.71,8.84,1.67,10.48,2.51-2.14-.33-6.07-2-10.07-1.43C45.79,31.69,34.65,29.16,34.87,25.49Z"/><path class="cls-20" d="M25.72,24.17a1.84,1.84,0,0,1-.69.15,22.49,22.49,0,0,1-4.71-.08c-.73-.12-1.47-.27-2.2-.44H16c-.3.33-.93,0-.88.47-.08,1.37,4.27,2.32,5.65,2.13a13.14,13.14,0,0,1,4,.52,12.78,12.78,0,0,0-.54-1.27,6.63,6.63,0,0,0,2.12-.56C26.67,24.44,26.26,24.27,25.72,24.17Z"/><path class="cls-21" d="M16.26,22.27c.95-.58.39-1.45.86-1.63,1.42.36,6.19-1.9,6.93-1.07,0,0,1.85,2.16-1.9,4.07C20.72,22.08,15.23,23.09,16.26,22.27Z"/><path class="cls-22" d="M24.45,24.61C20,26.92,20,22.85,20.94,22c1.68-.17,2.51-.82,4.61-.75.34,0,.71-.05.82-.25C25.12,22.53,25.61,23.89,24.45,24.61Z"/><path class="cls-21" d="M18.35,17.76c1-.58.88-.89,1.91-.62,1.42.36,2.49.06,3.23.89,0,0-.94,1.71-1.92,2C20.13,18.49,17.33,18.58,18.35,17.76Z"/><path class="cls-23" d="M18.27,17.79c-.38.22-1.23.5-1.3.88.37-.22.85-.62,2.71.8s4.93.13,4.13-1c-1.08-1.57-1.12-.13-1.33,0C19.22,19.75,19.06,17.36,18.27,17.79Z"/><path class="cls-23" d="M21.14,14.47c-1.33,2.16,1.26,2,1.33,3.84C23.89,15.44,20,16.74,21.14,14.47Z"/><path class="cls-22" d="M21.14,14.47c-1.11,1.85,1.42,2.17,1.33,3.84C20.32,17.33,19.63,16.23,21.14,14.47Z"/><path class="cls-23" d="M21.14,14.47c-2.34,1.59-3,3-.67,3.64,1.41.37,1.62-.08,2,.2,0,0,.19-.54-.68-.94S19.84,16.12,21.14,14.47Z"/><path class="cls-24" d="M21,14.56c-.48.52-3,1.92.5,3.23C19.91,16.7,19.91,16,21,14.56Z"/><path class="cls-22" d="M19,16.86c0,.52.43.94,1.47,1.21,1.41.36,1.54-.07,2,.24,0,0-.31.06-1.29.37S18.66,18.18,19,16.86Z"/><path class="cls-24" d="M21.14,14.47c-.56,1.49,1.22,1,1.59,2.4C22.36,15.85,20.25,16.27,21.14,14.47Z"/><path class="cls-22" d="M17.13,20.58c.26-.62-.26-1.85-.16-1.91.37-.22.84-.74,2.71.69s4.93.24,4.13-.92c.69.8-.55,1.9-.73,2.06C20.13,23,16.94,21,17.13,20.58Z"/><path class="cls-23" d="M17.09,20.64A2.3,2.3,0,0,0,14.74,22c-.36.77,2.13,2.32,5,2.22s4.16,2.07,4.77,2.38c-.45-1.35-1.87-3.91-3.12-4.31S17,22,17.09,20.64Z"/><path class="cls-24" d="M17,18.67c.37-.22.84-.59,2.71.83s5.05.09,4.13-1.06c.47,1-1.72,1.15-3.17.72S17.58,17.9,17,18.67Z"/><path class="cls-24" d="M23.65,25.37a8,8,0,0,0-4.86-2c-2.54-.13-5.37-2-2.12-2.65-.9.79.21,1.69,1.74,1.83C20.15,22.73,21.59,22,23.65,25.37Z"/><path class="cls-22" d="M15.31,24c-.07-.62-.54-.47-.59-1.68.21.82,2.53,1.84,5.08,1.75,2.87-.1,4.1,2.26,4.71,2.57a11.2,11.2,0,0,0-3.75-.53C19.37,26.26,15.23,25.31,15.31,24Z"/><path class="cls-23" d="M24.05,19.57c-.16,1-2.27,2.2-3.11,2.43,2.09.43,2.51-.82,4.61-.75C26.67,21.28,26.76,19.66,24.05,19.57Z"/><path class="cls-24" d="M24.05,19.57c1.61.31,2,.82,1.53,1.19s-1.54.43-1.55.7a12.92,12.92,0,0,1,1.71-.14C26.86,21.35,26.76,19.66,24.05,19.57Z"/><path class="cls-22" d="M23.14,23.91c.24.37.82,1.36.83,1.42a7.24,7.24,0,0,0,2.16-.51c.36-.85,1-1.07,1.08-2.09S25,24.12,23.14,23.91Z"/><path class="cls-23" d="M23.16,23.94c1.54-.41,2.14-.92,2.36-1.41a1.86,1.86,0,0,1,.35-.77c.59,0,1.48.06,1.34,1S24.33,23.86,23.16,23.94Z"/><path class="cls-21" d="M23.16,23.94c1.54-.41,2.14-.92,2.36-1.41a1.86,1.86,0,0,1,.35-.77l.11-.19c-1,.21-.45,1.64-3.13,1.95Z"/><path class="cls-21" d="M15.31,24a1.13,1.13,0,0,0-.3-.62c2.89,1.26.38,1.83,5.6,2.33,2.82.26,3.29.62,3.9.93a11.2,11.2,0,0,0-3.75-.53C19.37,26.26,15.23,25.31,15.31,24Z"/><path class="cls-15" d="M14.46,26.77c.65.3,0,.72-1.49,1,1.75-.17,3.46-.46,4.11-.17s.74,1.13-2.59,1.69c-4.22.71-9.58.47-9.85-.24-.29-.48.93-1.81,4.81-2.39A12.33,12.33,0,0,1,14.46,26.77Z"/><path class="cls-17" d="M14.19,25.88c.62.28-.37.88-1.77,1.17,1.66-.17,3.22-1.49,3.59-.93.12.18.66,1.74.69,1.8.17.31-.76.69-2.35.92A27.74,27.74,0,0,1,5,28.8,2.37,2.37,0,0,1,5,26.86c1.33-1.19,8.72-1.78,8.72-1.78A4.82,4.82,0,0,1,14.19,25.88Z"/><path class="cls-18" d="M13.55,24.93c.55.25,0,.6-1.25.86a9,9,0,0,1,3.51.16c.64.29-.21.72-1.9,1A45.44,45.44,0,0,1,5,26.86c.19-.26,1-1.52,4.31-2A10.31,10.31,0,0,1,13.55,24.93Z"/><path class="cls-19" d="M9.26,25.07a9.66,9.66,0,0,1,3.88.07c.27.13.25.28,0,.43.63-.22.82-.46.42-.64a10.31,10.31,0,0,0-4.21-.08c-3.27.49-4.12,1.75-4.31,2h.29C5.56,26.54,6.43,25.49,9.26,25.07Z"/><path class="cls-19" d="M15.81,26a8.2,8.2,0,0,0-3.11-.2,6.46,6.46,0,0,1-.71.19,8.29,8.29,0,0,1,3.23.15c.57.25-.15.64-1.6.87l.29,0C15.6,26.67,16.45,26.24,15.81,26Z"/><path class="cls-20" d="M21.22,31.46a2.11,2.11,0,0,1-.73.16,24.58,24.58,0,0,1-5-.08c-.79-.13-1.57-.3-2.34-.47H10.9c-.31.34-1,0-.93.5C9.88,33,14.5,34,16,33.82a13.88,13.88,0,0,1,4.27.56A12.12,12.12,0,0,0,19.67,33a7.47,7.47,0,0,0,2.26-.59C22.22,31.75,21.79,31.57,21.22,31.46Z"/><path class="cls-21" d="M11.17,29.44c1-.61.41-1.54.91-1.73,1.51.39,6.57-2,7.36-1.14,0,0,2,2.3-2,4.32C15.9,29.24,10.08,30.31,11.17,29.44Z"/><path class="cls-22" d="M19.87,31.93c-4.71,2.45-4.78-1.87-3.73-2.77,1.78-.19,2.67-.88,4.9-.81.35,0,.76,0,.87-.26C20.58,29.72,21.1,31.16,19.87,31.93Z"/><path class="cls-21" d="M13.39,24.65c1-.62.93-.95,2-.66,1.5.39,2.64.06,3.43.94,0,0-1,1.83-2,2.16C15.28,25.43,12.3,25.52,13.39,24.65Z"/><path class="cls-23" d="M13.31,24.69c-.41.22-1.31.53-1.38.92.39-.23.89-.66,2.87.86s5.24.14,4.39-1.1c-1.15-1.66-1.19-.13-1.42,0C14.31,26.76,14.14,24.23,13.31,24.69Z"/><path class="cls-23" d="M16.36,21.15c-1.42,2.29,1.33,2.12,1.41,4.08C19.28,22.18,15.18,23.56,16.36,21.15Z"/><path class="cls-22" d="M16.36,21.15c-1.19,2,1.5,2.31,1.41,4.08C15.48,24.19,14.74,23,16.36,21.15Z"/><path class="cls-23" d="M16.36,21.15c-2.49,1.7-3.24,3.23-.72,3.88,1.5.38,1.72-.09,2.13.2,0,0,.2-.57-.73-1S15,22.91,16.36,21.15Z"/><path class="cls-24" d="M16.23,21.25c-.5.56-3.14,2,.53,3.43C15,23.52,15.05,22.76,16.23,21.25Z"/><path class="cls-22" d="M14.09,23.7c0,.55.46,1,1.56,1.28,1.5.38,1.64-.08,2.12.25a13.9,13.9,0,0,0-1.37.39C15.29,26,13.72,25.09,14.09,23.7Z"/><path class="cls-24" d="M16.36,21.15c-.6,1.59,1.29,1.12,1.68,2.56C17.64,22.62,15.4,23.07,16.36,21.15Z"/><path class="cls-22" d="M12.09,27.64c.28-.65-.28-2-.16-2,.39-.23.89-.78,2.87.74s5.24.26,4.39-1c.73.85-.58,2-.77,2.19C15.28,30.22,11.89,28.12,12.09,27.64Z"/><path class="cls-23" d="M12.05,27.71a2.44,2.44,0,0,0-2.5,1.44c-.38.81,2.27,2.46,5.32,2.35s4.41,2.2,5.06,2.53c-.47-1.43-2-4.16-3.31-4.58S12,29.16,12.05,27.71Z"/><path class="cls-24" d="M11.93,25.61c.39-.23.89-.62,2.87.89s5.37.09,4.39-1.13c.49,1.05-1.83,1.22-3.37.77S12.58,24.79,11.93,25.61Z"/><path class="cls-24" d="M19,32.73a8.45,8.45,0,0,0-5.16-2.1c-2.7-.14-5.71-2.14-2.25-2.82-1,.84.22,1.8,1.85,2C15.3,29.92,16.83,29.15,19,32.73Z"/><path class="cls-22" d="M10.16,31.22c-.07-.66-.57-.5-.63-1.78.23.87,2.69,1.95,5.4,1.86,3.05-.11,4.35,2.4,5,2.73a11.66,11.66,0,0,0-4-.56C14.47,33.67,10.07,32.67,10.16,31.22Z"/><path class="cls-23" d="M19.44,26.57c-.17,1.07-2.41,2.34-3.3,2.59,2.22.45,2.67-.88,4.9-.81C22.23,28.39,22.33,26.67,19.44,26.57Z"/><path class="cls-24" d="M19.44,26.57c1.71.33,2.15.87,1.63,1.26s-1.64.46-1.65.74a14.61,14.61,0,0,1,1.82-.14C22.43,28.47,22.33,26.67,19.44,26.57Z"/><path class="cls-22" d="M18.47,31.19c.26.39.88,1.43.89,1.5a7.81,7.81,0,0,0,2.29-.54c.39-.91,1-1.14,1.15-2.22S20.47,31.4,18.47,31.19Z"/><path class="cls-23" d="M18.5,31.22c1.64-.44,2.27-1,2.5-1.5a2,2,0,0,1,.38-.82c.62,0,1.57.07,1.42,1S19.74,31.13,18.5,31.22Z"/><path class="cls-21" d="M18.5,31.22c1.64-.44,2.27-1,2.5-1.5a2,2,0,0,1,.38-.82l.11-.21c-1.06.23-.47,1.75-3.32,2.08Z"/><path class="cls-21" d="M10.16,31.22a1.14,1.14,0,0,0-.32-.65c3.07,1.33.4,1.94,5.95,2.47,3,.28,3.49.66,4.14,1a11.66,11.66,0,0,0-4-.56C14.47,33.67,10.07,32.67,10.16,31.22Z"/><path class="cls-20" d="M44,33.94a2.06,2.06,0,0,1-.73.16,26.12,26.12,0,0,1-5-.08c-.78-.14-1.56-.3-2.34-.47H33.7c-.31.34-1,0-.93.5-.08,1.45,4.53,2.46,6,2.25a13.83,13.83,0,0,1,4.27.56,12.62,12.62,0,0,0-.57-1.35,7.2,7.2,0,0,0,2.26-.6C45,34.23,44.59,34,44,33.94Z"/><path class="cls-21" d="M34,31.92c1-.61.42-1.54.92-1.73,1.5.38,6.57-2,7.36-1.14,0,0,2,2.29-2,4.32C38.71,31.71,32.88,32.79,34,31.92Z"/><path class="cls-22" d="M42.67,34.41c-4.71,2.45-4.78-1.88-3.73-2.77,1.79-.19,2.67-.88,4.9-.81.36,0,.76,0,.87-.26C43.39,32.2,43.91,33.64,42.67,34.41Z"/><path class="cls-21" d="M36.2,27.13c1-.62.92-.95,2-.66,1.51.38,2.65.06,3.43.94,0,0-1,1.82-2,2.16C38.08,27.91,35.1,28,36.2,27.13Z"/><path class="cls-23" d="M36.11,27.16c-.41.23-1.31.53-1.38.93.39-.23.9-.66,2.87.86s5.24.14,4.39-1.1c-1.14-1.66-1.18-.13-1.41,0C37.12,29.24,36.94,26.71,36.11,27.16Z"/><path class="cls-23" d="M39.16,23.63c-1.42,2.29,1.33,2.12,1.41,4.08C42.08,24.66,38,26,39.16,23.63Z"/><path class="cls-22" d="M39.16,23.63c-1.19,2,1.5,2.31,1.41,4.08C38.28,26.67,37.55,25.5,39.16,23.63Z"/><path class="cls-23" d="M39.16,23.63c-2.49,1.69-3.24,3.22-.72,3.87,1.51.39,1.72-.08,2.13.21,0,0,.2-.57-.72-1S37.77,25.38,39.16,23.63Z"/><path class="cls-24" d="M39,23.73c-.51.55-3.14,2,.53,3.43C37.85,26,37.85,25.24,39,23.73Z"/><path class="cls-22" d="M36.89,26.18c0,.55.46,1,1.57,1.28,1.5.38,1.64-.08,2.11.25a13.9,13.9,0,0,0-1.37.39C38.09,28.45,36.53,27.57,36.89,26.18Z"/><path class="cls-24" d="M39.16,23.63c-.59,1.59,1.3,1.12,1.69,2.56C40.45,25.1,38.21,25.55,39.16,23.63Z"/><path class="cls-22" d="M34.9,30.12c.27-.66-.28-2-.17-2,.39-.23.89-.78,2.87.73s5.24.27,4.39-1c.73.85-.58,2-.77,2.18C38.08,32.7,34.7,30.6,34.9,30.12Z"/><path class="cls-23" d="M34.85,30.19a2.45,2.45,0,0,0-2.5,1.43c-.38.82,2.27,2.47,5.32,2.36s4.41,2.2,5.06,2.53c-.47-1.44-2-4.16-3.31-4.58S34.77,31.64,34.85,30.19Z"/><path class="cls-24" d="M34.73,28.09c.39-.23.89-.63,2.87.89S43,29.07,42,27.85c.5,1-1.82,1.22-3.36.77S35.38,27.27,34.73,28.09Z"/><path class="cls-24" d="M41.82,35.21a8.42,8.42,0,0,0-5.16-2.1C34,33,31,31,34.41,30.29c-.95.84.22,1.8,1.85,2C38.1,32.4,39.63,31.62,41.82,35.21Z"/><path class="cls-22" d="M33,33.7c-.07-.66-.57-.5-.62-1.78.23.86,2.68,1.95,5.39,1.85,3.05-.1,4.35,2.41,5,2.74a11.83,11.83,0,0,0-4-.57C37.28,36.15,32.88,35.15,33,33.7Z"/><path class="cls-23" d="M42.25,29.05c-.18,1.06-2.41,2.34-3.31,2.59,2.22.45,2.67-.88,4.9-.81C45,30.87,45.13,29.14,42.25,29.05Z"/><path class="cls-24" d="M42.25,29.05c1.71.33,2.15.87,1.62,1.26s-1.64.46-1.64.74A12.61,12.61,0,0,1,44,30.91C45.23,31,45.13,29.14,42.25,29.05Z"/><path class="cls-22" d="M41.28,33.66c.26.4.87,1.44.88,1.51a7.9,7.9,0,0,0,2.3-.54c.38-.91,1-1.14,1.14-2.23S43.28,33.88,41.28,33.66Z"/><path class="cls-23" d="M41.3,33.7c1.64-.44,2.27-1,2.51-1.5a2,2,0,0,1,.37-.82c.62,0,1.57.06,1.42,1S42.54,33.61,41.3,33.7Z"/><path class="cls-21" d="M41.3,33.7c1.64-.44,2.27-1,2.51-1.5a2,2,0,0,1,.37-.82l.11-.21c-1.06.23-.47,1.74-3.32,2.08Z"/><path class="cls-21" d="M33,33.7a1.15,1.15,0,0,0-.32-.66c3.07,1.34.41,2,6,2.47,3,.29,3.49.67,4.14,1a11.83,11.83,0,0,0-4-.57C37.28,36.15,32.88,35.15,33,33.7Z"/><path class="cls-20" d="M69.67,33.56a1.82,1.82,0,0,1-.72.17,25.44,25.44,0,0,1-5-.09c-.78-.13-1.56-.29-2.33-.47H59.36c-.32.35-1,0-.93.5-.09,1.45,4.53,2.47,6,2.26a14,14,0,0,1,4.28.56,11.31,11.31,0,0,0-.58-1.35,7.4,7.4,0,0,0,2.26-.6C70.68,33.86,70.25,33.67,69.67,33.56Z"/><path class="cls-21" d="M59.63,31.55c1-.62.41-1.54.91-1.73,1.5.38,6.57-2,7.36-1.14,0,0,2,2.29-2,4.32C64.36,31.34,58.53,32.42,59.63,31.55Z"/><path class="cls-22" d="M68.32,34c-4.71,2.46-4.77-1.87-3.72-2.77,1.78-.18,2.66-.88,4.9-.8.35,0,.75-.05.86-.26C69,31.83,69.56,33.27,68.32,34Z"/><path class="cls-21" d="M61.85,26.75c1-.61.93-.94,2-.65,1.5.38,2.64.06,3.43.94,0,0-1,1.82-2,2.15C63.74,27.54,60.76,27.63,61.85,26.75Z"/><path class="cls-23" d="M61.76,26.79c-.41.23-1.31.53-1.38.93.4-.23.9-.66,2.88.85s5.23.14,4.38-1.09c-1.14-1.67-1.18-.14-1.41,0C62.77,28.87,62.6,26.34,61.76,26.79Z"/><path class="cls-23" d="M64.81,23.26c-1.41,2.29,1.33,2.12,1.41,4.08C67.73,24.29,63.64,25.67,64.81,23.26Z"/><path class="cls-22" d="M64.81,23.26c-1.18,2,1.51,2.31,1.41,4.08C63.94,26.3,63.2,25.13,64.81,23.26Z"/><path class="cls-23" d="M64.81,23.26c-2.49,1.69-3.23,3.22-.71,3.87,1.5.39,1.71-.08,2.12.21,0,0,.21-.57-.72-1S63.43,25,64.81,23.26Z"/><path class="cls-24" d="M64.69,23.36c-.5.55-3.14,2,.53,3.43C63.5,25.63,63.5,24.87,64.69,23.36Z"/><path class="cls-22" d="M62.55,25.81c0,.55.46,1,1.56,1.27,1.5.39,1.64-.07,2.11.26a13.9,13.9,0,0,0-1.37.39C63.75,28.08,62.18,27.2,62.55,25.81Z"/><path class="cls-24" d="M64.81,23.26c-.59,1.59,1.3,1.12,1.69,2.55C66.1,24.73,63.86,25.18,64.81,23.26Z"/><path class="cls-22" d="M60.55,29.75c.27-.66-.28-2-.17-2,.4-.23.9-.78,2.87.73s5.24.26,4.39-1c.74.85-.57,2-.77,2.18C63.73,32.32,60.35,30.22,60.55,29.75Z"/><path class="cls-23" d="M60.51,29.81A2.45,2.45,0,0,0,58,31.25c-.38.82,2.26,2.46,5.31,2.36s4.42,2.19,5.06,2.53c-.46-1.44-2-4.16-3.31-4.58S60.42,31.26,60.51,29.81Z"/><path class="cls-24" d="M60.38,27.72c.4-.23.9-.63,2.87.89s5.38.09,4.39-1.13c.5,1-1.82,1.22-3.36.77S61,26.9,60.38,27.72Z"/><path class="cls-24" d="M67.48,34.84a8.46,8.46,0,0,0-5.17-2.1c-2.69-.14-5.7-2.14-2.25-2.82-1,.84.23,1.8,1.85,1.95C63.75,32,65.29,31.25,67.48,34.84Z"/><path class="cls-22" d="M58.62,33.33c-.07-.66-.58-.5-.63-1.78.23.86,2.68,1.95,5.4,1.85,3-.1,4.35,2.4,5,2.74a11.52,11.52,0,0,0-4-.57C62.93,35.78,58.53,34.78,58.62,33.33Z"/><path class="cls-23" d="M67.9,28.68c-.17,1.06-2.41,2.34-3.3,2.58,2.21.46,2.66-.88,4.9-.8C70.69,30.5,70.78,28.77,67.9,28.68Z"/><path class="cls-24" d="M67.9,28.68c1.71.33,2.15.87,1.63,1.26s-1.64.46-1.65.74a13.89,13.89,0,0,1,1.81-.15C70.88,30.57,70.78,28.77,67.9,28.68Z"/><path class="cls-22" d="M66.93,33.29c.26.4.88,1.44.89,1.51a7.81,7.81,0,0,0,2.29-.54c.38-.91,1-1.14,1.15-2.23S68.93,33.51,66.93,33.29Z"/><path class="cls-23" d="M67,33.32c1.64-.43,2.28-1,2.51-1.49a2.21,2.21,0,0,1,.37-.83c.63.05,1.57.07,1.43,1S68.2,33.24,67,33.32Z"/><path class="cls-21" d="M67,33.32c1.64-.43,2.28-1,2.51-1.49a2.21,2.21,0,0,1,.37-.83l.12-.2c-1.06.22-.48,1.74-3.32,2.07Z"/><path class="cls-21" d="M58.62,33.33a1.24,1.24,0,0,0-.32-.66c3.07,1.34.4,1.95,6,2.47,3,.29,3.49.66,4.13,1a11.52,11.52,0,0,0-4-.57C62.93,35.78,58.53,34.78,58.62,33.33Z"/><path class="cls-15" d="M28.44,29.59a5.59,5.59,0,0,1,.68,2.07c-.05.26-1.2.39-1.6.62,1.32-.34,4-1.68,4.32-.7C32.1,32.32,33,32.69,33,33a2.45,2.45,0,0,1-1.56,1.62c-3.28,1.3-8.54.76-10-.1A2.53,2.53,0,0,1,20.76,32a5.54,5.54,0,0,1,1.95-2.21C24.91,28.35,27.91,28.51,28.44,29.59Z"/><path class="cls-17" d="M28.54,29A2.86,2.86,0,0,1,29,30.46c-.05.26-.95,1-1.33,1.22,1.25-.35,4.38-1.8,4.68-.83a5.65,5.65,0,0,1,.37,2,2.62,2.62,0,0,1-1.39,1.2c-2.77,1.16-9.21.65-9.68.14a4.3,4.3,0,0,1-.38-2.72c.13-.6.57-1,.66-1.49C24,28.52,28.06,27.92,28.54,29Z"/><path class="cls-16" d="M22,29.81c.28-.2,1,0,1.39-.13l-1.75,4.53h0a3.61,3.61,0,0,1-.38-2.72A4.88,4.88,0,0,1,22,29.81Z"/><path class="cls-16" d="M31.52,31.84c.19.62.35,1.22.5,1.82a1.78,1.78,0,0,0,.68-.79,5.65,5.65,0,0,0-.37-2c-.1-.31-.56-.18-1.13,0C31.31,31.19,31.42,31.52,31.52,31.84Z"/><path class="cls-18" d="M27.92,28.44c.92.44.89,1.13,0,1.67a5.92,5.92,0,0,1,3.73.12c1.07.5.87,1.36-.44,1.91-2.78,1.16-7.75.32-8.94.34.12-.53-1.81-2.64,1.32-3.95A6.06,6.06,0,0,1,27.92,28.44Z"/><path class="cls-19" d="M23.79,29.32a6,6,0,0,1,4.3-.08,1.69,1.69,0,0,1,.43.29c.19-.4,0-.8-.6-1.09a6.06,6.06,0,0,0-4.31.09c-2.1.88-1.92,2.12-1.61,3C22,30.79,22.27,30,23.79,29.32Z"/><path class="cls-15" d="M52.88,30.93a5.82,5.82,0,0,1,.7,2.1c0,.26-1.22.39-1.63.63a24.51,24.51,0,0,1,4.39-.72c.88,0,1.21,1.13,1.12,1.48a2.45,2.45,0,0,1-1.58,1.65c-3.33,1.32-8.66.77-10.11-.1a2.56,2.56,0,0,1-.67-2.58,5.62,5.62,0,0,1,2-2.24C49.31,29.67,52.35,29.84,52.88,30.93Z"/><path class="cls-17" d="M52.88,30.39a2.91,2.91,0,0,1,.44,1.47c0,.26-1,1-1.33,1.22,1.25-.35,4.38-1.8,4.69-.83a5.64,5.64,0,0,1,.36,2,2.66,2.66,0,0,1-1.39,1.2c-2.77,1.16-9.21.65-9.69.14a4.39,4.39,0,0,1-.38-2.73c.13-.59.57-1,.66-1.49C48.34,29.93,52.4,29.32,52.88,30.39Z"/><path class="cls-16" d="M46.33,31.21c.27-.19,1,0,1.38-.12L46,35.62h0a3.67,3.67,0,0,1-.38-2.73A4.88,4.88,0,0,1,46.33,31.21Z"/><path class="cls-16" d="M55.86,33.25c.19.62.36,1.22.5,1.81a1.76,1.76,0,0,0,.68-.78,5.64,5.64,0,0,0-.36-2c-.1-.3-.57-.18-1.14,0C55.65,32.6,55.76,32.92,55.86,33.25Z"/><path class="cls-18" d="M52.26,29.84c.91.44.89,1.14,0,1.68a5.89,5.89,0,0,1,3.74.11c1.06.51.86,1.36-.45,1.91-2.78,1.17-7.75.33-9,.35.13-.53-1.81-2.65,1.33-4A6.11,6.11,0,0,1,52.26,29.84Z"/><path class="cls-19" d="M48.12,30.72a6.11,6.11,0,0,1,4.31-.08,1.69,1.69,0,0,1,.43.29c.19-.39,0-.8-.6-1.09a6.11,6.11,0,0,0-4.31.09c-2.11.88-1.93,2.12-1.62,3C46.28,32.19,46.6,31.36,48.12,30.72Z"/></g></g></svg>