<svg xmlns="http://www.w3.org/2000/svg" xmlns:xlink="http://www.w3.org/1999/xlink" viewBox="0 0 132.3 112.25"><defs><style>.cls-1{isolation:isolate;}.cls-2{mix-blend-mode:multiply;fill:url(#radial-gradient);}.cls-3{fill:url(#radial-gradient-2);}.cls-4{fill:#e0b582;}.cls-5{fill:#e33b41;}.cls-6{fill:url(#linear-gradient);}.cls-7{fill:url(#linear-gradient-2);}.cls-8{fill:#c61d29;}.cls-9{fill:url(#radial-gradient-3);}.cls-10{fill:url(#radial-gradient-4);}.cls-11{fill:#fff5fe;}.cls-12{fill:#fffafe;}.cls-13{fill:#fcdefa;}.cls-14{fill:#e2ace1;}</style><radialGradient id="radial-gradient" cx="53.39" cy="366.8" r="61.67" gradientTransform="translate(8.89 -12.43) scale(1.07 0.29)" gradientUnits="userSpaceOnUse"><stop offset="0.36"/><stop offset="0.43" stop-color="#050505"/><stop offset="0.51" stop-color="#121212"/><stop offset="0.59" stop-color="#292929"/><stop offset="0.68" stop-color="#494949"/><stop offset="0.77" stop-color="#727272"/><stop offset="0.86" stop-color="#a5a5a5"/><stop offset="0.95" stop-color="#dfdfdf"/><stop offset="1" stop-color="#fff"/></radialGradient><radialGradient id="radial-gradient-2" cx="33.8" cy="23.53" r="107.29" gradientUnits="userSpaceOnUse"><stop offset="0" stop-color="#ecd7c2"/><stop offset="1" stop-color="#efc993"/></radialGradient><linearGradient id="linear-gradient" x1="2.72" y1="63.05" x2="128.94" y2="63.05" gradientUnits="userSpaceOnUse"><stop offset="0" stop-color="#fff5fe"/><stop offset="1" stop-color="#fde8fc"/></linearGradient><linearGradient id="linear-gradient-2" x1="3.25" y1="84.63" x2="128.37" y2="84.63" xlink:href="#linear-gradient"/><radialGradient id="radial-gradient-3" cx="92.01" cy="-168.56" r="289" gradientTransform="translate(-24.71 -69.51) scale(0.98)" gradientUnits="userSpaceOnUse"><stop offset="0.93" stop-color="#f8626e"/><stop offset="0.96" stop-color="#f7606c"/><stop offset="0.98" stop-color="#f35964"/><stop offset="0.99" stop-color="#ed4e56"/><stop offset="1" stop-color="#e43d44"/><stop offset="1" stop-color="#e33b41"/></radialGradient><radialGradient id="radial-gradient-4" cx="67.09" cy="-119.47" r="259.69" gradientTransform="translate(-3.3 -74.29) scale(0.95 0.88)" gradientUnits="userSpaceOnUse"><stop offset="0.87" stop-color="#f8626e"/><stop offset="0.91" stop-color="#f65e69"/><stop offset="0.95" stop-color="#f0535c"/><stop offset="0.99" stop-color="#e53f46"/><stop offset="1" stop-color="#e33b41"/></radialGradient></defs><title>cake8</title><g class="cls-1"><g id="Layer_2" data-name="Layer 2"><g id="layer"><ellipse class="cls-2" cx="66.15" cy="94.31" rx="66.15" ry="17.94"/><path class="cls-3" d="M127.28,92.52c0,7.25-28.64,15.85-62.47,15.85S4.75,99.77,4.75,92.52c0-1.83-2.62-47.51-.69-54.25,3.74-8.23,36.28-4,60.79-4,25.43,0,58.64-6.24,63.14,4.45C130,43.39,127.28,90.89,127.28,92.52Z"/><path class="cls-4" d="M128.63,44.29a22.17,22.17,0,0,0-.64-5.6,6.46,6.46,0,0,0-1.57-2.19c-2.82-1.49-7.28-2.79-13-3.86-13.08-.93-32.42,1.6-48.61,1.6-20.5,0-46.61-2.93-56.79.92A14.66,14.66,0,0,0,5.5,36.54a4.79,4.79,0,0,0-1.44,1.73,23.52,23.52,0,0,0-.53,4.35c.16,1.08.88,1.55,1.79,2.19.39.27.79.13,1.21.49s.64,1.32,1.11,1.84c.92,1,2,.9,3.09,1.35s.91.69,2,1.47c2.5,1.8,6.17.29,8.92.32,1.94,0,3.94.65,5.92.73a43.15,43.15,0,0,1,6,.42c2.76.5,4.85,3,7.77,2.82a24.4,24.4,0,0,0,5.24-.72c3.6-1.09,8.23-1.93,12-1.08,4.49,1,8.49,2.27,13.08,1,4.35-1.17,8.76-.8,13.19-.55s8.85,2,13.16.72c4.54-1.31,8.81-4.26,13.82-3.51a16.88,16.88,0,0,0,11-1.81C124.43,47.58,127.21,46.09,128.63,44.29Z"/><path class="cls-5" d="M64.76,80.05c3.5-.15,7-.31,10.52-.3A62.86,62.86,0,0,0,87.62,79c2.84-.56,5.71-1.67,8.58-2,2-.23,4.14,0,6.11-.46a28.88,28.88,0,0,1,3.49-.93,88.29,88.29,0,0,0,10.81-2.14c3.45-.81,8-2.15,10.66-4.58a3.38,3.38,0,0,0,1.26-2.59c.05-.36-.06-4.2,0-4.22C118,66.36,95.89,70,64.76,70,33.88,70,8.89,68.21,3.29,61.43c.42.5.17,4.36.45,5.16.43,1.25,1.85,2,3,2.72A32,32,0,0,0,17.79,74c2.84.66,5.44,1.82,8.19,2.75A35.54,35.54,0,0,0,34.86,78c3,.23,5.76,1,8.67,1.51a73.65,73.65,0,0,0,9.16.62C56.74,80.36,60.75,80.22,64.76,80.05Z"/><path class="cls-6" d="M64.74,74.69c6.33,0,12.66.73,19,.26A94.79,94.79,0,0,0,100,71.82c2.81-.72,5.79-.47,8.58-1.13a96.63,96.63,0,0,0,11.58-3.15c1.88-.7,8-3.08,8.32-5.42a43.56,43.56,0,0,0,.19-10.51c-1.8,2.12-4,2.65-6.26,3.92-2.44,1.38-4.17,3.29-7,4.12a121.06,121.06,0,0,1-20.83,3.93c-4.34.48-8.62.92-12.92,1.29-2.92.24-5.65,1-8.57,1.29a31.7,31.7,0,0,1-4.67-.34c-5.06-.17-10.09-.07-15.15-.32-4.21-.21-8.25-1.29-12.45-1.66-3.39-.3-6.55-2-9.88-2-2.27,0-4.64.25-6.87-.31s-4.3-2-6.45-3.08-4.69-1.49-7.1-2.06c-1-.25-7.46-4.06-7.24-5.39-.52,3.07-1.4,9.27.75,12s5.84,3.37,8.69,4.53a97,97,0,0,0,11,3.79c4.76,1.33,9.22,1.53,14.12,1.83,6.05.37,11.94,1.55,18,1.56C58.88,74.64,61.82,74.67,64.74,74.69Z"/><path class="cls-5" d="M64.86,101.33c3.48-.15,7-.31,10.47-.3a63,63,0,0,0,12.27-.71c2.82-.56,5.67-1.67,8.52-2,2-.23,4.12,0,6.08-.45a26.82,26.82,0,0,1,3.47-.92,89.26,89.26,0,0,0,10.75-2.14c3.43-.8,7.91-2.14,10.59-4.56.09-.07.86-3.92.74-3,0,.36.15-4.41.2-4.43-10.5,4.22-32.13,8.43-63.08,8.43-30.71,0-55-.52-60.58-7.27.41.5-.38,3.1-.1,3.9.44,1.25,1.84,2,2.93,2.71a32,32,0,0,0,11.05,4.62c2.82.66,5.41,1.81,8.14,2.74a34.62,34.62,0,0,0,8.83,1.33c2.94.23,5.72,1,8.62,1.5a70.85,70.85,0,0,0,9.1.62C56.89,101.63,60.87,101.49,64.86,101.33Z"/><path class="cls-7" d="M64.85,96c6.29,0,12.58.72,18.87.25A94.88,94.88,0,0,0,100,93.13c2.78-.72,5.75-.46,8.53-1.12A96.71,96.71,0,0,0,120,88.87c1.88-.7,7.63-3.68,8-6a39.51,39.51,0,0,0,.2-10c-1.79,2.11-3.68,2.78-5.92,4-2.42,1.37-4.15,3.27-6.93,4.1a120.94,120.94,0,0,1-20.72,3.92c-4.31.47-8.57.91-12.84,1.27-2.9.25-5.62,1-8.52,1.29a32.94,32.94,0,0,1-4.65-.33c-5-.18-10-.08-15.06-.33-4.19-.2-8.2-1.28-12.37-1.65-3.38-.3-6.52-1.94-9.83-2-2.26,0-4.62.25-6.83-.31-2.37-.6-4.27-2-6.42-3.06s-4.66-1.49-7-2.06C10,77.5,3.72,74.56,4,73.25c-.52,3-1.53,8.35.61,11s5.8,3.36,8.63,4.52a95.94,95.94,0,0,0,10.93,3.77c4.73,1.32,9.17,1.53,14,1.82,6,.37,11.87,1.55,17.93,1.55C59,95.94,61.94,96,64.85,96Z"/><path class="cls-8" d="M129.5,41c0,2.73-4.5,5.16-6.6,6.2a16.94,16.94,0,0,1-11,1.8c-5-.75-9.28,2.21-13.82,3.51-4.31,1.24-8.82-.47-13.16-.72s-8.84-.62-13.19.55c-4.59,1.24-8.59,0-13.08-1-3.8-.85-8.43,0-12,1.07a23.8,23.8,0,0,1-5.24.73c-2.92.19-5-2.32-7.77-2.83a41.67,41.67,0,0,0-6-.41c-2-.08-4-.71-5.92-.73-2.75,0-6.42,1.47-8.92-.33-1.09-.78-.79-1-2-1.47S8.56,47,7.64,46c-.47-.51-.6-1.38-1.11-1.83s-.82-.23-1.21-.49C4.28,43,3.49,42.44,3.49,41c0-.17,0-2.89,0-3,1.28-6.44,27.83-10,61.77-10,32.62,0,60.88,3.85,64.24,10Z"/><path class="cls-5" d="M129.5,39.64c0,2.73-4.5,5.16-6.6,6.19a16.88,16.88,0,0,1-11,1.81c-5-.75-9.28,2.2-13.82,3.51-4.31,1.23-8.82-.48-13.16-.72s-8.84-.62-13.19.55c-4.59,1.24-8.59,0-13.08-1-3.8-.85-8.43,0-12,1.08a24.4,24.4,0,0,1-5.24.72c-2.92.19-5-2.32-7.77-2.82a43.15,43.15,0,0,0-6-.42c-2-.08-4-.71-5.92-.73-2.75,0-6.42,1.47-8.92-.32-1.09-.78-.79-1-2-1.47s-2.17-.34-3.09-1.35c-.47-.52-.6-1.39-1.11-1.84s-.82-.22-1.21-.49c-1-.73-1.83-1.24-1.83-2.67,0-.17,0-2.9,0-3.06,1.28-6.43,27.83-10,61.77-10,32.62,0,60.88,3.86,64.24,10Z"/><path class="cls-9" d="M129.5,36.58c0,6.61-29.44,10.86-64.24,10.86S3.49,43.19,3.49,36.58s27-13.06,61.77-13.06S129.5,30,129.5,36.58Z"/><path class="cls-10" d="M74.88,44.35c-33.76-.09-59.91-4-59.89-10,0-2.75,5.55-5.44,14.82-7.55-15.19,2.21-24.89,5.76-24.9,9.38,0,6,26.14,9.87,59.9,10,21.81.06,41.44-1.49,52.62-4.21A320.32,320.32,0,0,1,74.88,44.35Z"/><path class="cls-8" d="M83.54,27.65c-2.27,2,3.29,2.18,4.62,2.73.6.62,2,1,4.88.85a.25.25,0,0,1,0-.07c1.24-.91,10.87-.7,8-3.41Z"/><path class="cls-11" d="M95.66,21.3c1.16,2.1-1.82,6.89-5.06,9,2.61.54,2.64-.45,3.76-.57C104.62,28.62,99.29,23.2,95.66,21.3Z"/><path class="cls-12" d="M84.56,28c-1.8-.21-.91-2.5.85-3.38,2.52-1.26,9.93-3.25,5.07-5.65C99.55,19.29,91.42,28.76,84.56,28Z"/><path class="cls-11" d="M84.56,28c-.77-.09-1-.56-1-1.13.09-.77-.09.54,2.44-.44,4.07-1.57,10.91-4.95,4.46-7.46C99.55,19.29,91.42,28.76,84.56,28Z"/><path class="cls-13" d="M83.58,26.85c.1.64.66,1.18,3.14.06,5.37-2.44,10.79-6.34,3.76-8,8.36.32,4.38,10.23-2,10.84C87.45,29,82.94,29.67,83.58,26.85Z"/><path class="cls-14" d="M88,28.54a5.8,5.8,0,0,1-2.59,0,5.29,5.29,0,0,1-1.86-.81c.47,1.75,4,1.31,4.88,2a6.91,6.91,0,0,0,.91-.15A2.82,2.82,0,0,1,88,28.54Z"/><path class="cls-12" d="M88.09,29.5c-1.4-1.56-.37-3,1.39-3.83,2.53-1.27,8.72-5.09,1-6.72C102.08,20.08,89.85,29,88.09,29.5Z"/><path class="cls-11" d="M93,30.49c-7.72.5-4.79-3.38-4.35-3.6,5.12-2.59,10.42-6.7,1.79-7.94,8.93.45,5.85,8.78.09,10C90,29.05,89.92,29.13,93,30.49Z"/><path class="cls-13" d="M93,30.49c-5.62.17-3.43-1.7-2.23-2.29,5.76-2.86,5.24-5.77,4.42-7.5C99.6,27.63,91.06,27.46,93,30.49Z"/><path class="cls-13" d="M95.66,21.3c10.62,6.56-3.6,7.22-2.76,9.19,1-1.13,9.42.3,8.26-4.26C100.62,24.08,96.25,21.6,95.66,21.3Z"/><path class="cls-12" d="M95.64,21.3c5.22,4.45-2.74,7.26-2.76,8.94C94.77,27.71,104.65,26.49,95.64,21.3Z"/><path class="cls-11" d="M85.41,24.6c2.52-1.26,10.26-3.07,5.07-5.65C91.68,20.94,89.1,22.56,85.41,24.6Z"/><path class="cls-14" d="M93.09,28.14c4.67-3,3-5.71,2.14-7.44,3.82,6.06-2.23,6.69-2.49,8.78C92.71,29.78,91.94,28.87,93.09,28.14Z"/><path class="cls-14" d="M93.37,29.7c-.39.25-.59.5-.47.79.89-1,7.4,0,8.27-2.79C99.67,29.32,95.49,29.33,93.37,29.7Z"/><path class="cls-8" d="M34.39,27.3c-2.28,2,3.29,2.18,4.62,2.74.6.62,2,1,4.88.85a.3.3,0,0,1,0-.08c1.24-.91,10.87-.69,8-3.4Z"/><path class="cls-11" d="M46.51,21c1.16,2.1-1.83,6.9-5.06,9,2.61.54,2.64-.46,3.76-.58C55.47,28.28,50.14,22.86,46.51,21Z"/><path class="cls-12" d="M35.4,27.64c-1.79-.21-.91-2.5.85-3.38C38.78,23,46.19,21,41.33,18.61,50.4,19,42.27,28.42,35.4,27.64Z"/><path class="cls-11" d="M35.4,27.64a1,1,0,0,1-1-1.13c.09-.78-.09.54,2.44-.44,4.06-1.58,10.91-5,4.46-7.46C50.4,19,42.27,28.42,35.4,27.64Z"/><path class="cls-13" d="M34.43,26.51c.1.63.66,1.18,3.14,0,5.36-2.44,10.79-6.34,3.76-7.95,8.36.31,4.38,10.23-2,10.84C38.3,28.64,33.79,29.33,34.43,26.51Z"/><path class="cls-14" d="M38.87,28.2a5.8,5.8,0,0,1-2.59,0,5.12,5.12,0,0,1-1.86-.81c.47,1.75,4,1.32,4.88,2a5.59,5.59,0,0,0,.91-.16A2.75,2.75,0,0,1,38.87,28.2Z"/><path class="cls-12" d="M38.94,29.15c-1.4-1.56-.37-2.95,1.39-3.83,2.53-1.26,8.72-5.08,1-6.71C52.93,19.74,40.7,28.63,38.94,29.15Z"/><path class="cls-11" d="M43.89,30.14c-7.72.51-4.79-3.38-4.36-3.6,5.13-2.59,10.43-6.7,1.8-7.93,8.93.45,5.84,8.77.09,10C40.8,28.71,40.76,28.79,43.89,30.14Z"/><path class="cls-13" d="M43.89,30.14c-5.62.17-3.43-1.7-2.23-2.29,5.76-2.86,5.24-5.77,4.42-7.49C50.45,27.28,41.91,27.12,43.89,30.14Z"/><path class="cls-13" d="M46.51,21c10.62,6.56-3.6,7.23-2.76,9.2,1-1.13,9.42.3,8.26-4.26C51.47,23.74,47.1,21.25,46.51,21Z"/><path class="cls-12" d="M46.48,21c5.23,4.44-2.73,7.25-2.75,8.93C45.61,27.36,55.5,26.15,46.48,21Z"/><path class="cls-11" d="M36.25,24.26c2.53-1.26,10.27-3.08,5.08-5.65C42.53,20.6,40,22.21,36.25,24.26Z"/><path class="cls-14" d="M43.94,27.79c4.66-3,3-5.71,2.14-7.43,3.82,6.06-2.24,6.69-2.49,8.78C43.56,29.44,42.79,28.53,43.94,27.79Z"/><path class="cls-14" d="M44.22,29.35c-.39.25-.59.51-.47.8.88-1,7.4,0,8.27-2.8C50.52,29,46.34,29,44.22,29.35Z"/><path class="cls-8" d="M83.27,31.78a5.8,5.8,0,0,1-2.25.5c-5.27.15-10.13.64-15.42-.25-2.42-.41-4.82-.91-7.21-1.45H51.45c-1,1.06-3,0-2.87,1.54-.26,4.47,14,7.6,18.52,7C72,38.39,77.68,40.4,80.28,40.8a35.77,35.77,0,0,0-1.78-4.17,22.52,22.52,0,0,0,7-1.83C86.37,32.68,85,32.12,83.27,31.78Z"/><path class="cls-14" d="M52.28,25.57c3.13-1.9,1.28-4.76,2.83-5.35,4.63,1.2,20.25-6.23,22.68-3.51,0,0,6.06,7.08-6.2,13.34C66.88,24.93,48.91,28.25,52.28,25.57Z"/><path class="cls-13" d="M79.1,33.23c-14.52,7.57-14.73-5.77-11.49-8.54,5.49-.56,8.22-2.71,15.11-2.48,1.09,0,2.33-.14,2.67-.8C81.31,26.43,82.91,30.88,79.1,33.23Z"/><path class="cls-14" d="M59.14,10.78c3.13-1.89,2.86-2.9,6.26-2C70,10,73.54,9,76,11.67c0,0-3.1,5.62-6.31,6.64C65,13.19,55.77,13.47,59.14,10.78Z"/><path class="cls-11" d="M58.87,10.9c-1.26.69-4,1.64-4.25,2.85,1.21-.7,2.76-2,8.86,2.65C69.81,21.24,79.62,16.82,77,13c-3.52-5.13-3.64-.4-4.35-.11C62,17.31,61.45,9.49,58.87,10.9Z"/><path class="cls-11" d="M68.28,0c-4.37,7.07,4.1,6.54,4.35,12.58C77.28,3.17,64.66,7.43,68.28,0Z"/><path class="cls-13" d="M68.28,0c-3.66,6.07,4.63,7.13,4.35,12.58C65.57,9.38,63.31,5.76,68.28,0Z"/><path class="cls-11" d="M68.28,0c-7.68,5.23-10,10-2.21,12,4.63,1.19,5.3-.26,6.56.63,0,0,.62-1.74-2.23-3.08C67.12,8,64,5.41,68.28,0Z"/><path class="cls-12" d="M67.9.31C66.35,2,58.22,6.6,69.53,10.89,64.23,7.31,64.24,5,67.9.31Z"/><path class="cls-13" d="M61.29,7.86c-.06,1.7,1.42,3.06,4.82,3.94,4.63,1.19,5-.23,6.52.78A43.31,43.31,0,0,0,68.4,13.8C65,14.88,60.16,12.16,61.29,7.86Z"/><path class="cls-12" d="M68.28,0c-1.83,4.91,4,3.45,5.2,7.88C72.25,4.53,65.34,5.92,68.28,0Z"/><path class="cls-13" d="M55.13,20c.85-2-.86-6.05-.51-6.26,1.21-.7,2.75-2.39,8.85,2.27,6.34,4.85,16.15.8,13.53-3,2.26,2.63-1.78,6.24-2.37,6.74C65,28,54.52,21.48,55.13,20Z"/><path class="cls-11" d="M55,20.22c-4.24-.14-6.53,1.91-7.71,4.43s7,7.59,16.4,7.27,13.61,6.77,15.6,7.79c-1.44-4.42-6.12-12.81-10.21-14.12S54.74,24.69,55,20.22Z"/><path class="cls-12" d="M54.62,13.75c1.21-.7,2.75-1.92,8.85,2.74C69.8,21.34,80,16.78,77,13c1.54,3.23-5.62,3.76-10.37,2.37C61.55,13.89,56.62,11.24,54.62,13.75Z"/><path class="cls-12" d="M76.49,35.7c-.8-1-7.14-6-15.92-6.46-8.31-.43-17.59-6.6-6.94-8.69-2.94,2.58.69,5.55,5.7,6C65,27.06,69.74,24.65,76.49,35.7Z"/><path class="cls-13" d="M49.17,31.06c-.21-2-1.76-1.55-1.93-5.48.7,2.65,8.28,6,16.64,5.7,9.4-.32,13.42,7.41,15.41,8.43C76.68,39.31,71.9,37.28,67,38,62.47,38.62,48.91,35.53,49.17,31.06Z"/><path class="cls-11" d="M77.79,16.71c-.53,3.29-7.43,7.22-10.18,8,6.83,1.4,8.22-2.71,15.11-2.48C86.39,22.33,86.69,17,77.79,16.71Z"/><path class="cls-12" d="M77.79,16.71c5.28,1,6.64,2.69,5,3.9-1.24.93-5.07,1.4-5.09,2.28a42,42,0,0,1,5.59-.45C87,22.56,86.69,17,77.79,16.71Z"/><path class="cls-13" d="M74.81,30.94c.8,1.22,2.7,4.43,2.73,4.65a24,24,0,0,0,7.07-1.67c1.18-2.8,3.17-3.51,3.54-6.86C88.48,24.09,81,31.61,74.81,30.94Z"/><path class="cls-11" d="M74.87,31c5.06-1.34,7-3,7.74-4.61a6.11,6.11,0,0,1,1.15-2.54c1.92.13,4.84.21,4.39,3.17S78.71,30.78,74.87,31Z"/><path class="cls-14" d="M74.87,31c5.06-1.34,7-3,7.74-4.61a6.11,6.11,0,0,1,1.15-2.54l.35-.63c-3.28.69-1.46,5.37-10.24,6.39Z"/><path class="cls-14" d="M49.17,31.06a3.7,3.7,0,0,0-1-2c9.46,4.13,1.23,6,18.34,7.62,9.25.87,10.77,2,12.76,3.06C76.68,39.31,71.9,37.28,67,38,62.47,38.62,48.91,35.53,49.17,31.06Z"/><path class="cls-8" d="M18.84,29.78c-2.28,2,3.28,2.18,4.62,2.74.59.61,2,1,4.87.85l0-.08c1.24-.91,10.88-.7,8-3.41Z"/><path class="cls-11" d="M31,23.43c1.15,2.1-1.83,6.89-5.07,9,2.61.54,2.65-.46,3.76-.58C39.91,30.75,34.58,25.34,31,23.43Z"/><path class="cls-12" d="M19.85,30.11c-1.8-.2-.91-2.5.85-3.37,2.53-1.27,9.93-3.26,5.08-5.66C34.84,21.43,26.72,30.9,19.85,30.11Z"/><path class="cls-11" d="M19.85,30.11c-.77-.09-1.05-.55-1-1.13.1-.77-.08.55,2.45-.44,4.06-1.57,10.91-4.95,4.46-7.46C34.84,21.43,26.72,30.9,19.85,30.11Z"/><path class="cls-13" d="M18.87,29c.11.64.67,1.18,3.14.06,5.37-2.44,10.79-6.34,3.77-8,8.36.32,4.38,10.24-2,10.85C22.74,31.11,18.24,31.8,18.87,29Z"/><path class="cls-14" d="M23.31,30.68a5.91,5.91,0,0,1-2.58,0,5,5,0,0,1-1.86-.81c.46,1.75,4,1.32,4.87,2a7.08,7.08,0,0,0,.92-.16A2.83,2.83,0,0,1,23.31,30.68Z"/><path class="cls-12" d="M23.38,31.63C22,30.07,23,28.68,24.77,27.8c2.53-1.26,8.73-5.08,1-6.72C37.38,22.22,25.15,31.11,23.38,31.63Z"/><path class="cls-11" d="M28.33,32.62c-7.72.51-4.78-3.38-4.35-3.6,5.13-2.59,10.43-6.7,1.8-7.94,8.93.45,5.84,8.78.09,10C25.25,31.18,25.21,31.26,28.33,32.62Z"/><path class="cls-13" d="M28.33,32.62c-5.62.17-3.42-1.7-2.23-2.29,5.76-2.86,5.24-5.77,4.43-7.5C34.89,29.76,26.36,29.6,28.33,32.62Z"/><path class="cls-13" d="M31,23.43c10.61,6.56-3.61,7.22-2.76,9.19,1-1.12,9.41.3,8.26-4.25C35.91,26.21,31.54,23.73,31,23.43Z"/><path class="cls-12" d="M30.93,23.44c5.23,4.44-2.73,7.25-2.76,8.93C30.06,29.84,40,28.62,30.93,23.44Z"/><path class="cls-11" d="M20.7,26.74c2.53-1.27,10.26-3.08,5.08-5.66C27,23.08,24.39,24.69,20.7,26.74Z"/><path class="cls-14" d="M28.39,30.27c4.66-3,2.95-5.71,2.14-7.44,3.82,6.07-2.24,6.7-2.49,8.78C28,31.91,27.23,31,28.39,30.27Z"/><path class="cls-14" d="M28.66,31.83c-.39.25-.58.51-.46.79.88-1,7.39,0,8.27-2.79C35,31.45,30.79,31.46,28.66,31.83Z"/><path class="cls-8" d="M98.91,28.91c-2.28,2,3.28,2.19,4.62,2.74.6.62,2,1,4.88.85l0-.07c1.24-.91,10.88-.7,8-3.41Z"/><path class="cls-11" d="M111,22.56c1.16,2.11-1.83,6.9-5.06,9,2.6.54,2.64-.46,3.76-.57C120,29.89,114.65,24.47,111,22.56Z"/><path class="cls-12" d="M99.92,29.25c-1.8-.21-.91-2.5.85-3.38,2.53-1.26,9.93-3.25,5.08-5.65C114.92,20.56,106.79,30,99.92,29.25Z"/><path class="cls-11" d="M99.92,29.25a1,1,0,0,1-1-1.13c.09-.78-.09.54,2.44-.44,4.06-1.58,10.91-4.95,4.46-7.46C114.92,20.56,106.79,30,99.92,29.25Z"/><path class="cls-13" d="M99,28.12c.1.63.66,1.18,3.13.06,5.37-2.45,10.79-6.34,3.77-8,8.36.32,4.38,10.23-2,10.84C102.81,30.25,98.31,30.94,99,28.12Z"/><path class="cls-14" d="M103.38,29.81a5.9,5.9,0,0,1-2.58,0A5.21,5.21,0,0,1,98.94,29c.46,1.75,4,1.31,4.88,2a6.91,6.91,0,0,0,.91-.15A2.85,2.85,0,0,1,103.38,29.81Z"/><path class="cls-12" d="M103.46,30.77c-1.41-1.56-.37-3,1.38-3.84,2.53-1.26,8.73-5.08,1-6.71C117.45,21.35,105.22,30.24,103.46,30.77Z"/><path class="cls-11" d="M108.41,31.75c-7.73.51-4.79-3.38-4.36-3.59,5.13-2.6,10.43-6.71,1.8-7.94,8.93.45,5.84,8.77.09,10C105.32,30.32,105.28,30.4,108.41,31.75Z"/><path class="cls-13" d="M108.41,31.75c-5.63.17-3.43-1.69-2.23-2.29,5.75-2.85,5.24-5.76,4.42-7.49C115,28.9,106.43,28.73,108.41,31.75Z"/><path class="cls-13" d="M111,22.56c10.62,6.57-3.61,7.23-2.76,9.2,1-1.13,9.42.3,8.26-4.26C116,25.35,111.62,22.87,111,22.56Z"/><path class="cls-12" d="M111,22.57c5.23,4.44-2.73,7.25-2.76,8.93C110.13,29,120,27.76,111,22.57Z"/><path class="cls-11" d="M100.77,25.87c2.53-1.26,10.26-3.08,5.08-5.65C107.05,22.21,104.46,23.83,100.77,25.87Z"/><path class="cls-14" d="M108.46,29.41c4.66-3,3-5.71,2.14-7.44,3.82,6.06-2.24,6.69-2.49,8.78C108.08,31.05,107.31,30.14,108.46,29.41Z"/><path class="cls-14" d="M108.74,31c-.39.26-.59.51-.47.8.88-1,7.4,0,8.27-2.79C115,30.58,110.86,30.6,108.74,31Z"/><path class="cls-8" d="M5.28,35.22c-2.62,2.26,3.79,2.51,5.32,3.15.69.71,2.3,1.19,5.62,1a.41.41,0,0,1,0-.09c1.43-1,12.52-.81,9.2-3.92Z"/><path class="cls-11" d="M19.24,27.91c1.33,2.42-2.11,7.93-5.83,10.34,3,.63,3-.53,4.33-.66C29.55,36.34,23.41,30.1,19.24,27.91Z"/><path class="cls-12" d="M6.45,35.6c-2.07-.24-1-2.87,1-3.89,2.91-1.45,11.43-3.74,5.84-6.5C23.71,25.6,14.36,36.5,6.45,35.6Z"/><path class="cls-11" d="M6.45,35.6a1.1,1.1,0,0,1-1.12-1.3c.11-.89-.1.63,2.81-.5,4.68-1.82,12.56-5.71,5.13-8.59C23.71,25.6,14.36,36.5,6.45,35.6Z"/><path class="cls-13" d="M5.33,34.3c.11.73.76,1.36,3.61.07,6.18-2.81,12.42-7.3,4.33-9.16,9.63.36,5.05,11.78-2.34,12.48C9.78,36.75,4.6,37.55,5.33,34.3Z"/><path class="cls-14" d="M10.43,36.25a6.76,6.76,0,0,1-3,0,5.91,5.91,0,0,1-2.14-.93c.54,2,4.61,1.51,5.61,2.33A7.19,7.19,0,0,0,12,37.51,3.3,3.3,0,0,1,10.43,36.25Z"/><path class="cls-12" d="M10.52,37.35c-1.62-1.8-.43-3.4,1.6-4.41,2.91-1.46,10-5.85,1.15-7.73C26.63,26.51,12.55,36.74,10.52,37.35Z"/><path class="cls-11" d="M16.22,38.49c-8.89.58-5.51-3.89-5-4.15,5.91-3,12-7.71,2.07-9.13,10.28.52,6.73,10.1.11,11.48C12.66,36.84,12.62,36.92,16.22,38.49Z"/><path class="cls-13" d="M16.22,38.49c-6.48.19-3.95-2-2.57-2.64,6.63-3.29,6-6.64,5.09-8.63C23.77,35.2,13.94,35,16.22,38.49Z"/><path class="cls-13" d="M19.24,27.91c12.22,7.55-4.15,8.31-3.18,10.58,1.16-1.3,10.84.35,9.51-4.9C24.94,31.11,19.91,28.25,19.24,27.91Z"/><path class="cls-12" d="M19.21,27.92c6,5.11-3.15,8.34-3.18,10.28C18.2,35.29,29.59,33.89,19.21,27.92Z"/><path class="cls-11" d="M7.43,31.71c2.91-1.45,11.81-3.54,5.84-6.5C14.65,27.5,11.68,29.36,7.43,31.71Z"/><path class="cls-14" d="M16.28,35.78c5.37-3.42,3.4-6.57,2.46-8.56,4.4,7-2.57,7.71-2.86,10.11C15.84,37.67,15,36.63,16.28,35.78Z"/><path class="cls-14" d="M16.6,37.58c-.45.29-.68.58-.54.91,1-1.13,8.51,0,9.52-3.21C23.85,37.14,19,37.16,16.6,37.58Z"/><path class="cls-8" d="M20.3,40.39c-2.62,2.26,3.79,2.52,5.32,3.16.69.71,2.3,1.19,5.62,1a.35.35,0,0,1,0-.08c1.43-1,12.52-.81,9.2-3.92Z"/><path class="cls-11" d="M34.26,33.09c1.33,2.42-2.11,7.93-5.83,10.34,3,.62,3-.53,4.33-.66C44.57,41.52,38.43,35.28,34.26,33.09Z"/><path class="cls-12" d="M21.47,40.78c-2.07-.24-1-2.88,1-3.89,2.91-1.45,11.43-3.74,5.84-6.5C38.73,30.78,29.38,41.68,21.47,40.78Z"/><path class="cls-11" d="M21.47,40.78a1.1,1.1,0,0,1-1.12-1.3c.11-.89-.1.62,2.81-.51,4.68-1.81,12.56-5.7,5.13-8.58C38.73,30.78,29.38,41.68,21.47,40.78Z"/><path class="cls-13" d="M20.35,39.48c.11.73.76,1.36,3.61.06,6.18-2.81,12.42-7.29,4.33-9.15,9.63.36,5.05,11.77-2.34,12.48C24.8,41.93,19.62,42.73,20.35,39.48Z"/><path class="cls-14" d="M25.45,41.43a6.76,6.76,0,0,1-3,0,6.08,6.08,0,0,1-2.14-.93c.54,2,4.61,1.51,5.61,2.33A8.85,8.85,0,0,0,27,42.69,3.3,3.3,0,0,1,25.45,41.43Z"/><path class="cls-12" d="M25.54,42.53c-1.62-1.8-.43-3.4,1.6-4.41,2.91-1.46,10-5.86,1.15-7.73C41.65,31.69,27.57,41.92,25.54,42.53Z"/><path class="cls-11" d="M31.24,43.66c-8.89.59-5.51-3.89-5-4.14,5.91-3,12-7.71,2.07-9.13,10.28.52,6.73,10.1.11,11.47C27.68,42,27.64,42.1,31.24,43.66Z"/><path class="cls-13" d="M31.24,43.66c-6.48.2-3.95-1.95-2.57-2.63,6.63-3.29,6-6.64,5.09-8.63C38.79,40.38,29,40.18,31.24,43.66Z"/><path class="cls-13" d="M34.26,33.09c12.22,7.55-4.15,8.31-3.18,10.58,1.16-1.3,10.84.35,9.51-4.9C40,36.29,34.93,33.43,34.26,33.09Z"/><path class="cls-12" d="M34.23,33.09c6,5.12-3.15,8.35-3.18,10.29C33.22,40.47,44.61,39.06,34.23,33.09Z"/><path class="cls-11" d="M22.45,36.89c2.91-1.45,11.81-3.54,5.84-6.5C29.67,32.68,26.7,34.54,22.45,36.89Z"/><path class="cls-14" d="M31.3,41c5.37-3.42,3.4-6.57,2.46-8.56,4.4,7-2.57,7.7-2.86,10.11C30.86,42.85,30,41.81,31.3,41Z"/><path class="cls-14" d="M31.62,42.75c-.45.29-.68.59-.54.92,1-1.13,8.51,0,9.52-3.22C38.87,42.32,34.06,42.33,31.62,42.75Z"/><path class="cls-8" d="M39.74,42c-2.62,2.26,3.78,2.52,5.32,3.15.69.71,2.29,1.2,5.61,1a.3.3,0,0,1,0-.08c1.42-1,12.51-.81,9.2-3.92Z"/><path class="cls-11" d="M53.69,34.68C55,37.1,51.59,42.62,47.87,45c3,.62,3-.53,4.32-.66C64,43.12,57.87,36.88,53.69,34.68Z"/><path class="cls-12" d="M40.91,42.38c-2.07-.24-1-2.88,1-3.89C44.8,37,53.32,34.75,47.73,32,58.17,32.38,48.81,43.28,40.91,42.38Z"/><path class="cls-11" d="M40.91,42.38a1.1,1.1,0,0,1-1.12-1.3c.1-.89-.11.62,2.81-.51,4.67-1.81,12.56-5.7,5.13-8.58C58.17,32.38,48.81,43.28,40.91,42.38Z"/><path class="cls-13" d="M39.79,41.08c.11.73.76,1.36,3.61.06,6.18-2.81,12.42-7.29,4.33-9.15,9.62.36,5,11.77-2.34,12.48C44.24,43.53,39.05,44.33,39.79,41.08Z"/><path class="cls-14" d="M44.89,43a6.76,6.76,0,0,1-3,0,5.92,5.92,0,0,1-2.14-.94c.53,2,4.6,1.52,5.61,2.34a8.85,8.85,0,0,0,1-.18A3.25,3.25,0,0,1,44.89,43Z"/><path class="cls-12" d="M45,44.13c-1.62-1.8-.43-3.4,1.6-4.42,2.91-1.45,10-5.85,1.15-7.72C61.09,33.29,47,43.52,45,44.13Z"/><path class="cls-11" d="M50.67,45.26c-8.88.59-5.5-3.89-5-4.14,5.9-3,12-7.71,2.07-9.13,10.28.51,6.73,10.1.11,11.47C47.12,43.61,47.08,43.7,50.67,45.26Z"/><path class="cls-13" d="M50.67,45.26c-6.47.2-3.94-1.95-2.56-2.63,6.63-3.29,6-6.64,5.09-8.63C58.23,42,48.4,41.78,50.67,45.26Z"/><path class="cls-13" d="M53.69,34.68c12.22,7.56-4.15,8.32-3.17,10.59,1.16-1.3,10.84.35,9.51-4.9C59.4,37.89,54.37,35,53.69,34.68Z"/><path class="cls-12" d="M53.66,34.69c6,5.12-3.14,8.35-3.17,10.28C52.66,42.07,64,40.66,53.66,34.69Z"/><path class="cls-11" d="M41.89,38.49C44.8,37,53.7,35,47.73,32,49.11,34.28,46.14,36.14,41.89,38.49Z"/><path class="cls-14" d="M50.74,42.56C56.1,39.14,54.14,36,53.2,34c4.4,7-2.58,7.7-2.86,10.11C50.29,44.45,49.41,43.41,50.74,42.56Z"/><path class="cls-14" d="M51.05,44.35c-.44.29-.67.59-.53.92,1-1.14,8.51,0,9.52-3.22C58.31,43.92,53.5,43.93,51.05,44.35Z"/><path class="cls-8" d="M108.44,35.09c-2.62,2.26,3.78,2.51,5.32,3.15.69.71,2.29,1.19,5.61,1a.36.36,0,0,1,0-.09c1.42-1.05,12.52-.8,9.2-3.92Z"/><path class="cls-11" d="M122.39,27.78c1.34,2.42-2.1,7.94-5.82,10.34,3,.63,3-.52,4.32-.66C132.71,36.21,126.57,30,122.39,27.78Z"/><path class="cls-12" d="M109.61,35.47c-2.07-.24-1-2.87,1-3.89,2.91-1.45,11.43-3.74,5.84-6.5C126.87,25.47,117.51,36.37,109.61,35.47Z"/><path class="cls-11" d="M109.61,35.47a1.1,1.1,0,0,1-1.12-1.3c.1-.89-.11.63,2.81-.5,4.68-1.82,12.56-5.71,5.13-8.59C126.87,25.47,117.51,36.37,109.61,35.47Z"/><path class="cls-13" d="M108.49,34.17c.11.73.76,1.36,3.61.07,6.18-2.81,12.42-7.3,4.33-9.16,9.63.36,5,11.78-2.34,12.48C112.94,36.62,107.75,37.42,108.49,34.17Z"/><path class="cls-14" d="M113.59,36.12a6.76,6.76,0,0,1-3,0,5.91,5.91,0,0,1-2.14-.93c.53,2,4.6,1.51,5.61,2.33a7.19,7.19,0,0,0,1-.18A3.25,3.25,0,0,1,113.59,36.12Z"/><path class="cls-12" d="M113.68,37.22c-1.62-1.8-.43-3.4,1.6-4.41,2.91-1.46,10-5.85,1.15-7.73C129.79,26.38,115.71,36.61,113.68,37.22Z"/><path class="cls-11" d="M119.37,38.36c-8.88.58-5.5-3.89-5-4.14,5.9-3,12-7.72,2.07-9.14,10.28.52,6.73,10.1.11,11.48C115.82,36.71,115.78,36.79,119.37,38.36Z"/><path class="cls-13" d="M119.37,38.36c-6.47.19-3.94-2-2.56-2.64,6.63-3.29,6-6.64,5.09-8.63C126.93,35.07,117.1,34.88,119.37,38.36Z"/><path class="cls-13" d="M122.39,27.78c12.22,7.55-4.15,8.32-3.17,10.58,1.16-1.3,10.84.35,9.51-4.9C128.1,31,123.07,28.13,122.39,27.78Z"/><path class="cls-12" d="M122.36,27.79c6,5.11-3.14,8.34-3.17,10.28C121.36,35.16,132.74,33.76,122.36,27.79Z"/><path class="cls-11" d="M110.59,31.58c2.91-1.45,11.81-3.54,5.84-6.5C117.81,27.37,114.84,29.23,110.59,31.58Z"/><path class="cls-14" d="M119.44,35.65c5.36-3.42,3.4-6.57,2.46-8.56,4.4,7-2.58,7.71-2.86,10.11C119,37.54,118.11,36.5,119.44,35.65Z"/><path class="cls-14" d="M119.75,37.45c-.44.29-.67.58-.53.91,1-1.13,8.51,0,9.52-3.21C127,37,122.2,37,119.75,37.45Z"/><path class="cls-8" d="M97.38,39.73c-2.62,2.26,3.78,2.51,5.31,3.15.69.71,2.3,1.2,5.62,1l0-.09c1.43-1.05,12.52-.8,9.2-3.92Z"/><path class="cls-11" d="M111.33,32.42c1.33,2.42-2.1,7.94-5.83,10.34,3,.63,3-.52,4.33-.66C121.64,40.85,115.5,34.61,111.33,32.42Z"/><path class="cls-12" d="M98.54,40.11c-2.07-.23-1-2.87,1-3.89,2.91-1.45,11.43-3.74,5.84-6.5C115.8,30.11,106.45,41,98.54,40.11Z"/><path class="cls-11" d="M98.54,40.11a1.1,1.1,0,0,1-1.12-1.3c.11-.89-.1.63,2.81-.5,4.68-1.82,12.56-5.71,5.13-8.59C115.8,30.11,106.45,41,98.54,40.11Z"/><path class="cls-13" d="M97.42,38.81c.12.73.77,1.36,3.61.07,6.18-2.81,12.42-7.3,4.33-9.16,9.63.36,5,11.78-2.33,12.48C101.87,41.26,96.69,42.06,97.42,38.81Z"/><path class="cls-14" d="M102.53,40.76a6.81,6.81,0,0,1-3,0,6,6,0,0,1-2.14-.93c.54,2,4.61,1.51,5.62,2.33a7.69,7.69,0,0,0,1-.18A3.2,3.2,0,0,1,102.53,40.76Z"/><path class="cls-12" d="M102.61,41.86c-1.61-1.8-.43-3.4,1.6-4.41,2.91-1.46,10-5.85,1.15-7.73C118.72,31,104.64,41.25,102.61,41.86Z"/><path class="cls-11" d="M108.31,43c-8.89.58-5.51-3.89-5-4.14,5.9-3,12-7.72,2.06-9.14,10.29.52,6.73,10.1.11,11.48C104.76,41.35,104.71,41.44,108.31,43Z"/><path class="cls-13" d="M108.31,43c-6.47.19-3.94-2-2.57-2.64,6.63-3.29,6-6.64,5.1-8.63C115.86,39.71,106,39.52,108.31,43Z"/><path class="cls-13" d="M111.33,32.42c12.22,7.55-4.15,8.32-3.18,10.58,1.16-1.3,10.84.35,9.51-4.9C117,35.63,112,32.77,111.33,32.42Z"/><path class="cls-12" d="M111.3,32.43c6,5.11-3.15,8.34-3.18,10.28C110.3,39.8,121.68,38.4,111.3,32.43Z"/><path class="cls-11" d="M99.52,36.22c2.91-1.45,11.81-3.54,5.84-6.5C106.74,32,103.77,33.87,99.52,36.22Z"/><path class="cls-14" d="M108.37,40.29c5.37-3.42,3.4-6.57,2.47-8.56,4.39,7-2.58,7.71-2.87,10.11C107.93,42.18,107,41.14,108.37,40.29Z"/><path class="cls-14" d="M108.69,42.09c-.45.29-.68.58-.54.91,1-1.13,8.52,0,9.52-3.21C115.94,41.65,111.13,41.67,108.69,42.09Z"/><path class="cls-8" d="M79.19,41.67c-2.62,2.26,3.78,2.51,5.32,3.15.69.71,2.29,1.2,5.61,1a.36.36,0,0,1,0-.09c1.42-1.05,12.52-.8,9.2-3.92Z"/><path class="cls-11" d="M93.14,34.36c1.34,2.42-2.1,7.94-5.82,10.34,3,.63,3-.52,4.32-.66C103.45,42.79,97.32,36.56,93.14,34.36Z"/><path class="cls-12" d="M80.36,42.05c-2.07-.23-1-2.87,1-3.88,2.91-1.46,11.43-3.75,5.84-6.51C97.62,32.05,88.26,43,80.36,42.05Z"/><path class="cls-11" d="M80.36,42.05a1.1,1.1,0,0,1-1.12-1.3c.1-.89-.11.63,2.81-.5,4.67-1.82,12.56-5.71,5.13-8.59C97.62,32.05,88.26,43,80.36,42.05Z"/><path class="cls-13" d="M79.24,40.75c.11.73.76,1.36,3.61.07C89,38,95.27,33.52,87.18,31.66c9.63.36,5,11.78-2.34,12.48C83.69,43.2,78.5,44,79.24,40.75Z"/><path class="cls-14" d="M84.34,42.7a6.76,6.76,0,0,1-3,0,5.91,5.91,0,0,1-2.14-.93c.53,2,4.6,1.51,5.61,2.33a6.06,6.06,0,0,0,1-.18A3.25,3.25,0,0,1,84.34,42.7Z"/><path class="cls-12" d="M84.43,43.8C82.81,42,84,40.4,86,39.39c2.91-1.46,10-5.85,1.15-7.73C100.54,33,86.46,43.2,84.43,43.8Z"/><path class="cls-11" d="M90.12,44.94c-8.88.58-5.5-3.89-5-4.14,5.9-3,12-7.72,2.07-9.14,10.28.52,6.73,10.1.11,11.48C86.57,43.29,86.53,43.38,90.12,44.94Z"/><path class="cls-13" d="M90.12,44.94c-6.47.19-3.94-2-2.56-2.64,6.63-3.29,6-6.64,5.09-8.63C97.68,41.65,87.85,41.46,90.12,44.94Z"/><path class="cls-13" d="M93.14,34.36C105.36,41.91,89,42.68,90,44.94c1.16-1.3,10.84.35,9.51-4.9C98.85,37.57,93.82,34.71,93.14,34.36Z"/><path class="cls-12" d="M93.11,34.37c6,5.11-3.14,8.35-3.17,10.28C92.11,41.74,103.49,40.34,93.11,34.37Z"/><path class="cls-11" d="M81.34,38.17c2.91-1.46,11.81-3.55,5.84-6.51C88.56,34,85.59,35.81,81.34,38.17Z"/><path class="cls-14" d="M90.19,42.23c5.36-3.42,3.4-6.57,2.46-8.56,4.4,7-2.58,7.71-2.86,10.11C89.74,44.12,88.86,43.08,90.19,42.23Z"/><path class="cls-14" d="M90.5,44c-.44.29-.67.58-.53.91,1-1.13,8.51,0,9.52-3.21C97.76,43.59,93,43.61,90.5,44Z"/><path class="cls-8" d="M60,42.43c-2.62,2.26,3.78,2.51,5.32,3.15.68.71,2.29,1.2,5.61,1l-.05-.09c1.43-1,12.52-.8,9.2-3.92Z"/><path class="cls-11" d="M74,35.12c1.33,2.42-2.1,7.94-5.83,10.34,3,.63,3-.52,4.33-.66C84.26,43.55,78.12,37.32,74,35.12Z"/><path class="cls-12" d="M61.16,42.81c-2.06-.23-1-2.87,1-3.88,2.91-1.46,11.44-3.75,5.85-6.51C78.42,32.81,69.07,43.72,61.16,42.81Z"/><path class="cls-11" d="M61.16,42.81A1.1,1.1,0,0,1,60,41.51c.11-.89-.1.63,2.81-.5,4.68-1.82,12.56-5.7,5.14-8.59C78.42,32.81,69.07,43.72,61.16,42.81Z"/><path class="cls-13" d="M60,41.51c.12.74.77,1.36,3.61.07,6.18-2.81,12.42-7.3,4.34-9.16,9.62.36,5,11.78-2.34,12.48C64.49,44,59.31,44.76,60,41.51Z"/><path class="cls-14" d="M65.15,43.46a6.81,6.81,0,0,1-3,0A6,6,0,0,1,60,42.57c.54,2,4.61,1.51,5.62,2.33a6.41,6.41,0,0,0,1-.18A3.25,3.25,0,0,1,65.15,43.46Z"/><path class="cls-12" d="M65.23,44.56c-1.61-1.8-.42-3.4,1.6-4.41,2.91-1.45,10-5.85,1.16-7.73C81.34,33.73,67.26,44,65.23,44.56Z"/><path class="cls-11" d="M70.93,45.7c-8.89.58-5.51-3.89-5-4.14,5.9-3,12-7.72,2.07-9.14,10.28.52,6.72,10.1.1,11.48C67.38,44.05,67.33,44.14,70.93,45.7Z"/><path class="cls-13" d="M70.93,45.7c-6.47.19-3.94-2-2.57-2.64,6.63-3.29,6-6.64,5.1-8.62C78.48,42.41,68.66,42.22,70.93,45.7Z"/><path class="cls-13" d="M74,35.12c12.22,7.55-4.15,8.32-3.18,10.58,1.17-1.29,10.84.35,9.51-4.9C79.66,38.33,74.63,35.47,74,35.12Z"/><path class="cls-12" d="M73.92,35.13c6,5.11-3.15,8.35-3.18,10.28C72.92,42.5,84.3,41.1,73.92,35.13Z"/><path class="cls-11" d="M62.14,38.93C65.05,37.47,74,35.38,68,32.42,69.36,34.71,66.39,36.57,62.14,38.93Z"/><path class="cls-14" d="M71,43c5.37-3.42,3.4-6.57,2.47-8.55,4.39,7-2.58,7.7-2.87,10.1C70.55,44.89,69.66,43.84,71,43Z"/><path class="cls-14" d="M71.31,44.79c-.45.29-.68.58-.54.91,1-1.13,8.52,0,9.52-3.21C78.57,44.35,73.75,44.37,71.31,44.79Z"/></g></g></g></svg>