<svg xmlns="http://www.w3.org/2000/svg" viewBox="0 0 151.98 229.73"><defs><style>.cls-1{isolation:isolate;}.cls-2,.cls-3{fill:#e6e6e6;}.cls-20,.cls-26,.cls-3,.cls-30{opacity:0.6;}.cls-16,.cls-20,.cls-23,.cls-29,.cls-3,.cls-32,.cls-33,.cls-36,.cls-37,.cls-9{mix-blend-mode:multiply;}.cls-4{fill:#ccc;}.cls-16,.cls-5,.cls-9{fill:#f99;}.cls-6{fill:#7acebe;}.cls-7{fill:#ffdede;}.cls-15,.cls-19,.cls-22,.cls-25,.cls-26,.cls-8{fill:#fff;}.cls-8{opacity:0.2;}.cls-15,.cls-23,.cls-29,.cls-32,.cls-33,.cls-36,.cls-37,.cls-9{opacity:0.3;}.cls-10,.cls-11,.cls-12,.cls-13,.cls-14,.cls-24,.cls-38{fill:none;}.cls-10,.cls-11,.cls-12,.cls-13,.cls-14{stroke:#fff;stroke-linecap:round;stroke-linejoin:round;}.cls-10,.cls-11,.cls-12{stroke-width:2px;}.cls-11{stroke-dasharray:0 3.92;}.cls-12{stroke-dasharray:0 3.92;}.cls-13,.cls-14{stroke-width:2.07px;}.cls-14{stroke-dasharray:0 4.14;}.cls-16{opacity:0.4;}.cls-17,.cls-23{fill:#f27288;}.cls-18{fill:#b9efe5;}.cls-21{fill:#fcdfc8;}.cls-22{opacity:0.1;}.cls-24{stroke:#d89b59;}.cls-24,.cls-38{stroke-miterlimit:10;}.cls-25{font-size:12px;font-family:Cookie-Regular, Cookie;}.cls-27,.cls-33{fill:#fed8c5;}.cls-28,.cls-29{fill:#1a1a1a;}.cls-31,.cls-32{fill:#333;}.cls-34,.cls-37{fill:#984e4f;}.cls-35{fill:#d89b59;}.cls-38{stroke:#1a1a1a;stroke-width:0.2px;}</style></defs><title>Asset 2</title><g class="cls-1"><g id="Layer_2" data-name="Layer 2"><g id="Objects"><path class="cls-2" d="M96.84,222.76c-17.87-8.62-13-38.31-13-38.31H68.6s4.9,29.69-13,38.31c-1.86.9-7.48,1.21-6.22,3.84,2.65,1.6,17.3,3,26.8,3.13h.05c9.5-.12,24.15-1.53,26.8-3.13C104.32,224,98.7,223.66,96.84,222.76Z"/><path class="cls-3" d="M96.84,222.76c-17.87-8.62-13-38.31-13-38.31H68.6a43.17,43.17,0,0,1-.29,19.17c12.35,1,13.85,9.67,10.91,16.79s-14.25,8.06-20,8.2a143.17,143.17,0,0,0,17,1.12h.05c9.5-.12,24.15-1.53,26.8-3.13C104.32,224,98.7,223.66,96.84,222.76Z"/><path class="cls-4" d="M152,184c0,10-34,18.17-76,18.17S0,194,0,184s34-18.17,76-18.17S152,173.94,152,184Z"/><path class="cls-2" d="M152,180.55c0,10-34,18.17-76,18.17S0,190.58,0,180.55s34-18.18,76-18.18S152,170.51,152,180.55Z"/><path class="cls-5" d="M137.45,120.24v58.39a2.6,2.6,0,0,1-.14.87c-2.18,6.61-28.8,11.84-61.33,11.84s-59.13-5.23-61.32-11.84a2.87,2.87,0,0,1-.13-.71V120.24Z"/><path class="cls-6" d="M137.45,150.46v28.16a2.93,2.93,0,0,1-.13.88c-2.2,6.61-28.81,11.83-61.33,11.83s-59.14-5.22-61.33-11.83a2.16,2.16,0,0,1-.12-.71V150.62a2.16,2.16,0,0,0,.12.71c2.19,6.61,28.81,11.84,61.33,11.84s59.13-5.23,61.33-11.84A2.87,2.87,0,0,0,137.45,150.46Z"/><path class="cls-7" d="M137.45,153.79v24.83a2.93,2.93,0,0,1-.13.88c-2.2,6.61-28.81,11.83-61.33,11.83s-59.14-5.22-61.33-11.83a2.16,2.16,0,0,1-.12-.71V154a2.16,2.16,0,0,0,.12.71C16.85,161.28,43.47,166.5,76,166.5s59.13-5.22,61.33-11.84A2.82,2.82,0,0,0,137.45,153.79Z"/><path class="cls-8" d="M49.89,172.56c16.27-11,12.51-41.27,11.81-51l-47.17-1.36v51C14.53,171.48,34.83,182.73,49.89,172.56Z"/><path class="cls-9" d="M119.55,120.24c.66,21.39-3,44.09-17,55.79-9.73,8.14-21.82,12.32-40.82,15,4.58.23,9.36.35,14.28.35,32.53,0,59.15-5.23,61.33-11.84a2.6,2.6,0,0,0,.14-.87V120.24Z"/><line class="cls-10" x1="16.53" y1="125.73" x2="16.53" y2="125.73"/><path class="cls-11" d="M16.93,129.63c1.28,10.08,6.34,36.28,24.39,37.19,14.85.74,19.89-23.32,21-30.4"/><line class="cls-10" x1="62.66" y1="134.48" x2="62.66" y2="134.48"/><line class="cls-10" x1="137.53" y1="126.11" x2="137.53" y2="126.11"/><path class="cls-12" d="M137.13,130c-1.27,10.07-6.33,36.27-24.39,37.18-14.85.75-19.89-23.31-21-30.4"/><line class="cls-10" x1="91.41" y1="134.86" x2="91.41" y2="134.86"/><line class="cls-13" x1="52.03" y1="134.07" x2="52.03" y2="134.07"/><path class="cls-14" d="M52.63,138.15c1.51,7,6.74,20.75,24.59,21.58,15.63.73,21.5-18.59,23-25"/><line class="cls-13" x1="100.66" y1="132.73" x2="100.66" y2="132.73"/><path class="cls-5" d="M14.53,178.79a2.87,2.87,0,0,0,.13.71h-.13Z"/><path class="cls-5" d="M137.45,178.63v.87h-.14A2.6,2.6,0,0,0,137.45,178.63Z"/><path class="cls-5" d="M14.53,178.46v.33a.86.86,0,0,1,0-.16A1,1,0,0,1,14.53,178.46Z"/><ellipse class="cls-7" cx="75.99" cy="120.04" rx="61.46" ry="12.65"/><path class="cls-5" d="M118.7,79V116c0,4.86-19.12,8.8-42.64,8.8s-42.58-3.94-42.64-8.8V79Z"/><path class="cls-8" d="M68.64,79.66,33.42,79v32.73S65.72,119.08,68.64,79.66Z"/><path class="cls-9" d="M106.12,79c1.54,12.78-4.63,29.41-14.48,35.74-8.16,5.25-16.07,7.79-27,9.65,3.65.21,7.49.32,11.47.32,23.52,0,42.59-3.94,42.64-8.8V79Z"/><path class="cls-15" d="M118.7,79V83.2c0,4.86-19.12,8.8-42.64,8.8s-42.58-3.94-42.64-8.8V79Z"/><path class="cls-16" d="M118.7,92v10.91c-.06,4.86-19.13,8.8-42.64,8.8s-42.59-3.94-42.64-8.8V92c0,4.86,19.12,8.8,42.64,8.8S118.64,96.86,118.7,92Z"/><path class="cls-17" d="M118.7,91.17v10.91c-.06,4.86-19.13,8.8-42.64,8.8s-42.59-3.94-42.64-8.8V91.17C33.47,96,52.54,100,76.06,100S118.64,96,118.7,91.17Z"/><path class="cls-7" d="M118.8,78.9c0,3.53-19.14,6.4-42.74,6.4s-42.74-2.87-42.74-6.4,19.13-6.4,42.74-6.4S118.8,75.36,118.8,78.9Z"/><path class="cls-7" d="M103.82,81.48c0,2.58-12.5,4.67-27.91,4.67S48,84.06,48,81.48s12.5-4.66,27.92-4.66S103.82,78.91,103.82,81.48Z"/><path class="cls-5" d="M38.34,98.29c0,.77-.14,1.69-.33,1.69s-.33-.92-.33-1.69.15-1.1.33-1.1S38.34,97.52,38.34,98.29Z"/><path class="cls-5" d="M37.68,102.46c0-.77.15-1.69.33-1.69s.33.92.33,1.69-.14,1.1-.33,1.1S37.68,103.23,37.68,102.46Z"/><path class="cls-5" d="M35.93,100.05c.77,0,1.68.14,1.68.33s-.91.33-1.68.33-1.1-.15-1.1-.33S35.16,100.05,35.93,100.05Z"/><path class="cls-5" d="M40.1,100.71c-.77,0-1.69-.15-1.69-.33s.92-.33,1.69-.33,1.1.14,1.1.33S40.87,100.71,40.1,100.71Z"/><path class="cls-5" d="M36.77,98.67c.55.54,1.09,1.3,1,1.42s-.88-.41-1.43-1-.67-.89-.54-1S36.23,98.12,36.77,98.67Z"/><path class="cls-5" d="M39.25,102.08c-.54-.54-1.09-1.29-1-1.42s.89.41,1.43,1,.67.88.54,1S39.8,102.63,39.25,102.08Z"/><path class="cls-5" d="M36.3,101.62c.55-.55,1.3-1.09,1.43-1s-.41.88-1,1.42-.88.68-1,.55S35.76,102.16,36.3,101.62Z"/><path class="cls-5" d="M39.72,99.14c-.54.54-1.3,1.08-1.43,1s.42-.88,1-1.42.89-.67,1-.55S40.26,98.59,39.72,99.14Z"/><path class="cls-5" d="M46,100.73c0,.77-.15,1.68-.33,1.68s-.33-.91-.33-1.68.15-1.1.33-1.1S46,100,46,100.73Z"/><path class="cls-5" d="M45.37,104.9c0-.77.15-1.69.33-1.69s.33.92.33,1.69-.15,1.1-.33,1.1S45.37,105.67,45.37,104.9Z"/><path class="cls-5" d="M43.62,102.48c.77,0,1.68.15,1.68.33s-.91.33-1.68.33-1.11-.14-1.11-.33S42.85,102.48,43.62,102.48Z"/><path class="cls-5" d="M47.79,103.14c-.78,0-1.69-.14-1.69-.33s.91-.33,1.69-.33,1.1.15,1.1.33S48.55,103.14,47.79,103.14Z"/><path class="cls-5" d="M44.46,101.11c.54.54,1.09,1.29,1,1.42s-.88-.41-1.43-1-.67-.88-.54-1S43.92,100.56,44.46,101.11Z"/><path class="cls-5" d="M46.94,104.52c-.54-.54-1.09-1.3-1-1.42s.88.41,1.43,1,.67.89.54,1S47.48,105.07,46.94,104.52Z"/><path class="cls-5" d="M44,104.05c.55-.54,1.3-1.08,1.43-1s-.42.88-1,1.42-.88.68-1,.55S43.45,104.6,44,104.05Z"/><path class="cls-5" d="M47.41,101.57c-.55.55-1.3,1.09-1.43,1s.42-.88,1-1.42.88-.68,1-.55S48,101,47.41,101.57Z"/><path class="cls-5" d="M54.45,102.23c0,.77-.15,1.68-.33,1.68s-.33-.91-.33-1.68.14-1.1.33-1.1S54.45,101.46,54.45,102.23Z"/><path class="cls-5" d="M53.79,106.4c0-.77.14-1.69.33-1.69s.33.92.33,1.69-.15,1.1-.33,1.1S53.79,107.17,53.79,106.4Z"/><path class="cls-5" d="M52,104c.77,0,1.69.15,1.69.33s-.92.33-1.69.33-1.1-.14-1.1-.33S51.26,104,52,104Z"/><path class="cls-5" d="M56.2,104.64c-.77,0-1.68-.14-1.68-.33s.91-.33,1.68-.33,1.1.15,1.1.33S57,104.64,56.2,104.64Z"/><path class="cls-5" d="M52.88,102.61c.54.54,1.08,1.29.95,1.42s-.88-.41-1.42-1-.67-.88-.55-1S52.33,102.06,52.88,102.61Z"/><path class="cls-5" d="M55.36,106c-.55-.54-1.09-1.3-1-1.42s.88.41,1.42,1,.68.89.55,1S55.9,106.57,55.36,106Z"/><path class="cls-5" d="M52.41,105.55c.54-.54,1.3-1.08,1.42-1s-.41.88-.95,1.42-.89.68-1,.55S51.87,106.1,52.41,105.55Z"/><path class="cls-5" d="M55.82,103.07c-.54.55-1.29,1.09-1.42,1s.41-.88,1-1.42.88-.68,1-.55S56.37,102.53,55.82,103.07Z"/><path class="cls-5" d="M62.86,103.73c0,.77-.14,1.68-.33,1.68s-.33-.91-.33-1.68.15-1.1.33-1.1S62.86,103,62.86,103.73Z"/><path class="cls-5" d="M62.2,107.9c0-.77.15-1.69.33-1.69s.33.92.33,1.69-.14,1.1-.33,1.1S62.2,108.67,62.2,107.9Z"/><path class="cls-5" d="M60.45,105.48c.77,0,1.68.15,1.68.33s-.91.33-1.68.33-1.1-.14-1.1-.33S59.68,105.48,60.45,105.48Z"/><path class="cls-5" d="M64.62,106.14c-.77,0-1.69-.14-1.69-.33s.92-.33,1.69-.33,1.1.15,1.1.33S65.39,106.14,64.62,106.14Z"/><path class="cls-5" d="M61.29,104.11c.55.54,1.09,1.29,1,1.42s-.88-.41-1.42-1-.68-.88-.55-1S60.75,103.56,61.29,104.11Z"/><path class="cls-5" d="M63.77,107.52c-.54-.54-1.08-1.3-1-1.42s.88.41,1.42,1,.67.89.55,1S64.32,108.07,63.77,107.52Z"/><path class="cls-5" d="M60.83,107.05c.54-.54,1.29-1.08,1.42-1s-.41.88-1,1.42-.88.68-1,.55S60.28,107.6,60.83,107.05Z"/><path class="cls-5" d="M64.24,104.57c-.54.55-1.3,1.09-1.42,1s.41-.88,1-1.42.89-.68,1-.55S64.79,104,64.24,104.57Z"/><path class="cls-5" d="M73.16,103.92c0,.77-.15,1.68-.33,1.68s-.33-.91-.33-1.68.14-1.1.33-1.1S73.16,103.15,73.16,103.92Z"/><path class="cls-5" d="M72.5,108.09c0-.77.14-1.69.33-1.69s.33.92.33,1.69-.15,1.1-.33,1.1S72.5,108.86,72.5,108.09Z"/><path class="cls-5" d="M70.74,105.67c.77,0,1.69.15,1.69.33s-.92.33-1.69.33-1.1-.15-1.1-.33S70,105.67,70.74,105.67Z"/><path class="cls-5" d="M74.91,106.33c-.77,0-1.69-.15-1.69-.33s.92-.33,1.69-.33,1.1.15,1.1.33S75.68,106.33,74.91,106.33Z"/><path class="cls-5" d="M71.58,104.29c.55.55,1.09,1.3,1,1.43s-.88-.41-1.42-1-.68-.88-.55-1S71,103.75,71.58,104.29Z"/><path class="cls-5" d="M74.07,107.71c-.55-.55-1.09-1.3-1-1.43s.88.42,1.42,1,.68.89.55,1S74.61,108.25,74.07,107.71Z"/><path class="cls-5" d="M71.12,107.24c.54-.54,1.29-1.09,1.42-1s-.41.88-1,1.43-.88.67-1,.54S70.57,107.79,71.12,107.24Z"/><path class="cls-5" d="M74.53,104.76c-.54.55-1.29,1.09-1.42,1s.41-.88,1-1.43.88-.67,1-.54S75.08,104.22,74.53,104.76Z"/><path class="cls-5" d="M82.09,103.73c0,.77-.14,1.68-.33,1.68s-.33-.91-.33-1.68.15-1.1.33-1.1S82.09,103,82.09,103.73Z"/><path class="cls-5" d="M81.43,107.9c0-.77.15-1.69.33-1.69s.33.92.33,1.69S82,109,81.76,109,81.43,108.67,81.43,107.9Z"/><path class="cls-5" d="M79.68,105.48c.77,0,1.68.15,1.68.33s-.91.33-1.68.33-1.1-.14-1.1-.33S78.91,105.48,79.68,105.48Z"/><path class="cls-5" d="M83.85,106.14c-.77,0-1.69-.14-1.69-.33s.92-.33,1.69-.33,1.1.15,1.1.33S84.62,106.14,83.85,106.14Z"/><path class="cls-5" d="M80.52,104.11c.55.54,1.09,1.29,1,1.42s-.88-.41-1.43-1-.67-.88-.54-1S80,103.56,80.52,104.11Z"/><path class="cls-5" d="M83,107.52c-.54-.54-1.09-1.3-1-1.42s.89.41,1.43,1,.67.89.54,1S83.55,108.07,83,107.52Z"/><path class="cls-5" d="M80.05,107.05c.55-.54,1.3-1.08,1.43-1s-.41.88-1,1.42-.88.68-1,.55S79.51,107.6,80.05,107.05Z"/><path class="cls-5" d="M83.47,104.57c-.54.55-1.3,1.09-1.43,1s.42-.88,1-1.42.89-.68,1-.55S84,104,83.47,104.57Z"/><path class="cls-5" d="M114.41,98.19c0,.77.15,1.69.33,1.69s.33-.92.33-1.69-.15-1.1-.33-1.1S114.41,97.42,114.41,98.19Z"/><path class="cls-5" d="M115.07,102.36c0-.77-.15-1.69-.33-1.69s-.33.92-.33,1.69.15,1.1.33,1.1S115.07,103.13,115.07,102.36Z"/><path class="cls-5" d="M116.82,99.94c-.77,0-1.68.15-1.68.33s.91.33,1.68.33,1.1-.14,1.1-.33S117.59,99.94,116.82,99.94Z"/><path class="cls-5" d="M112.66,100.6c.76,0,1.68-.14,1.68-.33s-.92-.33-1.68-.33-1.11.15-1.11.33S111.89,100.6,112.66,100.6Z"/><path class="cls-5" d="M116,98.57c-.54.54-1.09,1.29-1,1.42s.88-.41,1.43-1,.67-.88.54-1S116.52,98,116,98.57Z"/><path class="cls-5" d="M113.5,102c.54-.54,1.09-1.29,1-1.42s-.88.41-1.43,1-.67.89-.54,1S113,102.53,113.5,102Z"/><path class="cls-5" d="M116.45,101.51c-.55-.54-1.3-1.08-1.43-1s.42.88,1,1.42.88.68,1,.55S117,102.06,116.45,101.51Z"/><path class="cls-5" d="M113,99c.55.55,1.3,1.09,1.43,1s-.42-.88-1-1.42-.88-.68-1-.55S112.49,98.49,113,99Z"/><path class="cls-5" d="M106.72,100.63c0,.77.15,1.68.33,1.68s.33-.91.33-1.68-.15-1.1-.33-1.1S106.72,99.86,106.72,100.63Z"/><path class="cls-5" d="M107.38,104.8c0-.77-.15-1.69-.33-1.69s-.33.92-.33,1.69.15,1.1.33,1.1S107.38,105.57,107.38,104.8Z"/><path class="cls-5" d="M109.14,102.38c-.77,0-1.69.15-1.69.33s.92.33,1.69.33,1.1-.15,1.1-.33S109.91,102.38,109.14,102.38Z"/><path class="cls-5" d="M105,103c.77,0,1.68-.15,1.68-.33s-.91-.33-1.68-.33-1.1.15-1.1.33S104.2,103,105,103Z"/><path class="cls-5" d="M108.29,101c-.54.55-1.09,1.3-1,1.43s.89-.41,1.43-1,.67-.88.54-1S108.84,100.46,108.29,101Z"/><path class="cls-5" d="M105.81,104.42c.55-.54,1.09-1.3,1-1.43s-.88.42-1.43,1-.67.88-.54,1S105.27,105,105.81,104.42Z"/><path class="cls-5" d="M108.76,104c-.54-.54-1.3-1.09-1.43-1s.42.89,1,1.43.89.67,1,.54S109.3,104.5,108.76,104Z"/><path class="cls-5" d="M105.34,101.47c.55.55,1.3,1.09,1.43,1s-.41-.88-1-1.43-.88-.67-1-.54S104.8,100.93,105.34,101.47Z"/><path class="cls-5" d="M98.3,102.13c0,.77.15,1.68.34,1.68s.33-.91.33-1.68-.15-1.1-.33-1.1S98.3,101.36,98.3,102.13Z"/><path class="cls-5" d="M99,106.3c0-.77-.15-1.69-.33-1.69s-.34.92-.34,1.69.15,1.1.34,1.1S99,107.07,99,106.3Z"/><path class="cls-5" d="M100.72,103.88c-.77,0-1.69.15-1.69.33s.92.33,1.69.33,1.1-.15,1.1-.33S101.49,103.88,100.72,103.88Z"/><path class="cls-5" d="M96.55,104.54c.77,0,1.69-.15,1.69-.33s-.92-.33-1.69-.33-1.1.15-1.1.33S95.78,104.54,96.55,104.54Z"/><path class="cls-5" d="M99.88,102.5c-.55.55-1.09,1.3-1,1.43s.88-.41,1.42-1,.68-.88.55-1S100.42,102,99.88,102.5Z"/><path class="cls-5" d="M97.4,105.92c.54-.54,1.08-1.3.95-1.43s-.88.42-1.42,1-.68.88-.55,1S96.85,106.46,97.4,105.92Z"/><path class="cls-5" d="M100.34,105.45c-.54-.54-1.29-1.09-1.42-1s.41.89,1,1.43.88.67,1,.54S100.89,106,100.34,105.45Z"/><path class="cls-5" d="M96.93,103c.54.55,1.29,1.09,1.42,1s-.41-.88-.95-1.43-.89-.67-1-.54S96.38,102.43,96.93,103Z"/><path class="cls-5" d="M89.89,103.63c0,.77.15,1.68.33,1.68s.33-.91.33-1.68-.15-1.1-.33-1.1S89.89,102.86,89.89,103.63Z"/><path class="cls-5" d="M90.55,107.8c0-.77-.15-1.69-.33-1.69s-.33.92-.33,1.69.15,1.1.33,1.1S90.55,108.57,90.55,107.8Z"/><path class="cls-5" d="M92.3,105.38c-.77,0-1.68.15-1.68.33s.91.33,1.68.33,1.1-.15,1.1-.33S93.07,105.38,92.3,105.38Z"/><path class="cls-5" d="M88.13,106c.77,0,1.69-.15,1.69-.33s-.92-.33-1.69-.33-1.1.15-1.1.33S87.36,106,88.13,106Z"/><path class="cls-5" d="M91.46,104c-.55.55-1.09,1.3-1,1.43s.88-.41,1.43-1,.67-.88.54-1S92,103.46,91.46,104Z"/><path class="cls-5" d="M89,107.42c.54-.54,1.09-1.3,1-1.43s-.88.42-1.43,1-.67.88-.54,1S88.43,108,89,107.42Z"/><path class="cls-5" d="M91.93,107c-.55-.54-1.3-1.09-1.43-1s.41.89,1,1.43.88.67,1,.54S92.47,107.5,91.93,107Z"/><path class="cls-5" d="M88.51,104.47c.55.55,1.3,1.09,1.43,1s-.42-.88-1-1.43-.88-.67-1-.54S88,103.93,88.51,104.47Z"/><path class="cls-18" d="M14.73,124.43a2.82,2.82,0,0,1-2.81-2.81,2.86,2.86,0,0,1,.82-2,2.9,2.9,0,0,1,4,0,2.78,2.78,0,0,1,.83,2,2.74,2.74,0,0,1-.83,2A2.79,2.79,0,0,1,14.73,124.43Z"/><path class="cls-19" d="M16.25,120.16c0,.57-.72,1-1.6,1s-1.61-.46-1.61-1,.72-1,1.61-1S16.25,119.59,16.25,120.16Z"/><g class="cls-20"><path class="cls-18" d="M16.87,119.83A2.94,2.94,0,0,1,15,123a3.41,3.41,0,0,1-2.91-.4,2.78,2.78,0,0,0,.62,1,2.83,2.83,0,0,0,2,.83,2.79,2.79,0,0,0,2-.83,2.75,2.75,0,0,0,.16-3.77Z"/></g><path class="cls-18" d="M18.37,128.47a2.82,2.82,0,0,1-2.81-2.81,2.86,2.86,0,0,1,.82-2,2.9,2.9,0,0,1,4,0,2.83,2.83,0,0,1,.83,2,2.83,2.83,0,0,1-2.81,2.81Z"/><path class="cls-19" d="M19.89,124.2c0,.57-.72,1-1.61,1s-1.6-.46-1.6-1,.72-1,1.6-1S19.89,123.63,19.89,124.2Z"/><g class="cls-20"><path class="cls-18" d="M20.51,123.87a2.94,2.94,0,0,1-1.84,3.21,3.44,3.44,0,0,1-2.91-.39,2.81,2.81,0,0,0,2.61,1.78,2.83,2.83,0,0,0,2.81-2.81A2.74,2.74,0,0,0,20.51,123.87Z"/></g><path class="cls-18" d="M23.52,130.75a2.81,2.81,0,0,1-2-4.79,2.91,2.91,0,0,1,4,0,2.79,2.79,0,0,1,.83,2,2.83,2.83,0,0,1-.83,2A2.79,2.79,0,0,1,23.52,130.75Z"/><path class="cls-19" d="M25,126.48c0,.57-.72,1-1.6,1s-1.6-.47-1.6-1,.71-1,1.6-1S25,125.91,25,126.48Z"/><g class="cls-20"><path class="cls-18" d="M25.66,126.15a2.94,2.94,0,0,1-1.85,3.21A3.45,3.45,0,0,1,20.9,129a3,3,0,0,0,.62,1,2.84,2.84,0,0,0,2,.82,2.79,2.79,0,0,0,2-.82,2.77,2.77,0,0,0,.16-3.78Z"/></g><path class="cls-18" d="M28.91,132.33a2.82,2.82,0,0,1-2-.82,2.86,2.86,0,0,1-.82-2,2.82,2.82,0,0,1,.82-2,2.9,2.9,0,0,1,4,0,2.79,2.79,0,0,1,.83,2,2.83,2.83,0,0,1-.83,2A2.78,2.78,0,0,1,28.91,132.33Z"/><path class="cls-19" d="M30.43,128.06c0,.57-.72,1-1.61,1s-1.6-.47-1.6-1,.72-1,1.6-1S30.43,127.49,30.43,128.06Z"/><g class="cls-20"><path class="cls-18" d="M31.05,127.73a2.94,2.94,0,0,1-1.84,3.21,3.44,3.44,0,0,1-2.91-.39,2.88,2.88,0,0,0,.62,1,2.82,2.82,0,0,0,2,.82,2.78,2.78,0,0,0,2-.82,2.83,2.83,0,0,0,.83-2A2.76,2.76,0,0,0,31.05,127.73Z"/></g><path class="cls-18" d="M34.38,133.56a2.82,2.82,0,0,1-2-.82,2.86,2.86,0,0,1-.82-2,2.82,2.82,0,0,1,.82-2,2.91,2.91,0,0,1,4,0,2.78,2.78,0,0,1,.82,2,2.8,2.8,0,0,1-2.81,2.81Z"/><path class="cls-19" d="M35.9,129.29c0,.57-.72,1-1.61,1s-1.6-.47-1.6-1,.72-1,1.6-1S35.9,128.72,35.9,129.29Z"/><g class="cls-20"><path class="cls-18" d="M36.52,129a2.94,2.94,0,0,1-1.84,3.21,3.44,3.44,0,0,1-2.91-.39,2.88,2.88,0,0,0,.62,1,2.81,2.81,0,0,0,4.8-2A2.76,2.76,0,0,0,36.52,129Z"/></g><path class="cls-18" d="M39.93,134.42a2.83,2.83,0,0,1-2-.83,2.81,2.81,0,0,1,0-4,2.9,2.9,0,0,1,4,0,2.82,2.82,0,0,1-2,4.8Z"/><path class="cls-19" d="M41.44,130.15c0,.57-.71,1-1.6,1s-1.6-.46-1.6-1,.72-1,1.6-1S41.44,129.58,41.44,130.15Z"/><g class="cls-20"><path class="cls-18" d="M42.07,129.81A3,3,0,0,1,40.22,133a3.42,3.42,0,0,1-2.9-.4,2.65,2.65,0,0,0,.62,1,2.83,2.83,0,0,0,2,.83,2.83,2.83,0,0,0,2.81-2.81A2.82,2.82,0,0,0,42.07,129.81Z"/></g><path class="cls-18" d="M45.57,135.29a2.81,2.81,0,0,1-2-4.79,2.91,2.91,0,0,1,4,0,2.81,2.81,0,0,1-2,4.79Z"/><path class="cls-19" d="M47.09,131c0,.58-.72,1-1.6,1s-1.6-.46-1.6-1,.71-1,1.6-1S47.09,130.45,47.09,131Z"/><g class="cls-20"><path class="cls-18" d="M47.72,130.69a3,3,0,0,1-1.85,3.22,3.45,3.45,0,0,1-2.91-.4,2.78,2.78,0,0,0,.62,1,2.83,2.83,0,0,0,2,.82,2.79,2.79,0,0,0,2.15-4.6Z"/></g><path class="cls-18" d="M51.2,135.82A2.78,2.78,0,0,1,48.39,133a2.81,2.81,0,0,1,.81-2,2.91,2.91,0,0,1,4,0,2.79,2.79,0,0,1,.83,2,2.83,2.83,0,0,1-.83,2A2.79,2.79,0,0,1,51.2,135.82Z"/><path class="cls-19" d="M52.71,131.55c0,.57-.72,1-1.6,1s-1.6-.47-1.6-1,.72-1,1.6-1S52.71,131,52.71,131.55Z"/><g class="cls-20"><path class="cls-18" d="M53.34,131.22a2.94,2.94,0,0,1-1.85,3.21,3.45,3.45,0,0,1-2.91-.39,3,3,0,0,0,.62,1,2.84,2.84,0,0,0,2,.82,2.79,2.79,0,0,0,2-.82,2.77,2.77,0,0,0,.16-3.78Z"/></g><path class="cls-18" d="M56.79,136.27a2.82,2.82,0,0,1-2-.82,2.86,2.86,0,0,1-.82-2,2.82,2.82,0,0,1,.82-2,2.91,2.91,0,0,1,4,0,2.78,2.78,0,0,1,.82,2,2.8,2.8,0,0,1-2.81,2.81Z"/><path class="cls-19" d="M58.31,132c0,.57-.72,1-1.6,1s-1.61-.47-1.61-1,.72-1,1.61-1S58.31,131.43,58.31,132Z"/><g class="cls-20"><path class="cls-18" d="M58.93,131.67a2.94,2.94,0,0,1-1.84,3.21,3.44,3.44,0,0,1-2.91-.39,2.88,2.88,0,0,0,.62,1,2.81,2.81,0,0,0,4.8-2A2.76,2.76,0,0,0,58.93,131.67Z"/></g><path class="cls-18" d="M62.49,136.6a2.81,2.81,0,0,1-2-4.79,2.88,2.88,0,0,1,4,0,2.81,2.81,0,0,1-2,4.79Z"/><path class="cls-19" d="M64,132.33c0,.57-.71,1-1.6,1s-1.6-.46-1.6-1,.72-1,1.6-1S64,131.76,64,132.33Z"/><g class="cls-20"><path class="cls-18" d="M64.63,132a2.94,2.94,0,0,1-1.84,3.21,3.44,3.44,0,0,1-2.91-.39,2.81,2.81,0,0,0,2.61,1.78,2.79,2.79,0,0,0,2.14-4.6Z"/></g><path class="cls-18" d="M68,136.9a2.81,2.81,0,0,1-2-4.79,2.88,2.88,0,0,1,4,0,2.81,2.81,0,0,1-2,4.79Z"/><path class="cls-19" d="M69.53,132.63c0,.57-.72,1-1.61,1s-1.6-.46-1.6-1,.72-1,1.6-1S69.53,132.06,69.53,132.63Z"/><g class="cls-20"><path class="cls-18" d="M70.15,132.3a2.94,2.94,0,0,1-1.84,3.21,3.44,3.44,0,0,1-2.91-.39A2.81,2.81,0,0,0,68,136.9a2.83,2.83,0,0,0,2.81-2.81A2.74,2.74,0,0,0,70.15,132.3Z"/></g><path class="cls-18" d="M138.33,124.39a2.81,2.81,0,0,0,2-4.8,2.9,2.9,0,0,0-4,0,2.82,2.82,0,0,0,2,4.8Z"/><path class="cls-19" d="M136.81,120.12c0,.57.72,1,1.61,1s1.6-.46,1.6-1-.72-1-1.6-1S136.81,119.54,136.81,120.12Z"/><g class="cls-20"><path class="cls-18" d="M136.19,119.78A3,3,0,0,0,138,123a3.44,3.44,0,0,0,2.91-.4,2.78,2.78,0,0,1-.62,1,2.83,2.83,0,0,1-2,.83,2.79,2.79,0,0,1-2.14-4.61Z"/></g><path class="cls-18" d="M134.69,128.43a2.82,2.82,0,0,0,2.81-2.81,2.86,2.86,0,0,0-.82-2,2.9,2.9,0,0,0-4,0,2.83,2.83,0,0,0-.83,2,2.83,2.83,0,0,0,2.81,2.81Z"/><path class="cls-19" d="M133.18,124.16c0,.57.71,1,1.6,1s1.6-.46,1.6-1-.72-1-1.6-1S133.18,123.58,133.18,124.16Z"/><g class="cls-20"><path class="cls-18" d="M132.55,123.82a3,3,0,0,0,1.84,3.22,3.44,3.44,0,0,0,2.91-.4,2.78,2.78,0,0,1-.62,1,2.83,2.83,0,0,1-2,.83,2.83,2.83,0,0,1-2.81-2.81A2.84,2.84,0,0,1,132.55,123.82Z"/></g><path class="cls-18" d="M129.55,130.71a2.81,2.81,0,0,0,2-4.79,2.89,2.89,0,0,0-4,0,2.8,2.8,0,0,0,0,4A2.81,2.81,0,0,0,129.55,130.71Z"/><path class="cls-19" d="M128,126.44c0,.57.72,1,1.6,1s1.6-.46,1.6-1-.71-1-1.6-1S128,125.87,128,126.44Z"/><g class="cls-20"><path class="cls-18" d="M127.4,126.11a2.94,2.94,0,0,0,1.85,3.21,3.45,3.45,0,0,0,2.91-.39,2.81,2.81,0,0,1-2.61,1.78,2.81,2.81,0,0,1-2-.83,2.78,2.78,0,0,1-.16-3.77Z"/></g><path class="cls-18" d="M124.15,132.29a2.78,2.78,0,0,0,2-.83,2.8,2.8,0,0,0,0-4,2.9,2.9,0,0,0-4,0,2.78,2.78,0,0,0,0,4A2.74,2.74,0,0,0,124.15,132.29Z"/><path class="cls-19" d="M122.64,128c0,.57.71,1,1.6,1s1.6-.47,1.6-1-.72-1-1.6-1S122.64,127.45,122.64,128Z"/><g class="cls-20"><path class="cls-18" d="M122,127.69a2.94,2.94,0,0,0,1.84,3.21,3.44,3.44,0,0,0,2.91-.39,2.84,2.84,0,0,1-.62,1,2.78,2.78,0,0,1-2,.83,2.74,2.74,0,0,1-2-.83,2.75,2.75,0,0,1-.16-3.77Z"/></g><path class="cls-18" d="M118.68,133.52a2.81,2.81,0,0,0,2-4.79,2.88,2.88,0,0,0-4,0,2.81,2.81,0,0,0,2,4.79Z"/><path class="cls-19" d="M117.16,129.25c0,.57.72,1,1.61,1s1.6-.47,1.6-1-.72-1-1.6-1S117.16,128.68,117.16,129.25Z"/><g class="cls-20"><path class="cls-18" d="M116.54,128.92a2.94,2.94,0,0,0,1.84,3.21,3.44,3.44,0,0,0,2.91-.39,2.81,2.81,0,0,1-2.61,1.78,2.83,2.83,0,0,1-2.81-2.81A2.74,2.74,0,0,1,116.54,128.92Z"/></g><path class="cls-18" d="M113.13,134.38a2.82,2.82,0,0,0,2.81-2.82,2.79,2.79,0,0,0-.82-2,2.9,2.9,0,0,0-4,0,2.82,2.82,0,0,0,2,4.8Z"/><path class="cls-19" d="M111.62,130.1c0,.58.71,1,1.6,1s1.6-.46,1.6-1-.72-1-1.6-1S111.62,129.53,111.62,130.1Z"/><g class="cls-20"><path class="cls-18" d="M111,129.77a3,3,0,0,0,1.85,3.22,3.42,3.42,0,0,0,2.9-.4,2.65,2.65,0,0,1-.62,1,2.83,2.83,0,0,1-2,.83,2.83,2.83,0,0,1-2.81-2.82A2.81,2.81,0,0,1,111,129.77Z"/></g><path class="cls-18" d="M107.49,135.25a2.82,2.82,0,0,0,2-.82,2.86,2.86,0,0,0,.82-2,2.82,2.82,0,0,0-.82-2,2.91,2.91,0,0,0-4,0,2.78,2.78,0,0,0-.82,2,2.8,2.8,0,0,0,2.81,2.81Z"/><path class="cls-19" d="M106,131c0,.57.72,1,1.6,1s1.6-.47,1.6-1-.71-1-1.6-1S106,130.41,106,131Z"/><g class="cls-20"><path class="cls-18" d="M105.35,130.65a2.92,2.92,0,0,0,1.84,3.21,3.44,3.44,0,0,0,2.91-.39,2.88,2.88,0,0,1-.62,1,2.81,2.81,0,0,1-4.8-2A2.76,2.76,0,0,1,105.35,130.65Z"/></g><path class="cls-18" d="M101.87,135.78a2.81,2.81,0,0,0,2-4.79,2.89,2.89,0,0,0-4,0,2.81,2.81,0,0,0,2,4.79Z"/><path class="cls-19" d="M100.35,131.51c0,.57.72,1,1.6,1s1.6-.46,1.6-1-.71-1-1.6-1S100.35,130.94,100.35,131.51Z"/><g class="cls-20"><path class="cls-18" d="M99.72,131.18a2.94,2.94,0,0,0,1.85,3.21,3.45,3.45,0,0,0,2.91-.39,2.81,2.81,0,0,1-2.61,1.78,2.79,2.79,0,0,1-2.15-4.6Z"/></g><path class="cls-18" d="M96.27,136.23a2.8,2.8,0,0,0,2.81-2.81,2.82,2.82,0,0,0-.82-2,2.9,2.9,0,0,0-4,0,2.74,2.74,0,0,0-.83,2,2.78,2.78,0,0,0,.83,2A2.82,2.82,0,0,0,96.27,136.23Z"/><path class="cls-19" d="M94.75,132c0,.57.72,1,1.61,1s1.6-.47,1.6-1-.72-1-1.6-1S94.75,131.39,94.75,132Z"/><g class="cls-20"><path class="cls-18" d="M94.13,131.63A2.94,2.94,0,0,0,96,134.84a3.44,3.44,0,0,0,2.91-.39,3,3,0,0,1-.62,1,2.86,2.86,0,0,1-2,.82,2.82,2.82,0,0,1-2-.82,2.77,2.77,0,0,1-.16-3.78Z"/></g><path class="cls-18" d="M90.57,136.56a2.83,2.83,0,0,0,2-.83,2.78,2.78,0,0,0,.82-2,2.82,2.82,0,0,0-.82-2,2.9,2.9,0,0,0-4,0,2.83,2.83,0,0,0-.83,2,2.83,2.83,0,0,0,2.81,2.81Z"/><path class="cls-19" d="M89.06,132.29c0,.57.71,1,1.6,1s1.6-.46,1.6-1-.72-1-1.6-1S89.06,131.72,89.06,132.29Z"/><g class="cls-20"><path class="cls-18" d="M88.43,132a3,3,0,0,0,1.85,3.22,3.39,3.39,0,0,0,2.9-.4,2.65,2.65,0,0,1-.62,1,2.83,2.83,0,0,1-2,.83,2.83,2.83,0,0,1-2.81-2.81A2.84,2.84,0,0,1,88.43,132Z"/></g><path class="cls-18" d="M85.05,136.86a2.81,2.81,0,0,0,2-4.79,2.88,2.88,0,0,0-4,0,2.81,2.81,0,0,0,2,4.79Z"/><path class="cls-19" d="M83.54,132.59c0,.57.71,1,1.6,1s1.6-.46,1.6-1-.72-1-1.6-1S83.54,132,83.54,132.59Z"/><g class="cls-20"><path class="cls-18" d="M82.91,132.26a2.94,2.94,0,0,0,1.84,3.21,3.44,3.44,0,0,0,2.91-.39A2.7,2.7,0,0,1,87,136a2.83,2.83,0,0,1-2,.83,2.79,2.79,0,0,1-2.14-4.6Z"/></g><path class="cls-18" d="M79.38,136.89a2.82,2.82,0,0,0,2-.82,2.86,2.86,0,0,0,.82-2,2.82,2.82,0,0,0-.82-2,2.9,2.9,0,0,0-4,0,2.79,2.79,0,0,0-.83,2,2.83,2.83,0,0,0,.83,2A2.78,2.78,0,0,0,79.38,136.89Z"/><path class="cls-19" d="M77.86,132.62c0,.57.72,1,1.61,1s1.6-.47,1.6-1-.72-1-1.6-1S77.86,132.05,77.86,132.62Z"/><g class="cls-20"><path class="cls-18" d="M77.24,132.29a2.94,2.94,0,0,0,1.84,3.21,3.44,3.44,0,0,0,2.91-.39,3,3,0,0,1-.62,1,2.82,2.82,0,0,1-2,.82,2.78,2.78,0,0,1-2-.82,2.83,2.83,0,0,1-.83-2A2.76,2.76,0,0,1,77.24,132.29Z"/></g><path class="cls-18" d="M73.72,136.89a2.81,2.81,0,0,0,2-4.79,2.91,2.91,0,0,0-4,0,2.79,2.79,0,0,0-.83,2,2.83,2.83,0,0,0,.83,2A2.79,2.79,0,0,0,73.72,136.89Z"/><path class="cls-19" d="M72.21,132.62c0,.57.72,1,1.6,1s1.6-.47,1.6-1-.71-1-1.6-1S72.21,132.05,72.21,132.62Z"/><g class="cls-20"><path class="cls-18" d="M71.58,132.29a2.94,2.94,0,0,0,1.85,3.21,3.42,3.42,0,0,0,2.9-.39,2.8,2.8,0,0,1-.61,1,2.84,2.84,0,0,1-2,.82,2.79,2.79,0,0,1-2-.82,2.77,2.77,0,0,1-.16-3.78Z"/></g><path class="cls-18" d="M33.8,82.63a2,2,0,0,1-1.45-.6,2,2,0,1,1,2.89-2.88,2,2,0,0,1-1.44,3.48Z"/><path class="cls-19" d="M34.9,79.53c0,.42-.52.75-1.16.75s-1.16-.33-1.16-.75.52-.75,1.16-.75S34.9,79.11,34.9,79.53Z"/><g class="cls-20"><path class="cls-18" d="M35.36,79.29A2.15,2.15,0,0,1,34,81.62a2.52,2.52,0,0,1-2.12-.28,2.42,2.42,0,0,0,.45.69,2,2,0,0,0,1.45.6,2,2,0,0,0,1.56-3.34Z"/></g><path class="cls-18" d="M37.54,84.29a2,2,0,0,1-1.45-3.48,2.1,2.1,0,0,1,2.89,0,2,2,0,0,1-1.44,3.48Z"/><path class="cls-19" d="M38.64,81.19c0,.41-.52.75-1.16.75s-1.17-.34-1.17-.75.52-.75,1.17-.75S38.64,80.77,38.64,81.19Z"/><g class="cls-20"><path class="cls-18" d="M39.1,81a2.15,2.15,0,0,1-1.35,2.33A2.5,2.5,0,0,1,35.64,83a2,2,0,0,0,1.9,1.29,2,2,0,0,0,2-2A2,2,0,0,0,39.1,81Z"/></g><path class="cls-18" d="M41.46,85.44a2.09,2.09,0,0,1-1.45-.6A2.05,2.05,0,0,1,40,82a2.1,2.1,0,0,1,2.89,0,2,2,0,0,1,0,2.88A2,2,0,0,1,41.46,85.44Z"/><path class="cls-19" d="M42.56,82.34c0,.41-.52.75-1.16.75s-1.17-.34-1.17-.75.52-.75,1.17-.75S42.56,81.92,42.56,82.34Z"/><g class="cls-20"><path class="cls-18" d="M43,82.1a2.15,2.15,0,0,1-1.35,2.33,2.47,2.47,0,0,1-2.11-.29,2,2,0,0,0,.45.7,2.09,2.09,0,0,0,1.45.6,2,2,0,0,0,1.44-.6,2,2,0,0,0,.6-1.44A2,2,0,0,0,43,82.1Z"/></g><path class="cls-18" d="M45.43,86.33a2,2,0,0,1-1.44-.6,2,2,0,0,1,0-2.88,2.12,2.12,0,0,1,2.89,0,2,2,0,0,1-1.45,3.48Z"/><path class="cls-19" d="M46.54,83.23c0,.42-.53.75-1.17.75s-1.16-.33-1.16-.75.52-.75,1.16-.75S46.54,82.82,46.54,83.23Z"/><g class="cls-20"><path class="cls-18" d="M47,83a2.12,2.12,0,0,1-1.34,2.33A2.5,2.5,0,0,1,43.54,85a1.88,1.88,0,0,0,.45.69,2,2,0,0,0,2.89,0,2,2,0,0,0,.6-1.44A2,2,0,0,0,47,83Z"/></g><path class="cls-18" d="M49.46,87a2,2,0,0,1-1.44-.6,2,2,0,0,1,0-2.88,2.12,2.12,0,0,1,2.89,0,2,2,0,0,1,0,2.88A2,2,0,0,1,49.46,87Z"/><path class="cls-19" d="M50.57,83.85c0,.42-.53.75-1.17.75s-1.16-.33-1.16-.75.52-.75,1.16-.75S50.57,83.44,50.57,83.85Z"/><g class="cls-20"><path class="cls-18" d="M51,83.61a2.12,2.12,0,0,1-1.34,2.33,2.5,2.5,0,0,1-2.11-.28,1.88,1.88,0,0,0,.45.69,2,2,0,0,0,2.89,0,2,2,0,0,0,.6-1.44A2,2,0,0,0,51,83.61Z"/></g><path class="cls-18" d="M53.57,87.59a2,2,0,0,1-1.45-3.48,2.1,2.1,0,0,1,2.89,0A2,2,0,0,1,55,87,2,2,0,0,1,53.57,87.59Z"/><path class="cls-19" d="M54.67,84.49c0,.41-.52.75-1.17.75s-1.16-.34-1.16-.75.52-.75,1.16-.75S54.67,84.07,54.67,84.49Z"/><g class="cls-20"><path class="cls-18" d="M55.12,84.25a2.13,2.13,0,0,1-1.34,2.33,2.5,2.5,0,0,1-2.11-.28,2.06,2.06,0,0,0,.45.69,2,2,0,0,0,3.49-1.44A2,2,0,0,0,55.12,84.25Z"/></g><path class="cls-18" d="M57.65,88a2,2,0,0,1-2-2,2,2,0,0,1,3.48-1.44,2,2,0,0,1,.6,1.44,2,2,0,0,1-.6,1.44A2,2,0,0,1,57.65,88Z"/><path class="cls-19" d="M58.75,84.87c0,.42-.52.75-1.16.75s-1.16-.33-1.16-.75.52-.75,1.16-.75S58.75,84.46,58.75,84.87Z"/><g class="cls-20"><path class="cls-18" d="M59.21,84.63A2.15,2.15,0,0,1,57.87,87a2.56,2.56,0,0,1-2.12-.29,2.17,2.17,0,0,0,.45.69,2.05,2.05,0,0,0,1.45.61,2,2,0,0,0,1.44-.61,2,2,0,0,0,.6-1.44A2,2,0,0,0,59.21,84.63Z"/></g><path class="cls-18" d="M61.72,88.3a2,2,0,0,1-1.45-3.48,2.12,2.12,0,0,1,2.89,0,2,2,0,0,1,0,2.88A2,2,0,0,1,61.72,88.3Z"/><path class="cls-19" d="M62.82,85.2c0,.42-.52.75-1.16.75s-1.17-.33-1.17-.75.52-.75,1.17-.75S62.82,84.79,62.82,85.2Z"/><g class="cls-20"><path class="cls-18" d="M63.27,85a2.13,2.13,0,0,1-1.34,2.33A2.5,2.5,0,0,1,59.82,87a2,2,0,0,0,.45.69,2,2,0,0,0,1.45.6,2,2,0,0,0,1.44-.6,2,2,0,0,0,.6-1.44A2,2,0,0,0,63.27,85Z"/></g><path class="cls-18" d="M65.86,88.54a2.07,2.07,0,0,1-1.45-.6,2,2,0,0,1,0-2.88,2.1,2.1,0,0,1,2.89,0,2,2,0,0,1-1.44,3.48Z"/><path class="cls-19" d="M67,85.44c0,.41-.52.75-1.17.75s-1.16-.34-1.16-.75.52-.75,1.16-.75S67,85,67,85.44Z"/><g class="cls-20"><path class="cls-18" d="M67.41,85.2a2.13,2.13,0,0,1-1.34,2.33A2.47,2.47,0,0,1,64,87.24a2,2,0,0,0,.45.7,2,2,0,0,0,2.89,0,2,2,0,0,0,.6-1.44A2,2,0,0,0,67.41,85.2Z"/></g><path class="cls-18" d="M69.87,88.76a2.09,2.09,0,0,1-1.45-.6,2.05,2.05,0,0,1,0-2.88,2.1,2.1,0,0,1,2.89,0,2,2,0,0,1-1.44,3.48Z"/><path class="cls-19" d="M71,85.66c0,.41-.52.75-1.16.75s-1.17-.34-1.17-.75.52-.76,1.17-.76S71,85.24,71,85.66Z"/><g class="cls-20"><path class="cls-18" d="M71.42,85.41a2.14,2.14,0,0,1-1.34,2.34A2.47,2.47,0,0,1,68,87.46a2,2,0,0,0,.45.7,2.09,2.09,0,0,0,1.45.6,2,2,0,0,0,1.55-3.35Z"/></g><path class="cls-18" d="M118.32,82.6a2,2,0,0,0,1.44-.6,2,2,0,0,0,0-2.88,2.1,2.1,0,0,0-2.89,0,2,2,0,0,0,1.45,3.48Z"/><path class="cls-19" d="M117.21,79.5c0,.41.53.75,1.17.75s1.16-.34,1.16-.75-.52-.75-1.16-.75S117.21,79.08,117.21,79.5Z"/><g class="cls-20"><path class="cls-18" d="M116.76,79.26a2.13,2.13,0,0,0,1.34,2.33,2.5,2.5,0,0,0,2.11-.28,2.06,2.06,0,0,1-.45.69,2,2,0,0,1-2.89,0,2,2,0,0,1-.6-1.44A2,2,0,0,1,116.76,79.26Z"/></g><path class="cls-18" d="M114.58,84.26a2,2,0,0,0,1.45-.6,2,2,0,1,0-2.89-2.88,2,2,0,0,0,1.44,3.48Z"/><path class="cls-19" d="M113.48,81.16c0,.41.52.75,1.16.75s1.16-.34,1.16-.75-.52-.75-1.16-.75S113.48,80.74,113.48,81.16Z"/><g class="cls-20"><path class="cls-18" d="M113,80.92a2.15,2.15,0,0,0,1.34,2.33,2.49,2.49,0,0,0,2.11-.28,2.19,2.19,0,0,1-.44.69,2,2,0,0,1-1.45.6A2,2,0,0,1,113,80.92Z"/></g><path class="cls-18" d="M110.66,85.41a2,2,0,0,0,1.44-3.48,2.08,2.08,0,0,0-2.88,0,2,2,0,0,0,0,2.88A2,2,0,0,0,110.66,85.41Z"/><path class="cls-19" d="M109.56,82.31c0,.41.52.75,1.16.75s1.16-.34,1.16-.75-.52-.75-1.16-.75S109.56,81.89,109.56,82.31Z"/><g class="cls-20"><path class="cls-18" d="M109.1,82.07a2.13,2.13,0,0,0,1.34,2.33,2.47,2.47,0,0,0,2.11-.29,2,2,0,0,1-.45.7,2,2,0,0,1-2.88,0,2,2,0,0,1-.12-2.74Z"/></g><path class="cls-18" d="M106.68,86.3a2,2,0,0,0,1.45-3.48,2.12,2.12,0,0,0-2.89,0,2,2,0,0,0,0,2.88A2,2,0,0,0,106.68,86.3Z"/><path class="cls-19" d="M105.58,83.2c0,.42.52.75,1.17.75s1.16-.33,1.16-.75-.52-.75-1.16-.75S105.58,82.79,105.58,83.2Z"/><g class="cls-20"><path class="cls-18" d="M105.13,83a2.12,2.12,0,0,0,1.34,2.33,2.5,2.5,0,0,0,2.11-.28,2,2,0,0,1-.45.69,2,2,0,0,1-3-2.74Z"/></g><path class="cls-18" d="M102.65,86.92a2,2,0,0,0,1.45-3.48,2.12,2.12,0,0,0-2.89,0,2,2,0,0,0,0,2.88A2,2,0,0,0,102.65,86.92Z"/><path class="cls-19" d="M101.55,83.82c0,.42.52.75,1.17.75s1.16-.33,1.16-.75-.52-.75-1.16-.75S101.55,83.41,101.55,83.82Z"/><g class="cls-20"><path class="cls-18" d="M101.1,83.58a2.13,2.13,0,0,0,1.34,2.33,2.5,2.5,0,0,0,2.11-.28,1.88,1.88,0,0,1-.45.69,2,2,0,0,1-1.45.6,2,2,0,0,1-1.44-.6,2,2,0,0,1-.6-1.44A2,2,0,0,1,101.1,83.58Z"/></g><path class="cls-18" d="M98.55,87.56A2,2,0,0,0,100,84.08a2.1,2.1,0,0,0-2.89,0,2,2,0,0,0,1.44,3.48Z"/><path class="cls-19" d="M97.45,84.46c0,.41.52.75,1.16.75s1.17-.34,1.17-.75-.52-.75-1.17-.75S97.45,84,97.45,84.46Z"/><g class="cls-20"><path class="cls-18" d="M97,84.22a2.16,2.16,0,0,0,1.34,2.33,2.52,2.52,0,0,0,2.12-.28,2,2,0,0,1-1.9,1.29,2,2,0,0,1-2-2A2,2,0,0,1,97,84.22Z"/></g><path class="cls-18" d="M94.47,88a2.07,2.07,0,0,0,2-2,2.06,2.06,0,0,0-.6-1.44,2.1,2.1,0,0,0-2.88,0,2,2,0,0,0,0,2.88A2,2,0,0,0,94.47,88Z"/><path class="cls-19" d="M93.37,84.84c0,.42.52.75,1.16.75s1.16-.33,1.16-.75-.52-.75-1.16-.75S93.37,84.43,93.37,84.84Z"/><g class="cls-20"><path class="cls-18" d="M92.91,84.6a2.14,2.14,0,0,0,1.34,2.34,2.54,2.54,0,0,0,2.11-.29,1.88,1.88,0,0,1-.45.69,2,2,0,0,1-1.44.61,2.08,2.08,0,0,1-2-2A2,2,0,0,1,92.91,84.6Z"/></g><path class="cls-18" d="M90.4,88.27a2,2,0,0,0,1.45-3.48,2.12,2.12,0,0,0-2.89,0,2,2,0,0,0,1.44,3.48Z"/><path class="cls-19" d="M89.3,85.17c0,.41.52.75,1.16.75s1.17-.34,1.17-.75-.52-.75-1.17-.75S89.3,84.75,89.3,85.17Z"/><g class="cls-20"><path class="cls-18" d="M88.84,84.93a2.15,2.15,0,0,0,1.34,2.33A2.52,2.52,0,0,0,92.3,87a2.11,2.11,0,0,1-.45.69,2,2,0,0,1-1.45.6,2,2,0,0,1-2-2A2,2,0,0,1,88.84,84.93Z"/></g><path class="cls-18" d="M86.26,88.51a2.09,2.09,0,0,0,1.45-.6,2.05,2.05,0,0,0,0-2.88,2.1,2.1,0,0,0-2.89,0,2,2,0,0,0,0,2.88A2,2,0,0,0,86.26,88.51Z"/><path class="cls-19" d="M85.16,85.41c0,.41.52.75,1.16.75s1.17-.34,1.17-.75-.52-.75-1.17-.75S85.16,85,85.16,85.41Z"/><g class="cls-20"><path class="cls-18" d="M84.7,85.16a2.16,2.16,0,0,0,1.35,2.34,2.47,2.47,0,0,0,2.11-.29,2,2,0,0,1-.45.7,2.09,2.09,0,0,1-1.45.6,2,2,0,0,1-1.44-.6,2,2,0,0,1-.6-1.44A2.09,2.09,0,0,1,84.7,85.16Z"/></g><path class="cls-18" d="M82.25,88.73a2.09,2.09,0,0,0,1.45-.6,2.05,2.05,0,0,0,0-2.88,2.1,2.1,0,0,0-2.89,0,2,2,0,0,0,0,2.88A2,2,0,0,0,82.25,88.73Z"/><path class="cls-19" d="M81.15,85.63c0,.41.52.75,1.16.75s1.17-.34,1.17-.75-.53-.76-1.17-.76S81.15,85.21,81.15,85.63Z"/><g class="cls-20"><path class="cls-18" d="M80.69,85.38A2.15,2.15,0,0,0,82,87.72a2.49,2.49,0,0,0,2.12-.29,2.33,2.33,0,0,1-.45.7,2.09,2.09,0,0,1-1.45.6,2,2,0,0,1-1.44-.6,2,2,0,0,1-.6-1.44A2.09,2.09,0,0,1,80.69,85.38Z"/></g><path class="cls-18" d="M78.13,88.75a2,2,0,0,0,1.45-3.48,2.12,2.12,0,0,0-2.89,0,2,2,0,0,0,1.44,3.48Z"/><path class="cls-19" d="M77,85.65c0,.42.52.75,1.16.75s1.16-.33,1.16-.75-.52-.75-1.16-.75S77,85.24,77,85.65Z"/><g class="cls-20"><path class="cls-18" d="M76.57,85.41a2.13,2.13,0,0,0,1.34,2.33A2.52,2.52,0,0,0,80,87.46a2.29,2.29,0,0,1-.45.69,2.06,2.06,0,0,1-1.45.6,2,2,0,0,1-1.56-3.34Z"/></g><path class="cls-18" d="M74,88.75a2,2,0,0,0,1.45-3.48,2.12,2.12,0,0,0-2.89,0A2,2,0,0,0,74,88.75Z"/><path class="cls-19" d="M72.92,85.65c0,.42.52.75,1.16.75s1.17-.33,1.17-.75-.53-.75-1.17-.75S72.92,85.24,72.92,85.65Z"/><g class="cls-20"><path class="cls-18" d="M72.46,85.41a2.14,2.14,0,0,0,1.34,2.33,2.52,2.52,0,0,0,2.12-.28,2.11,2.11,0,0,1-.45.69,2,2,0,0,1-1.45.6,2,2,0,0,1-2-2A2,2,0,0,1,72.46,85.41Z"/></g><path class="cls-18" d="M14.07,180.68a2.85,2.85,0,0,1-2-.83,2.82,2.82,0,0,1-.82-2,2.86,2.86,0,0,1,.82-2,2.91,2.91,0,0,1,4,0,2.83,2.83,0,0,1,.83,2,2.83,2.83,0,0,1-2.81,2.81Z"/><path class="cls-19" d="M15.58,176.41c0,.57-.72,1-1.6,1s-1.6-.46-1.6-1,.71-1,1.6-1S15.58,175.84,15.58,176.41Z"/><g class="cls-20"><path class="cls-18" d="M16.21,176.08a2.94,2.94,0,0,1-1.85,3.21,3.41,3.41,0,0,1-2.91-.4,2.78,2.78,0,0,0,.62,1,2.85,2.85,0,0,0,2,.83,2.79,2.79,0,0,0,2.14-4.6Z"/></g><path class="cls-18" d="M17.7,184.72a2.82,2.82,0,0,1-2.81-2.81,2.86,2.86,0,0,1,.82-2,2.91,2.91,0,0,1,4,0,2.82,2.82,0,0,1,.82,2,2.78,2.78,0,0,1-.82,2A2.83,2.83,0,0,1,17.7,184.72Z"/><path class="cls-19" d="M19.22,180.45c0,.57-.72,1-1.6,1s-1.6-.46-1.6-1,.71-1,1.6-1S19.22,179.88,19.22,180.45Z"/><g class="cls-20"><path class="cls-18" d="M19.84,180.12A2.92,2.92,0,0,1,18,183.33a3.44,3.44,0,0,1-2.91-.39,2.8,2.8,0,0,0,4.6.95,2.78,2.78,0,0,0,.82-2A2.74,2.74,0,0,0,19.84,180.12Z"/></g><path class="cls-18" d="M22.85,187A2.8,2.8,0,0,1,20,184.19a2.78,2.78,0,0,1,.82-2,2.9,2.9,0,0,1,4,0,2.79,2.79,0,0,1,.83,2,2.83,2.83,0,0,1-.83,2A2.78,2.78,0,0,1,22.85,187Z"/><path class="cls-19" d="M24.36,182.73c0,.57-.71,1-1.6,1s-1.6-.47-1.6-1,.72-1,1.6-1S24.36,182.16,24.36,182.73Z"/><g class="cls-20"><path class="cls-18" d="M25,182.4a2.94,2.94,0,0,1-1.85,3.21,3.42,3.42,0,0,1-2.9-.39A2.77,2.77,0,0,0,22.85,187a2.78,2.78,0,0,0,2-.82A2.77,2.77,0,0,0,25,182.4Z"/></g><path class="cls-18" d="M28.24,188.58a2.82,2.82,0,0,1-2-.82,2.86,2.86,0,0,1-.82-2,2.82,2.82,0,0,1,.82-2,2.91,2.91,0,0,1,4,0,2.78,2.78,0,0,1,.82,2,2.8,2.8,0,0,1-2.81,2.81Z"/><path class="cls-19" d="M29.76,184.31c0,.57-.72,1-1.6,1s-1.6-.47-1.6-1,.71-1,1.6-1S29.76,183.74,29.76,184.31Z"/><g class="cls-20"><path class="cls-18" d="M30.39,184a2.94,2.94,0,0,1-1.85,3.21,3.45,3.45,0,0,1-2.91-.39,2.88,2.88,0,0,0,.62,1A2.81,2.81,0,0,0,30.39,184Z"/></g><path class="cls-18" d="M33.71,189.81a2.81,2.81,0,0,1-2-4.79,2.91,2.91,0,0,1,4,0,2.79,2.79,0,0,1,.83,2,2.82,2.82,0,0,1-2.82,2.81Z"/><path class="cls-19" d="M35.23,185.54c0,.57-.72,1-1.6,1s-1.6-.47-1.6-1,.71-1,1.6-1S35.23,185,35.23,185.54Z"/><g class="cls-20"><path class="cls-18" d="M35.86,185.21A2.94,2.94,0,0,1,34,188.42,3.45,3.45,0,0,1,31.1,188a2.88,2.88,0,0,0,.62,1,2.83,2.83,0,0,0,2,.82,2.79,2.79,0,0,0,2.15-4.6Z"/></g><path class="cls-18" d="M39.26,190.67a2.81,2.81,0,0,1-2-4.8,2.91,2.91,0,0,1,4,0,2.82,2.82,0,0,1-2,4.8Z"/><path class="cls-19" d="M40.78,186.4c0,.57-.72,1-1.61,1s-1.6-.46-1.6-1,.72-1,1.6-1S40.78,185.83,40.78,186.4Z"/><g class="cls-20"><path class="cls-18" d="M41.4,186.06a3,3,0,0,1-1.84,3.22,3.44,3.44,0,0,1-2.91-.4,2.78,2.78,0,0,0,.62,1,2.8,2.8,0,0,0,4,0,2.78,2.78,0,0,0,.15-3.78Z"/></g><path class="cls-18" d="M44.91,191.54a2.81,2.81,0,0,1-2-4.79,2.9,2.9,0,0,1,4,0,2.81,2.81,0,0,1-2,4.79Z"/><path class="cls-19" d="M46.42,187.27c0,.58-.71,1-1.6,1s-1.6-.46-1.6-1,.72-1,1.6-1S46.42,186.7,46.42,187.27Z"/><g class="cls-20"><path class="cls-18" d="M47.05,186.94a3,3,0,0,1-1.85,3.22,3.43,3.43,0,0,1-2.9-.4,2.65,2.65,0,0,0,.62,1,2.82,2.82,0,0,0,2,.82,2.78,2.78,0,0,0,2-.82,2.77,2.77,0,0,0,.16-3.78Z"/></g><path class="cls-18" d="M50.53,192.07a2.82,2.82,0,0,1-2-.82,2.86,2.86,0,0,1-.82-2,2.82,2.82,0,0,1,.82-2,2.9,2.9,0,0,1,4,0,2.79,2.79,0,0,1,.83,2,2.83,2.83,0,0,1-.83,2A2.78,2.78,0,0,1,50.53,192.07Z"/><path class="cls-19" d="M52,187.8c0,.57-.71,1-1.6,1s-1.6-.47-1.6-1,.72-1,1.6-1S52,187.23,52,187.8Z"/><g class="cls-20"><path class="cls-18" d="M52.67,187.47a2.94,2.94,0,0,1-1.84,3.21,3.44,3.44,0,0,1-2.91-.39,3,3,0,0,0,.62,1,2.82,2.82,0,0,0,2,.82,2.78,2.78,0,0,0,2-.82,2.77,2.77,0,0,0,.16-3.78Z"/></g><path class="cls-18" d="M56.13,192.52a2.78,2.78,0,0,1-2.81-2.81,2.81,2.81,0,0,1,.81-2,2.91,2.91,0,0,1,4,0,2.79,2.79,0,0,1,.83,2,2.83,2.83,0,0,1-.83,2A2.79,2.79,0,0,1,56.13,192.52Z"/><path class="cls-19" d="M57.64,188.25c0,.57-.72,1-1.6,1s-1.6-.47-1.6-1,.72-1,1.6-1S57.64,187.68,57.64,188.25Z"/><g class="cls-20"><path class="cls-18" d="M58.27,187.92a2.94,2.94,0,0,1-1.85,3.21,3.45,3.45,0,0,1-2.91-.39,2.88,2.88,0,0,0,.62,1,2.84,2.84,0,0,0,2,.82,2.79,2.79,0,0,0,2-.82,2.77,2.77,0,0,0,.16-3.78Z"/></g><path class="cls-18" d="M61.82,192.85a2.81,2.81,0,0,1-2-4.79,2.89,2.89,0,0,1,4,0,2.8,2.8,0,0,1,0,4A2.83,2.83,0,0,1,61.82,192.85Z"/><path class="cls-19" d="M63.34,188.58c0,.57-.72,1-1.6,1s-1.61-.46-1.61-1,.72-1,1.61-1S63.34,188,63.34,188.58Z"/><g class="cls-20"><path class="cls-18" d="M64,188.25a2.94,2.94,0,0,1-1.84,3.21,3.44,3.44,0,0,1-2.91-.39,2.8,2.8,0,0,0,4.6,1,2.78,2.78,0,0,0,.82-2A2.74,2.74,0,0,0,64,188.25Z"/></g><path class="cls-18" d="M67.34,193.15a2.81,2.81,0,0,1-2-4.79,2.89,2.89,0,0,1,4,0,2.8,2.8,0,0,1,0,4A2.81,2.81,0,0,1,67.34,193.15Z"/><path class="cls-19" d="M68.86,188.88c0,.57-.72,1-1.6,1s-1.6-.46-1.6-1,.71-1,1.6-1S68.86,188.31,68.86,188.88Z"/><g class="cls-20"><path class="cls-18" d="M69.49,188.55a2.94,2.94,0,0,1-1.85,3.21,3.45,3.45,0,0,1-2.91-.39,2.81,2.81,0,0,0,2.61,1.78,2.81,2.81,0,0,0,2-.83,2.78,2.78,0,0,0,.16-3.77Z"/></g><path class="cls-18" d="M137.66,180.64a2.83,2.83,0,0,0,2-.83,2.81,2.81,0,0,0,0-4,2.9,2.9,0,0,0-4,0,2.82,2.82,0,0,0,2,4.8Z"/><path class="cls-19" d="M136.15,176.37c0,.57.72,1,1.6,1s1.6-.46,1.6-1-.72-1-1.6-1S136.15,175.79,136.15,176.37Z"/><g class="cls-20"><path class="cls-18" d="M135.52,176a3,3,0,0,0,1.85,3.22,3.42,3.42,0,0,0,2.9-.4,2.65,2.65,0,0,1-.62,1,2.83,2.83,0,0,1-2,.83,2.83,2.83,0,0,1-2.81-2.81A2.84,2.84,0,0,1,135.52,176Z"/></g><path class="cls-18" d="M134,184.68a2.85,2.85,0,0,0,2-.83,2.81,2.81,0,0,0,.81-2,2.85,2.85,0,0,0-.81-2,2.91,2.91,0,0,0-4,0,2.83,2.83,0,0,0-.83,2,2.83,2.83,0,0,0,2.81,2.81Z"/><path class="cls-19" d="M132.51,180.41c0,.57.72,1,1.6,1s1.6-.46,1.6-1-.71-1-1.6-1S132.51,179.83,132.51,180.41Z"/><g class="cls-20"><path class="cls-18" d="M131.88,180.07a3,3,0,0,0,1.85,3.22,3.42,3.42,0,0,0,2.9-.4,2.62,2.62,0,0,1-.61,1,2.85,2.85,0,0,1-2,.83,2.83,2.83,0,0,1-2.81-2.81A2.84,2.84,0,0,1,131.88,180.07Z"/></g><path class="cls-18" d="M128.88,187a2.81,2.81,0,0,0,2-4.79,2.88,2.88,0,0,0-4,0,2.81,2.81,0,0,0,2,4.79Z"/><path class="cls-19" d="M127.36,182.69c0,.57.72,1,1.61,1s1.6-.46,1.6-1-.72-1-1.6-1S127.36,182.12,127.36,182.69Z"/><g class="cls-20"><path class="cls-18" d="M126.74,182.36a2.94,2.94,0,0,0,1.84,3.21,3.44,3.44,0,0,0,2.91-.39,2.81,2.81,0,0,1-2.61,1.78,2.83,2.83,0,0,1-2.81-2.81A2.74,2.74,0,0,1,126.74,182.36Z"/></g><path class="cls-18" d="M123.48,188.54a2.81,2.81,0,0,0,2-4.79,2.91,2.91,0,0,0-4,0,2.81,2.81,0,0,0,2,4.79Z"/><path class="cls-19" d="M122,184.27c0,.57.72,1,1.6,1s1.6-.47,1.6-1-.72-1-1.6-1S122,183.7,122,184.27Z"/><g class="cls-20"><path class="cls-18" d="M121.34,183.94a2.94,2.94,0,0,0,1.85,3.21,3.42,3.42,0,0,0,2.9-.39,2.77,2.77,0,0,1-2.61,1.78,2.83,2.83,0,0,1-2.81-2.81A2.81,2.81,0,0,1,121.34,183.94Z"/></g><path class="cls-18" d="M118,189.77a2.83,2.83,0,0,0,2-.83,2.8,2.8,0,0,0,0-4,2.88,2.88,0,0,0-4,0,2.81,2.81,0,0,0,2,4.79Z"/><path class="cls-19" d="M116.5,185.5c0,.57.71,1,1.6,1s1.6-.47,1.6-1-.72-1-1.6-1S116.5,184.93,116.5,185.5Z"/><g class="cls-20"><path class="cls-18" d="M115.87,185.17a2.94,2.94,0,0,0,1.85,3.21,3.42,3.42,0,0,0,2.9-.39,2.7,2.7,0,0,1-.62.95,2.83,2.83,0,0,1-2,.83,2.79,2.79,0,0,1-2.14-4.6Z"/></g><path class="cls-18" d="M112.47,190.63a2.81,2.81,0,0,0,2-4.8,2.91,2.91,0,0,0-4,0,2.82,2.82,0,0,0,2,4.8Z"/><path class="cls-19" d="M111,186.35c0,.58.72,1,1.6,1s1.6-.46,1.6-1-.71-1-1.6-1S111,185.78,111,186.35Z"/><g class="cls-20"><path class="cls-18" d="M110.33,186a2.94,2.94,0,0,0,1.84,3.22,3.45,3.45,0,0,0,2.91-.4,2.78,2.78,0,0,1-.62,1,2.81,2.81,0,0,1-4.8-2A2.76,2.76,0,0,1,110.33,186Z"/></g><path class="cls-18" d="M106.82,191.5a2.82,2.82,0,0,0,2-.82,2.86,2.86,0,0,0,.82-2,2.82,2.82,0,0,0-.82-2,2.9,2.9,0,0,0-4,0,2.79,2.79,0,0,0-.83,2,2.83,2.83,0,0,0,.83,2A2.78,2.78,0,0,0,106.82,191.5Z"/><path class="cls-19" d="M105.3,187.23c0,.57.72,1,1.61,1s1.6-.47,1.6-1-.72-1-1.6-1S105.3,186.66,105.3,187.23Z"/><g class="cls-20"><path class="cls-18" d="M104.68,186.9a2.94,2.94,0,0,0,1.84,3.21,3.44,3.44,0,0,0,2.91-.39,2.88,2.88,0,0,1-.62,1,2.82,2.82,0,0,1-2,.82,2.78,2.78,0,0,1-2-.82,2.83,2.83,0,0,1-.83-2A2.76,2.76,0,0,1,104.68,186.9Z"/></g><path class="cls-18" d="M101.2,192a2.81,2.81,0,0,0,2-4.79,2.89,2.89,0,0,0-4,0,2.8,2.8,0,0,0,0,4A2.83,2.83,0,0,0,101.2,192Z"/><path class="cls-19" d="M99.68,187.76c0,.57.72,1,1.61,1s1.6-.46,1.6-1-.72-1-1.6-1S99.68,187.19,99.68,187.76Z"/><g class="cls-20"><path class="cls-18" d="M99.06,187.43a2.94,2.94,0,0,0,1.84,3.21,3.44,3.44,0,0,0,2.91-.39,2.8,2.8,0,0,1-4.6.95,2.78,2.78,0,0,1-.82-2A2.74,2.74,0,0,1,99.06,187.43Z"/></g><path class="cls-18" d="M95.6,192.48a2.86,2.86,0,0,0,2-.82,2.82,2.82,0,0,0,.82-2,2.78,2.78,0,0,0-.82-2,2.9,2.9,0,0,0-4,0,2.79,2.79,0,0,0-.83,2,2.82,2.82,0,0,0,2.81,2.81Z"/><path class="cls-19" d="M94.09,188.21c0,.57.71,1,1.6,1s1.6-.47,1.6-1-.72-1-1.6-1S94.09,187.64,94.09,188.21Z"/><g class="cls-20"><path class="cls-18" d="M93.46,187.88a2.94,2.94,0,0,0,1.85,3.21,3.42,3.42,0,0,0,2.9-.39,2.83,2.83,0,0,1-.62,1,2.86,2.86,0,0,1-2,.82,2.79,2.79,0,0,1-2.14-4.6Z"/></g><path class="cls-18" d="M89.91,192.81a2.81,2.81,0,0,0,2-4.8,2.91,2.91,0,0,0-4,0,2.83,2.83,0,0,0-.83,2,2.83,2.83,0,0,0,2.82,2.81Z"/><path class="cls-19" d="M88.39,188.54c0,.57.72,1,1.6,1s1.6-.46,1.6-1-.71-1-1.6-1S88.39,188,88.39,188.54Z"/><g class="cls-20"><path class="cls-18" d="M87.76,188.2a3,3,0,0,0,1.85,3.22,3.41,3.41,0,0,0,2.91-.4,2.78,2.78,0,0,1-.62,1,2.84,2.84,0,0,1-2,.83A2.83,2.83,0,0,1,87.09,190,2.84,2.84,0,0,1,87.76,188.2Z"/></g><path class="cls-18" d="M84.38,193.11a2.85,2.85,0,0,0,2-.83,2.82,2.82,0,0,0,0-4,2.89,2.89,0,0,0-4,0,2.81,2.81,0,0,0,2,4.79Z"/><path class="cls-19" d="M82.87,188.84c0,.57.72,1,1.6,1s1.6-.46,1.6-1-.71-1-1.6-1S82.87,188.27,82.87,188.84Z"/><g class="cls-20"><path class="cls-18" d="M82.24,188.51a2.94,2.94,0,0,0,1.85,3.21,3.45,3.45,0,0,0,2.91-.39,2.81,2.81,0,0,1-2.62,1.78,2.79,2.79,0,0,1-2.14-4.6Z"/></g><path class="cls-18" d="M78.71,193.14a2.8,2.8,0,0,0,2.81-2.81,2.78,2.78,0,0,0-.82-2,2.9,2.9,0,0,0-4,0,2.79,2.79,0,0,0-.83,2,2.83,2.83,0,0,0,.83,2A2.78,2.78,0,0,0,78.71,193.14Z"/><path class="cls-19" d="M77.2,188.87c0,.57.71,1,1.6,1s1.6-.47,1.6-1-.72-1-1.6-1S77.2,188.3,77.2,188.87Z"/><g class="cls-20"><path class="cls-18" d="M76.57,188.54a2.94,2.94,0,0,0,1.85,3.21,3.42,3.42,0,0,0,2.9-.39,2.77,2.77,0,0,1-2.61,1.78,2.78,2.78,0,0,1-2-.82,2.77,2.77,0,0,1-.16-3.78Z"/></g><path class="cls-18" d="M73.06,193.14a2.82,2.82,0,0,0,2-.82,2.86,2.86,0,0,0,.82-2,2.82,2.82,0,0,0-.82-2,2.91,2.91,0,0,0-4,0,2.78,2.78,0,0,0-.82,2,2.8,2.8,0,0,0,2.81,2.81Z"/><path class="cls-19" d="M71.54,188.87c0,.57.72,1,1.6,1s1.61-.47,1.61-1-.72-1-1.61-1S71.54,188.3,71.54,188.87Z"/><g class="cls-20"><path class="cls-18" d="M70.92,188.54a2.93,2.93,0,0,0,1.84,3.21,3.44,3.44,0,0,0,2.91-.39,3,3,0,0,1-.62,1,2.81,2.81,0,0,1-4.8-2A2.76,2.76,0,0,1,70.92,188.54Z"/></g><path class="cls-21" d="M43.45,115.78c-1,2.76-4,2.94-5.62,4.87a4.45,4.45,0,0,0-1,2.32A3.3,3.3,0,0,0,37.7,126a3.41,3.41,0,0,0,1.79.71,3,3,0,0,1-.68-1.64,7.38,7.38,0,0,1,0-1.82,6.92,6.92,0,0,1,.37-1.74,3,3,0,0,1,1-1.42,6,6,0,0,1,1.31-.61,2.69,2.69,0,0,0,1.19-.82A3.76,3.76,0,0,0,43.45,115.78Z"/><path class="cls-19" d="M41.59,119.29c-.62.4-2,.9-2.54,1.38a3.73,3.73,0,0,0,0,6,3.52,3.52,0,0,0,3.32.13,3.43,3.43,0,0,1-1.57-1.36,3,3,0,0,1-.27-1.39,3.41,3.41,0,0,1,.68-2.22c.52-.58,1.32-.83,1.87-1.38a3.22,3.22,0,0,0,.83-2.25,5.68,5.68,0,0,0-.11-1.09c0-.2-.36-1.35-.36-1.35A3.65,3.65,0,0,1,41.59,119.29Z"/><path class="cls-21" d="M41,127.28a7.24,7.24,0,0,0,4.87.51,16.81,16.81,0,0,1-5-3.18,3.77,3.77,0,0,1-.6-.66c-.4-.61.6-2.13,1.26-2.72.95-.86,2.27-1.47,2.25-3.46,0,0-.24,1.55-3.32,3.14C37.61,122.37,38.29,126,41,127.28Z"/><path class="cls-19" d="M43.46,115.88c.23,1.35.72,3.45-1.24,4.53-1.74,1-2.32,1.41-2.48,2.92s.94,3.58,4.49,4.56c1,.27,3.79.63,4.72-.47a10.15,10.15,0,0,1-2.4-.27,10.52,10.52,0,0,1-1.32-.5c-1-.41-4.68-2.19-3.71-4.78.21-.56,1.07-.53,1.61-.79a2.21,2.21,0,0,0,1.31-1.55,3.3,3.3,0,0,0-.21-1.42C44,117.36,43.74,116.62,43.46,115.88Z"/><path class="cls-21" d="M47.37,119.87a8.7,8.7,0,0,0-1.13-.23,2.54,2.54,0,0,1-1.93-1.52,16.53,16.53,0,0,0-.64-1.66c.19.91.17,2,.41,2.91a1.21,1.21,0,0,0,.16.41,1.33,1.33,0,0,0,.26.27,4.55,4.55,0,0,0,2.29,1,2.38,2.38,0,0,0,.84,0C48.16,120.8,48.17,120.17,47.37,119.87Z"/><path class="cls-19" d="M45.85,120.45c1,.37,2.64-.06,3.27.57a1.44,1.44,0,0,1,.32,1.3.54.54,0,0,1-.21.32.42.42,0,0,1-.27,0,9.21,9.21,0,0,1-2.6-.61c-.83-.36-2.11-.79-2.57-1.55,0-.09,0-.91,0-1a3.54,3.54,0,0,1,.18-.92A2.79,2.79,0,0,0,45.85,120.45Z"/><path class="cls-21" d="M50.33,122.75a1.26,1.26,0,0,1-.44,1.44.84.84,0,0,1-.52.09,9.84,9.84,0,0,1-2.1-.29,5.84,5.84,0,0,1-3-1.65,2.23,2.23,0,0,1-.32-3C44.62,122.32,49.77,121.5,50.33,122.75Z"/><path class="cls-19" d="M45.94,123.1a10.58,10.58,0,0,0,4.22.82.91.91,0,0,1,.33.83.25.25,0,0,1-.16.17,2.4,2.4,0,0,1-1.13.12,9.73,9.73,0,0,1-3.2-.67,4.24,4.24,0,0,1-1.78-1.22c-1.12-1.46-.31-3.81-.31-3.81s.15,2.21,1.08,3.12A3.87,3.87,0,0,0,45.94,123.1Z"/><path class="cls-21" d="M44.45,123.1c1.23,1.5,3.3,1.81,6,1.66a2.21,2.21,0,0,1-.4.83.84.84,0,0,1-.26.24,1.19,1.19,0,0,1-.37.06,9.27,9.27,0,0,1-7.17-2.15,1.46,1.46,0,0,1-.16-2.26c.34-.37,1.41-1.87,1.8-2.18A4.38,4.38,0,0,0,44.45,123.1Z"/><path class="cls-21" d="M42.49,121.52a1.74,1.74,0,0,0-.26,1.91c.28.52,2.24,2.85,6.28,3.13a8.16,8.16,0,0,1,1,0c-.35,1.53-2.64,1.16-3.62,1a7.93,7.93,0,0,1-4-2.08c-.52-.49-2.14-2.71.29-4.38a8.4,8.4,0,0,0,1.1-1A8.62,8.62,0,0,1,42.49,121.52Z"/><path class="cls-19" d="M43.14,122c.11,2.49,2.84,4,6.69,3.79a1.34,1.34,0,0,1-.47.88,1.36,1.36,0,0,1-.79.18c-2.23,0-5-.27-6.09-2.19-1.31-2.28.37-4.81,1.49-5.42A5,5,0,0,0,43.14,122Z"/><path class="cls-21" d="M22.59,108.19c-1.16,2.7-4.22,2.68-5.91,4.5a4.54,4.54,0,0,0-1.21,2.25,3.3,3.3,0,0,0,.73,3.12,3.4,3.4,0,0,0,1.73.82,3,3,0,0,1-.56-1.68,6.9,6.9,0,0,1,.16-1.81,6.69,6.69,0,0,1,.48-1.71,3,3,0,0,1,1.13-1.35,5.83,5.83,0,0,1,1.35-.53,2.62,2.62,0,0,0,1.23-.73A3.76,3.76,0,0,0,22.59,108.19Z"/><path class="cls-19" d="M20.51,111.57c-.64.36-2,.77-2.62,1.22a3.73,3.73,0,0,0-.38,6,3.53,3.53,0,0,0,3.31.35,3.5,3.5,0,0,1-1.49-1.46,3.17,3.17,0,0,1-.17-1.4A3.32,3.32,0,0,1,20,114.1c.56-.55,1.37-.75,1.95-1.26a3.16,3.16,0,0,0,1-2.2,5.57,5.57,0,0,0,0-1.08c0-.21-.28-1.38-.28-1.38A3.65,3.65,0,0,1,20.51,111.57Z"/><path class="cls-21" d="M19.4,119.51a7.16,7.16,0,0,0,4.82.82,17,17,0,0,1-4.78-3.49,4.14,4.14,0,0,1-.55-.7c-.37-.64.73-2.09,1.42-2.64,1-.8,2.37-1.32,2.48-3.3,0,0-.34,1.53-3.52,2.91C16.34,114.39,16.79,118.06,19.4,119.51Z"/><path class="cls-19" d="M22.59,108.29c.15,1.36.5,3.49-1.52,4.45-1.8.84-2.41,1.25-2.67,2.75s.71,3.63,4.2,4.83c1,.34,3.73.87,4.74-.16a10.08,10.08,0,0,1-2.38-.43,8.77,8.77,0,0,1-1.29-.58c-.93-.47-4.53-2.48-3.4-5,.25-.55,1.11-.46,1.67-.69a2.21,2.21,0,0,0,1.4-1.47,3.27,3.27,0,0,0-.12-1.42C23,109.8,22.83,109.05,22.59,108.29Z"/><path class="cls-21" d="M26.24,112.53a8.28,8.28,0,0,0-1.11-.31,2.51,2.51,0,0,1-1.83-1.64c-.13-.52-.33-1.14-.53-1.7.13.92,0,2,.22,2.93a1.09,1.09,0,0,0,.14.43,1.49,1.49,0,0,0,.23.28,4.66,4.66,0,0,0,2.23,1.11,2.68,2.68,0,0,0,.84.07C27,113.5,27,112.88,26.24,112.53Z"/><path class="cls-19" d="M24.69,113c1,.43,2.64.1,3.23.78a1.44,1.44,0,0,1,.23,1.31.53.53,0,0,1-.23.3.36.36,0,0,1-.27,0,9.15,9.15,0,0,1-2.56-.78c-.8-.4-2.05-.92-2.46-1.71-.05-.09,0-.9,0-1a3.92,3.92,0,0,1,.24-.9A2.8,2.8,0,0,0,24.69,113Z"/><path class="cls-21" d="M29,115.59a1.27,1.27,0,0,1-.53,1.41.94.94,0,0,1-.53,0,10,10,0,0,1-2.08-.42A5.85,5.85,0,0,1,23,114.79a2.25,2.25,0,0,1-.13-3C23.34,114.79,28.53,114.31,29,115.59Z"/><path class="cls-19" d="M24.61,115.65a10.56,10.56,0,0,0,4.16,1.09.92.92,0,0,1,.27.85c0,.09-.09.13-.17.16a2.31,2.31,0,0,1-1.14,0,10,10,0,0,1-3.14-.87,4.3,4.3,0,0,1-1.7-1.33c-1-1.54-.06-3.82-.06-3.82s0,2.21.87,3.18A3.83,3.83,0,0,0,24.61,115.65Z"/><path class="cls-21" d="M23.12,115.56c1.13,1.57,3.18,2,5.92,2a2.26,2.26,0,0,1-.45.8.85.85,0,0,1-.28.22,1.55,1.55,0,0,1-.37,0,9.29,9.29,0,0,1-7-2.61,1.69,1.69,0,0,1-.52-.89,1.62,1.62,0,0,1,.51-1.37c.36-.36,1.53-1.78,1.93-2.06A4.38,4.38,0,0,0,23.12,115.56Z"/><path class="cls-21" d="M21.27,113.85a1.72,1.72,0,0,0-.38,1.9c.24.54,2,3,6.06,3.52a8.09,8.09,0,0,1,1,.08c-.45,1.5-2.72,1-3.68.72a7.89,7.89,0,0,1-3.84-2.33c-.49-.52-2-2.84.57-4.35a9.49,9.49,0,0,0,1.16-.91A8.75,8.75,0,0,1,21.27,113.85Z"/><path class="cls-19" d="M21.88,114.41c0,2.49,2.58,4.12,6.44,4.21a1.34,1.34,0,0,1-.53.85,1.46,1.46,0,0,1-.8.13c-2.22-.13-5-.59-5.94-2.58-1.16-2.36.68-4.78,1.84-5.32A5.06,5.06,0,0,0,21.88,114.41Z"/><path class="cls-21" d="M70.73,118.2c-.64,2.86-3.66,3.41-5,5.51a4.5,4.5,0,0,0-.77,2.44,3.3,3.3,0,0,0,1.29,2.93,3.42,3.42,0,0,0,1.86.49,3,3,0,0,1-.87-1.55,7.32,7.32,0,0,1-.18-1.81,7.53,7.53,0,0,1,.16-1.77,3.11,3.11,0,0,1,.86-1.54,6.24,6.24,0,0,1,1.24-.76,2.67,2.67,0,0,0,1.07-1A3.79,3.79,0,0,0,70.73,118.2Z"/><path class="cls-19" d="M69.3,121.91c-.56.47-1.83,1.13-2.35,1.67a3.74,3.74,0,0,0,.73,6,3.55,3.55,0,0,0,3.32-.27,3.49,3.49,0,0,1-1.73-1.16,3.15,3.15,0,0,1-.43-1.35,3.33,3.33,0,0,1,.41-2.28c.44-.64,1.2-1,1.68-1.6a3.14,3.14,0,0,0,.55-2.33,5.67,5.67,0,0,0-.23-1.07c-.06-.2-.53-1.3-.53-1.3A3.65,3.65,0,0,1,69.3,121.91Z"/><path class="cls-21" d="M69.67,129.91a7.14,7.14,0,0,0,4.89-.08,16.65,16.65,0,0,1-5.34-2.55,3.37,3.37,0,0,1-.67-.58c-.48-.56.34-2.19.91-2.86.85-1,2.08-1.73,1.83-3.7,0,0-.06,1.56-2.92,3.51C65.73,125.45,66.84,129,69.67,129.91Z"/><path class="cls-19" d="M70.75,118.3c.39,1.31,1.13,3.34-.69,4.65-1.61,1.17-2.13,1.67-2.11,3.2s1.37,3.44,5,4c1,.15,3.83.17,4.63-1a9.8,9.8,0,0,1-2.42,0,10.92,10.92,0,0,1-1.37-.33c-1-.29-4.91-1.61-4.26-4.29.15-.59,1-.66,1.51-1a2.17,2.17,0,0,0,1.11-1.7,3,3,0,0,0-.38-1.37C71.45,119.71,71.12,119,70.75,118.3Z"/><path class="cls-21" d="M75.11,121.79A8.77,8.77,0,0,0,74,121.7a2.54,2.54,0,0,1-2.1-1.28c-.22-.48-.53-1.06-.83-1.57.3.88.41,2,.75,2.84a1.16,1.16,0,0,0,.22.39,1.61,1.61,0,0,0,.28.24,4.64,4.64,0,0,0,2.39.68,2.58,2.58,0,0,0,.84-.09C76,122.62,75.94,122,75.11,121.79Z"/><path class="cls-19" d="M73.67,122.55c1.06.24,2.62-.38,3.32.17a1.47,1.47,0,0,1,.47,1.25.53.53,0,0,1-.17.34.39.39,0,0,1-.26.07,9.14,9.14,0,0,1-2.66-.3c-.86-.25-2.18-.52-2.74-1.23-.06-.07-.13-.89-.17-1a3.91,3.91,0,0,1,.08-.93A2.76,2.76,0,0,0,73.67,122.55Z"/><path class="cls-21" d="M78.4,124.29a1.27,1.27,0,0,1-.26,1.48.91.91,0,0,1-.51.16,10,10,0,0,1-2.12,0,5.9,5.9,0,0,1-3.21-1.27,2.25,2.25,0,0,1-.68-2.94C72.68,124.55,77.69,123.12,78.4,124.29Z"/><path class="cls-19" d="M74.08,125.17a10.49,10.49,0,0,0,4.29.3.93.93,0,0,1,.43.79.25.25,0,0,1-.14.19,2.35,2.35,0,0,1-1.11.25,9.86,9.86,0,0,1-3.25-.27,4.37,4.37,0,0,1-1.92-1c-1.29-1.32-.76-3.75-.76-3.75s.41,2.18,1.44,3A3.93,3.93,0,0,0,74.08,125.17Z"/><path class="cls-21" d="M72.61,125.34c1.39,1.35,3.49,1.41,6.18.93a2.13,2.13,0,0,1-.29.88.72.72,0,0,1-.23.26,1.15,1.15,0,0,1-.36.11,9.32,9.32,0,0,1-7.37-1.27,1.63,1.63,0,0,1-.68-.79,1.6,1.6,0,0,1,.25-1.44c.29-.41,1.17-2,1.52-2.38A4.3,4.3,0,0,0,72.61,125.34Z"/><path class="cls-21" d="M70.47,124a1.72,1.72,0,0,0,0,1.93c.34.49,2.56,2.56,6.61,2.35.35,0,.64-.12,1-.1-.16,1.56-2.48,1.47-3.48,1.38a7.84,7.84,0,0,1-4.2-1.58c-.58-.42-2.46-2.43-.25-4.39a7.72,7.72,0,0,0,1-1.1A8.36,8.36,0,0,1,70.47,124Z"/><path class="cls-19" d="M71.17,124.44c.42,2.47,3.29,3.59,7.11,3a1.41,1.41,0,0,1-.37.94,1.46,1.46,0,0,1-.77.27c-2.2.28-5,.33-6.31-1.45-1.57-2.1-.2-4.82.83-5.56A5.06,5.06,0,0,0,71.17,124.44Z"/><path class="cls-21" d="M128.07,110.11c1,2.77,4,2.94,5.61,4.87a4.46,4.46,0,0,1,1.06,2.32,3.31,3.31,0,0,1-.93,3.07,3.38,3.38,0,0,1-1.78.71,3,3,0,0,0,.67-1.64,9.61,9.61,0,0,0-.41-3.56,3.16,3.16,0,0,0-1-1.42,6.33,6.33,0,0,0-1.32-.61,2.59,2.59,0,0,1-1.18-.81A3.74,3.74,0,0,1,128.07,110.11Z"/><path class="cls-19" d="M129.93,113.62c.61.4,1.95.9,2.54,1.38a3.73,3.73,0,0,1,0,6,3.37,3.37,0,0,1-1.38.46,3.46,3.46,0,0,1-2-.33,3.45,3.45,0,0,0,1.58-1.36,3.11,3.11,0,0,0,.26-1.39,3.26,3.26,0,0,0-.68-2.21c-.52-.58-1.31-.84-1.86-1.39a3.17,3.17,0,0,1-.83-2.25,6.48,6.48,0,0,1,.1-1.08c0-.21.37-1.36.37-1.36A3.63,3.63,0,0,0,129.93,113.62Z"/><path class="cls-21" d="M130.53,121.61a7.24,7.24,0,0,1-4.87.51,16.57,16.57,0,0,0,5-3.18,3.41,3.41,0,0,0,.6-.66c.41-.61-.6-2.13-1.25-2.72-.95-.86-2.28-1.47-2.26-3.45,0,0,.25,1.54,3.33,3.13C133.9,116.7,133.23,120.34,130.53,121.61Z"/><path class="cls-19" d="M128.06,110.21c-.23,1.35-.72,3.45,1.24,4.54,1.74,1,2.31,1.4,2.48,2.92s-.94,3.57-4.5,4.55c-1,.28-3.78.63-4.72-.47a10.3,10.3,0,0,0,2.41-.27,10.52,10.52,0,0,0,1.32-.5c1-.41,4.68-2.19,3.71-4.77-.22-.57-1.07-.54-1.62-.8a2.22,2.22,0,0,1-1.3-1.55,3,3,0,0,1,.21-1.41C127.53,111.69,127.77,111,128.06,110.21Z"/><path class="cls-21" d="M124.15,114.2a8.38,8.38,0,0,1,1.13-.23,2.53,2.53,0,0,0,1.93-1.52c.16-.51.4-1.12.63-1.66-.18.91-.17,2-.4,2.91a1.15,1.15,0,0,1-.17.41,1.29,1.29,0,0,1-.25.27,4.59,4.59,0,0,1-2.3,1,2.63,2.63,0,0,1-.84,0C123.35,115.13,123.35,114.5,124.15,114.2Z"/><path class="cls-19" d="M125.67,114.78c-1,.37-2.65-.06-3.28.58a1.44,1.44,0,0,0-.31,1.29.51.51,0,0,0,.21.32.41.41,0,0,0,.27,0,9.21,9.21,0,0,0,2.6-.61c.82-.35,2.1-.79,2.57-1.55,0-.08,0-.91,0-1a4,4,0,0,0-.19-.92A2.79,2.79,0,0,1,125.67,114.78Z"/><path class="cls-21" d="M121.18,117.08a1.27,1.27,0,0,0,.44,1.44.87.87,0,0,0,.53.09,10,10,0,0,0,2.1-.29,5.92,5.92,0,0,0,3-1.65,2.24,2.24,0,0,0,.31-3C126.9,116.65,121.75,115.83,121.18,117.08Z"/><path class="cls-19" d="M125.57,117.43a10.54,10.54,0,0,1-4.21.82,1,1,0,0,0-.34.83.24.24,0,0,0,.17.17,2.28,2.28,0,0,0,1.13.12,9.87,9.87,0,0,0,3.19-.66,4.29,4.29,0,0,0,1.78-1.23c1.13-1.46.31-3.8.31-3.8s-.15,2.2-1.07,3.11A3.83,3.83,0,0,1,125.57,117.43Z"/><path class="cls-21" d="M127.06,117.43c-1.22,1.5-3.3,1.81-6,1.67a2.2,2.2,0,0,0,.4.83.72.72,0,0,0,.26.23,1.1,1.1,0,0,0,.37.06,9.29,9.29,0,0,0,7.17-2.15,1.6,1.6,0,0,0,.57-.85,1.58,1.58,0,0,0-.42-1.4c-.33-.38-1.41-1.88-1.79-2.19A4.32,4.32,0,0,1,127.06,117.43Z"/><path class="cls-21" d="M129,115.85a1.7,1.7,0,0,1,.26,1.91c-.27.52-2.23,2.85-6.28,3.13a8,8,0,0,0-1,0c.34,1.53,2.64,1.16,3.62,1a7.9,7.9,0,0,0,4-2.08c.53-.49,2.14-2.71-.28-4.38a8.8,8.8,0,0,1-1.11-1A9.45,9.45,0,0,0,129,115.85Z"/><path class="cls-19" d="M128.37,116.36c-.11,2.5-2.83,4-6.69,3.8a1.09,1.09,0,0,0,1.27,1c2.22,0,5-.27,6.09-2.19,1.31-2.28-.37-4.81-1.49-5.42A5,5,0,0,1,128.37,116.36Z"/><path class="cls-17" d="M18.43,111.22a4.92,4.92,0,0,0,1.05,1.66,7.65,7.65,0,0,0,4.28,1.9,7.45,7.45,0,0,0,3.32-3.23,4.89,4.89,0,0,0,.43-1.92,3.54,3.54,0,0,0-1.48-3.2,2.4,2.4,0,0,0-1.71-.18,2.28,2.28,0,0,0-1.52,1.22,3.61,3.61,0,0,0-.16.42,2.11,2.11,0,0,0-.06.29,2.71,2.71,0,0,0-.17-.25,3,3,0,0,0-.28-.34,2.34,2.34,0,0,0-1.85-.64,2.42,2.42,0,0,0-1.55.76A3.52,3.52,0,0,0,18.43,111.22Z"/><path class="cls-22" d="M27.49,110a4.38,4.38,0,0,1-3,1,3.48,3.48,0,0,1-2.77-3.67,2.18,2.18,0,0,1,.43.32,3,3,0,0,1,.28.34,2.71,2.71,0,0,1,.17.25,2.11,2.11,0,0,1,.06-.29,3.61,3.61,0,0,1,.16-.42,2.28,2.28,0,0,1,1.52-1.22,2.4,2.4,0,0,1,1.71.18,3.54,3.54,0,0,1,1.48,3.2C27.51,109.75,27.5,109.87,27.49,110Z"/><path class="cls-23" d="M18.73,107.71a2,2,0,0,1,.5-.4,5.05,5.05,0,0,0,2.05,4.45,6.06,6.06,0,0,0,4.87,1.18,9.64,9.64,0,0,1-2.39,1.84,7.65,7.65,0,0,1-4.28-1.9,4.92,4.92,0,0,1-1.05-1.66A3.52,3.52,0,0,1,18.73,107.71Z"/><path class="cls-22" d="M24.1,107.16c-.07.39.39.8,1,.91s1.2-.13,1.26-.52-.38-.8-1-.91S24.16,106.77,24.1,107.16Z"/><path class="cls-17" d="M39.59,118.47a5.11,5.11,0,0,0,1.06,1.66,7.62,7.62,0,0,0,4.27,1.9,7.53,7.53,0,0,0,3.33-3.23,5.26,5.26,0,0,0,.43-1.92,3.54,3.54,0,0,0-1.48-3.2,2.41,2.41,0,0,0-1.71-.18A2.28,2.28,0,0,0,44,114.72a2.41,2.41,0,0,0-.16.42,2.06,2.06,0,0,0-.07.29,1.53,1.53,0,0,0-.16-.25,2.28,2.28,0,0,0-.29-.34,2.32,2.32,0,0,0-1.84-.64,2.42,2.42,0,0,0-1.55.76A3.55,3.55,0,0,0,39.59,118.47Z"/><path class="cls-22" d="M48.65,117.23a4.36,4.36,0,0,1-3,1,3.5,3.5,0,0,1-2.78-3.67,1.92,1.92,0,0,1,.43.32,2.28,2.28,0,0,1,.29.34,1.53,1.53,0,0,1,.16.25,2.06,2.06,0,0,1,.07-.29,2.41,2.41,0,0,1,.16-.42,2.28,2.28,0,0,1,1.52-1.22,2.41,2.41,0,0,1,1.71.18,3.54,3.54,0,0,1,1.48,3.2Z"/><path class="cls-23" d="M39.9,115a2,2,0,0,1,.5-.4A5.05,5.05,0,0,0,42.45,119a6,6,0,0,0,4.87,1.18,9.7,9.7,0,0,1-2.4,1.84,7.62,7.62,0,0,1-4.27-1.9,5.11,5.11,0,0,1-1.06-1.66A3.55,3.55,0,0,1,39.9,115Z"/><path class="cls-22" d="M45.26,114.41c-.06.39.39.8,1,.91s1.19-.13,1.26-.52-.39-.8-1-.91S45.33,114,45.26,114.41Z"/><path class="cls-17" d="M66.93,121.3A4.83,4.83,0,0,0,68,123a7.58,7.58,0,0,0,4.28,1.9,7.4,7.4,0,0,0,3.32-3.23,4.89,4.89,0,0,0,.43-1.92,3.52,3.52,0,0,0-1.48-3.19,2.35,2.35,0,0,0-1.71-.19,2.3,2.3,0,0,0-1.52,1.23,2.61,2.61,0,0,0-.16.42,2.11,2.11,0,0,0-.06.29,1.8,1.8,0,0,0-.17-.25,1.88,1.88,0,0,0-.28-.34,2.27,2.27,0,0,0-1.85-.64,2.36,2.36,0,0,0-1.55.75A3.52,3.52,0,0,0,66.93,121.3Z"/><path class="cls-22" d="M76,120.07a4.37,4.37,0,0,1-3,1,3.47,3.47,0,0,1-2.77-3.67,2.24,2.24,0,0,1,.43.33,1.88,1.88,0,0,1,.28.34,1.8,1.8,0,0,1,.17.25,2.11,2.11,0,0,1,.06-.29,2.61,2.61,0,0,1,.16-.42,2.3,2.3,0,0,1,1.52-1.23,2.35,2.35,0,0,1,1.71.19A3.52,3.52,0,0,1,76,119.71C76,119.83,76,120,76,120.07Z"/><path class="cls-23" d="M67.23,117.79a2,2,0,0,1,.5-.4,5.05,5.05,0,0,0,2,4.45A6,6,0,0,0,74.65,123a9.64,9.64,0,0,1-2.39,1.84A7.58,7.58,0,0,1,68,123a4.83,4.83,0,0,1-1-1.66A3.52,3.52,0,0,1,67.23,117.79Z"/><path class="cls-22" d="M72.6,117.24c-.07.4.39.8,1,.91s1.2-.12,1.26-.52-.38-.8-1-.91S72.66,116.85,72.6,117.24Z"/><path class="cls-17" d="M133,112.13a4.91,4.91,0,0,1-1.06,1.66,7.62,7.62,0,0,1-4.28,1.91,7.42,7.42,0,0,1-3.32-3.24,4.84,4.84,0,0,1-.43-1.91,3.53,3.53,0,0,1,1.48-3.2,2.31,2.31,0,0,1,1.71-.18,2.26,2.26,0,0,1,1.52,1.22,1.92,1.92,0,0,1,.16.42,2.06,2.06,0,0,1,.07.29,1.53,1.53,0,0,1,.16-.25,1.87,1.87,0,0,1,.29-.34,2.27,2.27,0,0,1,1.84-.64,2.42,2.42,0,0,1,1.55.76A3.53,3.53,0,0,1,133,112.13Z"/><path class="cls-22" d="M124,110.9a4.3,4.3,0,0,0,3,.95,3.47,3.47,0,0,0,2.77-3.67,2.18,2.18,0,0,0-.42.33,1.87,1.87,0,0,0-.29.34,1.53,1.53,0,0,0-.16.25,2.06,2.06,0,0,0-.07-.29,1.92,1.92,0,0,0-.16-.42,2.26,2.26,0,0,0-1.52-1.22,2.31,2.31,0,0,0-1.71.18,3.53,3.53,0,0,0-1.48,3.2C123.94,110.67,124,110.78,124,110.9Z"/><path class="cls-23" d="M132.72,108.63a2,2,0,0,0-.5-.41,5.08,5.08,0,0,1-2.05,4.46,6.08,6.08,0,0,1-4.87,1.18,9.64,9.64,0,0,0,2.39,1.84,7.62,7.62,0,0,0,4.28-1.91,4.91,4.91,0,0,0,1.06-1.66A3.53,3.53,0,0,0,132.72,108.63Z"/><path class="cls-22" d="M127.36,108.08c.06.39-.39.8-1,.9s-1.2-.12-1.26-.52.39-.8,1-.9S127.29,107.68,127.36,108.08Z"/><path class="cls-21" d="M103.86,116c.79,2.83,3.83,3.21,5.28,5.24a4.48,4.48,0,0,1,.9,2.39,3.3,3.3,0,0,1-1.13,3,3.54,3.54,0,0,1-1.83.59,3,3,0,0,0,.78-1.6,7.33,7.33,0,0,0,.08-1.81,7,7,0,0,0-.26-1.77,3,3,0,0,0-.94-1.48,5.8,5.8,0,0,0-1.27-.7,2.68,2.68,0,0,1-1.13-.89A3.78,3.78,0,0,1,103.86,116Z"/><path class="cls-19" d="M105.48,119.61c.59.44,1.89,1,2.44,1.55a3.72,3.72,0,0,1-.4,6,3.53,3.53,0,0,1-3.33-.09,3.37,3.37,0,0,0,1.66-1.25,3.07,3.07,0,0,0,.36-1.37,3.33,3.33,0,0,0-.53-2.25c-.48-.62-1.26-.93-1.77-1.51a3.2,3.2,0,0,1-.68-2.3,6.44,6.44,0,0,1,.17-1.07c0-.21.46-1.33.46-1.33A3.64,3.64,0,0,0,105.48,119.61Z"/><path class="cls-21" d="M105.55,127.62a7.16,7.16,0,0,1-4.89.19,16.84,16.84,0,0,0,5.19-2.84,3.42,3.42,0,0,0,.64-.62c.45-.58-.45-2.17-1.07-2.8-.89-.92-2.17-1.62-2-3.6,0,0,.14,1.56,3.11,3.35C109.24,123,108.33,126.53,105.55,127.62Z"/><path class="cls-19" d="M103.84,116.09c-.32,1.32-.94,3.39.94,4.6,1.67,1.08,2.22,1.56,2.28,3.08s-1.17,3.51-4.79,4.25c-1,.21-3.81.37-4.68-.78a10.29,10.29,0,0,0,2.42-.11,12.38,12.38,0,0,0,1.35-.41c1-.35,4.82-1.88,4-4.52-.18-.58-1-.61-1.56-.9a2.24,2.24,0,0,1-1.2-1.64,3.14,3.14,0,0,1,.31-1.4C103.22,117.53,103.51,116.8,103.84,116.09Z"/><path class="cls-21" d="M99.68,119.81a8.46,8.46,0,0,1,1.14-.16,2.54,2.54,0,0,0,2-1.38,16.41,16.41,0,0,1,.74-1.62c-.25.89-.3,2-.6,2.88a1.23,1.23,0,0,1-.19.4,1.27,1.27,0,0,1-.27.25,4.61,4.61,0,0,1-2.35.81,2.67,2.67,0,0,1-.85,0C98.82,120.69,98.86,120.06,99.68,119.81Z"/><path class="cls-19" d="M101.15,120.49c-1,.3-2.63-.24-3.3.35a1.45,1.45,0,0,0-.4,1.28.51.51,0,0,0,.19.33.45.45,0,0,0,.26,0,9,9,0,0,0,2.64-.44c.84-.3,2.15-.65,2.66-1.38.06-.08.09-.9.12-1a3.63,3.63,0,0,0-.12-.93A2.79,2.79,0,0,1,101.15,120.49Z"/><path class="cls-21" d="M96.53,122.49a1.25,1.25,0,0,0,.34,1.46.92.92,0,0,0,.52.13,10.65,10.65,0,0,0,2.11-.15,6,6,0,0,0,3.14-1.45,2.24,2.24,0,0,0,.51-3C102.26,122.43,97.17,121.28,96.53,122.49Z"/><path class="cls-19" d="M100.88,123.12a10.35,10.35,0,0,1-4.26.54,1,1,0,0,0-.39.81c0,.09.09.14.16.18a2.35,2.35,0,0,0,1.12.2,9.79,9.79,0,0,0,3.23-.46,4.29,4.29,0,0,0,1.86-1.1c1.22-1.39.56-3.78.56-3.78s-.3,2.2-1.28,3A3.66,3.66,0,0,1,100.88,123.12Z"/><path class="cls-21" d="M102.37,123.22c-1.32,1.42-3.41,1.59-6.13,1.27a2.24,2.24,0,0,0,.34.85.85.85,0,0,0,.25.25,1.12,1.12,0,0,0,.36.09,9.3,9.3,0,0,0,7.3-1.67,1.65,1.65,0,0,0,.63-.82,1.61,1.61,0,0,0-.33-1.42c-.31-.4-1.28-2-1.64-2.3A4.33,4.33,0,0,1,102.37,123.22Z"/><path class="cls-21" d="M104.43,121.78a1.71,1.71,0,0,1,.13,1.92c-.31.5-2.41,2.69-6.47,2.71-.35,0-.64-.09-1-.06.24,1.55,2.56,1.34,3.55,1.2a7.9,7.9,0,0,0,4.11-1.81c.55-.45,2.32-2.56,0-4.39a8.53,8.53,0,0,1-1-1A8.57,8.57,0,0,0,104.43,121.78Z"/><path class="cls-19" d="M103.75,122.24c-.28,2.49-3.09,3.76-6.93,3.35a1.1,1.1,0,0,0,1.2,1.14c2.21.16,5,.06,6.22-1.79,1.45-2.18-.06-4.82-1.13-5.51A5,5,0,0,1,103.75,122.24Z"/><path class="cls-17" d="M108.69,119.13a4.88,4.88,0,0,1-1,1.66,7.65,7.65,0,0,1-4.28,1.91,7.42,7.42,0,0,1-3.32-3.24,4.84,4.84,0,0,1-.43-1.91,3.55,3.55,0,0,1,1.47-3.2,2.33,2.33,0,0,1,1.72-.18,2.26,2.26,0,0,1,1.52,1.22,1.9,1.9,0,0,1,.15.42,1.23,1.23,0,0,1,.07.29c0-.09.12-.18.16-.25a3.24,3.24,0,0,1,.29-.34,2.3,2.3,0,0,1,1.85-.64,2.42,2.42,0,0,1,1.55.76A3.5,3.5,0,0,1,108.69,119.13Z"/><path class="cls-22" d="M99.63,117.9a4.32,4.32,0,0,0,3,.95,3.47,3.47,0,0,0,2.77-3.67,2.24,2.24,0,0,0-.43.33,3.24,3.24,0,0,0-.29.34c0,.07-.11.16-.16.25a1.23,1.23,0,0,0-.07-.29,1.9,1.9,0,0,0-.15-.42,2.26,2.26,0,0,0-1.52-1.22,2.33,2.33,0,0,0-1.72.18,3.55,3.55,0,0,0-1.47,3.2C99.61,117.67,99.62,117.78,99.63,117.9Z"/><path class="cls-23" d="M108.39,115.63a2.19,2.19,0,0,0-.5-.41,5.11,5.11,0,0,1-2,4.46,6.09,6.09,0,0,1-4.87,1.18,9.64,9.64,0,0,0,2.39,1.84,7.65,7.65,0,0,0,4.28-1.91,4.88,4.88,0,0,0,1-1.66A3.5,3.5,0,0,0,108.39,115.63Z"/><path class="cls-22" d="M103,115.08c.07.39-.39.8-1,.9s-1.19-.12-1.26-.52.39-.8,1-.9S103,114.68,103,115.08Z"/><path class="cls-17" d="M110.64,50.69a32,32,0,0,1-5.5,12.24C99.71,70.39,90,76.18,76.78,80.56c-13.2-4.38-22.52-10.17-27.95-17.63a32.12,32.12,0,0,1-5.49-12.24c-1.64-7.91-.52-17.53,6.6-23A18.41,18.41,0,0,1,62,24.51a17.05,17.05,0,0,1,12.46,6.38,15.28,15.28,0,0,1,1.64,2.59A12.85,12.85,0,0,1,77,35.34a14,14,0,0,1,.85-1.86,15.33,15.33,0,0,1,1.65-2.59,17.05,17.05,0,0,1,12.45-6.38A18.42,18.42,0,0,1,104,27.73C111.16,33.16,112.28,42.78,110.64,50.69Z"/><path class="cls-23" d="M76.78,77.61c-12.23-4.2-20.57-9.51-25.46-16.23a29.3,29.3,0,0,1-5-11.21c-1.4-6.7-.67-15.55,5.56-20.3a14.68,14.68,0,0,1,8.78-2.64c.4,0,.79,0,1.18,0A14,14,0,0,1,72.05,32.5a12.69,12.69,0,0,1,1.36,2.15l.2.38a8.34,8.34,0,0,1,.5,1.08L77,45.51l2.85-9.42A8.1,8.1,0,0,1,80.37,35l.2-.37a12.17,12.17,0,0,1,1.35-2.14,14,14,0,0,1,10.25-5.24c.39,0,.78,0,1.18,0a14.71,14.71,0,0,1,8.78,2.64c6.22,4.75,7,13.6,5.56,20.3a29.47,29.47,0,0,1-5,11.21C97.92,67.89,89.21,73.35,76.78,77.61Z"/><line class="cls-24" x1="114.18" y1="19" x2="109.43" y2="76.75"/><line class="cls-24" x1="38.85" y1="19" x2="43.6" y2="76.75"/><polygon class="cls-17" points="129.66 22.69 108.04 22.69 108.04 6.44 129.66 6.44 123.1 14.5 129.66 22.69"/><polygon class="cls-23" points="115.75 14.97 108.04 22.69 108.02 16.92 115.75 14.97"/><polygon class="cls-17" points="24.85 22.69 46.47 22.69 46.47 6.44 24.85 6.44 31.41 14.5 24.85 22.69"/><polygon class="cls-23" points="38.76 14.97 46.47 22.69 46.49 16.92 38.76 14.97"/><path class="cls-17" d="M115.75,15a109,109,0,0,1-77.06,0L44.35,0A93,93,0,0,0,110.1,0Z"/><text class="cls-25" transform="translate(45.58 11.98) rotate(15.77)">H</text><text class="cls-25" transform="matrix(0.98, 0.22, -0.22, 0.98, 52.19, 13.81)">a</text><text class="cls-25" transform="translate(56.83 14.84) rotate(10.05)">p</text><text class="cls-25" transform="translate(61.26 15.62) rotate(7.59)">p</text><text class="cls-25" transform="translate(65.71 16.21) rotate(5.16)">y</text><text class="cls-25" transform="translate(70.04 16.58) rotate(3.28)"> </text><text class="cls-25" transform="translate(72.59 16.75) rotate(1.11)">E</text><text class="cls-25" transform="translate(77.99 16.84) rotate(-1.57)">v</text><text class="cls-25" transform="translate(82.34 16.71) rotate(-3.76)">e</text><text class="cls-25" transform="translate(85.98 16.47) rotate(-5.63)">r</text><text class="cls-25" transform="translate(89.13 16.15) rotate(-7.18)"> </text><text class="cls-25" transform="translate(91.69 15.86) rotate(-9.58)">A</text><text class="cls-25" transform="translate(97.78 14.8) rotate(-12.07)">f</text><text class="cls-25" transform="matrix(0.97, -0.23, 0.23, 0.97, 100.54, 14.2)">t</text><text class="cls-25" transform="translate(103.01 13.62) rotate(-15.21)">e</text><text class="cls-25" transform="matrix(0.96, -0.29, 0.29, 0.96, 106.54, 12.65)">r</text><path class="cls-26" d="M68.54,26a5.24,5.24,0,0,1,6.29,3.48c2.42,6-.33,19.41-.33,19.41a40.33,40.33,0,0,1-13.8-.54S57.59,22.54,68.54,26Z"/><path class="cls-27" d="M72,40.52s-.66-.05-.6,1.49.21,10.2,1.14,11.81,8.08,3.5,8.08,3.5l.53-1.25c-1.59-.19-5.59-3.36-6.31-3.55-.34-.63-.69-9.29-.84-10.21A2.29,2.29,0,0,0,72,40.52Z"/><path class="cls-27" d="M96.27,59s.42,4.18-.34,5.11c-.35.43-2,.13-2,.13s.18-.42.4-.48a2.52,2.52,0,0,0,1-.92,4.21,4.21,0,0,0-.16-1.09,1.21,1.21,0,0,0-.63.73c-.1.48-.36.7-.4.58s0-4,0-4Z"/><polygon class="cls-2" points="93.63 57.85 93.77 59.89 96.78 59.81 97.03 57.48 93.63 57.85"/><path class="cls-28" d="M87.35,83.81l-.15,0a15.58,15.58,0,0,1-5.62,0c-.4-10.54-1.7-23.55-.55-27.07l5.59-1.37.41-.12.22-.06v.12Z"/><path class="cls-29" d="M87.52,83.81l-.15,0-.68-.08c-.27-8.49-.19-18.1.1-28.37v-.23l.41.11.22.06Z"/><path class="cls-28" d="M93.74,56.42C94.85,61,93.62,73,93,83.86a23.48,23.48,0,0,1-6,0c-.2-8.69-.13-18.35.11-28.6Z"/><path class="cls-28" d="M94.58,37.09a2.68,2.68,0,0,1,1.23,2.06,118.52,118.52,0,0,1,1.32,13.52c0,1.91-.06,6.34-.06,6.34l-3.59.29-.74-8s-.38-10.08-.11-11.29A9,9,0,0,1,94.58,37.09Z"/><path class="cls-27" d="M77.74,59.15s-.51,4.17.23,5.11c.34.44,2,.18,2,.18s-.16-.43-.38-.49a2.48,2.48,0,0,1-1-1,4.5,4.5,0,0,1,.18-1.08,1.21,1.21,0,0,1,.62.74c.09.48.34.71.39.59s0-4,0-4Z"/><polygon class="cls-2" points="80.4 58.02 80.22 60.04 77.21 59.91 77.01 57.57 80.4 58.02"/><path class="cls-28" d="M79.85,37.46a2.63,2.63,0,0,0-1.27,2A120.46,120.46,0,0,0,77,53c0,1.9-.06,6-.06,6l3.57.36.91-7.59s.6-10.07.36-11.29A9,9,0,0,0,79.85,37.46Z"/><path class="cls-19" d="M88.91,34.7a4.43,4.43,0,0,0,1.16.55,35.66,35.66,0,0,1,4.31,1.82c.31.28,0,1.79-.11,2.4,0,.32-1.57,3.52-1.66,5s.47,13.17.47,13.17l-11-.31s.32-8.4.26-9.2a51.17,51.17,0,0,0-1.12-7.53C80.9,40,80,37.69,80,37.69l4.71-3Z"/><rect class="cls-2" x="86.42" y="36.05" width="1" height="12.88"/><g class="cls-30"><path class="cls-31" d="M87.25,37.67a.32.32,0,0,1-.32.32.32.32,0,1,1,0-.64A.32.32,0,0,1,87.25,37.67Z"/><path class="cls-31" d="M87.25,39.94a.32.32,0,0,1-.32.32.32.32,0,0,1-.32-.32.33.33,0,0,1,.32-.32A.32.32,0,0,1,87.25,39.94Z"/><path class="cls-31" d="M87.25,42.22a.32.32,0,0,1-.32.32.32.32,0,1,1,0-.64A.32.32,0,0,1,87.25,42.22Z"/></g><path class="cls-31" d="M94.55,39.48c.07-.6.33-2.11,0-2.39a36.91,36.91,0,0,0-4.33-1.77c-.16.78-.29,1.57-.47,2.36s-2.55,11-2.62,11S85.62,41.51,85,40a16.4,16.4,0,0,1-1.28-4.8l-4,2.28s.73,2.37,1,3,.42,5.48.57,7.64c.06.8-.65,9.53-.65,9.53A42.85,42.85,0,0,0,94,57.6s-1.18-11.75-1.1-13.19S94.52,39.81,94.55,39.48Z"/><path class="cls-32" d="M89.41,52.82A11.32,11.32,0,0,1,81,54.29c-.14,1.83-.26,3.35-.26,3.35A42.85,42.85,0,0,0,94,57.6s-.67-6.64-1-10.55A9.94,9.94,0,0,1,89.41,52.82Z"/><path class="cls-28" d="M85,33.92l-2.85,2.2.51,4.55a12.21,12.21,0,0,1,1.71,0c0,.07-.37,6.61-.37,6.61l3.1,1.35c-.65-3.23-2.49-10.29-3.38-13.45Z"/><path class="cls-28" d="M88.74,34l3.38,2-.62,4.13-1.19,0-.26,6.61-2.89,2S90,38.53,90.1,35.32A3.57,3.57,0,0,1,88.74,34Z"/><path class="cls-27" d="M85.14,31.73s0,2.3-.13,2.93a7.36,7.36,0,0,0,3.66.05l-.09-4.63Z"/><path class="cls-33" d="M88.64,33.31l-.06-3.23-3.17,1.51C85.93,33.49,87.39,33.33,88.64,33.31Z"/><path class="cls-27" d="M70.71,45.71a9.14,9.14,0,0,0-.32,2.79H65a12.73,12.73,0,0,0,0-2.58c-.17-.3-1.66-5-1.77-5.36.28-.37,2.07-.51,2.07-.51a2.22,2.22,0,0,0,1.53-1.3A14.28,14.28,0,0,0,67,35.16l2.69,0s-.19,2.24-.14,3.13a2.06,2.06,0,0,0,1,1.7,13.57,13.57,0,0,1,1.71.61C72.23,40.74,71.08,44.89,70.71,45.71Z"/><path class="cls-33" d="M67.74,35.17a5.17,5.17,0,0,0,.62,2.66,2,2,0,0,0,1.19.81c0-.11,0-.22,0-.33,0-.89.14-3.13.14-3.13Z"/><path class="cls-34" d="M70.52,27.11s1.2-2.85-.87-3.8c-1.42-.65-3.75-.17-3.94,1.48a3.14,3.14,0,0,0,.59,2.37Z"/><path class="cls-27" d="M64.58,31.55A5.62,5.62,0,0,0,65,34a9.56,9.56,0,0,0,.84,1.65c.43.53,1.61,1.73,2.6,1.64A4.4,4.4,0,0,0,72,34.26c.75-2.18-.54-5.68-2.37-6.19C68.11,27.64,64.78,28.17,64.58,31.55Z"/><path class="cls-33" d="M69.64,28.07a3.92,3.92,0,0,0-.75-.12c-.06,3.11-.12,6.23-.15,9.34a4.46,4.46,0,0,0,3.27-3C72.76,32.08,71.47,28.58,69.64,28.07Z"/><path class="cls-27" d="M72.06,32.75a.81.81,0,0,1,1-.2c.27.13.3.53.28.73a1.1,1.1,0,0,1-.41.66,2.8,2.8,0,0,1-.49.36,1.21,1.21,0,0,1-.44.18.6.6,0,0,1-.45-.08Z"/><path class="cls-27" d="M65,32.74a.78.78,0,0,0-.94-.28c-.29.11-.35.51-.34.71a1.12,1.12,0,0,0,.35.69,3.47,3.47,0,0,0,.46.4,1.38,1.38,0,0,0,.42.21.62.62,0,0,0,.46,0Z"/><path class="cls-34" d="M64.79,33.28s-.13-3.94,5.06-4.24a9.19,9.19,0,0,1,2.34,3.57s2-3.89-1.3-5.8c-2.18-1.26-5.2-.69-6.29,1.53A5.61,5.61,0,0,0,64.79,33.28Z"/><path class="cls-19" d="M67,26.77a.5.5,0,1,1-.5-.5A.5.5,0,0,1,67,26.77Z"/><path class="cls-19" d="M67.89,26.55a.51.51,0,0,1-.5.5.5.5,0,0,1-.5-.5.5.5,0,0,1,.5-.5A.5.5,0,0,1,67.89,26.55Z"/><path class="cls-19" d="M68.83,26.47a.5.5,0,0,1-.5.5.51.51,0,0,1-.5-.5.5.5,0,0,1,.5-.5A.5.5,0,0,1,68.83,26.47Z"/><path class="cls-19" d="M69.77,26.5a.5.5,0,1,1-1,0,.5.5,0,1,1,1,0Z"/><path class="cls-19" d="M70.69,26.75a.5.5,0,0,1-.5.5.51.51,0,0,1-.5-.5.5.5,0,0,1,.5-.5A.5.5,0,0,1,70.69,26.75Z"/><path class="cls-19" d="M79.16,83.19c-6,1.19-17.52,1-23.38-.21-.58-1.57-.79-12.35,2.79-23.16,1.5-4.53,5.6-9.37,5.94-10.91a15.18,15.18,0,0,0,.33-2.85,16.8,16.8,0,0,0-.6-2.25c-.43-1.33.06-3.44,0-3.62.38-.16,1.32-.21,1.66-.4a9.83,9.83,0,0,0,2.21,2.09,8.07,8.07,0,0,0,2.16-2.06,1.48,1.48,0,0,0,.3.19c.44.19.8.14.8.26a10.89,10.89,0,0,1-.07,3.9c-.22.69-.38,1.34-.5,1.59-.33.72,0,2.74,0,3.21.27,1.12,3.89,4.48,5.23,8C80.06,67.45,79.16,83.19,79.16,83.19Z"/><path class="cls-6" d="M70.84,49c0-.26-.14-1-.17-1.74a8.19,8.19,0,0,1-5.89,0c-.1.81-.27,1.68-.27,1.68a5.71,5.71,0,0,1-.6,1.31,10.36,10.36,0,0,0,7.63,0A4.47,4.47,0,0,1,70.84,49Z"/><path class="cls-27" d="M64.24,40.19a2.07,2.07,0,0,0-1.88,1.4C61.79,43,58.75,51.23,59,53.08s5.67,6.24,5.67,6.24l1-.93c-1.39-.81-3.82-5.42-4.4-5.89.53-1,3.06-8.48,3.06-8.48,0-.35-.39-1.44-.61-2.59C63.61,41.12,64.28,40.52,64.24,40.19Z"/><path class="cls-17" d="M69.61,58.59a.32.32,0,0,1,0-.14c0-.05,0-.1,0-.15v0a.28.28,0,0,1,0-.09,1.55,1.55,0,0,0,0-.23l0-.1-.08-.1s-.05-.06,0-.08,0,0,.07,0l.12,0h.13l.13,0a.51.51,0,0,1,.17.07.39.39,0,0,1,.11.06l0,0,0,0,.13.1a1.47,1.47,0,0,1,.1.13h0a.22.22,0,0,1,0,.08l0,.07h0a.41.41,0,0,1,0,.11v.07a.2.2,0,0,1,0,.07.39.39,0,0,1,0,.14.17.17,0,0,1,0,.05s0,0,0,0l-.06,0,0,0,0,0s0,0,0,0h0l0,0h-.09l-.06,0h-.12l-.09,0-.07,0-.06-.05A.39.39,0,0,1,69.61,58.59Z"/><path class="cls-17" d="M68.33,58.19a.69.69,0,0,1,.24-.24h0l.08-.06,0,0h0l0,0,.12-.09.13-.06a.35.35,0,0,1,.14,0,.07.07,0,0,1,.08,0,.07.07,0,0,1,0,.05.11.11,0,0,1,0,0l0,.1V58a.57.57,0,0,0,0,.13v0h0v.14c0,.09,0,.18,0,.26h0s0,.05,0,.07v.05h0l0,0,0,0h0l0,0-.09,0h-.38a.07.07,0,0,1,0,0l0-.07-.06,0,0-.06a.47.47,0,0,1,0-.1.49.49,0,0,1,0-.2A.68.68,0,0,1,68.33,58.19Z"/><path class="cls-17" d="M69.29,56.58a.66.66,0,0,1,0,.14.77.77,0,0,0,0,.15v0s0,.06,0,.09a1.77,1.77,0,0,0,0,.23s0,.07,0,.11a.3.3,0,0,0,.06.11.13.13,0,0,1,0,.1s0,0-.09,0l-.11,0h-.07l0,0h0a.34.34,0,0,1-.12-.06l-.15-.11-.09-.08,0,0,0,0a.64.64,0,0,1-.1-.13l-.07-.14h0l0-.09a.24.24,0,0,1,0-.08h0a.41.41,0,0,1,0-.11s0,0,0-.06l0-.07a.75.75,0,0,1,.06-.13l0,0,0,0h.07l0,0,0,0,.06,0h.12l0,0h0l.06,0,.07,0,0,0,.08,0a.1.1,0,0,1,.06,0l0,.06A.42.42,0,0,1,69.29,56.58Z"/><path class="cls-17" d="M70.31,58,70.19,58l-.13-.08h0l0,0h0l0,0-.25-.11h-.06l-.08,0-.14,0s-.07,0-.08,0,0,0,0,0,0,0,0,0l.2-.14h0l0,0,0,0,.16-.09.12,0,.06,0h.06a1.4,1.4,0,0,1,.36,0h.17l0,0h0l0,0h0l0,0a.87.87,0,0,1,.19.23v0s0,0,0,0a.09.09,0,0,1,0,0,.14.14,0,0,0,0,.06v0s0,0,0,0,0,0,0,0,0,0,0,0l0,0s0,0,0,0,0,0,0,0,0,0,0,0h-.07l-.05.06h0l0,0,0,0h0l0,0h-.2Z"/><path class="cls-17" d="M69,58.84a.07.07,0,0,1,0-.05.11.11,0,0,1,0,0,.41.41,0,0,1,0-.11,1.36,1.36,0,0,1,0-.2v0l0-.11v0s0,0,0,0a.19.19,0,0,1,0-.07s0-.1,0-.14.07-.18.11-.27.09-.09.14,0a1.18,1.18,0,0,0,.11.19l.06.09a.57.57,0,0,1,.08.13l0,0,0,0,0,.07.12.19h0l0,0h0l0,.06h0v.08a.51.51,0,0,1,0,.13v.06l0,.06a.2.2,0,0,1-.06.07l0,0a.21.21,0,0,0,0,.06l0,0h0a.05.05,0,0,0,0,0l0,0h-.07l-.07,0h-.14l-.1,0-.08,0s0,0-.06-.06A.37.37,0,0,1,69,58.84Z"/><path class="cls-17" d="M68.23,57.1l.2,0,.21.06h0l.12.05.28.16a2.2,2.2,0,0,1,.25.17c.07.06.07.12,0,.14l-.22.07-.1,0-.14,0-.09,0h0l0,0-.22.09h0l-.08,0h-.18a.31.31,0,0,1-.1-.05l0,0h0l0,0,0,0a.21.21,0,0,0,0-.06h-.09s0,0,0,0a0,0,0,0,1,0,0l0,0,0,0a.13.13,0,0,1,0-.06.13.13,0,0,0,0-.06v-.08l0-.06v0l0-.05h0v0l.09-.07.1,0,0,0h.15Z"/><path class="cls-17" d="M70.2,57h0l0,0h-.08l0,0,0,0h0l0,0h0l0,0,0,0a.6.6,0,0,0-.08.08,1.28,1.28,0,0,0-.14.23s0,.07-.07.08h0l0,0a.94.94,0,0,1-.12-.22.61.61,0,0,1-.05-.12v-.05a.07.07,0,0,1,0,0v-.09h0v-.19a.13.13,0,0,1,0-.06,1,1,0,0,1,.11-.36h0s0,0,0,0l0-.05,0,0a.08.08,0,0,1,0,0h0l0,0,.06,0,0,0H70l0,0,0,.06h0l0,0s0,0,.06,0,0,0,0,0,0,0,.06,0a.08.08,0,0,1,0,.07s0,.05,0,.07l0,.08v.06a.28.28,0,0,0,0,.09v.1h0v0h0l0,0h0Z"/><path class="cls-35" d="M69.63,57.71a.27.27,0,0,1-.53,0,.27.27,0,1,1,.53,0Z"/><path class="cls-17" d="M65.4,58a.32.32,0,0,1,0-.14.77.77,0,0,1,0-.15v0s0-.06,0-.09a.86.86,0,0,0,0-.23.42.42,0,0,0,0-.1l-.08-.1s0-.06,0-.08,0-.05.07-.05l.12,0h.13l.13,0,.17.08.11,0,.05,0,0,0,.13.1.1.12h0a.24.24,0,0,1,.06.08.25.25,0,0,1,0,.07h0a.41.41,0,0,1,0,.11v.07a.2.2,0,0,1,0,.07.31.31,0,0,1,0,.13.14.14,0,0,1,0,.06l0,0-.06,0,0,0,0,0s0,0,0,0h0a.05.05,0,0,0,0,0h-.06l0,0-.06,0H65.7l-.09,0a.09.09,0,0,1-.07,0,.1.1,0,0,1-.06,0A.29.29,0,0,1,65.4,58Z"/><path class="cls-17" d="M64.12,57.64a.69.69,0,0,1,.24-.24h0l.08-.06.06,0h0l0,0,.12-.08.13-.06a.35.35,0,0,1,.14,0,.07.07,0,0,1,.08,0,.07.07,0,0,1,0,0,.43.43,0,0,0,0,.05l0,.1s0,.06,0,.09,0,.06,0,.09a.57.57,0,0,0,0,.13v0h0v0a.28.28,0,0,1,0,.09,1.09,1.09,0,0,1,0,.26h0a.19.19,0,0,1,0,.07v0s0,0,0,0h0l0,0,0,0h0l0,0-.09,0h-.38l-.06,0a.16.16,0,0,0,0-.07l-.06,0s0,0,0-.06l0-.1a.36.36,0,0,1,0-.2A.43.43,0,0,1,64.12,57.64Z"/><path class="cls-17" d="M65.08,56v.14a.77.77,0,0,0,0,.15v.12a1.69,1.69,0,0,0,0,.23s0,.07,0,.11a.41.41,0,0,0,.06.11.13.13,0,0,1,0,.1s0,0-.09,0l-.12,0h-.06l0,0h0l-.12-.06-.15-.11-.09-.08,0-.05,0,0a.64.64,0,0,1-.1-.13l-.07-.15h0a.36.36,0,0,1,0-.09.31.31,0,0,1,0-.08h0a.37.37,0,0,1,0-.11.64.64,0,0,0,0-.07.14.14,0,0,0,0-.06.83.83,0,0,1,.07-.13l0,0,0,0h.07l0,0,0,0a.09.09,0,0,1,.06,0h.15l0,0,0,0,.08,0,0,0,.08,0a.43.43,0,0,1,.11.11A.42.42,0,0,1,65.08,56Z"/><path class="cls-17" d="M66.1,57.48,66,57.41a.57.57,0,0,0-.13-.08v0h0l0,0-.25-.11h-.07l-.07,0-.14,0s-.07,0-.08,0,0,0,0,0,0,0,0,0l.19-.14h0l0,0,0,0,.16-.09.12,0,.06,0h.06a1.4,1.4,0,0,1,.36,0h.16l.05,0h0l0,0h0l0,0a.68.68,0,0,1,.18.23l0,0s0,0,0,0,0,0,0,.05,0,0,0,.06v.14l0,0v0a.06.06,0,0,1,0,0s0,0,0,0h-.07l0,.06s0,0,0,0h0l0,0,0,0h0l0,0h0a.21.21,0,0,1-.08,0h-.08Z"/><path class="cls-17" d="M64.83,58.29s0,0,0,0v-.05a.41.41,0,0,1,0-.11,1.23,1.23,0,0,1,0-.2v0l0-.12v-.07a.14.14,0,0,1,0-.07.58.58,0,0,1,0-.14c0-.09.07-.18.11-.27s.09-.09.13,0l.12.19.06.09.08.12,0,0,0,0,0,.07.12.19h0v0h0l0,.06h0v.09a.51.51,0,0,1,0,.13,0,0,0,0,1,0,0v0a.14.14,0,0,0,0,.06.2.2,0,0,1-.06.07l0,0,0,0a.1.1,0,0,1,0,.05l0,0a.05.05,0,0,0,0,0l0,0h-.07s0,0-.08,0h-.13l-.1,0-.08,0-.06-.06A.37.37,0,0,1,64.83,58.29Z"/><path class="cls-17" d="M64,56.55l.2,0a.66.66,0,0,1,.2.06h0l.12,0,.28.16a2.2,2.2,0,0,1,.25.17c.07.06.07.12,0,.14l-.22.06-.1,0-.14.05-.09,0h0l0,0-.22.08h0l-.07,0H64l-.11,0,0,0h0v0l0,0s0,0,0-.06h-.09l0,0a0,0,0,0,1,0,0l0,0,0,0a.07.07,0,0,1,0-.06s0,0,0-.06v0s0,0,0,0l0-.06,0,0,0,0h0v0l.09-.07.1,0,0,0H64Z"/><path class="cls-17" d="M66,56.49h0s0,0,0,0h-.09l0,0,0,0h-.05l0,0h0l0,0-.05,0-.08.08a.88.88,0,0,0-.14.23s0,.07-.07.08h0s0,0,0,0a1.59,1.59,0,0,1-.13-.22s0-.08,0-.12v-.1a.07.07,0,0,1,0,0v0h0v-.25a1.27,1.27,0,0,1,.12-.36h0l0-.05,0,0,0-.05,0,0h0l.06,0,.06,0h.38l0,0,0,.06h0l0,0s0,0,.06,0,0,0,0,0,0,0,.06,0a.09.09,0,0,1,0,.07s0,0,0,.07a.31.31,0,0,1,0,.08s0,0,0,.06,0,.06,0,.09a.08.08,0,0,1,0,0s0,0,0,0v0h0v0h0l0,.05h0Z"/><path class="cls-35" d="M65.42,57.16a.27.27,0,1,1-.27-.27A.27.27,0,0,1,65.42,57.16Z"/><path class="cls-5" d="M68.55,60.74l0-.14c0-.05,0-.1,0-.15v0s0-.06,0-.09a1.55,1.55,0,0,0,0-.23l0-.1a.39.39,0,0,0-.08-.1s0-.06,0-.08,0,0,.07-.06h.25l.13,0,.17.08.11.05,0,0,0,0,.13.1.11.12h0l.06.09,0,.07h0a.37.37,0,0,1,0,.11s0,0,0,.07v.07a.65.65,0,0,1,0,.13.08.08,0,0,1,0,.05s0,0,0,0l-.06,0,0,0,0,0a.07.07,0,0,1,0,0h-.08l0,0h0l0,0L69,61h-.12l-.09,0a.09.09,0,0,1-.07,0l-.06-.05A.29.29,0,0,1,68.55,60.74Z"/><path class="cls-5" d="M67.27,60.34a.69.69,0,0,1,.24-.24h0l.08-.06,0,0h0l0,0,.12-.08a.35.35,0,0,1,.14-.06.31.31,0,0,1,.13,0,.07.07,0,0,1,.08,0,.06.06,0,0,1,0,0,.13.13,0,0,1,0,.06l0,.1v.18s0,.08,0,.13v0h0v.16c0,.09,0,.18,0,.26h0a.14.14,0,0,0,0,.07v0h0l0,0,0,0h0l0,0,0,0-.09,0h-.08l-.07,0h-.23a.05.05,0,0,1,0,0l0-.06-.06-.05,0-.06a.54.54,0,0,1,0-.11.42.42,0,0,1,0-.19A.52.52,0,0,1,67.27,60.34Z"/><path class="cls-5" d="M68.23,58.73a.65.65,0,0,1,0,.14.77.77,0,0,0,0,.15v.11a1,1,0,0,0,0,.24.45.45,0,0,0,0,.11.41.41,0,0,0,.06.11s0,.07,0,.09,0,0-.08,0l-.12,0-.07,0H68l-.12-.06-.15-.11-.09-.08,0,0,0,0a1.13,1.13,0,0,1-.1-.13L67.35,59h0l0-.09s0-.06,0-.08h0a.37.37,0,0,1,0-.11.19.19,0,0,0,0-.07l0-.06.06-.13,0,0s0,0,0,0h.06l0,0,0,0,.06,0h.15l0,0,.06,0,.07,0,0,0,.08,0a.18.18,0,0,1,.07.05l0,.06A.33.33,0,0,1,68.23,58.73Z"/><path class="cls-5" d="M69.25,60.18l-.12-.07L69,60l0,0h0l0,0-.25-.1h-.07l-.08,0-.13,0c-.05,0-.08,0-.09-.05s0,0,0,0a.1.1,0,0,1,0-.05l.2-.15h0l0,0,0,0,.17-.09.11,0,.06,0H69a1.4,1.4,0,0,1,.36,0h.17l0,0h0s0,0,0,0h0l0,0a.87.87,0,0,1,.19.23v0a.07.07,0,0,1,0,0,.14.14,0,0,0,0,.06v.14l0,0v0s0,0,0,0,0,0,0,0h-.06l-.06.05,0,0h0l0,0,0,0h0l0,0h-.2Z"/><path class="cls-5" d="M68,61a.07.07,0,0,1,0-.05.13.13,0,0,1,0-.06.34.34,0,0,1,0-.1.64.64,0,0,1,0-.2v0l0-.12v-.07a.64.64,0,0,1,0-.07s0-.1,0-.14l.11-.27c0-.08.09-.09.14,0a.76.76,0,0,0,.12.19l0,.09.09.12,0,0,0,0,0,.07.12.19h0l0,0h0a.16.16,0,0,1,0,.06h0a.27.27,0,0,1,0,.09.59.59,0,0,1,0,.13v0a0,0,0,0,0,0,0s0,0,0,.06a.18.18,0,0,1,0,.07l-.06,0,0,.05,0,0,0,0,0,0s0,0,0,0h-.07l-.07,0s-.06,0-.08,0H68.3l-.1,0-.08,0-.06-.06A.49.49,0,0,1,68,61Z"/><path class="cls-5" d="M67.17,59.25a.65.65,0,0,1,.2,0,.83.83,0,0,1,.21.06h0l.11,0,.28.15.25.18c.08.06.07.12,0,.14l-.22.06-.1,0-.14,0-.09,0h0l0,0-.23.08h0l-.08,0h-.18a.31.31,0,0,1-.1,0l0,0h0l0,0,0,0,0-.06h-.1l0,0s0,0,0,0l0,0s0,0,0,0a.06.06,0,0,1,0-.06.13.13,0,0,0,0-.06v-.08l0-.06,0,0,0,0h0l0,0a.27.27,0,0,1,.08-.07l.1-.05,0,0h.15Z"/><path class="cls-5" d="M69.14,59.19h0l0,0H69l0,0h0l0,0h0l0,0h0l0,0,0,0-.08.08a1,1,0,0,0-.14.23.08.08,0,0,1-.07.07h0l0,0a1.55,1.55,0,0,1-.12-.22.61.61,0,0,1,0-.12v-.1a.43.43,0,0,1,0,0v0h0a.53.53,0,0,1,0-.13V59a.85.85,0,0,1,.12-.36h0l0,0,0-.06,0,0,0,0h0a.1.1,0,0,1,0,0l.06,0h.38l0,0,0,.06h0l0,0a.07.07,0,0,1,.06,0l0,0s0,0,.06.05a.09.09,0,0,1,0,.07s0,.05,0,.07a.19.19,0,0,0,0,.08v.06a.28.28,0,0,0,0,.09V59h0v0h0l0,0h0S69.15,59.19,69.14,59.19Z"/><path class="cls-35" d="M68.57,59.86a.27.27,0,0,1-.53,0,.27.27,0,1,1,.53,0Z"/><path class="cls-5" d="M67.38,58.43a.32.32,0,0,1,0-.14.77.77,0,0,1,0-.15v0a.28.28,0,0,1,0-.09,1.55,1.55,0,0,0-.06-.23.42.42,0,0,0,0-.1l-.08-.1a.15.15,0,0,1,0-.08s0-.05.08-.05l.12,0h.13a.27.27,0,0,1,.12,0,.56.56,0,0,1,.18.07l.11.06,0,0,0,0a.63.63,0,0,1,.12.1.69.69,0,0,1,.11.13h0l.06.08a.25.25,0,0,1,0,.07h0a.41.41,0,0,1,0,.11v.07a.2.2,0,0,1,0,.07.39.39,0,0,1,0,.14l0,0,0,0-.06,0,0,0,0,0s0,0,0,0h0l0,0h-.09l-.06,0h-.12l-.09,0-.07,0-.06,0A.39.39,0,0,1,67.38,58.43Z"/><path class="cls-5" d="M66.1,58a.69.69,0,0,1,.24-.24h0l.08-.06.06,0h0l0,0,.13-.09.13-.06a.35.35,0,0,1,.14,0,.07.07,0,0,1,.08,0,.07.07,0,0,1,0,0,.11.11,0,0,1,0,.05l0,.1s0,.06,0,.09,0,.06,0,.09A.57.57,0,0,0,67,58v0h0v.14a2,2,0,0,1,0,.26h0s0,0,0,.07v0l0,0h0s0,0,0,0l0,0h0l0,0-.09,0H66.3a.07.07,0,0,1,0,0l0-.07-.06,0s0,0,0-.06a.47.47,0,0,1,0-.1.49.49,0,0,1,0-.2A.48.48,0,0,1,66.1,58Z"/><path class="cls-5" d="M67.06,56.42v.14a.77.77,0,0,0,0,.15v0s0,.06,0,.09a1.77,1.77,0,0,0,0,.23s0,.07,0,.11a.54.54,0,0,0,0,.11.07.07,0,0,1-.06.13l-.12,0h-.09l0,0a.34.34,0,0,1-.12-.06l-.15-.11-.09-.08,0,0,0-.05-.09-.13a.91.91,0,0,1-.07-.14h0a.36.36,0,0,1,0-.09.31.31,0,0,1,0-.08h0a.41.41,0,0,1,0-.11s0,0,0-.06a.25.25,0,0,0,0-.07.83.83,0,0,1,.07-.13l0,0,0,0h.07l0,0,0,0,.06,0h.12l0,0h0l0,0,.08,0,0,0,.08,0s0,0,.06.05l0,.06A.42.42,0,0,1,67.06,56.42Z"/><path class="cls-5" d="M68.08,57.87,68,57.8l-.13-.08,0,0h0l0,0-.25-.11H67.4l-.07,0-.14,0s-.07,0-.08,0,0,0,0,0,0,0,0,0l.19-.14h0l0,0,0,0,.16-.08.12,0,.06,0h.06a1.4,1.4,0,0,1,.36,0h.17l0,0h0l0,0,0,0h0l0,0a.68.68,0,0,1,.18.23l0,0v0a.09.09,0,0,1,0,.05.14.14,0,0,0,0,.06s0,0,0,0v.1l0,0s0,0,0,0,0,0,0,0,0,0-.05,0h-.07l0,.06h-.05l0,0,0,0h0l0,0h-.2Z"/><path class="cls-5" d="M66.81,58.68s0,0,0,0v-.05a.41.41,0,0,1,0-.11,1.36,1.36,0,0,1,0-.2v0l0-.11s0,0,0,0,0,0,0,0l0-.07.05-.14a2,2,0,0,1,.11-.26c0-.09.09-.1.13,0l.12.19.06.09.08.12,0,0,0,0,.05.07.12.19h0v0h0l0,.06h0v.09a.51.51,0,0,1,0,.13v.06l0,.06a.2.2,0,0,1-.06.07l0,0,0,.06,0,0,0,0a.08.08,0,0,0,0,0l0,0h-.07l-.08,0h-.13L67,59l-.08,0-.06-.06A.37.37,0,0,1,66.81,58.68Z"/><path class="cls-5" d="M66,56.94l.2,0a1.17,1.17,0,0,1,.2.06h0l.12,0,.28.16a2.2,2.2,0,0,1,.25.17c.07.06.07.12,0,.14l-.22.07-.1,0-.14.05-.09,0h0l0,0-.22.09h0l-.07,0H66l-.11,0,0,0h0v0l0,0s0,0,0-.06h-.09l0,0,0,0s0,0,0,0l0,0s0,0,0-.07,0,0,0-.06v0s0,0,0,0,0,0,0-.06l0,0,0,0h0v0l.09-.07.1-.05,0,0H66Z"/><path class="cls-5" d="M68,56.88h0l0,0h-.09l0,0,0,0h0l0,0h0l-.05,0,0,0-.08.08a1.09,1.09,0,0,0-.14.23s0,.07-.07.08h0s0,0,0,0a1.59,1.59,0,0,1-.13-.22s0-.08,0-.12v0a207313368720.75,207313368720.75,0,0,1,0-.1v0h0V56.7a1.27,1.27,0,0,1,.12-.36h0l0-.05,0,0,0,0a.08.08,0,0,1,0,0h0l.05,0,.06,0,0,0h.34s0,0,0,0,0,0,0,0l0,0h0s0,0,.06,0a.08.08,0,0,0,0,0s0,0,.06.06a.06.06,0,0,1,0,.06s0,0,0,.07a.31.31,0,0,1,0,.08s0,0,0,.06,0,.06,0,.1a0,0,0,0,1,0,0s0,0,0,0v0h0v0h0l0,.05h0Z"/><path class="cls-35" d="M67.4,57.55a.27.27,0,0,1-.53,0,.27.27,0,1,1,.53,0Z"/><path class="cls-17" d="M67.82,56.48l0-.14c0-.05,0-.1,0-.15v0s0-.06,0-.09a1.42,1.42,0,0,0-.05-.22.54.54,0,0,0,0-.11.32.32,0,0,0-.08-.09s0-.06,0-.09,0,0,.07-.05h.25l.13,0,.18.07.1.06,0,0,.05,0,.12.11.11.12h0l.06.08,0,.08h0a.36.36,0,0,1,0,.1.15.15,0,0,1,0,.07v.07l0,.14,0,0a.08.08,0,0,1,0,0s0,0-.05,0l0,0,0,0a.08.08,0,0,1,0,0h0l0,0,0,0H68.3l-.06,0h-.07l0,0H68l-.07,0-.06,0A.57.57,0,0,1,67.82,56.48Z"/><path class="cls-17" d="M66.54,56.07a.87.87,0,0,1,.24-.23l0,0,.08,0,.05,0h0l0,0,.12-.08.14-.07.13,0s.07,0,.08,0,0,0,0,0a.09.09,0,0,1,0,0,.44.44,0,0,0,0,.1.34.34,0,0,0,0,.1v.08a.66.66,0,0,1,0,.14v0h0a.07.07,0,0,1,0,0v.1a1.87,1.87,0,0,1,0,.25h0a.64.64,0,0,1,0,.07v0s0,0,0,0h0l0,0,0,0h0l0,0-.05,0-.09,0h-.2a.07.07,0,0,1-.06,0h-.12a.07.07,0,0,1,0,0,.25.25,0,0,1,0-.07l-.07,0,0-.05a.54.54,0,0,0,0-.11.46.46,0,0,1,0-.2A.68.68,0,0,1,66.54,56.07Z"/><path class="cls-17" d="M67.5,54.46a.38.38,0,0,1,0,.15.77.77,0,0,1,0,.15v0s0,.06,0,.09a.88.88,0,0,0,0,.23.36.36,0,0,0,0,.11.61.61,0,0,0,0,.12s0,.07,0,.09,0,0-.08,0h-.12l-.06,0h-.07l-.11-.06a1,1,0,0,1-.16-.12.3.3,0,0,1-.08-.08s0,0,0,0l0,0a.55.55,0,0,1-.09-.14.64.64,0,0,1-.08-.14h0l0-.1a.31.31,0,0,0,0-.08h0a.36.36,0,0,1,0-.1s0-.05,0-.07l0-.07.06-.12,0,0a.05.05,0,0,1,0,0l.06,0,0,0,0,0a.07.07,0,0,1,.06,0h.14l0,0,0,0,.07,0,0,0,.09,0,.06,0,0,.06A.28.28,0,0,1,67.5,54.46Z"/><path class="cls-17" d="M68.52,55.91l-.12-.07-.13-.08h-.06l0,0-.25-.1h-.07l-.07,0-.14,0a.13.13,0,0,1-.09-.05v0l0,0,.2-.14h0a.1.1,0,0,0,0,0l.17-.08.11-.05.06,0h.06a1.05,1.05,0,0,1,.36,0h0l.12,0h.14l0,0h0a1.37,1.37,0,0,1,.19.23v0a.11.11,0,0,1,0,.05s0,0,0,.07v0a.06.06,0,0,1,0,0,0,0,0,0,1,0,0s0,0,0,0l0,0s0,0,0,0a0,0,0,0,0,0,0,.09.09,0,0,1-.06,0h0l0,0-.06.05h0l0,0h0l0,0h-.2Z"/><path class="cls-17" d="M67.25,56.73s0,0,0-.06a.43.43,0,0,1,0-.05s0-.07,0-.1l0-.2v0l0-.12v0s0,0,0,0a.14.14,0,0,0,0-.07.58.58,0,0,0,.05-.14l.11-.26c0-.09.09-.1.14,0l.12.19.06.08.08.13,0,0,0,0,0,.07.12.19h0l0,0v0h0l0,.06h0a.14.14,0,0,1,0,.09s0,.08,0,.12v.07a.14.14,0,0,1,0,.06l0,.07-.06,0L68,57a.1.1,0,0,1,0,0l0,0,0,0s0,0,0,0l0,0h0l-.07,0H67.6l0,0-.1,0-.07,0-.07-.06A1,1,0,0,1,67.25,56.73Z"/><path class="cls-17" d="M66.45,55l.2,0,.2.06h0l.12.06a2.34,2.34,0,0,1,.27.15l.25.18c.08.06.07.12,0,.14l-.22.06-.1,0-.14.06-.08,0,0,0,0,0-.23.08h0l-.08,0H66.4l-.11,0,0,0h0l0,0,0,0,0-.05H66s0,0,0,0a.06.06,0,0,0,0,0l0,0,0,0a.06.06,0,0,1,0-.06.13.13,0,0,0,0-.06v-.08l0-.07,0,0,0,0h0l0,0,.08-.08.1,0h.09Z"/><path class="cls-17" d="M68.41,54.93h0l0,0h0l0,0h0l0,0,0,0h0l0,0h0l0,0,0,0,0,0-.09.09a.8.8,0,0,0-.13.22.14.14,0,0,1-.07.08h0l0,0a1.05,1.05,0,0,1-.12-.21.61.61,0,0,1,0-.12v-.05s0,0,0,0V55h0a.62.62,0,0,1,0-.13v-.06s0,0,0-.06a.81.81,0,0,1,.12-.36h0l0-.06,0,0,0,0,0,0h0l0,0,.06,0,0,0h.34l0,0,0,0,0,0h0a.09.09,0,0,1,.06,0s0,0,0,0,0,0,.06.06a.15.15,0,0,1,0,.07.15.15,0,0,0,0,.07s0,.05,0,.08v.05s0,.07,0,.1v.11h0v0l0,0h0S68.42,54.92,68.41,54.93Z"/><path class="cls-35" d="M67.84,55.59a.27.27,0,1,1-.26-.26A.27.27,0,0,1,67.84,55.59Z"/><path class="cls-17" d="M66.7,59l-.11.09-.13.09h0l-.07.06a1.22,1.22,0,0,0-.17.15l-.07.09a.33.33,0,0,0,0,.12s0,.07,0,.07a.07.07,0,0,1-.08,0,.36.36,0,0,1-.07-.1s0,0,0-.06l0,0s0,0,0,0a.5.5,0,0,1,0-.13c0-.06,0-.12,0-.19V59a.09.09,0,0,1,0,0v-.06a.94.94,0,0,1,0-.16.88.88,0,0,1,0-.15h0l0-.09a.16.16,0,0,1,0-.07h0a.16.16,0,0,1,.08-.06l.07,0,.06,0,.14,0h.1l0,0h.08l.06,0,0,0,0,0,0,0a91574283000.86,91574283000.86,0,0,0,0,.06v.07l0,.06a.09.09,0,0,1,0,0l0,.09a.17.17,0,0,1,0,.07.24.24,0,0,1,0,.08A.33.33,0,0,1,66.7,59Z"/><path class="cls-17" d="M67,60.31a.8.8,0,0,1-.32-.1h0l-.09,0-.06,0H66.4L66.27,60l-.12-.09a.41.41,0,0,1-.09-.1s0-.07,0-.09l0,0,0,0,.1,0,.09,0,.08,0,.11-.07h0l0,0,.09,0a1.17,1.17,0,0,1,.24-.09h0l.07,0h.1l0,0h0l0,0,0,0,.07.07a.18.18,0,0,1,0,.07s0,0,0,.06l0,0a0,0,0,0,0,0,0l0,0a.06.06,0,0,0,0,0s0,0,0,0l0,0a.07.07,0,0,1,0,.06l0,.07s0,.06,0,.09,0,0,0,.05l-.07.09a.36.36,0,0,1-.16.12A.52.52,0,0,1,67,60.31Z"/><path class="cls-17" d="M65.08,60.23l.13-.07.14,0h0l.08,0a1,1,0,0,0,.21-.1l.09-.07a.61.61,0,0,0,.07-.1s.05-.07.08-.07a.07.07,0,0,1,.06.06.54.54,0,0,1,.05.11s0,0,0,.07V60a.62.62,0,0,1,0,.13l0,.19,0,.12,0,.05s0,0,0,.06,0,.09-.07.14l-.09.13h0l-.06.07-.06.06h0l-.1,0h-.33l0,0,0-.05h-.07a.1.1,0,0,1,0,0,.06.06,0,0,1,0,0l0,0,0,0a0,0,0,0,1,0,0s0,0,0,0,0,0,0-.07a.19.19,0,0,1,0-.07v0s0-.06,0-.09,0,0,0-.07a.16.16,0,0,1,0-.07A.29.29,0,0,1,65.08,60.23Z"/><path class="cls-17" d="M65.87,58.64a.61.61,0,0,1,0,.14.86.86,0,0,1,0,.16V59h0v.05a1.39,1.39,0,0,0,0,.27v.07s0,.05,0,.07l0,.14a.17.17,0,0,1,0,.1l0,0-.06,0-.23-.1h0l0,0,0,0-.15-.11-.1-.07,0-.05,0,0,0,0A1.1,1.1,0,0,1,65,59h0a.36.36,0,0,1,0-.11l0,0a.11.11,0,0,0,0,0h0V58.7h0v0a1.08,1.08,0,0,1,.11-.28v0l0,0,0,0h.07l0,0,0,0,0,0h.15a.09.09,0,0,1,0,0l0,0s0,0,0,0l.08,0h0l0,0,0,0h0l0,0,0,0h0a.16.16,0,0,1,0,.07v0h0v0h0A.64.64,0,0,0,65.87,58.64Z"/><path class="cls-17" d="M67.19,59.37l0,0-.05,0L67,59.5l-.18.07h0l-.12,0h-.15l-.14,0-.29,0c-.09,0-.13,0-.08-.11l.11-.2a.41.41,0,0,1,.05-.09l.07-.13,0,0,0,0a.3.3,0,0,1,0-.08,1.28,1.28,0,0,1,.11-.2h0v0h0l0-.06h0l.08,0,.11,0h.13a.15.15,0,0,1,.09,0l0,0h.12s0,0,0,0h.08l0,0h0v0s0,.06,0,.08a.43.43,0,0,1,0,.07h0v0a.43.43,0,0,0,0,.11v.08a.11.11,0,0,1,0,.08A.36.36,0,0,1,67.19,59.37Z"/><path class="cls-17" d="M66,60.91a1.08,1.08,0,0,1-.08-.19,1.18,1.18,0,0,1,0-.2v0s0-.09,0-.13,0-.22,0-.32,0-.2,0-.3.07-.12.13-.05l.16.16.08.07.11.1.08.06,0,0,0,0,.19.16h0a.1.1,0,0,1,0,.06.12.12,0,0,1,0,0h0l0,0v0a.49.49,0,0,1,0,.12v0h0v0h0v0l0,0,0,.05v0h0s0,0,0,0v0a0,0,0,0,1,0,0s0,0,0,0,0,0,0,0a0,0,0,0,1,0,0l-.06,0-.06,0h0l0,0h-.21l-.1,0a.35.35,0,0,1-.09-.07l0,0,0,0Z"/><path class="cls-17" d="M65.05,59.21h0l0,0h0l0,0,0,0,0,0,0,0h0l0,0h0l.06,0,0,0,.12,0a.75.75,0,0,0,.26,0,.13.13,0,0,1,.1,0,.05.05,0,0,1,0,0l0,.06a2.39,2.39,0,0,1-.13.21l-.08.1h0l0,0,0,0,0,0,0,0h0l-.11.07-.06,0,0,0a1.16,1.16,0,0,1-.37.07h-.24a.09.09,0,0,1-.06,0,.1.1,0,0,1,0,0l0,0,0,0,0,0,0,0,0-.06s0,0,0,0v0a.17.17,0,0,1,0-.05.06.06,0,0,1,0-.06s0,0,0-.06v0a.06.06,0,0,0,0,0,.15.15,0,0,1,0-.07l0,0s0-.05,0-.08a.05.05,0,0,1,0,0l.07,0,.06-.06,0,0,.08-.06,0,0h.21Z"/><path class="cls-35" d="M65.91,59.39a.27.27,0,1,1-.11.36A.27.27,0,0,1,65.91,59.39Z"/><path class="cls-27" d="M82.79,24.57A11.39,11.39,0,0,0,83.58,30,5.48,5.48,0,0,0,85,32.52a8.76,8.76,0,0,0,3.23-.1,24.53,24.53,0,0,0,1.85-4.73,8.37,8.37,0,0,0-1-4.91C87.9,21.72,83.18,21.4,82.79,24.57Z"/><path class="cls-33" d="M89.06,22.78a4.57,4.57,0,0,0-2.42-.72c0,3.52.06,7,0,10.56a4.39,4.39,0,0,0,1.59-.2,24.53,24.53,0,0,0,1.85-4.73A8.37,8.37,0,0,0,89.06,22.78Z"/><path class="cls-34" d="M83.52,23.51a13.38,13.38,0,0,0,3,.54c.53-.09,2.5-1,2.79-.61a6.13,6.13,0,0,1,.72,3.5l.49-.05s.64-4.6-1.35-5.29S83,21.13,82.6,22.91a14.74,14.74,0,0,0,0,4.37l.46.07A8.35,8.35,0,0,1,83.52,23.51Z"/><path class="cls-27" d="M83.06,27.4a.63.63,0,0,0-.85-.18c-.25.14-.29.56-.28.76a1.16,1.16,0,0,0,.33.67,2.36,2.36,0,0,0,.42.36.93.93,0,0,0,.38.17.48.48,0,0,0,.4-.1Z"/><path class="cls-27" d="M89.89,27.11a.61.61,0,0,1,.82-.27c.27.11.35.52.37.72a1.13,1.13,0,0,1-.26.7,2.07,2.07,0,0,1-.38.4.94.94,0,0,1-.35.22.49.49,0,0,1-.42-.06Z"/><path class="cls-2" d="M86.73,34.77l2-.8,1.41,1.34A4.08,4.08,0,0,1,88.42,37S86.69,36.08,86.73,34.77Z"/><path class="cls-2" d="M86.73,34.78l-1.79-.68-1.15,1a2.45,2.45,0,0,0,1.26,2A5.33,5.33,0,0,0,86.73,34.78Z"/><path class="cls-34" d="M86.91,35.61a10.77,10.77,0,0,1,2.2-.85c.32.06.64,1.08.51,1.66a2.09,2.09,0,0,1-.78,1.13c-.3.18-1.82-1.24-1.82-1.24Z"/><g class="cls-36"><path class="cls-34" d="M88.27,36.75A4,4,0,0,1,87,36.28v0s1.52,1.42,1.82,1.24a2.44,2.44,0,0,0,.67-.8A4.68,4.68,0,0,1,88.27,36.75Z"/></g><path class="cls-34" d="M86.73,35.61a10.77,10.77,0,0,0-2.2-.85c-.32.06-.64,1.08-.51,1.66a2.09,2.09,0,0,0,.78,1.13c.3.18,1.82-1.24,1.82-1.24Z"/><path class="cls-37" d="M84.26,37a2.21,2.21,0,0,0,.54.58c.3.18,1.82-1.24,1.82-1.24l0-.14A4.53,4.53,0,0,1,84.26,37Z"/><rect class="cls-34" x="86.46" y="35.45" width="0.86" height="0.98" rx="0.4"/><path class="cls-37" d="M87.22,35.45h0a1.08,1.08,0,0,1-.24.61.69.69,0,0,1-.52.27h0a.09.09,0,0,0,.09.1h.67a.09.09,0,0,0,.1-.1v-.78A.09.09,0,0,0,87.22,35.45Z"/><path class="cls-22" d="M87,35.73a.17.17,0,0,1-.17.17.17.17,0,0,1-.16-.17.17.17,0,1,1,.33,0Z"/><path class="cls-38" d="M87.16,48.71s0,7.91,0,9.49"/><path class="cls-17" d="M91.07,42.16,91,42s0-.09,0-.13v0a.25.25,0,0,1,0-.08,1.17,1.17,0,0,0,0-.2.36.36,0,0,0,0-.09l-.07-.08s0,0,0-.07,0,0,.06,0h.22l.1,0,.16.06.09.05,0,0,0,0,.1.09a.47.47,0,0,1,.1.1h0l.05.07a.21.21,0,0,1,0,.07h0a.28.28,0,0,1,0,.09V42s0,0,0,.06a.5.5,0,0,1,0,.12.08.08,0,0,0,0,0l0,0-.05,0,0,0,0,0s0,0,0,0h-.06l0,0h-.06l0,0h-.18l-.06,0a.1.1,0,0,1,0,0A.41.41,0,0,1,91.07,42.16Z"/><path class="cls-17" d="M90,41.81a.8.8,0,0,1,.2-.21h0l.07-.05,0,0h0l0,0,.11-.07.12-.06.11,0s.06,0,.07,0a0,0,0,0,1,0,0,.09.09,0,0,1,0,0,.31.31,0,0,0,0,.08.28.28,0,0,0,0,.09.17.17,0,0,0,0,.07v.13h0v.05a.22.22,0,0,0,0,.08,1.43,1.43,0,0,1,0,.22h0a.13.13,0,0,1,0,.06v0s0,0,0,0h0l0,0,0,0h0l0,0-.08,0h-.33l0,0,0-.06-.06,0s0,0,0,0l0-.09a.52.52,0,0,1,0-.17A.49.49,0,0,1,90,41.81Z"/><path class="cls-17" d="M90.8,40.42a.62.62,0,0,1,0,.13s0,.08,0,.13h0a.19.19,0,0,1,0,.08.67.67,0,0,0,0,.2.34.34,0,0,0,0,.1l0,.1a.13.13,0,0,1,0,.08s0,0-.08,0h-.21l-.1,0-.13-.1L90.25,41l0,0,0,0a1,1,0,0,1-.08-.11L90,40.7h0a.19.19,0,0,1,0-.08.14.14,0,0,1,0-.07h0a.28.28,0,0,1,0-.09s0,0,0-.06l0-.05a.37.37,0,0,1,0-.11l0,0,0,0h.06l0,0,0,0a.05.05,0,0,1,0,0h.12l0,0s0,0,0,0l.06,0,0,0,.07,0,0,0,0,0A.65.65,0,0,1,90.8,40.42Z"/><path class="cls-17" d="M91.67,41.67l-.1-.06-.12-.07h0l0,0a.85.85,0,0,0-.22-.09h-.06l-.06,0-.12,0s-.06,0-.07,0a0,0,0,0,1,0,0s0,0,0,0l.17-.13h0l0,0,0,0,.14-.08.1,0h.1a1.13,1.13,0,0,1,.32,0H92l0,0h0v0a.74.74,0,0,1,.16.19v.05a.06.06,0,0,1,0,0s0,0,0,0a0,0,0,0,0,0,0v0a0,0,0,0,1,0,0s0,0,0,0l0,0a0,0,0,0,0,0,0s0,0,0,0l0,0h-.06l0,0h0l0,0h0l0,0h-.18Z"/><path class="cls-17" d="M90.58,42.37a.06.06,0,0,1,0,0,.11.11,0,0,1,0,0v-.09a.88.88,0,0,1,0-.17v0s0-.07,0-.1v-.06l0-.07a.76.76,0,0,0,0-.11c0-.08.07-.16.1-.23s.08-.09.12,0a1.4,1.4,0,0,0,.1.16l0,.08.07.11,0,0,0,0,0,.06a1.4,1.4,0,0,1,.1.16h0l0,0h0a.17.17,0,0,1,0,.05h0a.11.11,0,0,1,0,.08.45.45,0,0,1,0,.11v.05s0,0,0,0a.15.15,0,0,1,0,.06l0,0s0,0,0,0,0,0,0,0h0l0,0,0,0h0l-.07,0a.16.16,0,0,1-.07,0h0l0,0-.08,0-.07,0,0-.06A.35.35,0,0,1,90.58,42.37Z"/><path class="cls-17" d="M89.89,40.87l.17,0,.17,0h0l.1,0,.24.14c.07,0,.14.1.21.15s.06.1,0,.12l-.18.05-.09,0-.12.05-.07,0h0l0,0-.2.07h0l-.07,0h-.15l-.09,0,0,0h0v0l0,0,0,0h-.08l0,0a.06.06,0,0,0,0,0s0,0,0,0,0,0,0,0a0,0,0,0,1,0,0,.13.13,0,0,0,0-.06h0v-.05l0-.06,0,0,0,0h0v0l.07-.06.09,0,0,0h.14Z"/><path class="cls-17" d="M91.58,40.82h0l0,0h-.05l0,0h-.07l0,0h0l0,0,0,0,0,0-.07.07a.82.82,0,0,0-.12.2s0,.06-.06.06h0a.08.08,0,0,1,0,0,1.08,1.08,0,0,1-.11-.18s0-.07,0-.11v0a.06.06,0,0,0,0,0V40.9h0v-.21a.89.89,0,0,1,.11-.31h0s0,0,0,0l0,0,0,0,0,0h0l0,0,0,0,0,0h.29l0,0,0,0,0,0h0l0,0s0,0,0,0,0,0,0,.05a.06.06,0,0,1,0,.06s0,0,0,.06,0,0,0,.07,0,0,0,0,0,.06,0,.09v.06h0v0h0l0,0h0Z"/><path class="cls-35" d="M91.09,41.39a.23.23,0,1,1-.23-.22A.23.23,0,0,1,91.09,41.39Z"/></g></g></g></svg>